<svg width="24" height="24" viewBox="0 0 24 24" xmlns="http://www.w3.org/2000/svg"><path fill-rule="evenodd" clip-rule="evenodd" d="M3.82419 3.82418C4.11709 3.53129 4.59196 3.53129 4.88485 3.82418L12 10.9394L19.1151 3.82419C19.408 3.53129 19.8829 3.53129 20.1758 3.82418C20.4687 4.11707 20.4687 4.59195 20.1758 4.88484L13.0607 12L20.1758 19.1152C20.4687 19.4081 20.4687 19.8829 20.1758 20.1758C19.8829 20.4687 19.408 20.4687 19.1152 20.1758L12 13.0607L4.88485 20.1758C4.59196 20.4687 4.11708 20.4687 3.82419 20.1758C3.5313 19.8829 3.5313 19.408 3.82419 19.1152L10.9394 12L3.82419 4.88484C3.5313 4.59195 3.5313 4.11708 3.82419 3.82418Z"/></svg>