<svg width="280" height="280" viewBox="0 0 280 280" xmlns="http://www.w3.org/2000/svg"><path fill-rule="evenodd" clip-rule="evenodd" d="M109.978 226.824C66.0491 198.612 41.6449 165.776 36.7649 128.316C29.1679 70 81.319 41.4557 107.743 67.1026C134.168 92.7488 118.328 125.302 99.1941 134.2C80.0602 143.099 68.3591 140 70.4002 151.891C72.4413 163.782 99.6631 196.751 123.579 212.105C125.165 213.454 125.769 216.072 124.241 218.058C123.236 219.364 121.265 221.926 118.328 225.743C115.76 229.082 113.299 228.957 109.978 226.824Z"/><path fill-rule="evenodd" clip-rule="evenodd" d="M225.627 226.824C181.699 198.612 157.295 165.776 152.415 128.316C144.818 70 196.969 41.4557 223.393 67.1026C249.818 92.7488 233.978 125.302 214.844 134.2C195.71 143.099 184.008 140 186.05 151.891C188.091 163.782 215.313 196.751 239.229 212.105C240.815 213.454 241.419 216.072 239.891 218.058C238.886 219.364 236.915 221.926 233.978 225.743C231.41 229.082 228.949 228.957 225.627 226.824Z"/></svg>