<svg width="24" height="24" viewBox="0 0 24 24" xmlns="http://www.w3.org/2000/svg"><path fill-rule="evenodd" clip-rule="evenodd" d="M9.93418 2.93413C11.0125 1.85578 12.475 1.25 14 1.25H17C17.4142 1.25 17.75 1.58579 17.75 2V6C17.75 6.41421 17.4142 6.75 17 6.75H14M9.93418 2.93413C9.93417 2.93414 9.93416 2.93415 9.93414 2.93417C8.85578 4.0125 8.25 5.47502 8.25 7V9.25H6C5.58579 9.25 5.25 9.58579 5.25 10V14C5.25 14.4142 5.58579 14.75 6 14.75H8.25V22C8.25 22.4142 8.58579 22.75 9 22.75H13C13.4142 22.75 13.75 22.4142 13.75 22V14.75H16C16.3442 14.75 16.6441 14.5158 16.7276 14.1819L17.7276 10.1819C17.7836 9.95785 17.7333 9.72048 17.5912 9.53844C17.449 9.3564 17.231 9.25 17 9.25H13.75V7C13.75 6.93378 13.7763 6.87014 13.8233 6.82318M14 2.75C12.8728 2.75 11.7918 3.19777 10.9949 3.99477L10.9948 3.99481C10.1978 4.79183 9.75 5.87283 9.75 7V10C9.75 10.4142 9.41421 10.75 9 10.75H6.75V13.25H9C9.41421 13.25 9.75 13.5858 9.75 14V21.25H12.25V14C12.25 13.5858 12.5858 13.25 13 13.25H15.4144L16.0394 10.75H13C12.5858 10.75 12.25 10.4142 12.25 10V7C12.25 6.53579 12.4345 6.09073 12.7625 5.76262L12.7625 5.7626C13.0907 5.43435 13.5359 5.25 14 5.25H16.25V2.75H14Z"/></svg>