<svg width="24" height="24" viewBox="0 0 24 24" xmlns="http://www.w3.org/2000/svg"><path fill-rule="evenodd" clip-rule="evenodd" d="M7.25 12C7.25 9.37665 9.37665 7.25 12 7.25C14.6233 7.25 16.75 9.37664 16.75 12C16.75 14.6233 14.6233 16.75 12 16.75C9.37664 16.75 7.25 14.6233 7.25 12ZM12 8.75C10.2051 8.75 8.75 10.2051 8.75 12C8.75 13.7949 10.2051 15.25 12 15.25C13.7949 15.25 15.25 13.7949 15.25 12C15.25 10.2051 13.7949 8.75 12 8.75Z"/><path fill-rule="evenodd" clip-rule="evenodd" d="M8 3.75C5.65279 3.75 3.75 5.65279 3.75 8V16C3.75 18.3472 5.6528 20.25 8 20.25H16C18.3472 20.25 20.25 18.3472 20.25 16V8C20.25 5.6528 18.3472 3.75 16 3.75H8ZM2.25 8C2.25 4.82437 4.82437 2.25 8 2.25H16C19.1756 2.25 21.75 4.82436 21.75 8V16C21.75 19.1756 19.1756 21.75 16 21.75H8C4.82436 21.75 2.25 19.1756 2.25 16V8Z"/><path fill-rule="evenodd" clip-rule="evenodd" d="M18.0118 5.94145C18.3196 6.21855 18.3446 6.69277 18.0675 7.00064L18.0575 7.01175C17.7803 7.31962 17.3061 7.34456 16.9983 7.06745C16.6904 6.79034 16.6655 6.31612 16.9426 6.00825L16.9526 5.99714C17.2297 5.68927 17.7039 5.66434 18.0118 5.94145Z"/></svg>