<svg width="24" height="24" viewBox="0 0 24 24" xmlns="http://www.w3.org/2000/svg"><path fill-rule="evenodd" clip-rule="evenodd" d="M21.4734 4.41814C21.3925 4.35218 21.2969 4.30239 21.1907 4.27461C21.104 4.25172 21.0127 4.24423 20.9211 4.25398C20.891 4.25714 20.8613 4.26212 20.8322 4.26881C20.7909 4.27828 20.75 4.29135 20.7102 4.30809L1.72463 11.8024C1.40814 11.9273 1.2154 12.2496 1.25513 12.5876C1.29486 12.9255 1.5571 13.1943 1.89394 13.2425L8.25 14.1505V19C8.25 19.3039 8.43344 19.5778 8.71449 19.6935C8.99555 19.8092 9.31864 19.7439 9.53263 19.528L12.3413 16.6949L18.0765 20.619C18.2879 20.7636 18.5584 20.7904 18.794 20.69C19.0296 20.5896 19.1977 20.3759 19.2398 20.1233L21.7378 5.1354C21.7507 5.06566 21.7537 4.99364 21.7461 4.92143C21.7429 4.89122 21.7379 4.86144 21.7312 4.83221C21.7163 4.76728 21.6926 4.70358 21.6596 4.64292C21.6178 4.56539 21.5636 4.49769 21.5006 4.44133C21.4167 4.36602 21.3185 4.31216 21.2139 4.28113M15.498 7.97816L4.90913 12.158L8.8103 12.7153L15.498 7.97816ZM8.28331 13.2783C8.31088 13.1891 8.35466 13.107 8.4112 13.0354C8.42827 13.0137 8.44633 12.9932 8.46528 12.9739M8.28331 13.2783C8.26022 13.3528 8.24928 13.4297 8.24996 13.506C8.24997 13.5074 8.24998 13.5088 8.25 13.5102M9.75 14.9219V17.1782L11.0828 15.8338L9.75 14.9219ZM12.6818 15.1103C12.6751 15.1056 12.6683 15.101 12.6615 15.0965L10.3126 13.4893L19.9642 6.65279L17.9534 18.7173L12.6818 15.1103ZM9.43611 12.8896C9.39356 12.8592 9.34754 12.833 9.29857 12.8118C9.27363 12.801 9.24798 12.7914 9.22172 12.7833C9.17872 12.77 9.13496 12.7607 9.09097 12.7554"/></svg>