<svg width="24" height="24" viewBox="0 0 24 24" xmlns="http://www.w3.org/2000/svg"><path d="M16.2364 2.56757C13.4868 2.56757 11.2508 4.80355 11.2508 7.55318C11.2508 7.71841 11.2921 7.88005 11.3083 8.04168C7.90849 7.71661 4.90204 6.07869 2.86002 3.57331C2.76483 3.45298 2.61756 3.38832 2.46311 3.3991C2.31045 3.40988 2.17396 3.49788 2.09853 3.63078C1.66929 4.36892 1.42324 5.21842 1.42324 6.13077C1.42324 7.23529 1.81836 8.24642 2.42899 9.07616C2.31045 9.02408 2.18114 8.99534 2.06979 8.93248C1.92791 8.85705 1.75729 8.86065 1.619 8.94326C1.48071 9.02587 1.3963 9.17494 1.39451 9.33478V9.39225C1.39451 11.0859 2.27094 12.5568 3.56404 13.4583C3.54967 13.4565 3.5353 13.4619 3.52094 13.4583C3.36289 13.4314 3.20305 13.4871 3.09709 13.6074C2.99112 13.7277 2.957 13.8948 3.0037 14.0474C3.51734 15.644 4.8284 16.8635 6.45196 17.3089C5.15886 18.0776 3.65922 18.5301 2.04106 18.5301C1.69084 18.5301 1.355 18.5122 1.02094 18.4727C0.805428 18.4439 0.598892 18.5697 0.527053 18.7744C0.453418 18.9791 0.534237 19.2072 0.719222 19.3204C2.79357 20.6512 5.25584 21.4324 7.9031 21.4324C12.1937 21.4324 15.5593 19.6401 17.8169 17.079C20.0744 14.518 21.2508 11.1918 21.2508 8.08479C21.2508 7.95368 21.24 7.82617 21.2364 7.69686C22.0787 7.0521 22.8312 6.296 23.4203 5.41238C23.537 5.24177 23.5245 5.01368 23.3898 4.85563C23.2569 4.69759 23.0324 4.6491 22.8456 4.7371C22.6085 4.84306 22.3319 4.85384 22.0841 4.93825C22.4109 4.50183 22.6911 4.03128 22.8599 3.50147C22.9174 3.32008 22.8546 3.12072 22.7055 3.00219C22.5564 2.88545 22.3481 2.87108 22.1847 2.96986C21.3998 3.43502 20.5306 3.76189 19.6128 3.96124C18.722 3.12791 17.5493 2.56757 16.2364 2.56757ZM16.2364 3.4871C17.4092 3.4871 18.4688 3.98818 19.2105 4.7802C19.3219 4.89514 19.4853 4.94363 19.6416 4.90951C20.2414 4.79098 20.8107 4.61677 21.3657 4.39227C21.046 4.8233 20.6509 5.19148 20.1875 5.46985C19.9774 5.57222 19.8786 5.81468 19.9559 6.03558C20.0313 6.25469 20.2612 6.38221 20.4893 6.33192C20.949 6.27624 21.3585 6.08946 21.7967 5.97273C21.4034 6.39837 20.9724 6.78271 20.5036 7.12215C20.3761 7.21554 20.3061 7.3664 20.3168 7.52444C20.324 7.71122 20.3312 7.89621 20.3312 8.08479C20.3312 10.9583 19.2285 14.0779 17.1272 16.4612C15.0259 18.8444 11.9404 20.5129 7.9031 20.5129C6.06942 20.5129 4.3381 20.107 2.77381 19.3922C4.71346 19.2431 6.50225 18.5571 7.94621 17.4238C8.09707 17.3035 8.15633 17.1024 8.09527 16.9192C8.03421 16.736 7.86539 16.6103 7.67322 16.6049C6.15742 16.5779 4.88767 15.6961 4.21059 14.4497C4.23573 14.4497 4.25728 14.4497 4.28243 14.4497C4.73681 14.4497 5.1858 14.3922 5.60426 14.2773C5.80541 14.218 5.9437 14.0312 5.93651 13.8211C5.92933 13.611 5.78027 13.4314 5.57552 13.3865C3.9394 13.056 2.71275 11.7234 2.42899 10.0675C2.89235 10.2274 3.36648 10.3531 3.88013 10.3693C4.09026 10.3818 4.28063 10.2507 4.34529 10.0514C4.40994 9.85202 4.33092 9.63291 4.15312 9.52156C3.06117 8.7906 2.34278 7.546 2.34278 6.13077C2.34278 5.60635 2.47927 5.12503 2.65887 4.66526C4.95771 7.1886 8.17609 8.86424 11.8111 9.04743C11.9548 9.05461 12.0949 8.99534 12.1883 8.88579C12.2817 8.77444 12.3176 8.62717 12.2853 8.48708C12.2152 8.18895 12.1703 7.87286 12.1703 7.55318C12.1703 5.30103 13.9843 3.4871 16.2364 3.4871Z"/></svg>