<svg width="24" height="24" viewBox="0 0 24 24" xmlns="http://www.w3.org/2000/svg"><path d="M14.1904 0.5H9.80953C5.22101 0.5 1.4879 4.23223 1.4879 8.81988V12.7663C1.4879 16.1827 3.58725 19.2531 6.74394 20.5036V23.062C6.74394 23.2354 6.846 23.3922 7.00455 23.4623C7.0615 23.4877 7.12194 23.5 7.18195 23.5C7.28838 23.5 7.39394 23.461 7.47585 23.3866L10.0158 21.0862H14.1904C18.779 21.0862 22.5121 17.3539 22.5121 12.7663V8.81988C22.5121 4.23223 18.779 0.5 14.1904 0.5ZM21.6361 12.7663C21.6361 16.8708 18.2963 20.2102 14.1904 20.2102H9.84676C9.73813 20.2102 9.63345 20.2505 9.55286 20.3236L7.61995 22.0743V20.2001C7.61995 20.0144 7.503 19.8488 7.3278 19.7875C4.35901 18.7376 2.36391 15.916 2.36391 12.7663V8.81988C2.36391 4.71535 5.70412 1.37601 9.80953 1.37601H14.1904C18.2963 1.37601 21.6361 4.71535 21.6361 8.81988V12.7663Z"/><path d="M17.7886 13.856L15.0967 12.1075C14.8023 11.9161 14.4519 11.8513 14.109 11.9223C13.7656 11.9945 13.4704 12.1973 13.279 12.493L13.1524 12.6874C11.9873 12.3024 10.7026 11.8106 9.93349 9.58419L10.2519 9.30737C10.7985 8.83214 10.8559 8.00081 10.3807 7.4533L8.27477 5.0307C8.11621 4.84806 7.83939 4.82922 7.65675 4.98734L6.33441 6.13666C5.17458 7.14495 5.71639 8.63635 5.89466 9.12647C5.90254 9.14837 5.91218 9.1694 5.92357 9.18999C5.96956 9.27233 7.06763 11.232 8.84111 13.0383C10.6216 14.8521 13.8361 16.527 13.9346 16.5756C14.3017 16.8139 14.7147 16.9282 15.1234 16.9282C15.8408 16.9282 16.5443 16.5765 16.9639 15.9317L17.9179 14.4627C18.0493 14.259 17.9914 13.9879 17.7886 13.856ZM16.2289 15.4543C15.8343 16.0623 15.0187 16.2348 14.3748 15.8196C14.3429 15.803 11.1494 14.1399 9.46614 12.4251C7.89283 10.8224 6.84819 9.04194 6.70584 8.79359C6.35894 7.82079 6.42026 7.22291 6.90907 6.79805L7.90115 5.93606L9.71974 8.02796C9.88136 8.21368 9.86253 8.48524 9.67769 8.64598L9.14026 9.1129C9.0093 9.22678 8.95762 9.4068 9.00886 9.57236C9.92517 12.5499 11.707 13.1346 13.0078 13.5617L13.1975 13.6243C13.3871 13.6883 13.5948 13.6151 13.7034 13.4478L14.0139 12.9695C14.0779 12.8705 14.176 12.8035 14.2899 12.7794C14.4042 12.7549 14.5207 12.7777 14.6197 12.8421L16.9446 14.3519L16.2289 15.4543Z"/><path d="M12.9999 7.61624C12.7669 7.54923 12.5247 7.68457 12.4586 7.91759C12.3924 8.15017 12.5273 8.39239 12.7599 8.45852C13.4125 8.64424 13.9325 9.16502 14.1164 9.81809C14.1707 10.0108 14.3464 10.1374 14.5378 10.1374C14.5772 10.1374 14.617 10.1321 14.6569 10.1212C14.8895 10.0555 15.0253 9.81371 14.9596 9.58069C14.6937 8.63723 13.9425 7.8843 12.9999 7.61624Z"/><path d="M16.3331 10.232C16.3726 10.232 16.4124 10.2267 16.4523 10.2158C16.6853 10.1501 16.8206 9.90787 16.7549 9.67529C16.2381 7.84313 14.78 6.38195 12.9491 5.86072C12.7166 5.79371 12.4743 5.92993 12.4082 6.16251C12.3421 6.39509 12.477 6.6373 12.7095 6.70344C14.25 7.14144 15.4769 8.3718 15.9118 9.91313C15.9665 10.1058 16.1417 10.232 16.3331 10.232Z"/><path d="M12.7604 3.82094C12.5273 3.75392 12.2851 3.88927 12.219 4.12272C12.1529 4.3553 12.2878 4.59752 12.5203 4.66366C15.1304 5.40607 17.2096 7.49009 17.9463 10.1019C18.0006 10.2946 18.1763 10.4212 18.3677 10.4212C18.4071 10.4212 18.447 10.416 18.4868 10.405C18.7194 10.3393 18.8552 10.0971 18.7895 9.86451C17.9709 6.96186 15.6608 4.64658 12.7604 3.82094Z"/></svg>