<svg width="24" height="24" viewBox="0 0 24 24" xmlns="http://www.w3.org/2000/svg"><path d="M12 0.5C5.65863 0.5 0.5 5.65863 0.5 12C0.5 14.1633 1.1011 16.2634 2.24137 18.087C1.78712 19.6785 0.966635 22.6888 0.957788 22.7202C0.915327 22.8759 0.960885 23.0422 1.07721 23.1541C1.19354 23.266 1.36161 23.3058 1.51465 23.2589L6.07308 21.8568C7.85867 22.9325 9.90346 23.5 12 23.5C18.3414 23.5 23.5 18.3414 23.5 12C23.5 5.65863 18.3414 0.5 12 0.5ZM12 22.6154C10.0012 22.6154 8.05417 22.0567 6.36898 21.0005C6.29777 20.9558 6.21594 20.9333 6.13412 20.9333C6.09033 20.9333 6.04654 20.9399 6.00408 20.9527L2.02375 22.1779C2.31612 21.1107 2.84158 19.2017 3.14633 18.1397C3.18171 18.0167 3.16181 17.884 3.09237 17.7765C1.9751 16.0573 1.38462 14.0598 1.38462 12C1.38462 6.14694 6.14694 1.38462 12 1.38462C17.8531 1.38462 22.6154 6.14694 22.6154 12C22.6154 17.8531 17.8531 22.6154 12 22.6154Z"/><path d="M19.5126 14.7096C18.6961 14.2562 18.0008 13.8015 17.4935 13.4698C17.106 13.2168 16.826 13.0341 16.6208 12.9311C16.0471 12.6449 15.6123 12.847 15.4469 13.0142C15.4261 13.035 15.4075 13.0576 15.3916 13.0814C14.7958 13.9753 14.0178 14.8303 13.79 14.8763C13.5269 14.8352 12.295 14.135 11.0707 13.1155C9.82076 12.0739 9.03433 11.0765 8.91889 10.3971C9.72079 9.57173 10.0096 9.05246 10.0096 8.46154C10.0096 7.85248 8.58893 5.30965 8.33195 5.05267C8.07408 4.79525 7.49333 4.755 6.60562 4.93192C6.52026 4.94917 6.44153 4.99119 6.3796 5.05267C6.27212 5.16015 3.75716 7.72421 4.95228 10.8319C6.26416 14.2425 9.63145 18.2069 13.9245 18.8509C14.4124 18.9239 14.8697 18.9602 15.2979 18.9602C17.8234 18.9602 19.314 17.6894 19.7338 15.1687C19.7652 14.9842 19.6763 14.8002 19.5126 14.7096ZM14.0559 17.976C9.51601 17.2953 6.65649 12.7975 5.77806 10.5143C4.90672 8.24967 6.51362 6.23054 6.91701 5.77408C7.2452 5.71834 7.59064 5.6949 7.73483 5.71746C8.03605 6.13633 9.07901 8.10681 9.12501 8.46154C9.12501 8.69375 9.04937 9.01707 8.14883 9.91806C8.06568 10.0008 8.01924 10.1131 8.01924 10.2308C8.01924 12.5467 12.9041 15.7596 13.7692 15.7596C14.5216 15.7596 15.5026 14.4951 16.0613 13.671C16.0936 13.6724 16.148 13.6834 16.2254 13.7223C16.3846 13.8024 16.6606 13.9824 17.0096 14.2107C17.4705 14.5119 18.0826 14.9117 18.8054 15.3262C18.4772 16.9052 17.5598 18.5024 14.0559 17.976Z"/></svg>