<svg width="24" height="24" viewBox="0 0 24 24" xmlns="http://www.w3.org/2000/svg"><path fill-rule="evenodd" clip-rule="evenodd" d="M13.75 17.8333C13.75 16.0384 15.205 14.5833 17 14.5833C18.795 14.5833 20.25 16.0384 20.25 17.8333C20.25 19.6283 18.795 21.0833 17 21.0833C15.205 21.0833 13.75 19.6283 13.75 17.8333ZM17 16.0833C16.0335 16.0833 15.25 16.8668 15.25 17.8333C15.25 18.7999 16.0335 19.5833 17 19.5833C17.9665 19.5833 18.75 18.7999 18.75 17.8333C18.75 16.8668 17.9665 16.0833 17 16.0833Z"/><path fill-rule="evenodd" clip-rule="evenodd" d="M13.75 6.16667C13.75 4.37175 15.205 2.91667 17 2.91667C18.795 2.91667 20.25 4.37175 20.25 6.16667C20.25 7.96158 18.795 9.41667 17 9.41667C15.205 9.41667 13.75 7.96158 13.75 6.16667ZM17 4.41667C16.0335 4.41667 15.25 5.20017 15.25 6.16667C15.25 7.13317 16.0335 7.91667 17 7.91667C17.9665 7.91667 18.75 7.13317 18.75 6.16667C18.75 5.20017 17.9665 4.41667 17 4.41667Z"/><path fill-rule="evenodd" clip-rule="evenodd" d="M3.75 12C3.75 10.205 5.20509 8.75 7 8.75C8.79491 8.75 10.25 10.205 10.25 12C10.25 13.795 8.79491 15.25 7 15.25C5.20509 15.25 3.75 13.795 3.75 12ZM7 10.25C6.0335 10.25 5.25 11.0335 5.25 12C5.25 12.9665 6.0335 13.75 7 13.75C7.9665 13.75 8.75 12.9665 8.75 12C8.75 11.0335 7.9665 10.25 7 10.25Z"/><path fill-rule="evenodd" clip-rule="evenodd" d="M8.71123 10.0988L14.5446 6.76548L15.2888 8.06785L9.45544 11.4012L8.71123 10.0988Z"/><path fill-rule="evenodd" clip-rule="evenodd" d="M14.5446 17.2345L8.71123 13.9012L9.45544 12.5988L15.2888 15.9321L14.5446 17.2345Z"/></svg>