<?xml version="1.0" standalone="no"?>
<!DOCTYPE svg PUBLIC "-//W3C//DTD SVG 1.1//EN" "http://www.w3.org/Graphics/SVG/1.1/DTD/svg11.dtd" >
<svg xmlns="http://www.w3.org/2000/svg" xmlns:xlink="http://www.w3.org/1999/xlink" version="1.1">
<metadata>
Created by FontForge 20170731 at Sun Dec 18 15:28:59 2022
 By Aleksey,,,
Created by Christian Thalmann with Glyphs in 2014-2015. 
</metadata>
<defs>
<font id="Cormorant-Regular" horiz-adv-x="1562" >
  <font-face 
    font-family="Cormorant"
    font-weight="400"
    font-stretch="normal"
    units-per-em="2048"
    panose-1="0 0 5 0 0 0 0 0 0 0"
    ascent="1485"
    descent="-563"
    x-height="791"
    cap-height="1280"
    bbox="-722 -578.087 2973.56 1894.03"
    underline-thickness="102"
    underline-position="-307"
    unicode-range="U+0020-FB06"
  />
<missing-glyph horiz-adv-x="1026" 
d="M193 -563v2048h649v-2048h-649zM344 1282h133v-78h-135v-65h340v65h-135v78h135v66h-338v-66zM342 872h340v70h-135v141h-205v-211zM410 942v72h67v-72h-67zM342 748h135v-74h-135v-70h205v144h135v67h-340v-67zM616 559h-274v-70h340v203h-66v-133zM477 328h70v49h69
v-98h-206v163h-68v-231h340v231h-205v-114zM342 -143h340v231h-340v-231zM410 -76v99h206v-99h-206zM342 -258h143l-143 -96v-68h340v68h-207l141 96h66v70h-340v-70z" />
    <glyph glyph-name="f_f.liga" unicode="ff" horiz-adv-x="1228" 
d="M1257 1487q105 0 172.5 -32t67.5 -77q0 -30 -22 -47.5t-52 -17.5q-25 0 -42 12t-38 41q-33 44 -68.5 65t-88.5 21q-119 0 -188.5 -137t-69.5 -416v-131q121 3 264 18q5 0 9.5 -13t4.5 -32q0 -11 -3.5 -23.5t-8.5 -20.5t-10 -7q-114 30 -256 33v-557q0 -48 5.5 -73t28 -42
t59.5 -21.5t107 -4.5q6 0 6 -12.5t-6 -12.5q-45 0 -130.5 2t-129.5 2q-40 0 -107 -2t-91 -2q-6 0 -6 12.5t6 12.5q88 0 114.5 26t26.5 115v461q-3 70 -24.5 82.5t-143.5 15.5q-72 2 -319 2v-561q0 -48 5.5 -73t28 -42t59.5 -21.5t107 -4.5q6 0 6 -12.5t-6 -12.5
q-45 0 -130.5 2t-129.5 2q-40 0 -107 -2t-91 -2q-6 0 -6 12.5t6 12.5q88 0 114.5 26t26.5 115v461q0 73 -25 91.5t-125 18.5q-7 0 -7 13.5t7 13.5q84 0 114 19.5t32 72.5q13 275 139 417t342 142q146 0 262 -57q106 129 311 129zM807 856q9 249 74 397q-114 127 -267 127
q-133 0 -211.5 -123t-78.5 -358v-131q249 0 335 2q64 2 95 9.5t43 27.5q10 23 10 49z" />
    <glyph glyph-name="fi.liga" unicode="fi" horiz-adv-x="1165" 
d="M623 1452q-136 0 -217.5 -137.5t-81.5 -415.5v-131q117 3 264 18q5 0 9.5 -14.5t4.5 -32.5q0 -13 -4 -26.5t-9 -21t-9 -5.5q-134 40 -256 43v-563q0 -48 5.5 -73t28 -42t59.5 -21.5t107 -4.5q6 0 6 -12.5t-6 -12.5q-45 0 -130.5 2t-129.5 2q-40 0 -107 -2t-91 -2
q-6 0 -6 12.5t6 12.5q88 0 114.5 26t26.5 115v461q0 73 -25 91.5t-125 18.5q-7 0 -7 13.5t7 13.5q84 0 114 19.5t32 72.5q22 631 487 631q115 0 187.5 -46t72.5 -108q0 -30 -17.5 -46.5t-47.5 -16.5q-24 0 -42 13.5t-28.5 33.5t-26.5 44t-33.5 44t-51.5 33.5t-80 13.5z
M1090 25q6 0 6 -12.5t-6 -12.5q-22 0 -85 2t-102 2t-101.5 -2t-84.5 -2q-6 0 -6 12.5t6 12.5q80 0 104.5 26.5t24.5 114.5v383q0 107 -34 130.5t-126 -20.5q-6 -3 -11 2.5t-4.5 12t5.5 10.5l266 125q7 4 15 -2.5t8 -13.5t-1 -41t-2 -88.5t-1 -112.5v-385q0 -88 24 -114.5
t105 -26.5z" />
    <glyph glyph-name="fl.liga" unicode="fl" horiz-adv-x="1161" 
d="M1104 25q6 0 6 -12.5t-6 -12.5q-21 0 -85 2t-104 2q-39 0 -102.5 -2t-85.5 -2q-6 0 -6 12.5t6 12.5q80 0 104.5 26.5t24.5 114.5v1116q-103 172 -266 172q-83 0 -140.5 -51.5t-91.5 -177.5t-34 -326v-131q117 3 264 18q5 0 9.5 -15.5t4.5 -33.5q0 -13 -4 -26t-9 -20
t-9 -5q-134 40 -256 43v-563q0 -48 5.5 -73t28 -42t59.5 -21.5t107 -4.5q6 0 6 -12.5t-6 -12.5q-45 0 -130.5 2t-129.5 2q-40 0 -107 -2t-91 -2q-6 0 -6 12.5t6 12.5q88 0 114.5 26t26.5 115v461q0 73 -25 91.5t-125 18.5q-7 0 -7 13.5t7 13.5q84 0 114 19.5t32 72.5
q10 331 121 481t321 150q178 0 281 -80q24 37 24 84q0 6 12.5 6t12.5 -6v-1325q0 -88 24 -114.5t105 -26.5z" />
    <glyph glyph-name="f_f_i.liga" unicode="ffi" horiz-adv-x="1767" 
d="M1227 1452q-136 0 -217.5 -137.5t-81.5 -415.5v-131q117 3 264 18q5 0 9.5 -14.5t4.5 -32.5q0 -13 -4 -26.5t-9 -21t-9 -5.5q-134 40 -256 43v-563q0 -48 5.5 -73t28 -42t59.5 -21.5t107 -4.5q6 0 6 -12.5t-6 -12.5q-45 0 -130.5 2t-129.5 2q-40 0 -107 -2t-91 -2
q-6 0 -6 12.5t6 12.5q88 0 114.5 26t26.5 115v461q-3 70 -24.5 82.5t-143.5 15.5q-72 2 -319 2v-561q0 -48 5.5 -73t28 -42t59.5 -21.5t107 -4.5q6 0 6 -12.5t-6 -12.5q-45 0 -130.5 2t-129.5 2q-40 0 -107 -2t-91 -2q-6 0 -6 12.5t6 12.5q88 0 114.5 26t26.5 115v461
q0 73 -25 91.5t-125 18.5q-7 0 -7 13.5t7 13.5q84 0 114 19.5t32 72.5q13 275 139 417t342 142q158 0 274 -63q121 135 336 135q115 0 187.5 -46t72.5 -108q0 -30 -17.5 -46.5t-47.5 -16.5q-24 0 -42 13.5t-28.5 33.5t-26.5 44t-33.5 44t-51.5 33.5t-80 13.5zM807 856
q9 236 82 389q-119 135 -275 135q-133 0 -211.5 -123t-78.5 -358v-131q249 0 335 2q64 2 95 9.5t43 27.5q10 23 10 49zM1694 25q6 0 6 -12.5t-6 -12.5q-22 0 -85 2t-102 2t-101.5 -2t-84.5 -2q-6 0 -6 12.5t6 12.5q80 0 104.5 26.5t24.5 114.5v383q0 107 -34 130.5
t-126 -20.5q-6 -3 -11 2.5t-4.5 12t5.5 10.5l266 125q7 4 15 -2.5t8 -13.5t-1 -41t-2 -88.5t-1 -112.5v-385q0 -88 24 -114.5t105 -26.5z" />
    <glyph glyph-name="f_f_l.liga" unicode="ffl" horiz-adv-x="1765" 
d="M1708 25q6 0 6 -12.5t-6 -12.5q-21 0 -84.5 2t-103.5 2q-39 0 -103 -2t-86 -2q-6 0 -6 12.5t6 12.5q80 0 104.5 26.5t24.5 114.5v1116q-103 172 -266 172q-83 0 -140.5 -51.5t-91.5 -177.5t-34 -326v-131q117 3 264 18q5 0 9.5 -15.5t4.5 -33.5q0 -13 -4 -26t-9 -20
t-9 -5q-134 40 -256 43v-563q0 -48 5.5 -73t28 -42t59.5 -21.5t107 -4.5q6 0 6 -12.5t-6 -12.5q-45 0 -130.5 2t-129.5 2q-40 0 -107 -2t-91 -2q-6 0 -6 12.5t6 12.5q88 0 114.5 26t26.5 115v461q-3 70 -24.5 82.5t-143.5 15.5q-72 2 -319 2v-561q0 -48 5.5 -73t28 -42
t59.5 -21.5t107 -4.5q6 0 6 -12.5t-6 -12.5q-45 0 -130.5 2t-129.5 2q-40 0 -107 -2t-91 -2q-6 0 -6 12.5t6 12.5q88 0 114.5 26t26.5 115v461q0 73 -25 91.5t-125 18.5q-7 0 -7 13.5t7 13.5q84 0 114 19.5t32 72.5q13 275 139 417t342 142q148 0 260 -57q109 129 305 129
q178 0 281 -80q24 37 24 84q0 6 12.5 6t12.5 -6v-1325q0 -88 24 -114.5t105 -26.5zM807 856q9 249 74 397q-114 127 -267 127q-133 0 -211.5 -123t-78.5 -358v-131q249 0 335 2q64 2 95 9.5t43 27.5q10 23 10 49z" />
    <glyph glyph-name="T_T.liga" unicode="TT" horiz-adv-x="2353" 
d="M2257 1331q1 7 11.5 7t10.5 -7q-6 -58 -12 -191t-6 -184q0 -6 -11.5 -6t-13.5 6q-8 160 -66.5 224.5t-197.5 64.5q-57 0 -86.5 -2.5t-55 -9t-35 -22.5t-14.5 -38.5t-5 -62.5v-944q0 -38 4.5 -60.5t15 -40t34 -25.5t56.5 -11.5t88 -3.5q6 0 6 -12.5t-6 -12.5q-33 0 -122 2
t-146 2q-53 0 -142.5 -2t-123.5 -2q-4 0 -4 12.5t4 12.5q126 0 163 26t37 115v948q0 89 -31 110t-149 21q-65 0 -100.5 -2t-68.5 -13.5t-46.5 -27t-25.5 -52.5t-16 -78t-7 -116q0 -6 -12.5 -6t-12.5 6q0 57 -0.5 90.5t-5.5 68t-11 52t-22 35t-33 24t-49.5 12t-65.5 6.5
t-87 1q-111 0 -143.5 -24t-32.5 -111v-944q0 -90 31.5 -115.5t144.5 -25.5q5 0 5 -12.5t-5 -12.5q-30 0 -111.5 2t-134.5 2t-142.5 -2t-121.5 -2q-6 0 -6 12.5t6 12.5q126 0 163.5 26t37.5 115v948q0 32 -2.5 53t-13 36.5t-22 23t-38 12t-52 5.5t-73.5 1q-128 0 -192 -65
t-93 -226q-2 -5 -13 -4.5t-11 6.5q9 61 20 183.5t11 185.5q0 9 12 9.5t12 -9.5q0 -45 107 -45q178 -6 411 -6q100 0 217 3t156 3q116 0 135.5 6.5t22.5 46.5q0 7 12 7t12 -7q-4 -38 9.5 -45t91.5 -8h12q164 -6 387 -6q108 0 231 3t164 3q75 0 110.5 10t45.5 41z" />
    <glyph glyph-name="T_h.liga" unicode="Th" horiz-adv-x="2105" 
d="M2060 25q6 0 6 -12.5t-6 -12.5q-22 0 -84.5 2t-101.5 2t-101.5 -2t-84.5 -2q-6 0 -6 12.5t6 12.5q80 0 104.5 26.5t24.5 114.5v326q0 121 -46.5 179t-142.5 58q-63 0 -128.5 -33.5t-119.5 -93.5v-436q0 -88 24 -114.5t105 -26.5q6 0 6 -12.5t-6 -12.5q-22 0 -84.5 2
t-101.5 2t-101.5 -2t-84.5 -2q-6 0 -6 12.5t6 12.5q80 0 104.5 26.5t24.5 114.5v1053q0 26 -29 26h-317q-131 0 -165 -22t-34 -113v-944q0 -63 14.5 -91t55 -39t129.5 -11q6 0 6 -12.5t-6 -12.5q-33 0 -121.5 2t-147.5 2q-53 0 -142.5 -2t-123.5 -2q-5 0 -5 12.5t5 12.5
q88 0 129 11t56.5 39.5t15.5 90.5v948q0 33 -2.5 53.5t-12.5 36t-21 23t-37.5 12t-52 5.5t-73.5 1q-129 0 -194 -66.5t-91 -224.5q-2 -5 -13 -4.5t-11 6.5q8 56 18 180t10 189q0 9 12.5 9.5t12.5 -9.5q0 -45 109 -45q117 -4 411 -4q296 0 396 4q125 3 204 54.5t103 150.5
q2 6 14 5t12 -7v-846q151 176 316 176q113 0 174 -64t61 -188v-395q0 -88 24 -114.5t105 -26.5z" />
    <glyph glyph-name="f_b.liga" unicode="fb" horiz-adv-x="1681" 
d="M1278 817q138 0 234 -99t96 -280q0 -112 -39.5 -203t-104.5 -147t-144 -85.5t-163 -29.5q-157 0 -283 88l-151 -69q-9 -4 -13.5 4.5t3.5 13.5q65 44 91.5 84.5t26.5 116.5v1083q-97 160 -247 160q-149 0 -207 -156q-53 -126 -53 -399v-131q121 3 264 18q5 0 9.5 -13
t4.5 -32q0 -11 -3.5 -23.5t-8.5 -20.5t-10 -7q-114 30 -256 33v-557q0 -48 5.5 -73t28 -42t59.5 -21.5t107 -4.5q6 0 6 -12.5t-6 -12.5q-45 0 -130.5 2t-129.5 2q-40 0 -107 -2t-91 -2q-6 0 -6 12.5t6 12.5q88 0 114.5 26t26.5 115v461q0 73 -25 91.5t-125 18.5
q-7 0 -7 13.5t7 13.5q84 0 114 19.5t32 72.5q12 310 100 457q105 174 334 174q167 0 268 -78q23 41 23 82q0 6 12 6t12 -6l-2 -846q74 78 152.5 125t175.5 47zM1221 12q120 0 186 93t66 266q0 183 -73 281t-190 98q-120 0 -260 -140v-442q114 -156 271 -156z" />
    <glyph glyph-name="f_f_b.liga" unicode="ffb" horiz-adv-x="2285" 
d="M1882 817q138 0 234 -99t96 -280q0 -112 -39.5 -203t-104.5 -147t-144 -85.5t-163 -29.5q-156 0 -282 88l-152 -69q-9 -4 -13.5 4.5t3.5 13.5q65 44 92 84.5t27 116.5v1083q-97 160 -248 160q-149 0 -207 -156q-53 -126 -53 -399v-131q121 3 264 18q5 0 9.5 -13t4.5 -32
q0 -11 -3.5 -23.5t-8.5 -20.5t-10 -7q-114 30 -256 33v-557q0 -48 5.5 -73t28 -42t59.5 -21.5t107 -4.5q6 0 6 -12.5t-6 -12.5q-45 0 -130.5 2t-129.5 2q-40 0 -107 -2t-91 -2q-6 0 -6 12.5t6 12.5q88 0 114.5 26t26.5 115v461q-3 70 -24.5 82.5t-143.5 15.5q-72 2 -319 2
v-561q0 -48 5.5 -73t28 -42t59.5 -21.5t107 -4.5q6 0 6 -12.5t-6 -12.5q-45 0 -130.5 2t-129.5 2q-40 0 -107 -2t-91 -2q-6 0 -6 12.5t6 12.5q88 0 114.5 26t26.5 115v461q0 73 -25 91.5t-125 18.5q-7 0 -7 13.5t7 13.5q84 0 114 19.5t32 72.5q13 275 139 417t342 142
q148 0 256 -55q106 127 301 127q167 0 268 -78q23 41 23 82q0 6 12 6t12 -6l-2 -846q74 78 152.5 125t175.5 47zM807 856q9 256 72 399q-112 125 -265 125q-133 0 -211.5 -123t-78.5 -358v-131q249 0 335 2q64 2 95 9.5t43 27.5q10 23 10 49zM1825 12q120 0 186 93t66 266
q0 183 -72.5 281t-189.5 98q-121 0 -261 -140v-442q114 -156 271 -156z" />
    <glyph glyph-name="f_f_f.liga" unicode="fff" horiz-adv-x="1835" 
d="M1862 1487q105 0 172 -32t67 -77q0 -31 -21.5 -48t-51.5 -17q-25 0 -42 12t-38 41q-33 44 -69 65t-89 21q-119 0 -188.5 -137t-69.5 -416v-131q121 3 264 18q5 0 9.5 -13t4.5 -32q0 -11 -3.5 -23.5t-8.5 -20.5t-10 -7q-114 30 -256 33v-557q0 -48 6 -73t28.5 -42
t59.5 -21.5t107 -4.5q6 0 6 -12.5t-6 -12.5q-45 0 -130.5 2t-129.5 2q-40 0 -107.5 -2t-91.5 -2q-6 0 -6 12.5t6 12.5q88 0 114.5 26t26.5 115v461q-1 21 -1 31t-4.5 23t-6.5 17.5t-14 11t-19 8t-30.5 3.5t-39.5 2.5t-55 1.5q-70 2 -317 2v-561q0 -48 5.5 -73t28 -42
t59.5 -21.5t107 -4.5q6 0 6 -12.5t-6 -12.5q-45 0 -131.5 2t-130.5 2q-39 0 -106 -2t-92 -2q-4 0 -4 12.5t4 12.5q89 0 115 26t26 115v461q0 43 -4 59q-7 25 -37 31t-125 8q-72 2 -319 2v-561q0 -48 5.5 -73t28 -42t59.5 -21.5t107 -4.5q6 0 6 -12.5t-6 -12.5
q-45 0 -130.5 2t-129.5 2q-40 0 -107 -2t-91 -2q-6 0 -6 12.5t6 12.5q88 0 114.5 26t26.5 115v461q0 73 -25 91.5t-125 18.5q-7 0 -7 13.5t7 13.5q84 0 114 19.5t32 72.5q13 275 139 417t342 142q166 0 291 -72q121 121 313 121q149 0 266 -98q109 121 308 121zM1411 856
q9 260 78 404q-116 165 -270 165q-133 0 -212 -134.5t-79 -391.5v-131q248 0 334 2q67 2 98 10.5t43 30.5q8 16 8 45zM807 856q9 230 88 379q-53 69 -126 107t-155 38q-133 0 -211.5 -123t-78.5 -358v-131q249 0 335 2q64 2 95 9.5t43 27.5q10 23 10 49z" />
    <glyph glyph-name="f_f_h.liga" unicode="ffh" horiz-adv-x="2277" 
d="M2232 25q6 0 6 -12.5t-6 -12.5q-22 0 -84.5 2t-101.5 2t-102.5 -2t-85.5 -2q-4 0 -4 12.5t4 12.5q80 0 104.5 26.5t24.5 114.5v326q0 121 -46 179t-143 58q-63 0 -127.5 -33.5t-118.5 -93.5v-436q0 -88 24 -114.5t105 -26.5q6 0 6 -12.5t-6 -12.5q-22 0 -84.5 2t-101.5 2
t-102.5 -2t-85.5 -2q-5 0 -5 12.5t5 12.5q80 0 104.5 26.5t24.5 114.5v1128q-97 160 -248 160q-132 0 -196 -129.5t-64 -425.5v-131q121 3 264 18q5 0 9.5 -13t4.5 -32q0 -11 -3.5 -23.5t-8.5 -20.5t-10 -7q-114 30 -256 33v-557q0 -48 5.5 -73t28 -42t59.5 -21.5t107 -4.5
q6 0 6 -12.5t-6 -12.5q-45 0 -130.5 2t-129.5 2q-40 0 -107 -2t-91 -2q-6 0 -6 12.5t6 12.5q88 0 114.5 26t26.5 115v461q-3 70 -24.5 82.5t-143.5 15.5q-72 2 -319 2v-561q0 -48 5.5 -73t28 -42t59.5 -21.5t107 -4.5q6 0 6 -12.5t-6 -12.5q-45 0 -130.5 2t-129.5 2
q-40 0 -107 -2t-91 -2q-6 0 -6 12.5t6 12.5q88 0 114.5 26t26.5 115v461q0 73 -25 91.5t-125 18.5q-7 0 -7 13.5t7 13.5q84 0 114 19.5t32 72.5q13 275 139 417t342 142q146 0 258 -55q103 127 299 127q167 0 266 -76q21 44 21 80q0 6 12 6t12 -6v-852q150 174 316 174
q112 0 173.5 -64.5t61.5 -187.5v-395q0 -88 24 -114.5t105 -26.5zM807 856q9 253 72 399q-112 125 -265 125q-133 0 -211.5 -123t-78.5 -358v-131q249 0 335 2q64 2 95 9.5t43 27.5q10 23 10 49z" />
    <glyph glyph-name="f_f_j.liga" unicode="ffj" horiz-adv-x="1769" 
d="M1237 1452q-142 0 -225.5 -137t-83.5 -416v-131q121 3 264 18q5 0 9.5 -13t4.5 -32q0 -11 -3.5 -23.5t-8.5 -20.5t-10 -7q-114 30 -256 33v-557q0 -48 5.5 -73t28 -42t59.5 -21.5t107 -4.5q6 0 6 -12.5t-6 -12.5q-45 0 -130.5 2t-129.5 2q-40 0 -107 -2t-91 -2
q-6 0 -6 12.5t6 12.5q88 0 114.5 26t26.5 115v461q-3 70 -24.5 82.5t-143.5 15.5q-72 2 -319 2v-561q0 -48 5.5 -73t28 -42t59.5 -21.5t107 -4.5q6 0 6 -12.5t-6 -12.5q-45 0 -130.5 2t-129.5 2q-40 0 -107 -2t-91 -2q-6 0 -6 12.5t6 12.5q88 0 114.5 26t26.5 115v461
q0 73 -25 91.5t-125 18.5q-7 0 -7 13.5t7 13.5q84 0 114 19.5t32 72.5q13 275 139 417t342 142q164 0 277 -65q123 137 342 137q122 0 198 -45.5t76 -108.5q0 -30 -17 -46.5t-47 -16.5t-51 18.5t-37 45.5t-35.5 54t-58 45.5t-94.5 18.5zM807 856q9 237 82 387
q-53 64 -125 100.5t-150 36.5q-133 0 -211.5 -123t-78.5 -358v-131q249 0 335 2q64 2 95 9.5t43 27.5q10 23 10 49zM1563 809q7 4 14.5 -2.5t7.5 -13.5t-1 -41t-2 -88.5t-1 -112.5v-649q0 -203 -62 -303.5t-225 -163.5q-8 -2 -12 12q-3 7 2 8q99 43 140.5 134t41.5 266v694
q0 107 -33.5 130.5t-125.5 -20.5q-6 -3 -11 2.5t-5 12t5 10.5z" />
    <glyph glyph-name="f_f_k.liga" unicode="ffk" horiz-adv-x="2260" 
d="M2245 25q5 0 5 -12.5t-5 -12.5q-22 0 -85.5 2t-101.5 2q-57 0 -133.5 -2t-101.5 -2q-6 0 -6 12.5t6 12.5q73 0 92.5 20t-10.5 64l-250 344l-103 -82v-205q0 -88 24 -114.5t105 -26.5q6 0 6 -12.5t-6 -12.5q-22 0 -84.5 2t-101.5 2t-102.5 -2t-85.5 -2q-5 0 -5 12.5
t5 12.5q80 0 104.5 26.5t24.5 114.5v1128q-92 160 -250 160q-131 0 -194.5 -130.5t-63.5 -424.5v-131q121 3 264 18q5 0 9.5 -13t4.5 -32q0 -11 -3.5 -23.5t-8.5 -20.5t-10 -7q-114 30 -256 33v-557q0 -48 5.5 -73t28 -42t59.5 -21.5t107 -4.5q6 0 6 -12.5t-6 -12.5
q-45 0 -130.5 2t-129.5 2q-40 0 -107 -2t-91 -2q-6 0 -6 12.5t6 12.5q88 0 114.5 26t26.5 115v461q-3 70 -24.5 82.5t-143.5 15.5q-72 2 -319 2v-561q0 -48 5.5 -73t28 -42t59.5 -21.5t107 -4.5q6 0 6 -12.5t-6 -12.5q-45 0 -130.5 2t-129.5 2q-40 0 -107 -2t-91 -2
q-6 0 -6 12.5t6 12.5q88 0 114.5 26t26.5 115v461q0 73 -25 91.5t-125 18.5q-7 0 -7 13.5t7 13.5q84 0 114 19.5t32 72.5q13 275 139 417t342 142q146 0 258 -55q103 127 295 127q171 0 270 -76q21 44 21 80q0 6 12 6t12 -6v-1088l275 222q78 63 63 102t-116 39
q-4 0 -4 12.5t4 12.5q28 0 100.5 -2.5t134.5 -2.5q57 0 122.5 2.5t88.5 2.5q6 0 6 -12.5t-6 -12.5q-167 0 -354 -148l-119 -94l262 -358q100 -141 236 -141zM807 856q9 253 72 399q-112 125 -265 125q-133 0 -211.5 -123t-78.5 -358v-131q249 0 335 2q64 2 95 9.5t43 27.5
q10 23 10 49z" />
    <glyph glyph-name="f_f_thorn.liga" unicode="ff&#xfe;" horiz-adv-x="2265" 
d="M1878 817q131 0 222 -102t91 -275q0 -95 -29 -175t-74.5 -132.5t-104.5 -89.5t-117.5 -53.5t-114.5 -16.5q-122 0 -215 52v-422q0 -61 15 -89.5t57 -40.5t131 -12q5 0 5 -12t-5 -12q-34 0 -122 2t-140 2q-39 0 -103 -2t-86 -2q-6 0 -6 12t6 12q81 0 105 27t24 115v1720
q-89 131 -231 131q-131 0 -194.5 -130.5t-63.5 -424.5v-131q121 3 264 18q5 0 9.5 -13t4.5 -32q0 -11 -3.5 -23.5t-8.5 -20.5t-10 -7q-114 30 -256 33v-557q0 -48 5.5 -73t28 -42t59.5 -21.5t107 -4.5q6 0 6 -12.5t-6 -12.5q-45 0 -130.5 2t-129.5 2q-40 0 -107 -2t-91 -2
q-6 0 -6 12.5t6 12.5q88 0 114.5 26t26.5 115v461q-3 70 -24.5 82.5t-143.5 15.5q-72 2 -319 2v-561q0 -48 5.5 -73t28 -42t59.5 -21.5t107 -4.5q6 0 6 -12.5t-6 -12.5q-45 0 -130.5 2t-129.5 2q-40 0 -107 -2t-91 -2q-6 0 -6 12.5t6 12.5q88 0 114.5 26t26.5 115v461
q0 73 -25 91.5t-125 18.5q-7 0 -7 13.5t7 13.5q84 0 114 19.5t32 72.5q13 275 139 417t342 142q146 0 258 -55q103 127 295 127q157 0 258 -68q18 35 18 72q0 6 11.5 6t11.5 -6v-848q168 174 342 174zM807 856q9 253 72 399q-112 125 -265 125q-133 0 -211.5 -123
t-78.5 -358v-131q249 0 335 2q64 2 95 9.5t43 27.5q10 23 10 49zM1810 16q109 0 179.5 96.5t70.5 264.5q0 171 -76 266.5t-194 95.5q-71 0 -131.5 -34t-122.5 -97v-465q56 -62 119.5 -94.5t154.5 -32.5z" />
    <glyph glyph-name="f_f_t.liga" unicode="fft" horiz-adv-x="1878" 
d="M1821 102q7 7 14 -5q4 -8 -2 -13q-75 -58 -135 -83.5t-125 -25.5q-86 0 -141.5 39t-55.5 129v484q0 51 -11 65q-19 27 -119 33q-70 4 -318 4v-563q0 -48 5.5 -73t28 -42t59.5 -21.5t107 -4.5q6 0 6 -12.5t-6 -12.5q-45 0 -130.5 2t-129.5 2q-40 0 -107 -2t-91 -2
q-6 0 -6 12.5t6 12.5q88 0 114.5 26t26.5 115v461q-3 70 -24.5 82.5t-143.5 15.5q-72 2 -319 2v-561q0 -48 5.5 -73t28 -42t59.5 -21.5t107 -4.5q6 0 6 -12.5t-6 -12.5q-45 0 -130.5 2t-129.5 2q-40 0 -107 -2t-91 -2q-6 0 -6 12.5t6 12.5q88 0 114.5 26t26.5 115v461
q0 73 -25 91.5t-125 18.5q-7 0 -7 13.5t7 13.5q84 0 114 19.5t32 72.5q13 275 139 417t342 142q148 0 260 -57q109 129 313 129q105 0 172.5 -32t67.5 -77q0 -31 -22.5 -48t-53.5 -17q-24 0 -41.5 13t-38.5 44q-33 42 -68 62t-87 20q-119 0 -188.5 -137t-69.5 -416v-131
q190 0 289 6q136 3 184.5 33t60.5 113q0 8 15.5 8t15.5 -8v-152q130 3 285 18q14 0 14 -45q0 -11 -3.5 -23.5t-8 -20.5t-8.5 -7q-113 30 -279 33v-510q0 -166 162 -166q97 0 166 55zM807 856q9 248 74 397q-114 127 -267 127q-133 0 -211.5 -123t-78.5 -358v-131
q249 0 335 2q64 2 95 9.5t43 27.5q10 23 10 49z" />
    <glyph glyph-name="f_h.liga" unicode="fh" horiz-adv-x="1673" 
d="M1628 25q6 0 6 -12.5t-6 -12.5q-22 0 -84.5 2t-101.5 2t-103 -2t-86 -2q-5 0 -5 12.5t5 12.5q80 0 104.5 26.5t24.5 114.5v326q0 122 -45.5 179.5t-142.5 57.5q-63 0 -127.5 -33.5t-118.5 -93.5v-436q0 -88 24 -114.5t105 -26.5q6 0 6 -12.5t-6 -12.5q-22 0 -84.5 2
t-101.5 2t-103 -2t-86 -2q-4 0 -4 12.5t4 12.5q80 0 104.5 26.5t24.5 114.5v1128q-97 160 -247 160q-132 0 -196 -129.5t-64 -425.5v-131q121 3 264 18q5 0 9.5 -13t4.5 -32q0 -11 -3.5 -23.5t-8.5 -20.5t-10 -7q-114 30 -256 33v-557q0 -48 5.5 -73t28 -42t59.5 -21.5
t107 -4.5q6 0 6 -12.5t-6 -12.5q-45 0 -130.5 2t-129.5 2q-40 0 -107 -2t-91 -2q-6 0 -6 12.5t6 12.5q88 0 114.5 26t26.5 115v461q0 73 -25 91.5t-125 18.5q-7 0 -7 13.5t7 13.5q84 0 114 19.5t32 72.5q11 326 114.5 478.5t319.5 152.5q167 0 266 -76q21 44 21 80q0 6 12 6
t12 -6v-852q150 174 316 174q112 0 173.5 -64.5t61.5 -187.5v-395q0 -88 24 -114.5t105 -26.5z" />
    <glyph glyph-name="f_j.liga" unicode="fj" horiz-adv-x="1165" 
d="M633 1452q-142 0 -225.5 -137t-83.5 -416v-131q121 3 264 18q5 0 9.5 -13t4.5 -32q0 -11 -3.5 -23.5t-8.5 -20.5t-10 -7q-114 30 -256 33v-557q0 -48 5.5 -73t28 -42t59.5 -21.5t107 -4.5q6 0 6 -12.5t-6 -12.5q-45 0 -130.5 2t-129.5 2q-40 0 -107 -2t-91 -2
q-6 0 -6 12.5t6 12.5q88 0 114.5 26t26.5 115v461q0 73 -25 91.5t-125 18.5q-7 0 -7 13.5t7 13.5q84 0 114 19.5t32 72.5q22 631 495 631q122 0 198.5 -45.5t76.5 -108.5q0 -30 -17 -46.5t-47 -16.5t-51 18.5t-37 45.5t-35.5 54t-58 45.5t-94.5 18.5zM958 809q7 4 15 -2.5
t8 -13.5t-1 -41t-2 -88.5t-1 -112.5v-649q0 -203 -62 -303.5t-225 -163.5q-8 -2 -12 12q-3 7 2 8q99 43 140.5 134t41.5 266v694q0 107 -34 130.5t-126 -20.5q-6 -3 -11 2.5t-4.5 12t5.5 10.5z" />
    <glyph glyph-name="f_k.liga" unicode="fk" horiz-adv-x="1656" 
d="M1640 25q4 0 4 -12.5t-4 -12.5q-22 0 -85 2t-101 2q-57 0 -133.5 -2t-101.5 -2q-6 0 -6 12.5t6 12.5q72 0 91.5 20t-10.5 64l-249 344l-103 -82v-205q0 -88 24 -114.5t105 -26.5q6 0 6 -12.5t-6 -12.5q-22 0 -84.5 2t-101.5 2t-103 -2t-86 -2q-4 0 -4 12.5t4 12.5
q80 0 104.5 26.5t24.5 114.5v1128q-92 160 -249 160q-131 0 -194.5 -130.5t-63.5 -424.5v-131q121 3 264 18q5 0 9.5 -13t4.5 -32q0 -11 -3.5 -23.5t-8.5 -20.5t-10 -7q-114 30 -256 33v-557q0 -48 5.5 -73t28 -42t59.5 -21.5t107 -4.5q6 0 6 -12.5t-6 -12.5q-45 0 -130.5 2
t-129.5 2q-40 0 -107 -2t-91 -2q-6 0 -6 12.5t6 12.5q88 0 114.5 26t26.5 115v461q0 73 -25 91.5t-125 18.5q-7 0 -7 13.5t7 13.5q84 0 114 19.5t32 72.5q11 325 114.5 478t315.5 153q171 0 270 -76q21 44 21 80q0 6 12 6t12 -6v-1088l275 222q78 63 62.5 102t-116.5 39
q-5 0 -5 12.5t5 12.5q28 0 101 -2.5t135 -2.5q57 0 122.5 2.5t88.5 2.5q6 0 6 -12.5t-6 -12.5q-167 0 -354 -148l-119 -94l262 -358q100 -141 235 -141z" />
    <glyph glyph-name="f_thorn.liga" unicode="f&#xfe;" horiz-adv-x="1660" 
d="M1274 817q131 0 222 -102t91 -275q0 -95 -29 -175t-74.5 -132.5t-104.5 -89.5t-117.5 -53.5t-114.5 -16.5q-122 0 -215 52v-422q0 -61 15 -89.5t57 -40.5t131 -12q5 0 5 -12t-5 -12q-34 0 -122.5 2t-140.5 2q-39 0 -102.5 -2t-85.5 -2q-6 0 -6 12t6 12q81 0 105 27
t24 115v1720q-89 131 -231 131q-131 0 -194.5 -130.5t-63.5 -424.5v-131q121 3 264 18q5 0 9.5 -13t4.5 -32q0 -11 -3.5 -23.5t-8.5 -20.5t-10 -7q-114 30 -256 33v-557q0 -48 5.5 -73t28 -42t59.5 -21.5t107 -4.5q6 0 6 -12.5t-6 -12.5q-45 0 -130.5 2t-129.5 2
q-40 0 -107 -2t-91 -2q-6 0 -6 12.5t6 12.5q88 0 114.5 26t26.5 115v461q0 73 -25 91.5t-125 18.5q-7 0 -7 13.5t7 13.5q84 0 114 19.5t32 72.5q11 325 114.5 478t315.5 153q157 0 258 -68q18 35 18 72q0 6 11.5 6t11.5 -6v-848q168 174 342 174zM1206 16q109 0 179.5 96.5
t70.5 264.5q0 171 -76 266.5t-194 95.5q-71 0 -131.5 -34t-122.5 -97v-465q56 -62 119.5 -94.5t154.5 -32.5z" />
    <glyph glyph-name="f_t.liga" unicode="ft" horiz-adv-x="1275" 
d="M1217 102q7 7 14 -5q4 -8 -2 -13q-75 -58 -135 -83.5t-125 -25.5q-86 0 -141.5 39t-55.5 129v484q0 51 -11 65q-19 27 -119 33q-70 4 -318 4v-563q0 -48 5.5 -73t28 -42t59.5 -21.5t107 -4.5q6 0 6 -12.5t-6 -12.5q-45 0 -130.5 2t-129.5 2q-40 0 -107 -2t-91 -2
q-6 0 -6 12.5t6 12.5q88 0 114.5 26t26.5 115v461q0 73 -25 91.5t-125 18.5q-7 0 -7 13.5t7 13.5q84 0 114 19.5t32 72.5q10 333 121 482t329 149q105 0 172.5 -32t67.5 -77q0 -31 -22.5 -48t-53.5 -17q-24 0 -41.5 13t-38.5 44q-33 42 -68 62t-87 20q-119 0 -188.5 -137
t-69.5 -416v-131q189 0 288 6q136 3 185 33t61 113q0 8 15.5 8t15.5 -8v-152q130 3 285 18q14 0 14 -45q0 -11 -3.5 -23.5t-8.5 -20.5t-9 -7q-114 30 -278 33v-510q0 -166 162 -166q97 0 166 55z" />
    <glyph glyph-name="g_g.liga" unicode="gg" horiz-adv-x="1771" 
d="M899 809q12 0 12 -47t-13 -67q-4 -5 -7 -3q-85 29 -182 29q-36 0 -50 -4q54 -60 54 -144q0 -107 -87 -182.5t-225 -75.5q-57 0 -106 15q-74 -54 -74 -131q0 -23 8.5 -41.5t27.5 -32t37 -22.5t50.5 -16.5t52.5 -11t58 -9.5q15 -2 45 -7q41 -6 62.5 -10t59 -12t58.5 -16
t50.5 -21t46 -29.5t33 -38t23.5 -50t7 -62.5q0 -69 -39 -140.5t-103.5 -128.5t-156 -93t-187.5 -36q-145 0 -234 70t-89 176q0 166 233 320q-139 41 -139 139q0 56 40.5 110.5t106.5 100.5q-80 28 -123 89.5t-43 135.5q0 105 90.5 173.5t227.5 68.5q130 0 211 -64
q139 68 264 68zM1339 66q15 -2 46 -7q72 -10 108.5 -16.5t94.5 -24.5t86.5 -40.5t51.5 -63t23 -94.5q0 -69 -40.5 -140.5t-107.5 -128.5t-162.5 -93t-197.5 -36q-140 0 -226.5 70t-86.5 176q0 160 223 320q-67 20 -104 52t-37 87q0 56 40.5 110.5t106.5 100.5
q-78 29 -122 90t-44 135q0 105 90.5 173.5t227.5 68.5q130 0 209 -62q118 66 219 66q12 0 12 -47t-13 -67q-4 -4 -7 -3q-65 29 -136 29q-21 0 -49 -4q53 -59 53 -144q0 -107 -86.5 -182.5t-224.5 -75.5q-58 0 -104 15q-76 -53 -76 -131q0 -23 8.5 -41.5t27.5 -32t36.5 -22.5
t50 -16.5t52.5 -11t58 -9.5zM444 346q60 0 100 45.5t40 140.5q0 105 -63 173.5t-148 68.5q-63 0 -101.5 -41.5t-38.5 -126.5q0 -119 63 -189.5t148 -70.5zM1260 774q-64 0 -102 -41.5t-38 -126.5q0 -119 62.5 -189.5t148.5 -70.5q59 0 98 45.5t39 140.5q0 105 -62.5 173.5
t-145.5 68.5zM733 -252q0 40 -12 71.5t-38 53t-51 35.5t-69 24.5t-71 15.5t-78 12l-21 3q-61 8 -88 14q-73 -45 -113 -101t-40 -140q0 -116 76 -184t208 -68q138 0 217.5 78.5t79.5 185.5zM1321 -516q150 0 235.5 78.5t85.5 185.5q0 48 -22 84t-49 56t-82 36t-88 21.5
t-101 14.5q-15 2 -22 3q-55 8 -86 14q-68 -47 -104.5 -102t-36.5 -139q0 -116 72.5 -184t197.5 -68z" />
    <glyph glyph-name="longs_b.liga" unicode="&#x17f;b" horiz-adv-x="1656" 
d="M1253 817q138 0 233 -99t95 -280q0 -112 -39 -203t-103.5 -147t-143 -85.5t-162.5 -29.5q-155 0 -285 88l-152 -69q-6 -3 -9.5 0.5t-3.5 9t5 8.5q65 44 91 84t26 117l2 1085q-86 158 -229 158q-129 0 -192.5 -130.5t-63.5 -424.5v-733q0 -63 14 -90.5t55 -39t133 -11.5
q4 0 4 -12.5t-4 -12.5q-45 0 -131.5 2t-130.5 2q-40 0 -107.5 -2t-91.5 -2q-6 0 -6 12.5t6 12.5q89 0 114.5 26t25.5 115v690q0 631 426 631q166 0 250 -78q24 37 24 82q0 6 11.5 6t11.5 -6l-2 -848q76 79 154 126.5t175 47.5zM1194 12q121 0 187 92.5t67 266.5
q-1 183 -73.5 281t-190.5 98q-122 0 -260 -142v-440q114 -156 270 -156z" />
    <glyph glyph-name="longs_h.liga" unicode="&#x17f;h" horiz-adv-x="1648" 
d="M1604 25q4 0 4 -12.5t-4 -12.5q-23 0 -86.5 2t-102.5 2t-101.5 -2t-84.5 -2q-6 0 -6 12.5t6 12.5q80 0 104.5 26.5t24.5 114.5v326q0 121 -46 179t-143 58q-62 0 -127.5 -34t-119.5 -95v-434q0 -88 24 -114.5t107 -26.5q5 0 5 -12.5t-5 -12.5q-23 0 -86.5 2t-102.5 2
t-101.5 -2t-84.5 -2q-6 0 -6 12.5t6 12.5q80 0 104.5 26.5t24.5 114.5v1130q-86 158 -229 158q-129 0 -192.5 -130.5t-63.5 -424.5v-733q0 -63 14 -90.5t55 -39t133 -11.5q4 0 4 -12.5t-4 -12.5q-45 0 -131.5 2t-130.5 2q-40 0 -107.5 -2t-91.5 -2q-6 0 -6 12.5t6 12.5
q89 0 115.5 26t26.5 115v690q0 631 424 631q162 0 248 -76q22 39 22 80q0 6 11.5 6t11.5 -6v-854q154 176 315 176q114 0 175 -64.5t61 -187.5v-395q0 -88 24.5 -114.5t106.5 -26.5z" />
    <glyph glyph-name="longs_i.liga" unicode="&#x17f;i" horiz-adv-x="1120" 
d="M63 0q-6 0 -6 12.5t6 12.5q89 0 115.5 26t26.5 115v690q0 326 115 478.5t325 152.5q110 0 175 -34t65 -81q0 -30 -20 -46.5t-52 -16.5q-27 0 -47.5 15t-35.5 36.5t-31.5 43.5t-45 37t-67.5 15q-120 0 -190 -136.5t-70 -420.5v-733q0 -48 5 -72.5t24.5 -42t52.5 -22
t96 -4.5q6 0 6 -12.5t-6 -12.5q-42 0 -121.5 2t-120.5 2q-40 0 -107.5 -2t-91.5 -2zM657 0q-5 0 -5 12.5t5 12.5q80 0 104.5 26.5t24.5 114.5v383q0 107 -33.5 130.5t-125.5 -20.5q-5 -3 -9.5 2.5t-5 12t3.5 10.5l269 125q7 4 14.5 -2.5t7.5 -13.5t-1 -41t-2 -88.5
t-1 -112.5v-385q0 -88 24 -114.5t105 -26.5q4 0 4 -12.5t-4 -12.5q-22 0 -85.5 2t-102.5 2q-38 0 -101.5 -2t-85.5 -2z" />
    <glyph glyph-name="longs_j.liga" unicode="&#x17f;j" horiz-adv-x="1083" 
d="M63 0q-6 0 -6 12.5t6 12.5q89 0 115.5 26t26.5 115v690q0 326 115 478.5t325 152.5q110 0 175 -34t65 -81q0 -30 -20 -46.5t-52 -16.5q-27 0 -47.5 15t-35.5 36.5t-31.5 43.5t-45 37t-67.5 15q-120 0 -190 -136.5t-70 -420.5v-733q0 -48 5 -72.5t24.5 -42t52.5 -22
t96 -4.5q6 0 6 -12.5t-6 -12.5q-42 0 -121.5 2t-120.5 2q-40 0 -107.5 -2t-91.5 -2zM606 -565q-3 -1 -6.5 4t-4 9.5t2.5 6.5q99 43 140.5 134t41.5 266v694q0 107 -33.5 130.5t-125.5 -20.5q-6 -3 -11 2.5t-5 12t5 10.5l267 125q7 4 14.5 -2.5t7.5 -13.5t-1 -41t-2 -88.5
t-1 -112.5v-649q0 -204 -62 -304t-227 -163z" />
    <glyph glyph-name="longs_k.liga" unicode="&#x17f;k" horiz-adv-x="1630" 
d="M1614 25q6 0 6 -12.5t-6 -12.5q-22 0 -85 2t-102 2q-56 0 -133 -2t-102 -2q-4 0 -4 12.5t4 12.5q74 0 94 20t-10 64l-250 344l-104 -84v-203q0 -88 24 -114.5t107 -26.5q5 0 5 -12.5t-5 -12.5q-23 0 -86.5 2t-102.5 2t-101.5 -2t-84.5 -2q-6 0 -6 12.5t6 12.5
q80 0 104.5 26.5t24.5 114.5v1130q-86 158 -229 158q-129 0 -192.5 -130.5t-63.5 -424.5v-733q0 -63 14 -90.5t55 -39t133 -11.5q4 0 4 -12.5t-4 -12.5q-45 0 -131.5 2t-130.5 2q-40 0 -107.5 -2t-91.5 -2q-6 0 -6 12.5t6 12.5q89 0 115.5 26t26.5 115v690q0 631 424 631
q162 0 248 -76q22 39 22 80q0 6 11.5 6t11.5 -6v-1088l276 222q78 63 62.5 102t-115.5 39q-5 0 -5 12.5t5 12.5q27 0 100 -2.5t135 -2.5q57 0 122.5 2.5t88.5 2.5q5 0 5 -12.5t-5 -12.5q-167 0 -354 -148l-119 -94l260 -358q103 -141 236 -141z" />
    <glyph glyph-name="longs_l.liga" unicode="&#x17f;l" horiz-adv-x="1118" 
d="M1059 25q6 0 6 -12.5t-6 -12.5q-21 0 -85 2t-104 2q-39 0 -102.5 -2t-85.5 -2q-6 0 -6 12.5t6 12.5q80 0 104.5 26.5t24.5 114.5v1122q-87 166 -233 166q-129 0 -192.5 -130.5t-63.5 -424.5v-733q0 -63 14 -90.5t55 -39t133 -11.5q4 0 4 -12.5t-4 -12.5q-45 0 -131.5 2
t-130.5 2q-40 0 -107.5 -2t-91.5 -2q-6 0 -6 12.5t6 12.5q89 0 115.5 26t26.5 115v690q0 631 424 631q165 0 252 -80q24 37 24 84q0 6 12.5 6t12.5 -6v-1325q0 -88 24 -114.5t105 -26.5z" />
    <glyph glyph-name="longs_thorn.liga" unicode="&#x17f;&#xfe;" horiz-adv-x="1638" 
d="M1249 817q131 0 222.5 -102t91.5 -275q0 -95 -29 -175t-75 -132.5t-105 -89.5t-117.5 -53.5t-114.5 -16.5q-123 0 -215 54v-424q0 -89 36.5 -115.5t164.5 -26.5q6 0 6 -12t-6 -12q-34 0 -121.5 2t-138.5 2q-39 0 -104 -2t-87 -2q-5 0 -5 12t5 12q82 0 106.5 27t24.5 115
v1724q-84 127 -210 127q-129 0 -192.5 -130.5t-63.5 -424.5v-733q0 -63 14 -90.5t55 -39t133 -11.5q4 0 4 -12.5t-4 -12.5q-45 0 -131.5 2t-130.5 2q-40 0 -107.5 -2t-91.5 -2q-6 0 -6 12.5t6 12.5q89 0 115.5 26t26.5 115v690q0 631 424 631q148 0 237 -66q17 34 17 70
q0 6 12 6t12 -6v-848q174 174 342 174zM1184 16q109 0 178.5 96t69.5 265q0 171 -76 266.5t-193 95.5q-72 0 -133 -34.5t-123 -98.5v-463q55 -62 120.5 -94.5t156.5 -32.5z" />
    <glyph glyph-name="longs_longs.liga" unicode="&#x17f;&#x17f;" horiz-adv-x="1101" 
d="M1204 1487q96 0 156.5 -32t60.5 -77q0 -31 -21 -47t-52 -16q-27 0 -46.5 14.5t-33.5 35t-29.5 40.5t-42 34.5t-63.5 14.5q-53 0 -94.5 -31.5t-72.5 -96.5t-48 -173t-17 -254v-733q0 -64 11.5 -91t47 -38.5t115.5 -11.5q6 0 6 -12.5t-6 -12.5q-43 0 -120 2t-117 2
t-107.5 -2t-91.5 -2q-6 0 -6 12.5t6 12.5q89 0 115 26t26 115v690q0 253 64 406q-97 118 -230 118q-135 0 -213.5 -123t-78.5 -358v-733q0 -48 5.5 -73t27 -42t57 -21.5t102.5 -4.5q4 0 4 -12.5t-4 -12.5q-44 0 -127 2t-125 2q-40 0 -107.5 -2t-91.5 -2q-6 0 -6 12.5t6 12.5
q89 0 115.5 26t26.5 115v690q0 270 129.5 414.5t347.5 144.5q125 0 225 -49q104 121 297 121z" />
    <glyph glyph-name="longs_longs_b.liga" unicode="&#x17f;&#x17f;b" horiz-adv-x="2240" 
d="M1837 817q138 0 233 -99t95 -280q0 -112 -39 -203t-103.5 -147t-143.5 -85.5t-163 -29.5q-154 0 -284 88l-152 -69q-6 -3 -9.5 0.5t-3.5 9t5 8.5q65 44 91 84t26 117l2 1085q-86 158 -230 158q-129 0 -192.5 -130.5t-63.5 -424.5v-733q0 -48 6 -73t29 -41.5t60.5 -21.5
t107.5 -5q4 0 4 -12.5t-4 -12.5q-45 0 -131.5 2t-130.5 2q-40 0 -107.5 -2t-91.5 -2q-6 0 -6 12.5t6 12.5q89 0 114 25.5t25 115.5v690q0 244 66 397q-103 127 -238 127t-213.5 -123t-78.5 -358v-733q0 -48 5.5 -73t27 -42t57 -21.5t102.5 -4.5q4 0 4 -12.5t-4 -12.5
q-44 0 -127 2t-125 2q-40 0 -107.5 -2t-91.5 -2q-6 0 -6 12.5t6 12.5q89 0 115.5 26t26.5 115v690q0 270 129.5 414.5t347.5 144.5q132 0 236 -53q104 125 294 125q166 0 250 -78q25 39 25 82q0 6 11 6t11 -6l-2 -848q75 79 154 126.5t176 47.5zM1778 12q121 0 187 92.5
t67 266.5q-1 183 -74 281t-191 98q-122 0 -260 -142v-440q114 -156 271 -156z" />
    <glyph glyph-name="longs_longs_h.liga" unicode="&#x17f;&#x17f;h" horiz-adv-x="2234" 
d="M2191 25q5 0 5 -12.5t-5 -12.5q-23 0 -86 2t-102 2t-101.5 -2t-84.5 -2q-6 0 -6 12.5t6 12.5q80 0 104.5 26.5t24.5 114.5v326q0 121 -46 179t-143 58q-63 0 -128.5 -34.5t-119.5 -94.5v-434q0 -88 24 -114.5t107 -26.5q4 0 4 -12.5t-4 -12.5q-23 0 -86 2t-102 2
t-101.5 -2t-84.5 -2q-6 0 -6 12.5t6 12.5q80 0 104.5 26.5t24.5 114.5v1130q-86 158 -230 158q-129 0 -192.5 -130.5t-63.5 -424.5v-733q0 -48 6 -73t29 -41.5t60.5 -21.5t107.5 -5q4 0 4 -12.5t-4 -12.5q-45 0 -131.5 2t-130.5 2q-40 0 -107.5 -2t-91.5 -2q-6 0 -6 12.5
t6 12.5q89 0 115.5 26t26.5 115v690q0 245 61 391q-102 133 -240 133q-135 0 -213.5 -123t-78.5 -358v-733q0 -48 5.5 -73t27 -42t57 -21.5t102.5 -4.5q4 0 4 -12.5t-4 -12.5q-44 0 -127 2t-125 2q-40 0 -107.5 -2t-91.5 -2q-6 0 -6 12.5t6 12.5q89 0 115.5 26t26.5 115v690
q0 270 129.5 414.5t347.5 144.5q140 0 238 -55q106 127 297 127q161 0 247 -76q23 41 23 80q0 6 11 6t11 -6v-854q154 176 316 176q113 0 174 -64t61 -188v-395q0 -88 24.5 -114.5t106.5 -26.5z" />
    <glyph glyph-name="longs_longs_i.liga" unicode="&#x17f;&#x17f;i" horiz-adv-x="1695" 
d="M1161 1456q-120 0 -190 -136.5t-70 -420.5v-733q0 -48 5 -72.5t24.5 -42t52.5 -22t96 -4.5q6 0 6 -12.5t-6 -12.5q-42 0 -121 2t-120 2q-40 0 -107.5 -2t-91.5 -2q-6 0 -6 12.5t6 12.5q89 0 115 26t26 115v690q0 247 70 399q-101 125 -236 125t-213.5 -123t-78.5 -358
v-733q0 -48 5.5 -73t27 -42t57 -21.5t102.5 -4.5q4 0 4 -12.5t-4 -12.5q-44 0 -127 2t-125 2q-40 0 -107.5 -2t-91.5 -2q-6 0 -6 12.5t6 12.5q89 0 115.5 26t26.5 115v690q0 270 129.5 414.5t347.5 144.5q132 0 236 -53q108 125 303 125q110 0 174.5 -34t64.5 -81
q0 -30 -19.5 -46.5t-51.5 -16.5q-27 0 -48 15t-35.5 36.5t-31.5 43.5t-45.5 37t-67.5 15zM1608 25q4 0 4 -12.5t-4 -12.5q-22 0 -86 2t-103 2q-38 0 -101 -2t-85 -2q-5 0 -5 12.5t5 12.5q80 0 104.5 26.5t24.5 114.5v383q0 107 -34 130.5t-126 -20.5q-5 -3 -9.5 2.5t-4.5 12
t4 10.5l268 125q7 4 15 -2.5t8 -13.5t-1 -41t-2 -88.5t-1 -112.5v-385q0 -88 24 -114.5t105 -26.5z" />
    <glyph glyph-name="longs_longs_j.liga" unicode="&#x17f;&#x17f;j" horiz-adv-x="1658" 
d="M1161 1456q-120 0 -190 -136.5t-70 -420.5v-733q0 -48 5 -72.5t24.5 -42t52.5 -22t96 -4.5q6 0 6 -12.5t-6 -12.5q-42 0 -121 2t-120 2q-40 0 -107.5 -2t-91.5 -2q-6 0 -6 12.5t6 12.5q89 0 115 26t26 115v690q0 247 70 399q-101 125 -236 125t-213.5 -123t-78.5 -358
v-733q0 -48 5.5 -73t27 -42t57 -21.5t102.5 -4.5q4 0 4 -12.5t-4 -12.5q-44 0 -127 2t-125 2q-40 0 -107.5 -2t-91.5 -2q-6 0 -6 12.5t6 12.5q89 0 115.5 26t26.5 115v690q0 270 129.5 414.5t347.5 144.5q132 0 236 -53q108 125 303 125q110 0 174.5 -34t64.5 -81
q0 -30 -19.5 -46.5t-51.5 -16.5q-27 0 -48 15t-35.5 36.5t-31.5 43.5t-45.5 37t-67.5 15zM1452 809q7 4 15 -2.5t8 -13.5t-1.5 -41t-2.5 -88.5t-1 -112.5v-649q0 -204 -62 -304t-226 -163q-3 -1 -6.5 4t-4 9.5t2.5 6.5q99 43 140.5 134t41.5 266v694q0 107 -34 130.5
t-126 -20.5q-6 -3 -11 2.5t-4.5 12t5.5 10.5z" />
    <glyph glyph-name="longs_longs_k.liga" unicode="&#x17f;&#x17f;k" horiz-adv-x="2217" 
d="M2202 25q6 0 6 -12.5t-6 -12.5q-22 0 -85 2t-102 2q-56 0 -133 -2t-102 -2q-4 0 -4 12.5t4 12.5q74 0 94 20t-10 64l-250 344l-105 -84v-203q0 -88 24 -114.5t107 -26.5q4 0 4 -12.5t-4 -12.5q-23 0 -86 2t-102 2t-101.5 -2t-84.5 -2q-6 0 -6 12.5t6 12.5
q80 0 104.5 26.5t24.5 114.5v1130q-86 158 -230 158q-129 0 -192.5 -130.5t-63.5 -424.5v-733q0 -48 6 -73t29 -41.5t60.5 -21.5t107.5 -5q4 0 4 -12.5t-4 -12.5q-45 0 -131.5 2t-130.5 2q-40 0 -107.5 -2t-91.5 -2q-6 0 -6 12.5t6 12.5q89 0 115.5 26t26.5 115v690
q0 245 61 391q-102 133 -240 133q-135 0 -213.5 -123t-78.5 -358v-733q0 -48 5.5 -73t27 -42t57 -21.5t102.5 -4.5q4 0 4 -12.5t-4 -12.5q-44 0 -127 2t-125 2q-40 0 -107.5 -2t-91.5 -2q-6 0 -6 12.5t6 12.5q89 0 115.5 26t26.5 115v690q0 270 129.5 414.5t347.5 144.5
q140 0 238 -55q106 127 297 127q161 0 247 -76q23 41 23 80q0 6 11 6t11 -6v-1088l277 222q78 63 62.5 102t-115.5 39q-5 0 -5 12.5t5 12.5q27 0 100 -2.5t135 -2.5q57 0 122.5 2.5t88.5 2.5q5 0 5 -12.5t-5 -12.5q-167 0 -354 -148l-119 -94l260 -358q103 -141 236 -141z
" />
    <glyph glyph-name="longs_longs_l.liga" unicode="&#x17f;&#x17f;l" horiz-adv-x="1703" 
d="M1647 25q6 0 6 -12.5t-6 -12.5q-21 0 -85 2t-104 2q-39 0 -102.5 -2t-85.5 -2q-6 0 -6 12.5t6 12.5q80 0 104.5 26.5t24.5 114.5v1122q-87 166 -234 166q-129 0 -192.5 -130.5t-63.5 -424.5v-733q0 -48 6 -73t29 -41.5t60.5 -21.5t107.5 -5q4 0 4 -12.5t-4 -12.5
q-45 0 -131.5 2t-130.5 2q-40 0 -107.5 -2t-91.5 -2q-6 0 -6 12.5t6 12.5q89 0 115.5 26t26.5 115v690q0 245 61 391q-102 133 -240 133q-135 0 -213.5 -123t-78.5 -358v-733q0 -48 5.5 -73t27 -42t57 -21.5t102.5 -4.5q4 0 4 -12.5t-4 -12.5q-44 0 -127 2t-125 2
q-40 0 -107.5 -2t-91.5 -2q-6 0 -6 12.5t6 12.5q89 0 115.5 26t26.5 115v690q0 270 129.5 414.5t347.5 144.5q140 0 238 -55q106 127 297 127q164 0 251 -80q25 39 25 84q0 6 12.5 6t12.5 -6v-1325q0 -88 24 -114.5t105 -26.5z" />
    <glyph glyph-name="longs_longs_thorn.liga" unicode="&#x17f;&#x17f;&#xfe;" horiz-adv-x="2224" 
d="M1837 817q131 0 222 -102t91 -275q0 -95 -29 -175t-74.5 -132.5t-104.5 -89.5t-117.5 -53.5t-114.5 -16.5q-123 0 -215 54v-424q0 -89 36.5 -115.5t164.5 -26.5q6 0 6 -12t-6 -12q-34 0 -121.5 2t-138.5 2q-39 0 -104 -2t-87 -2q-5 0 -5 12t5 12q82 0 106.5 27t24.5 115
v1724q-84 127 -211 127q-129 0 -192.5 -130.5t-63.5 -424.5v-733q0 -48 6 -73t29 -41.5t60.5 -21.5t107.5 -5q4 0 4 -12.5t-4 -12.5q-45 0 -131.5 2t-130.5 2q-40 0 -107.5 -2t-91.5 -2q-6 0 -6 12.5t6 12.5q89 0 115.5 26t26.5 115v690q0 245 61 391q-102 133 -240 133
q-135 0 -213.5 -123t-78.5 -358v-733q0 -48 5.5 -73t27 -42t57 -21.5t102.5 -4.5q4 0 4 -12.5t-4 -12.5q-44 0 -127 2t-125 2q-40 0 -107.5 -2t-91.5 -2q-6 0 -6 12.5t6 12.5q89 0 115.5 26t26.5 115v690q0 270 129.5 414.5t347.5 144.5q140 0 238 -55q106 127 297 127
q148 0 237 -66q16 32 16 70q0 6 12.5 6t12.5 -6v-848q174 174 342 174zM1772 16q109 0 178 96t69 265q0 171 -75.5 266.5t-192.5 95.5q-72 0 -133 -34.5t-123 -98.5v-463q55 -62 120.5 -94.5t156.5 -32.5z" />
    <glyph glyph-name="Aogonek_acutecomb.liga" unicode="&#x104;&#x301;" horiz-adv-x="1441" 
d="M506 1391q-4 -2 -7.5 0t-5 6t-1 8.5t3.5 5.5q75 37 195 111t138 84q14 9 86 -22q54 -23 51 -33q-1 -2 -5 -3q-223 -55 -455 -157zM1430 18q9 0 9 -11t-9 -11q-42 0 -104.5 3t-90.5 3q-110 0 -187 -74.5t-77 -191.5q0 -100 57 -169t168 -69q61 0 113 27q6 5 13 -3t1 -14
q-96 -71 -215 -71q-118 0 -186 59.5t-68 161.5q0 61 25 115.5t60 89.5l73.5 73.5t65.5 69t35 75t-17 91.5l-242 506h-381l-176 -418q-50 -126 -8 -180.5t180 -54.5q9 0 9 -12.5t-9 -12.5q-38 0 -112 4t-130 4q-51 0 -118 -4t-107 -4q-9 0 -9 12.5t9 12.5q85 0 137.5 52
t114.5 202l432 1019q2 5 13.5 5.5t13.5 -5.5l483 -1022q68 -147 119 -202.5t115 -55.5zM492 721h342l-183 383z" />
    <glyph glyph-name="Eogonek_acutecomb.liga" unicode="&#x118;&#x301;" horiz-adv-x="1099" 
d="M399 1391q-9 -4 -13 6.5t3 13.5q75 37 197 111.5t137 83.5q14 9 86 -22q53 -23 50 -33q0 -2 -5 -3q-223 -55 -455 -157zM1018 -455q4 2 9 -1t6.5 -7.5t-1.5 -7.5q-103 -92 -221 -92q-110 0 -170.5 55t-60.5 148q0 175 231 360h-721q-6 0 -6 12.5t6 12.5q112 0 143 25.5
t31 115.5v948q0 89 -31.5 115t-142.5 26q-6 0 -6 12.5t6 12.5h821q19 0 19 -18l6 -254q0 -4 -12.5 -4t-12.5 4q-7 108 -66.5 168.5t-158.5 60.5h-125q-102 0 -133 -25.5t-31 -107.5v-418h250q98 0 140 34t42 111q0 5 12.5 5t12.5 -5q0 -45 -1 -95t-1 -70q0 -31 2 -92.5
t2 -96.5q0 -6 -12.5 -6t-12.5 6q0 90 -44 129t-146 39h-244v-471q0 -80 30.5 -105.5t129.5 -25.5h164q96 0 163 70t89 192q1 5 12.5 3.5t11.5 -7.5q-18 -130 -18 -270q0 -17 -7 -24t-24 -7h-98q-82 -75 -119 -144.5t-37 -148.5q0 -97 49.5 -153t141.5 -56q70 0 133 47z" />
    <glyph glyph-name="Iogonek_acutecomb.liga" unicode="&#x12e;&#x301;" horiz-adv-x="679" 
d="M465 1606q14 9 86 -22q53 -23 50 -33q0 -2 -5 -3q-223 -55 -455 -157q-9 -4 -13 6.5t3 13.5q75 37 197 111.5t137 83.5zM582 1255q-110 0 -142 -27.5t-32 -117.5v-944q0 -90 30.5 -115.5t143.5 -25.5q6 0 6 -12.5t-6 -12.5q-27 0 -101 2t-123 2q-100 -134 -100 -287
q0 -98 46.5 -157.5t125.5 -59.5q25 0 46.5 7.5t30.5 14t30 23.5q4 2 9 -1t6.5 -7.5t-1.5 -7.5q-51 -50 -96 -71t-99 -21q-100 0 -155.5 54t-55.5 147q0 179 181 366q-46 0 -123.5 -2t-106.5 -2q-6 0 -6 12.5t6 12.5q112 0 144 25.5t32 115.5v948q0 88 -32 114.5t-144 26.5
q-6 0 -6 12.5t6 12.5q30 0 112 -3t130 -3q53 0 135 3t109 3q6 0 6 -12.5t-6 -12.5z" />
    <glyph glyph-name="uni01EA0301.liga" unicode="&#x1ea;&#x301;" horiz-adv-x="1568" 
d="M590 1391q-4 -2 -7.5 0t-5 6t-1 8.5t3.5 5.5q75 37 195 111t138 84q14 9 86 -22q53 -23 50 -33q0 -2 -5 -3q-220 -55 -454 -157zM870 -14q-73 -70 -106 -136.5t-33 -142.5q0 -97 49.5 -153t141.5 -56q70 0 133 47q4 2 9 -1t6.5 -7.5t-1.5 -7.5q-103 -92 -221 -92
q-110 0 -171 55t-61 148q0 166 207 340q-63 -5 -73 -5q-191 0 -341 91t-229.5 242t-79.5 331q0 129 43 239t115 187t165.5 131.5t195 80.5t202.5 26q146 0 270 -55t205.5 -146.5t126.5 -208t45 -240.5q0 -125 -46.5 -240t-127 -201.5t-190.5 -146t-234 -79.5zM256 711
q0 -193 70.5 -350.5t201 -250t295.5 -92.5q103 0 191.5 38.5t155.5 110t105 182.5t38 247q0 191 -70.5 340.5t-202 234t-303.5 84.5q-227 0 -354 -145t-127 -399z" />
    <glyph glyph-name="aogonek_acutecomb.liga" unicode="&#x105;&#x301;" horiz-adv-x="858" 
d="M424 971q-1 -4 -7 -4t-11.5 2.5t-4.5 5.5l107 491q3 13 69 25q60 11 56 -2zM846 111q9 3 13.5 -7.5t-3.5 -15.5l-211 -100l-10 -4q-139 -130 -139 -277q0 -97 49 -153t141 -56q70 0 133 47q4 2 9.5 -1t7 -7.5t-1.5 -7.5q-103 -92 -222 -92q-110 0 -170.5 55t-60.5 148
q0 172 223 352q-42 27 -51 123l-127 -68q-116 -61 -184 -61q-64 0 -97.5 33.5t-33.5 86.5q0 55 42.5 88.5t151.5 71.5l246 86v170q0 136 -35 191t-98 55q-69 0 -107 -50t-47 -120q-4 -22 -9.5 -37t-22.5 -28t-44 -13q-69 0 -69 62q0 46 61.5 100t148 90.5t156.5 36.5
q82 0 131.5 -56.5t49.5 -168.5v-363q0 -72 18 -105.5t59 -33.5q34 0 103 29zM426 80l125 63v13v172l-211 -80q-86 -31 -86 -98q0 -43 24.5 -68t65.5 -25q30 0 82 23z" />
    <glyph glyph-name="eogonek_acutecomb.liga" unicode="&#x119;&#x301;" horiz-adv-x="833" 
d="M461 971q-1 -4 -7 -4t-11.5 2.5t-4.5 5.5l107 491q3 13 69 25q60 11 56 -2zM756 -455q4 2 9 -1t6.5 -7.5t-1.5 -7.5q-92 -92 -199 -92q-101 0 -156 52.5t-55 143.5q0 177 228 361q-68 -19 -129 -19q-121 0 -210.5 57t-132 145t-42.5 192q0 185 126.5 312.5t313.5 127.5
q111 0 172.5 -54t61.5 -149q0 -49 -25 -49l-504 -2q-10 -55 -10 -106q0 -179 86 -290.5t235 -111.5q113 0 213 68q3 3 8 -1t7 -9t0 -9q-37 -32 -68 -51q-111 -90 -161 -173.5t-50 -176.5t41.5 -146t118.5 -53q27 0 50 8t36 16.5t31 24.5zM444 768q-84 0 -139.5 -47.5
t-79.5 -136.5l381 8q-1 84 -45 130t-117 46z" />
    <glyph glyph-name="iogonek_acutecomb.liga" unicode="&#x12f;&#x301;" horiz-adv-x="557" 
d="M276 971q-1 -4 -7 -4t-11 2.5t-4 5.5l106 491q3 13 69 25q60 11 56 -2zM498 -455q4 2 9 -1t6.5 -7.5t-1.5 -7.5q-51 -50 -96 -71t-99 -21q-100 0 -155.5 54t-55.5 147q0 179 181 366q-36 0 -96 -2t-82 -2q-5 0 -5 12.5t5 12.5q82 0 106.5 26.5t24.5 114.5v383
q0 73 -16 106t-52 33q-35 0 -92 -29q-6 -3 -11 2.5t-4.5 12t5.5 10.5l264 123q4 4 8 4q6 0 11 -6t5 -12q0 -7 -1 -41t-2 -88.5t-1 -112.5v-385q0 -88 24 -114.5t105 -26.5q6 0 6 -12.5t-6 -12.5q-19 0 -74.5 2t-89.5 2q-100 -134 -100 -287q0 -98 46.5 -157.5t125.5 -59.5
q25 0 46.5 7.5t30.5 14t30 23.5z" />
    <glyph glyph-name="uni01EB0301.liga" unicode="&#x1eb;&#x301;" horiz-adv-x="983" 
d="M487 971q-1 -4 -7 -4t-11 2.5t-4 5.5l106 491q3 13 69 25q60 11 56 -2zM907 395q0 -166 -99 -277t-251 -138q-119 -133 -119 -285q0 -95 44.5 -147t129.5 -52q73 0 138 49q4 2 9 -1t6.5 -7.5t-1.5 -7.5q-106 -92 -225 -92q-105 0 -161 52.5t-56 143.5q0 168 192 342
q-12 -2 -39 -2q-179 0 -290 127t-111 306q0 82 26.5 151t70 116t100.5 80.5t117.5 48.5t121.5 15q91 0 167 -36t125.5 -95.5t77 -134.5t27.5 -156zM211 469q0 -192 91 -325.5t230 -133.5q111 0 173.5 81.5t62.5 246.5q0 193 -92 316.5t-234 123.5q-110 0 -170.5 -79
t-60.5 -230z" />
    <glyph glyph-name=".notdef" horiz-adv-x="1026" 
d="M193 -563v2048h649v-2048h-649zM344 1282h133v-78h-135v-65h340v65h-135v78h135v66h-338v-66zM342 872h340v70h-135v141h-205v-211zM410 942v72h67v-72h-67zM342 748h135v-74h-135v-70h205v144h135v67h-340v-67zM616 559h-274v-70h340v203h-66v-133zM477 328h70v49h69
v-98h-206v163h-68v-231h340v231h-205v-114zM342 -143h340v231h-340v-231zM410 -76v99h206v-99h-206zM342 -258h143l-143 -96v-68h340v68h-207l141 96h66v70h-340v-70z" />
    <glyph glyph-name=".null" horiz-adv-x="0" 
 />
    <glyph glyph-name="nonmarkingreturn" horiz-adv-x="682" 
 />
    <glyph glyph-name="space" unicode=" " horiz-adv-x="479" 
 />
    <glyph glyph-name="exclam" unicode="!" horiz-adv-x="505" 
d="M160 1270q-1 5 13 9t36 6.5t45 2.5q22 0 44 -2.5t36.5 -6.5t13.5 -9q-25 -124 -43 -299t-24.5 -282t-16.5 -302q0 -6 -15.5 -6t-15.5 6q-22 605 -73 883zM252 -23q-43 0 -66.5 24t-23.5 67q0 39 24 61.5t66 22.5q41 0 63.5 -22.5t22.5 -61.5q0 -43 -22.5 -67t-63.5 -24z
" />
    <glyph glyph-name="quotedbl" unicode="&#x22;" horiz-adv-x="579" 
d="M113 748l-25 499q-1 26 69 50q64 22 84 12q4 -2 3 -6l-107 -553q-1 -3 -7 -5t-11.5 -1.5t-5.5 4.5zM406 748l-25 499q-1 26 69 50q64 22 84 12q4 -2 3 -6l-107 -553q-1 -3 -7 -5t-11.5 -1.5t-5.5 4.5z" />
    <glyph glyph-name="numbersign" unicode="#" horiz-adv-x="1077" 
d="M948 645q9 0 9 -41t-9 -41h-147l-60 -325h136q9 0 9 -41t-9 -41h-150l-55 -318q-3 -5 -20 -5.5t-37 4t-19 9.5l55 310h-307l-57 -318q-3 -5 -19.5 -5.5t-36 4t-18.5 9.5l55 310h-139q-6 0 -8 20.5t-0.5 41t6.5 20.5h156l57 325h-139q-6 0 -8 20.5t-0.5 41t6.5 20.5h155
l60 342q3 5 20 4.5t36.5 -6.5t18.5 -12l-59 -328h307l60 342q3 5 20 4.5t36.5 -6.5t18.5 -12l-57 -328h133zM666 238l57 325h-307l-58 -325h308z" />
    <glyph glyph-name="dollar" unicode="$" horiz-adv-x="841" 
d="M750 252q0 -107 -77.5 -183.5t-211.5 -91.5v-186q0 -13 -22.5 -13t-22.5 13v184h-10q-140 0 -246 72q-16 8 -19 39l-20 201q-1 9 10 10.5t14 -4.5q27 -109 102 -189.5t169 -93.5v432q-5 2 -14.5 7.5t-14.5 7.5q-37 20 -53 29.5t-48 29.5t-47.5 33.5t-37.5 36t-32 43
t-18 48.5t-8 58q0 107 78 171.5t195 74.5v168q0 15 22.5 15t22.5 -15v-166q98 -3 194 -47q18 -7 23.5 -14t7.5 -21l14 -178q0 -9 -10.5 -10.5t-13.5 6.5q-13 72 -73 141.5t-142 87.5v-395l35 -18q35 -19 47 -25.5t43.5 -25t44.5 -29t37 -30t35 -36t24 -38.5t18 -47t5 -52z
M252 788q0 -70 43 -119.5t121 -93.5v377q-79 0 -121.5 -45.5t-42.5 -118.5zM461 8q71 3 121.5 45.5t50.5 128.5q0 79 -45 133.5t-127 102.5v-410z" />
    <glyph glyph-name="percent" unicode="%" horiz-adv-x="1175" 
d="M307 621q-109 0 -180.5 76.5t-71.5 189.5q0 109 71.5 184.5t180.5 75.5q107 0 176.5 -77t69.5 -189q0 -110 -70 -185t-176 -75zM217 -10q-2 -4 -15 1t-24.5 12.5t-9.5 10.5l760 1114q6 7 29 -7.5t20 -20.5zM322 645q29 0 49.5 11.5t32.5 29.5t19 48t9 60t2 72
q0 127 -35.5 192.5t-103.5 65.5q-69 0 -95 -61t-26 -170q0 -248 148 -248zM874 -10q-109 0 -180 77t-71 189q0 109 71 185.5t180 76.5q108 0 177 -77.5t69 -188.5t-70 -186.5t-176 -75.5zM889 14q36 0 59 16t34 48.5t15 69t4 90.5q0 126 -35.5 191t-103.5 65
q-36 0 -60.5 -17.5t-36.5 -51.5t-17 -71.5t-5 -89.5q0 -250 146 -250z" />
    <glyph glyph-name="ampersand" unicode="&#x26;" horiz-adv-x="1427" 
d="M1427 25q6 -1 7.5 -7t-1 -12t-6.5 -6h-221q-92 0 -280 145q-167 -170 -414 -170q-95 0 -170 26t-119.5 70t-67 98t-22.5 114q0 50 16.5 97.5t40 84t64.5 76.5t75 67t85 64q-40 61 -60 102q-57 120 -57 223q0 137 94 231.5t244 94.5q44 0 83.5 -9.5t76 -31.5t58 -63.5
t21.5 -98.5q0 -27 -5.5 -53.5t-13.5 -48t-24 -45.5t-28.5 -41t-37 -39t-39.5 -35.5t-45.5 -35.5t-45.5 -32.5t-49.5 -34t-48.5 -32.5q143 -233 438 -455q69 126 69 275q0 75 -29 111t-116 36q-6 0 -6.5 12.5t6.5 12.5l428 2q7 0 7 -12.5t-7 -12.5q-42 0 -71.5 -5.5
t-47.5 -13t-30.5 -25t-18.5 -33t-14 -44.5q-55 -194 -141 -325q123 -90 234.5 -148t188.5 -73zM414 1085q0 -162 106 -335q53 39 90 72t72 75.5t52.5 90t17.5 99.5q0 91 -48 142t-131 51q-159 0 -159 -195zM604 37q172 0 295 129l-37 31q-122 96 -236 214t-194 236
q-81 -66 -125.5 -136t-44.5 -159q0 -132 97 -223.5t245 -91.5z" />
    <glyph glyph-name="quotesingle" unicode="'" horiz-adv-x="286" 
d="M113 748l-25 499q-1 26 69 50q64 22 84 12q4 -2 3 -6l-107 -553q-1 -3 -7 -5t-11.5 -1.5t-5.5 4.5z" />
    <glyph glyph-name="parenleft" unicode="(" horiz-adv-x="632" 
d="M133 623q0 291 113 522t315 340q3 2 7.5 -3t0.5 -9q-295 -281 -295 -850t295 -850q4 -3 -0.5 -9t-7.5 -4q-202 111 -315 342t-113 521z" />
    <glyph glyph-name="parenright" unicode=")" horiz-adv-x="632" 
d="M500 623q0 -291 -113 -522.5t-315 -340.5q-3 -2 -8 3.5t-1 9.5q295 281 295 850t-295 850q-3 2 -1.5 5t5 5.5t5.5 1.5q202 -111 315 -341.5t113 -520.5z" />
    <glyph glyph-name="asterisk" unicode="*" horiz-adv-x="917" 
d="M463 1083l4 263q0 27 78 51q66 20 79 11q2 -2 1 -5l-142 -320q-1 -6 -10.5 -6t-9.5 6zM418 1047l-250 83q-27 10 -23 101q2 65 14 70q2 0 3 -1l262 -235q3 -3 2.5 -7t-3 -8t-5.5 -3zM864 995l-350 35q-5 0 -7.5 10t1.5 11l254 77q24 7 72 -60q39 -56 34 -71q-1 -3 -4 -2z
M281 784q-16 -24 -100 6q-59 21 -64 35q0 3 2 4l303 177q4 4 11.5 -2t4.5 -11zM551 641l-74 344q-2 3 2 7t9 6.5t6 0.5l151 -217q17 -23 -36 -92q-37 -49 -54 -52q-3 0 -4 3z" />
    <glyph glyph-name="plus" unicode="+" horiz-adv-x="815" 
d="M745 428q9 0 9 -40t-9 -40h-299v-297q0 -6 -20 -8t-39.5 -0.5t-19.5 6.5v299h-297q-6 0 -8 20t-0.5 40t6.5 20h299v299q0 9 39.5 9t39.5 -9v-299h299z" />
    <glyph glyph-name="comma" unicode="," horiz-adv-x="454" 
d="M209 145q62 0 96.5 -46t34.5 -132q0 -82 -36.5 -152.5t-108.5 -140.5q-5 -4 -11 -1.5t-7.5 7.5t1.5 9q101 104 101 241q0 56 -21 84q-18 -30 -63 -30q-38 0 -59 21.5t-21 57.5q0 82 94 82z" />
    <glyph glyph-name="hyphen" unicode="-" horiz-adv-x="577" 
d="M66 342q-6 -1 -8.5 21.5t-1.5 46t5 24.5l439 72q6 1 8 -21.5t0 -46t-8 -24.5z" />
    <glyph glyph-name="period" unicode="." horiz-adv-x="405" 
d="M205 -23q-43 0 -66.5 24t-23.5 67q0 39 24 61.5t66 22.5q41 0 63.5 -22.5t22.5 -61.5q0 -43 -22.5 -67t-63.5 -24z" />
    <glyph glyph-name="slash" unicode="/" horiz-adv-x="700" 
d="M131 -334q-3 -9 -41.5 3t-36.5 20l516 1806q2 3 10.5 3t20.5 -3.5t23 -8t18 -9t6 -7.5z" />
    <glyph glyph-name="zero" unicode="0" horiz-adv-x="976" 
d="M492 -27q-184 0 -302 120t-118 308q0 183 118 299.5t304 116.5q181 0 296 -118.5t115 -303.5t-116 -303.5t-297 -118.5zM514 2q124 0 186 98.5t62 270.5q0 205 -82.5 311t-206.5 106q-123 0 -191.5 -102t-68.5 -268q0 -183 82 -299.5t219 -116.5z" />
    <glyph glyph-name="one" unicode="1" horiz-adv-x="679" 
d="M113 0q-6 0 -6 12.5t6 12.5q125 0 162.5 26t37.5 115v381q0 44 -2 69t-10.5 44t-20 24t-36.5 1.5t-54.5 -15t-78.5 -33.5q-5 -2 -10 2.5t-5.5 10t4.5 9.5l310 150q7 4 13.5 -1.5t6.5 -12.5v-629q0 -48 6 -73t29 -41.5t60 -21.5t106 -5q5 0 5 -12.5t-5 -12.5q-33 0 -120 2
t-140 2q-51 0 -138 -2t-120 -2z" />
    <glyph glyph-name="two" unicode="2" horiz-adv-x="823" 
d="M76 25q265 216 364 333.5t99 225.5q0 84 -50.5 136t-130.5 52q-161 0 -233 -252q-1 -4 -7.5 -4t-12.5 2.5t-5 5.5l80 312q2 8 17 2q8 -4 6 -7q-12 -55 28 -55q14 0 84 20.5t127 20.5q104 0 165 -56t61 -145q0 -28 -6 -55t-22.5 -56t-32.5 -53t-50 -58t-60 -59t-76.5 -67
t-87 -71t-102.5 -82q-6 -6 -2 -10.5t13 -4.5q313 0 395 19.5t104 113.5q1 6 12 5t11 -7l-31 -208q0 -8 -5.5 -15.5t-12.5 -7.5h-625q-10 0 -15.5 9t1.5 16z" />
    <glyph glyph-name="three" unicode="3" horiz-adv-x="772" 
d="M412 279q127 -15 201.5 -95.5t74.5 -197.5q0 -149 -142 -281.5t-448 -267.5q-7 -3 -11.5 7t1.5 15q130 65 220.5 130t140 128t71 121.5t21.5 122.5q0 117 -64 200t-178 83q-58 0 -106 -25q-5 -3 -10 2t-6 10.5t3 8.5q75 41 178 41h19q119 104 119 268q0 104 -44 163.5
t-133 59.5t-150 -59t-99 -185q-2 -3 -8 -3t-12 3t-5 7l78 299q2 7 16 2q8 -3 6 -7q-8 -32 3 -44.5t30 -12.5q12 0 81.5 22.5t125.5 22.5q114 0 178 -68t64 -165q0 -87 -57 -166t-158 -139z" />
    <glyph glyph-name="four" unicode="4" horiz-adv-x="923" 
d="M846 90q9 0 9 -44t-9 -44q-60 4 -172 8v-323q0 -22 -17 -29l-86 -43q-11 -6 -14.5 -3.5t-3.5 15.5v385q-129 4 -494 4q-9 0 -14.5 8t0.5 17l598 770q5 6 18 3.5t13 -11.5v-717q50 0 172 4zM160 78q175 0 393 4v526l-403 -516q-10 -14 10 -14z" />
    <glyph glyph-name="five" unicode="5" horiz-adv-x="837" 
d="M244 666q-28 0 -31 -29l-41 -236q282 -3 414.5 -104.5t132.5 -278.5q0 -171 -134.5 -304t-445.5 -277q-8 -3 -13.5 7.5t1.5 14.5q130 64 220.5 130t141.5 132.5t73 129.5t22 133q0 169 -115 263.5t-330 94.5q-10 0 -16 8t-4 17l65 364q2 14 6 18t21 5q372 43 433 60
q46 12 57 36l6 16q1 4 7 5t11 -1.5t4 -7.5l-41 -151q-7 -23 -18.5 -29t-38.5 -6z" />
    <glyph glyph-name="six" unicode="6" horiz-adv-x="952" 
d="M612 580q71 0 124.5 -21.5t84 -59t45.5 -81t15 -92.5q0 -146 -120 -249.5t-290 -103.5q-174 0 -274.5 119t-100.5 334q0 191 84.5 372.5t250.5 330t388 225.5q7 1 11.5 -8.5t-1.5 -14.5q-147 -66 -263.5 -167t-189.5 -217t-111 -240t-38 -246q0 -191 81.5 -320
t219.5 -129q100 0 161 69.5t61 190.5q0 111 -52.5 180.5t-156.5 69.5q-53 0 -99 -22t-104 -74q-4 -2 -9.5 0t-10.5 6.5t-3 7.5q115 140 297 140z" />
    <glyph glyph-name="seven" unicode="7" horiz-adv-x="878" 
d="M334 -446q-10 -26 -43 -52l-105 -65q-3 -2 -9 4t-5 10l547 1221q6 14 -10 14q-118 0 -191.5 -0.5t-145 -3.5t-109 -5.5t-74 -11.5t-52 -16.5t-31 -24.5t-21 -32.5t-13.5 -42.5q-1 -5 -7.5 -6t-12.5 2t-5 8l72 293q2 3 8.5 3.5t11.5 -1t4 -4.5q-7 -35 10.5 -44t86.5 -9
h542q9 0 15.5 -9.5t3.5 -17.5z" />
    <glyph glyph-name="eight" unicode="8" horiz-adv-x="1001" 
d="M606 707q61 -33 96 -54t84.5 -58.5t76.5 -72t47 -84.5t20 -106q0 -153 -127 -256t-307 -103q-177 0 -288.5 99t-111.5 233q0 120 86.5 224.5t212.5 162.5q-88 51 -136 106t-48 132q0 60 30 109t78 77.5t103 44t110 15.5q121 0 197 -66.5t76 -144.5q0 -61 -54.5 -132
t-144.5 -126zM326 991q0 -37 15 -71t35.5 -59t59 -53t68 -45t78.5 -44q106 97 106 221q0 82 -57.5 142.5t-130.5 60.5q-82 0 -128 -40t-46 -112zM553 10q111 0 183.5 70t72.5 186q0 42 -10.5 80t-24 66.5t-43 59.5t-49 49t-62.5 45t-62.5 38t-69 37.5t-64.5 34.5
q-94 -51 -144.5 -133t-50.5 -183q0 -141 91.5 -245.5t232.5 -104.5z" />
    <glyph glyph-name="nine" unicode="9" horiz-adv-x="952" 
d="M362 211q-76 0 -134.5 26.5t-91 70t-48.5 92.5t-16 100q0 138 107 227.5t265 89.5q190 0 302 -130.5t112 -348.5q0 -138 -50 -276t-140.5 -259t-229 -218t-305.5 -148q-6 -2 -10.5 8t2.5 14q117 48 216 121.5t169 158.5t119 181t72.5 192t23.5 187q0 79 -17 158.5
t-52 154t-98.5 121.5t-145.5 47q-97 0 -152 -63.5t-55 -177.5q0 -118 57 -195.5t166 -77.5q50 0 91 18t95 60q6 6 16 -1t7 -13q-104 -119 -275 -119z" />
    <glyph glyph-name="colon" unicode=":" horiz-adv-x="405" 
d="M205 553q-43 0 -66.5 23.5t-23.5 66.5q0 39 24 61.5t66 22.5q41 0 63.5 -22.5t22.5 -61.5q0 -43 -22.5 -66.5t-63.5 -23.5zM205 -23q-43 0 -66.5 24t-23.5 67q0 39 24 61.5t66 22.5q41 0 63.5 -22.5t22.5 -61.5q0 -43 -22.5 -67t-63.5 -24z" />
    <glyph glyph-name="semicolon" unicode=";" horiz-adv-x="458" 
d="M209 553q-43 0 -66.5 23.5t-23.5 66.5q0 39 24 61.5t66 22.5q41 0 63.5 -22.5t22.5 -61.5q0 -43 -22.5 -66.5t-63.5 -23.5zM213 145q62 0 96.5 -46t34.5 -132q0 -82 -36.5 -152.5t-108.5 -140.5q-5 -4 -11 -1.5t-7.5 7.5t1.5 9q101 104 101 241q0 56 -21 84
q-18 -30 -63 -30q-38 0 -59 21.5t-21 57.5q0 82 94 82z" />
    <glyph glyph-name="less" unicode="&#x3c;" horiz-adv-x="833" 
d="M758 135q14 -6 13 -52q-2 -35 -13 -32l-684 303q-10 6 -10 36t10 34l684 301q7 4 11 -11q8 -31 -3 -60q-3 -8 -8 -11l-592 -254z" />
    <glyph glyph-name="equal" unicode="=" horiz-adv-x="958" 
d="M70 492q-6 0 -8 20t-0.5 39.5t6.5 19.5h821q9 0 9 -39.5t-9 -39.5h-819zM70 205q-6 0 -8 20t-0.5 40t6.5 20h821q9 0 9 -40t-9 -40h-819z" />
    <glyph glyph-name="greater" unicode="&#x3e;" horiz-adv-x="833" 
d="M760 422q10 -6 10 -36t-10 -34l-684 -301q-7 -4 -11 11q-8 31 3 60q4 8 8 11l592 254l-592 254q-14 6 -13 52q2 35 13 32z" />
    <glyph glyph-name="question" unicode="?" horiz-adv-x="675" 
d="M324 1251q-26 0 -43 -7.5t-25.5 -24t-12 -28t-7.5 -34.5q-13 -90 -78 -90q-33 0 -51.5 20.5t-18.5 49.5q0 59 71.5 101t172.5 42q119 0 198.5 -63.5t79.5 -180.5q0 -45 -11.5 -83.5t-35.5 -71.5t-43 -53.5t-53 -52.5q-9 -9 -14 -13q-70 -70 -99.5 -127t-29.5 -127
q0 -46 12 -113q1 -3 -5 -5.5t-12.5 -2.5t-7.5 4q-23 54 -38 126t-15 118q0 40 11.5 74t30.5 58.5t41.5 47.5t45.5 47t42 50.5t30.5 64t11.5 82.5q0 87 -41 139.5t-106 52.5zM319 -23q-43 0 -66.5 24t-23.5 67q0 39 24 61.5t66 22.5q41 0 64 -22.5t23 -61.5q0 -43 -23 -67
t-64 -24z" />
    <glyph glyph-name="at" unicode="@" horiz-adv-x="1472" 
d="M956 104q-70 0 -96 48t-12 131l20 102q-71 -129 -158.5 -207t-164.5 -78q-54 0 -84.5 40t-20.5 124q17 110 85.5 219t159.5 177.5t171 68.5q64 0 96 -43q31 24 37 57q6 6 30 1q7 -3 7 -5l-84 -458q-6 -40 -6.5 -70t17.5 -48t57 -18q91 0 167 92.5t76 245.5
q0 131 -65.5 241t-181.5 174.5t-258 64.5q-116 0 -213 -45t-160.5 -122t-99 -177.5t-35.5 -212.5q0 -244 156 -393.5t409 -149.5q97 0 171.5 20.5t168.5 75.5q4 2 8 -1.5t5 -8t-1 -6.5q-176 -142 -418 -142q-123 0 -230 38t-186.5 108t-125 175.5t-45.5 233.5
q0 140 55.5 263.5t147.5 208.5t213 134.5t249 49.5q113 0 209.5 -38t162 -102t102 -149.5t36.5 -179.5q0 -114 -50.5 -215.5t-136.5 -162.5t-184 -61zM600 180q54 0 117 56.5t113 143t69 173.5q10 56 -12 92t-74 35q-79 -2 -160 -107t-104 -241q-13 -70 -1.5 -111t52.5 -41z
" />
    <glyph glyph-name="A" unicode="A" horiz-adv-x="1437" 
d="M1430 25q9 0 9 -12.5t-9 -12.5q-38 0 -118.5 4t-117.5 4q-44 0 -112 -4t-105 -4q-9 0 -9 12.5t9 12.5q110 0 134.5 31t-15.5 120l-238 502h-385l-176 -418q-51 -126 -8.5 -180.5t180.5 -54.5q9 0 9 -12.5t-9 -12.5q-38 0 -112 4t-130 4q-51 0 -118 -4t-107 -4
q-9 0 -9 12.5t9 12.5q84 0 136 51.5t116 202.5l432 1019q2 5 13.5 5.5t13.5 -5.5l483 -1017q71 -151 119.5 -203.5t114.5 -52.5zM492 721h346l-183 387z" />
    <glyph glyph-name="B" unicode="B" horiz-adv-x="1142" 
d="M680 721q164 -12 262 -107.5t98 -236.5q0 -165 -116.5 -275t-290.5 -110q-42 0 -148 6t-153 6q-48 0 -130 -2t-112 -2q-6 0 -6 12.5t6 12.5q111 0 143.5 26t32.5 115v948q0 88 -32 114.5t-142 26.5q-6 0 -6 12.5t6 12.5q30 0 111 -3t129 -3q36 0 122 6t119 6
q173 0 257.5 -74t84.5 -196q0 -99 -63 -176t-172 -119zM528 1255q-41 0 -61.5 -3.5t-38 -18t-23.5 -43.5t-6 -80v-389q53 -2 93 -2q150 0 220 76.5t70 203.5q0 116 -61.5 186t-192.5 70zM602 29q295 0 295 299q0 155 -91 251t-251 97q-49 2 -156 -2v-508q0 -52 14.5 -80
t59 -42.5t129.5 -14.5z" />
    <glyph glyph-name="C" unicode="C" horiz-adv-x="1370" 
d="M850 1303q99 0 199 -19t159 -53q19 -10 23 -17.5t6 -29.5l25 -232q0 -5 -11 -6.5t-12 4.5q-45 158 -167.5 232.5t-301.5 74.5q-234 0 -375 -151t-141 -399q0 -191 79 -353t213 -256t290 -94q147 0 255 81.5t166 248.5q1 6 13 4.5t12 -6.5l-31 -232q-3 -26 -7.5 -33.5
t-22.5 -13.5q-186 -78 -390 -78q-151 0 -276 40.5t-207.5 107t-139.5 155t-82.5 182t-25.5 191.5q0 142 62.5 265.5t166.5 207t240 131.5t281 48z" />
    <glyph glyph-name="D" unicode="D" horiz-adv-x="1415" 
d="M621 -8q-38 0 -148 6t-160 6q-48 0 -129.5 -2t-111.5 -2q-4 0 -4 12.5t4 12.5q113 0 145.5 26t32.5 115v948q0 88 -32 114.5t-144 26.5q-4 0 -4 12.5t4 12.5q31 0 111 -3t128 -3q47 0 145.5 5t133.5 5q214 0 379.5 -82t254.5 -223.5t89 -316.5q0 -150 -55.5 -277
t-150 -212.5t-221 -133t-267.5 -47.5zM600 23q250 0 404.5 156t154.5 437q0 178 -66 322.5t-192 229.5t-291 85q-132 0 -180.5 -26.5t-48.5 -116.5v-922q0 -90 45 -127.5t174 -37.5z" />
    <glyph glyph-name="E" unicode="E" horiz-adv-x="1099" 
d="M973 305q1 5 12.5 3.5t11.5 -7.5q-18 -130 -18 -270q0 -17 -7 -24t-24 -7h-858q-6 0 -6 12.5t6 12.5q112 0 143 25.5t31 115.5v948q0 89 -31.5 115t-142.5 26q-6 0 -6 12.5t6 12.5h821q19 0 19 -18l6 -254q0 -4 -12.5 -4t-12.5 4q-7 108 -66.5 168.5t-158.5 60.5h-125
q-102 0 -133 -25.5t-31 -107.5v-418h250q98 0 140 34t42 111q0 5 12.5 5t12.5 -5q0 -45 -1 -95t-1 -70q0 -31 2 -92.5t2 -96.5q0 -6 -12.5 -6t-12.5 6q0 90 -44 129t-146 39h-244v-471q0 -80 30.5 -105.5t129.5 -25.5h164q96 0 163 70t89 192z" />
    <glyph glyph-name="F" unicode="F" horiz-adv-x="1044" 
d="M930 1262l6 -254q0 -4 -12.5 -4t-12.5 4q-7 108 -66.5 168.5t-158.5 60.5h-125q-99 0 -131.5 -25t-32.5 -100v-448h207q108 0 155.5 34t47.5 109q0 6 11 6t11 -6q0 -45 -1 -94.5t-1 -71.5q0 -31 2 -91.5t2 -96.5q0 -6 -11 -6t-11 6q0 90 -48.5 129t-162.5 39h-201v-447
q0 -65 18 -94.5t69 -42t161 -12.5q5 0 5 -12.5t-5 -12.5q-41 0 -144.5 2t-170.5 2q-48 0 -130.5 -2t-113.5 -2q-4 0 -4 12.5t4 12.5q114 0 146 25.5t32 115.5v948q0 89 -31.5 115t-142.5 26q-6 0 -6 12.5t6 12.5h821q19 0 19 -18z" />
    <glyph glyph-name="G" unicode="G" horiz-adv-x="1464" 
d="M829 -25q-168 0 -307 51t-230.5 139.5t-141.5 207t-50 254.5q0 197 101.5 352t279 239.5t400.5 84.5q99 0 190.5 -19t149.5 -55q5 -3 9 -5.5t6.5 -5.5t4 -5t2 -6t1 -6t1 -8t0.5 -9l25 -232q0 -5 -12 -6.5t-13 4.5q-44 148 -161.5 227.5t-290.5 79.5q-258 0 -399.5 -149
t-141.5 -410q0 -200 81.5 -357.5t224.5 -244t321 -86.5q79 0 126.5 9t82.5 36t49 75.5t14 127.5q0 55 -2 85.5t-11 58.5t-21.5 40t-41.5 21.5t-63 11.5t-92 2q-8 0 -11 8.5t-0.5 16.5t9.5 8q228 -16 460 -4q8 0 9 -14.5t-9 -14.5q-26 1 -41.5 -1t-28 -12.5t-18.5 -23.5
t-10 -43.5t-5 -64.5t-1 -94q0 -82 7 -129.5t7 -51.5q0 -11 -4 -15t-18 -9q-244 -58 -437 -58z" />
    <glyph glyph-name="H" unicode="H" horiz-adv-x="1554" 
d="M1481 25q5 0 5 -12.5t-5 -12.5q-30 0 -113.5 2t-132.5 2q-53 0 -135 -2t-111 -2q-6 0 -6 12.5t6 12.5q116 0 148 25.5t32 115.5v479h-786v-479q0 -90 32 -115.5t148 -25.5q6 0 6 -12.5t-6 -12.5q-30 0 -112.5 2t-135.5 2q-49 0 -131 -2t-112 -2q-4 0 -4 12.5t4 12.5
q114 0 147 26t33 115v948q0 88 -32.5 114.5t-145.5 26.5q-4 0 -4 12.5t4 12.5q31 0 111.5 -3t129.5 -3q53 0 136 3t112 3q6 0 6 -12.5t-6 -12.5q-114 0 -147 -28t-33 -117v-424h786v424q0 90 -32.5 117.5t-147.5 27.5q-6 0 -6 12.5t6 12.5q29 0 111 -3t135 -3q49 0 132.5 3
t113.5 3q5 0 5 -12.5t-5 -12.5q-114 0 -147.5 -26.5t-33.5 -114.5v-948q0 -89 33.5 -115t147.5 -26z" />
    <glyph glyph-name="I" unicode="I" horiz-adv-x="679" 
d="M408 166q0 -90 30.5 -115.5t143.5 -25.5q6 0 6 -12.5t-6 -12.5q-29 0 -110 2t-134 2q-48 0 -130 -2t-112 -2q-6 0 -6 12.5t6 12.5q112 0 144 25.5t32 115.5v948q0 88 -32 114.5t-144 26.5q-6 0 -6 12.5t6 12.5q30 0 112 -3t130 -3q53 0 135 3t109 3q6 0 6 -12.5t-6 -12.5
q-110 0 -142 -27.5t-32 -117.5v-944z" />
    <glyph glyph-name="J" unicode="J" horiz-adv-x="659" 
d="M573 1280q5 0 5 -12.5t-5 -12.5q-96 0 -123.5 -27.5t-27.5 -117.5v-1167q0 -203 -94.5 -323t-272.5 -120q-69 0 -109 24t-40 64q0 30 18 50t51 20t56 -18.5t33.5 -40t30.5 -40t48 -18.5q71 0 107.5 85.5t36.5 273.5v1214q0 89 -36.5 115t-164.5 26q-4 0 -4 12.5t4 12.5
q36 0 125 -3t141 -3q48 0 121.5 3t99.5 3z" />
    <glyph glyph-name="K" unicode="K" horiz-adv-x="1331" 
d="M1313 25q6 0 6 -12.5t-6 -12.5h-230h-30q-53 -1 -70.5 11t-68.5 83q-78 109 -152 203l-313 395l-68 -65v-461q0 -90 30.5 -115.5t143.5 -25.5q6 0 6 -12.5t-6 -12.5q-29 0 -109.5 2t-132.5 2q-48 0 -129.5 -2t-111.5 -2q-4 0 -4 12.5t4 12.5q113 0 145.5 26t32.5 115v948
q0 88 -32 114.5t-144 26.5q-4 0 -4 12.5t4 12.5q31 0 111 -3t128 -3q52 0 133.5 3t108.5 3q6 0 6 -12.5t-6 -12.5q-109 0 -141.5 -28t-32.5 -117v-434l438 438q78 78 66 109.5t-119 31.5q-4 0 -4 12.5t4 12.5q28 0 102 -3t136 -3q59 0 127 3t92 3q5 0 5 -12.5t-5 -12.5
q-86 0 -181 -36.5t-176 -116.5l-323 -318l295 -378q56 -72 99.5 -126.5t81 -94.5t64 -67.5t53.5 -45.5t42.5 -27.5t40.5 -14t37 -5t41 -0.5h16z" />
    <glyph glyph-name="L" unicode="L" horiz-adv-x="1091" 
d="M379 1112v-938q0 -83 30 -107t136 -24h221q117 0 187 72.5t91 199.5q0 3 6 3.5t12.5 -1.5t6.5 -6q-20 -152 -20 -280q0 -18 -6.5 -24.5t-24.5 -6.5h-946q-4 0 -4 12.5t4 12.5q112 0 143 25.5t31 115.5v948q0 89 -31.5 115t-142.5 26q-4 0 -4 12.5t4 12.5q30 0 110.5 -3
t128.5 -3q52 0 133.5 3t108.5 3q6 0 6 -12.5t-6 -12.5q-111 0 -142.5 -27t-31.5 -116z" />
    <glyph glyph-name="M" unicode="M" horiz-adv-x="1712" 
d="M1663 25q6 0 6 -12.5t-6 -12.5q-30 0 -112 2t-130 2q-47 0 -121.5 -2t-101.5 -2q-4 0 -4 12.5t4 12.5q102 0 131 26t25 115l-37 930l-467 -1082q-4 -8 -17 -8t-18 8l-504 1076l-18 -867q-2 -107 37 -152.5t137 -45.5q5 0 5 -12.5t-5 -12.5q-29 0 -94 2t-105 2
q-37 0 -100.5 -2t-87.5 -2q-6 0 -6 12.5t6 12.5q86 0 125.5 46.5t40.5 151.5l16 951q-60 81 -168 81q-4 0 -4 12.5t4 12.5q24 0 70 -2t61 -2q26 0 62.5 2t42.5 2q28 0 45 -19t49 -87l459 -963l444 1018q22 51 62 51q4 0 31 -2t48 -2q40 0 91.5 2t74.5 2q6 0 6 -12.5
t-6 -12.5q-103 0 -147 -30t-41 -111l41 -948q2 -63 15 -90.5t48 -39t113 -11.5z" />
    <glyph glyph-name="N" unicode="N" horiz-adv-x="1488" 
d="M1442 1280q6 0 6 -12.5t-6 -12.5q-86 0 -125 -47t-39 -151v-1080q0 -6 -10 -7.5t-13 1.5l-944 1141q-1 1 -16 21v-910q0 -106 36.5 -152t121.5 -46q6 0 6 -12.5t-6 -12.5q-24 0 -84 2t-97 2q-36 0 -99 -2t-89 -2q-6 0 -6 12.5t6 12.5q87 0 124.5 46t37.5 152v959
q-78 73 -162 73q-6 0 -6 12.5t6 12.5q24 0 73 -2t70 -2q29 0 70 2t49 2q16 0 24.5 -7.5t28 -39t41.5 -59.5l791 -967v850q0 105 -36 151.5t-120 46.5q-5 0 -5 12.5t5 12.5q26 0 84.5 -3t95.5 -3q35 0 98.5 3t88.5 3z" />
    <glyph glyph-name="O" unicode="O" horiz-adv-x="1568" 
d="M750 -25q-191 0 -341 91t-229.5 242t-79.5 331q0 129 43 239t115 187t165.5 131.5t195 80.5t202.5 26q146 0 270 -55t205.5 -146.5t126.5 -208t45 -240.5q0 -140 -58 -266t-155 -216t-229 -143t-276 -53zM823 18q103 0 191.5 38.5t155.5 110t105 182.5t38 247
q0 191 -70.5 340.5t-202 234t-303.5 84.5q-227 0 -354 -145t-127 -399q0 -193 70.5 -350.5t201 -250t295.5 -92.5z" />
    <glyph glyph-name="P" unicode="P" horiz-adv-x="1112" 
d="M393 174q0 -33 3 -54t13.5 -39t26.5 -28t44.5 -16.5t65 -9t91.5 -2.5q6 0 6 -12.5t-6 -12.5q-40 0 -142 2t-167 2q-48 0 -129.5 -2t-112.5 -2q-4 0 -4 12.5t4 12.5q112 0 144 25.5t32 115.5v948q0 88 -32 114.5t-144 26.5q-4 0 -4 12.5t4 12.5q31 0 111.5 -3t128.5 -3
q30 0 129 6t157 6q89 0 162.5 -19.5t130 -59t88.5 -105t33 -152.5q1 -103 -40 -185t-108 -130t-144.5 -73t-158.5 -25q-61 0 -100 10q-5 1 -5.5 8t2.5 13t7 5q33 -8 74 -8q65 0 121.5 21t101.5 62t71.5 108t26.5 153q0 161 -88.5 253.5t-224.5 92.5q-46 0 -70 -2t-46.5 -9.5
t-32 -23.5t-14.5 -42t-5 -68v-936z" />
    <glyph glyph-name="Q" unicode="Q" horiz-adv-x="1568" 
d="M1526 -328q4 1 7 -4.5t3.5 -10.5t-2.5 -7q-105 -25 -174 -25q-142 0 -298 93t-269 259q-14 -2 -43 -2q-191 0 -341 91t-229.5 242t-79.5 331q0 129 43 239t115 187t165.5 131.5t195 80.5t202.5 26q146 0 270 -55t205.5 -146.5t126.5 -208t45 -240.5q0 -229 -145 -407.5
t-369 -241.5q87 -148 229 -244t269 -96q38 0 74 8zM256 711q0 -193 70.5 -350.5t201 -250t295.5 -92.5q103 0 191.5 38.5t155.5 110t105 182.5t38 247q0 191 -70.5 340.5t-202 234t-303.5 84.5q-227 0 -354 -145t-127 -399z" />
    <glyph glyph-name="R" unicode="R" horiz-adv-x="1378" 
d="M1397 25q6 0 6 -12.5t-6 -12.5h-262q-52 0 -192 175t-341 487q-60 -13 -110 -13q-39 0 -93 4v-487q0 -90 30.5 -115.5t143.5 -25.5q6 0 6 -12.5t-6 -12.5q-29 0 -110 2t-131 2q-48 0 -130 -2t-112 -2q-6 0 -6 12.5t6 12.5q112 0 144 25.5t32 115.5v948q0 89 -31.5 115
t-142.5 26q-6 0 -6 12.5t6 12.5q30 0 111 -3t129 -3q36 0 124 6t122 6q167 0 256.5 -68.5t89.5 -189.5q0 -98 -57 -183.5t-152 -137.5q260 -385 407.5 -533.5t274.5 -148.5zM399 702q55 -6 121 -6q142 0 203 60t61 202q0 299 -252 299q-41 0 -63 -4t-39.5 -19t-24 -44
t-6.5 -80v-408z" />
    <glyph glyph-name="S" unicode="S" horiz-adv-x="1005" 
d="M297 1040q0 -28 6 -54t13 -47t24.5 -43.5t28.5 -37.5t37.5 -36t39.5 -31.5t46 -31t45.5 -28t48.5 -29.5q132 -80 179 -119q127 -113 130 -257q0 -152 -112.5 -251.5t-309.5 -99.5q-151 0 -289 72q-15 9 -18 39l-27 279q-1 6 4.5 8.5t12 1.5t8.5 -6q14 -67 40.5 -126.5
t68.5 -114.5t105.5 -87.5t141.5 -32.5q103 0 173.5 56.5t70.5 179.5q0 56 -17.5 104.5t-40.5 82t-67 70t-75 57t-87 54.5q-7 4 -10 6q-48 29 -73.5 45.5t-66 45.5t-62.5 54t-45.5 59.5t-33.5 74.5t-10 86q0 103 57 177.5t141.5 108.5t182.5 34q126 0 240 -50q32 -13 32 -34
l13 -236q0 -5 -5.5 -7t-11.5 -0.5t-8 7.5q-4 35 -15.5 72t-35 76.5t-55.5 70t-80.5 50.5t-106.5 20q-114 0 -170.5 -67t-56.5 -165z" />
    <glyph glyph-name="T" unicode="T" horiz-adv-x="1298" 
d="M387 1243q-129 0 -194 -66t-91 -223q-2 -5 -13 -4.5t-11 6.5q8 56 18 180t10 189q0 9 12.5 9.5t12.5 -9.5q0 -45 109 -45q175 -6 411 -6q108 0 231.5 3t164.5 3q74 0 109.5 10t45.5 41q2 7 12.5 7t10.5 -7q-6 -59 -12.5 -192.5t-6.5 -182.5q0 -6 -11 -6t-13 6
q-6 158 -65.5 222.5t-196.5 64.5q-47 0 -75 -1.5t-53 -6.5t-36.5 -13t-20.5 -24t-11.5 -36t-2.5 -52v-944q0 -63 14.5 -91t55 -39t129.5 -11q6 0 6 -12.5t-6 -12.5q-33 0 -121.5 2t-147.5 2q-53 0 -142.5 -2t-123.5 -2q-5 0 -5 12.5t5 12.5q88 0 129 11t56.5 39.5t15.5 90.5
v948q0 32 -2.5 52.5t-12.5 35.5t-21 22.5t-37.5 12t-52 5.5t-73.5 1z" />
    <glyph glyph-name="U" unicode="U" horiz-adv-x="1429" 
d="M1171 1057q0 198 -178 198q-6 0 -6 12.5t6 12.5q28 0 95 -3t108 -3q36 0 99 3t89 3q4 0 4 -12.5t-4 -12.5q-163 0 -163 -198v-584q0 -235 -131.5 -367.5t-352.5 -132.5q-229 0 -366.5 132t-137.5 354v655q0 89 -31.5 115t-142.5 26q-6 0 -6 12.5t6 12.5q30 0 111 -3
t129 -3q51 0 132.5 3t109.5 3q5 0 5 -12.5t-5 -12.5q-110 0 -142 -27.5t-32 -117.5v-580q0 -241 108.5 -367t306.5 -126q183 0 286 115t103 319v586z" />
    <glyph glyph-name="V" unicode="V" horiz-adv-x="1361" 
d="M1370 1280q6 0 6 -12.5t-6 -12.5q-69 0 -120.5 -36.5t-86.5 -124.5l-436 -1092q-3 -8 -22.5 -8t-22.5 8l-510 1108q-36 79 -74.5 112t-99.5 33q-4 0 -4 12.5t4 12.5q25 0 80 -3t90 -3q70 0 152 3t106 3q6 0 6 -12.5t-6 -12.5q-175 0 -111 -137l435 -934l366 920
q33 78 0 114.5t-143 36.5q-6 0 -6 12.5t6 12.5q31 0 97 -3t118 -3q40 0 94 3t88 3z" />
    <glyph glyph-name="W" unicode="W" horiz-adv-x="1906" 
d="M1915 1280q5 0 5 -12.5t-5 -12.5q-70 0 -121.5 -36.5t-87.5 -124.5l-434 -1092q-4 -8 -23 -8t-24 8l-267 582l-231 -582q-3 -8 -22.5 -8t-22.5 8l-510 1108q-37 83 -74 114t-100 31q-4 0 -4 12.5t4 12.5q25 0 80 -3t90 -3q64 0 142 3t102 3q6 0 6 -12.5t-6 -12.5
q-42 0 -67.5 -6t-40.5 -21t-12.5 -42t21.5 -68l435 -936l184 459l-215 469q-36 78 -74.5 111.5t-95.5 33.5q-6 0 -6 12.5t6 12.5q24 0 78.5 -3t87.5 -3q48 0 104 3t72 3q5 0 5 -12.5t-5 -12.5q-65 0 -70.5 -23t37.5 -114l148 -317l122 303q33 82 19 116.5t-82 34.5
q-6 0 -6 12.5t6 12.5q18 0 55.5 -3t77.5 -3q39 0 92 3t86 3q4 0 4 -12.5t-4 -12.5q-69 0 -118 -35.5t-85 -125.5l-141 -351l260 -561l371 918q31 81 -1 118t-138 37q-6 0 -6 12.5t6 12.5q29 0 94 -3t117 -3q39 0 93.5 3t88.5 3z" />
    <glyph glyph-name="X" unicode="X" horiz-adv-x="1333" 
d="M1300 25q6 0 6 -12.5t-6 -12.5q-25 0 -91 2t-105 2q-59 0 -143.5 -2t-114.5 -2q-6 0 -6 12.5t6 12.5q76 0 96 17.5t-10 61.5l-311 471l-261 -366q-63 -89 -44 -136.5t116 -47.5q6 0 6 -12.5t-6 -12.5q-33 0 -104.5 2t-130.5 2q-35 0 -83.5 -2t-78.5 -2q-6 0 -6 12.5
t6 12.5q141 0 278 186l289 393l-330 502q-56 82 -107.5 115.5t-121.5 33.5q-6 0 -6 12.5t6 12.5q25 0 78 -3t78 -3q60 0 152.5 3t123.5 3q5 0 5 -12.5t-5 -12.5q-76 0 -96.5 -17.5t8.5 -63.5l303 -459l240 342q67 97 52 147.5t-112 50.5q-6 0 -6 12.5t6 12.5q32 0 104.5 -3
t129.5 -3q36 0 85.5 3t78.5 3q4 0 4 -12.5t-4 -12.5q-142 0 -291 -202l-268 -367l342 -516q53 -80 108.5 -112.5t140.5 -32.5z" />
    <glyph glyph-name="Y" unicode="Y" horiz-adv-x="1247" 
d="M1255 1280q6 0 6 -12.5t-6 -12.5q-72 0 -147 -54t-135 -148l-275 -424v-463q0 -90 30.5 -115.5t143.5 -25.5q6 0 6 -12.5t-6 -12.5q-30 0 -110 2t-131 2q-48 0 -130 -2t-112 -2q-6 0 -6 12.5t6 12.5q112 0 144 25.5t32 115.5v432l-340 498q-57 89 -108.5 124t-118.5 35
q-4 0 -4 12.5t4 12.5q24 0 73.5 -3t71.5 -3q60 0 158 3t129 3q4 0 4 -12.5t-4 -12.5q-154 0 -86 -92l330 -485l248 383q60 94 43.5 144t-107.5 50q-4 0 -4 12.5t4 12.5q34 0 107 -3t133 -3q35 0 82 3t75 3z" />
    <glyph glyph-name="Z" unicode="Z" horiz-adv-x="1218" 
d="M113 27l809 1202q6 11 4 13.5t-15 2.5q-146 0 -222.5 -0.5t-167.5 -4.5t-129.5 -8t-88.5 -18t-67 -27t-41.5 -41t-35.5 -54.5t-28 -73.5q-2 -7 -16 -2q-8 2 -6 6l79 319q2 3 8.5 3t12 -2t4.5 -5q-4 -36 17 -46.5t100 -10.5h747q9 0 15 -10.5t0 -16.5l-799 -1198
q-6 -11 -4 -13.5t14 -2.5h520q138 0 210.5 57t94.5 180q2 4 13.5 4t11.5 -4l-29 -260q0 -7 -6 -13.5t-14 -6.5q-303 4 -979 4q-9 0 -13.5 10t1.5 17z" />
    <glyph glyph-name="bracketleft" unicode="[" horiz-adv-x="561" 
d="M180 -217v1681q0 13 3.5 17t15.5 4h284q6 0 6 -12.5t-6 -12.5q-115 0 -149.5 -28t-34.5 -117v-1385q0 -89 34.5 -117t149.5 -28q6 0 6 -12.5t-6 -12.5h-284q-12 0 -15.5 4t-3.5 19z" />
    <glyph glyph-name="backslash" unicode="\" horiz-adv-x="700" 
d="M215 1120l307 -1069q0 -4 -19 -9.5t-22 -0.5l-303 1065q-2 4 7.5 8.5t18.5 6t11 -0.5z" />
    <glyph glyph-name="bracketright" unicode="]" horiz-adv-x="561" 
d="M381 -217q0 -15 -3.5 -19t-15.5 -4h-284q-6 0 -6 12.5t6 12.5q115 0 149.5 28t34.5 117v1385q0 89 -34.5 117t-149.5 28q-6 0 -6 12.5t6 12.5h284q12 0 15.5 -4t3.5 -17v-1681z" />
    <glyph glyph-name="asciicircum" unicode="^" horiz-adv-x="802" 
d="M682 778q2 -3 -2 -6.5t-8.5 -4.5t-7.5 1l-263 352l-262 -352q-4 -4 -13 0.5t-7 9.5l260 510q1 10 21.5 10t23.5 -10z" />
    <glyph glyph-name="underscore" unicode="_" horiz-adv-x="815" 
d="M70 -156q-6 0 -8 20t-0.5 40t6.5 20h677q9 0 9 -40t-9 -40h-675z" />
    <glyph glyph-name="grave" unicode="`" horiz-adv-x="436" 
d="M86 1489q-2 6 11 7q36 3 91 -16q21 -8 23 -14l104 -491q1 -3 -3.5 -5.5t-10 -2.5t-6.5 4z" />
    <glyph glyph-name="a" unicode="a" horiz-adv-x="858" 
d="M846 111q9 3 13.5 -7.5t-3.5 -15.5l-211 -100q-12 -4 -18 -4q-26 0 -47 35t-27 96l-127 -68q-116 -61 -184 -61q-64 0 -97.5 33.5t-33.5 86.5q0 55 42.5 88.5t151.5 71.5l246 86v170q0 136 -35 191t-98 55q-69 0 -107 -50t-47 -120q-4 -22 -9.5 -37t-22.5 -28t-44 -13
q-69 0 -69 62q0 46 61.5 100t148 90.5t156.5 36.5q82 0 131.5 -56.5t49.5 -168.5v-363q0 -72 18 -105.5t59 -33.5q34 0 103 29zM426 80l125 63v13v172l-211 -80q-86 -31 -86 -98q0 -43 24.5 -68t65.5 -25q30 0 82 23z" />
    <glyph glyph-name="b" unicode="b" horiz-adv-x="1042" 
d="M641 817q65 0 123 -24t104.5 -69.5t73.5 -119.5t27 -166q0 -112 -39 -203t-103.5 -147t-143.5 -85.5t-163 -29.5q-158 0 -284 88l-152 -69q-9 -4 -12.5 4.5t2.5 13.5q65 44 92 84.5t27 116.5v1012q0 73 -15 106t-51 33q-35 0 -94 -29q-6 -3 -11 2.5t-4.5 11.5t5.5 9
l260 127q6 2 10 2q5 0 11.5 -5.5t6.5 -11.5v-825q73 79 152.5 126.5t177.5 47.5zM582 12q120 0 186 93t66 266q0 183 -72.5 281t-190.5 98q-120 0 -260 -140v-442q114 -156 271 -156z" />
    <glyph glyph-name="c" unicode="c" horiz-adv-x="841" 
d="M473 -25q-101 0 -180 35.5t-125.5 94.5t-70 129t-23.5 145q0 99 40 182t105 136t144 82.5t159 29.5q91 0 162.5 -35t75.5 -86q2 -29 -18 -49.5t-54 -20.5q-54 0 -90 66q-26 44 -56.5 64t-88.5 20q-115 0 -179.5 -89.5t-64.5 -238.5q0 -81 20 -150t60.5 -124.5t108.5 -87
t157 -31.5q123 0 207 68q4 2 9 -1.5t6.5 -8t-1.5 -7.5q-72 -65 -143.5 -94t-159.5 -29z" />
    <glyph glyph-name="d" unicode="d" horiz-adv-x="1050" 
d="M1034 115q5 3 9.5 -2t4.5 -11t-4 -10l-225 -106q-12 -4 -16 -4q-28 0 -47.5 44t-20.5 124q-78 -80 -160 -128.5t-182 -48.5q-132 0 -225.5 109t-93.5 283q0 89 29.5 165t77.5 128t109.5 88.5t125.5 53.5t127 17q106 0 192 -53v459q0 74 -14.5 106.5t-50.5 32.5t-95 -29
q-6 -3 -11 2.5t-4.5 11.5t5.5 9l260 127q6 2 11 2t11.5 -5.5t6.5 -11.5v-1245q0 -73 16.5 -105t55.5 -32q32 0 108 29zM473 47q73 0 135 35t127 100v453q-98 141 -250 141q-128 0 -203 -91.5t-75 -258.5q0 -171 75 -275t191 -104z" />
    <glyph glyph-name="e" unicode="e" horiz-adv-x="833" 
d="M743 115q3 3 8 -1t7 -9t0 -9q-135 -121 -299 -121q-121 0 -210.5 57t-132 145t-42.5 192q0 185 126.5 312.5t313.5 127.5q111 0 172.5 -54t61.5 -149q0 -49 -25 -49l-504 -2q-10 -55 -10 -106q0 -179 86 -290.5t235 -111.5q113 0 213 68zM444 768q-84 0 -139.5 -47.5
t-79.5 -136.5l381 8q-1 84 -45 130t-117 46z" />
    <glyph glyph-name="f" unicode="f" horiz-adv-x="624" 
d="M653 1487q105 0 172.5 -32t67.5 -77q0 -30 -22 -47.5t-52 -17.5q-25 0 -42 12t-38 41q-33 44 -68.5 65t-88.5 21q-119 0 -188.5 -137t-69.5 -416v-131q121 3 264 18q5 0 9.5 -13t4.5 -32q0 -11 -3.5 -23.5t-8.5 -20.5t-10 -7q-114 30 -256 33v-557q0 -48 5.5 -73t28 -42
t59.5 -21.5t107 -4.5q6 0 6 -12.5t-6 -12.5q-45 0 -130.5 2t-129.5 2q-40 0 -107 -2t-91 -2q-6 0 -6 12.5t6 12.5q88 0 114.5 26t26.5 115v461q0 73 -25 91.5t-125 18.5q-7 0 -7 13.5t7 13.5q84 0 114 19.5t32 72.5q10 333 121.5 482t328.5 149z" />
    <glyph glyph-name="g" unicode="g" horiz-adv-x="886" 
d="M455 66q15 -2 46 -7q51 -7 77 -11.5t71 -14.5t69.5 -20t56 -28.5t47.5 -40t28 -53.5t12 -71q0 -69 -40.5 -140.5t-107.5 -128.5t-162.5 -93t-197.5 -36q-145 0 -234 70t-89 176q0 166 233 320q-139 41 -139 139q0 56 40.5 110.5t106.5 100.5q-80 28 -123 89.5t-43 135.5
q0 105 90.5 173.5t227.5 68.5q130 0 209 -62q118 66 219 66q12 0 12 -47t-13 -67q-4 -5 -7 -3q-65 29 -135 29q-36 0 -50 -4q54 -60 54 -144q0 -107 -87 -182.5t-225 -75.5q-57 0 -106 15q-74 -54 -74 -131q0 -23 8.5 -41.5t27.5 -32t37 -22.5t50.5 -16.5t52.5 -11t58 -9.5z
M373 774q-63 0 -101.5 -41.5t-38.5 -126.5q0 -119 63 -189.5t148 -70.5q60 0 100 45.5t40 140.5q0 105 -63 173.5t-148 68.5zM436 -516q149 0 235.5 78.5t86.5 185.5q0 48 -21 83.5t-51 56.5t-80.5 36t-90 21.5t-98.5 14.5q-6 1 -8.5 1t-7 1t-8.5 1q-53 7 -90 17
q-72 -49 -111.5 -104.5t-39.5 -139.5q0 -116 76 -184t208 -68z" />
    <glyph glyph-name="h" unicode="h" horiz-adv-x="1021" 
d="M977 25q6 0 6 -12.5t-6 -12.5q-22 0 -84.5 2t-101.5 2t-102 -2t-85 -2q-6 0 -6 12.5t6 12.5q80 0 104.5 26.5t24.5 114.5v326q0 121 -46 179t-142 58q-63 0 -129.5 -33.5t-118.5 -93.5v-436q0 -88 24 -114.5t105 -26.5q6 0 6 -12.5t-6 -12.5q-22 0 -84.5 2t-101.5 2
t-102 -2t-85 -2q-6 0 -6 12.5t6 12.5q80 0 104.5 26.5t24.5 114.5v1059q0 74 -14.5 106.5t-50.5 32.5q-28 0 -94 -29q-6 -3 -11 2.5t-5 11.5t5 9l260 127h7q6 0 12 -5.5t6 -11.5v-831q154 176 315 176q114 0 175 -64.5t61 -187.5v-395q0 -88 24 -114.5t105 -26.5z" />
    <glyph glyph-name="i" unicode="i" horiz-adv-x="557" 
d="M281 1047q-43 0 -67 23.5t-24 66.5q0 39 24.5 61.5t66.5 22.5q41 0 63.5 -22.5t22.5 -61.5q0 -43 -22.5 -66.5t-63.5 -23.5zM109 0q-5 0 -5 12.5t5 12.5q82 0 106.5 26.5t24.5 114.5v383q0 73 -16 106t-52 33q-35 0 -92 -29q-6 -3 -11 2.5t-4.5 12t5.5 10.5l264 123
q4 4 8 4q6 0 11 -6t5 -12q0 -7 -1 -41t-2 -88.5t-1 -112.5v-385q0 -88 24 -114.5t105 -26.5q6 0 6 -12.5t-6 -12.5q-22 0 -84.5 2t-101.5 2t-102 -2t-86 -2z" />
    <glyph glyph-name="j" unicode="j" horiz-adv-x="526" 
d="M264 1047q-43 0 -66.5 23.5t-23.5 66.5q0 39 24 61.5t66 22.5q41 0 63.5 -22.5t22.5 -61.5q0 -43 -22.5 -66.5t-63.5 -23.5zM342 793q0 -7 -1 -41t-2 -88.5t-1 -112.5v-649q0 -206 -63 -311.5t-226 -168.5q-6 -1 -10.5 9.5t0.5 13.5q100 42 141 137t41 273v694
q0 74 -14.5 106.5t-50.5 32.5t-95 -29q-5 -3 -9.5 2.5t-4.5 12t4 10.5l266 123q4 4 7 4q6 0 12 -6t6 -12z" />
    <glyph glyph-name="k" unicode="k" horiz-adv-x="1005" 
d="M989 25q6 0 6 -12.5t-6 -12.5q-22 0 -84.5 2t-101.5 2q-56 0 -133.5 -2t-102.5 -2q-5 0 -5 12.5t5 12.5q74 0 94 20t-12 64l-250 342l-102 -82v-203q0 -88 24 -114.5t105 -26.5q6 0 6 -12.5t-6 -12.5q-22 0 -84.5 2t-101.5 2t-102 -2t-85 -2q-6 0 -6 12.5t6 12.5
q80 0 104.5 26.5t24.5 114.5v1059q0 74 -14.5 106.5t-50.5 32.5q-28 0 -94 -29q-6 -3 -11 2.5t-5 11.5t5 9l258 125q4 2 9 2q6 0 12 -5.5t6 -11.5v-1065l274 222q79 63 64 102t-115 39q-6 0 -6 12.5t6 12.5q27 0 99.5 -2.5t134.5 -2.5q58 0 124 2.5t87 2.5q6 0 6 -12.5
t-6 -12.5q-75 0 -167.5 -37t-185.5 -111l-118 -94l260 -358q103 -141 235 -141z" />
    <glyph glyph-name="l" unicode="l" horiz-adv-x="530" 
d="M82 0q-6 0 -6 12.5t6 12.5q80 0 104.5 26.5t24.5 114.5v1059q0 73 -15 106t-51 33q-28 0 -94 -29q-5 -3 -9.5 2.5t-4.5 11.5t4 9l262 125q4 2 8 2q6 0 12.5 -5.5t6.5 -11.5v-1302q0 -87 24 -114t105 -27q6 0 6 -12.5t-6 -12.5q-21 0 -85 2t-104 2q-39 0 -102.5 -2
t-85.5 -2z" />
    <glyph glyph-name="m" unicode="m" horiz-adv-x="1564" 
d="M1520 25q6 0 6 -12.5t-6 -12.5q-22 0 -85 2t-102 2t-101.5 -2t-84.5 -2q-6 0 -6 12.5t6 12.5q80 0 104.5 26.5t24.5 114.5v326q0 122 -42.5 179.5t-133.5 57.5q-127 0 -240 -129q2 -10 2 -33v-401q0 -88 24 -114.5t105 -26.5q6 0 6 -12.5t-6 -12.5q-22 0 -84.5 2
t-101.5 2t-102.5 -2t-86.5 -2q-4 0 -4 12.5t4 12.5q82 0 107 26.5t25 114.5v326q0 121 -43.5 179t-133.5 58q-126 0 -235 -125v-438q0 -88 24 -114.5t105 -26.5q5 0 5 -12.5t-5 -12.5q-22 0 -86 2t-103 2q-38 0 -101 -2t-85 -2q-4 0 -4 12.5t4 12.5q80 0 104.5 26.5
t24.5 114.5v403q0 70 -16.5 101.5t-55.5 31.5q-32 0 -110 -30q-6 -3 -11 1.5t-4.5 10t5.5 8.5l237 115l12 4q11 0 24.5 -19t24.5 -59.5t11 -91.5q145 172 303 172q92 0 148 -46t71 -136q146 182 309 182q108 0 166 -63.5t58 -188.5v-395q0 -88 24 -114.5t105 -26.5z" />
    <glyph glyph-name="n" unicode="n" horiz-adv-x="1058" 
d="M1016 25q4 0 4 -12.5t-4 -12.5q-22 0 -86 2t-103 2q-38 0 -101 -2t-85 -2q-5 0 -5 12.5t5 12.5q80 0 104.5 26.5t24.5 114.5v332q0 121 -45.5 178t-142.5 57q-63 0 -127.5 -33.5t-118.5 -93.5v-440q0 -88 24 -114.5t105 -26.5q5 0 5 -12.5t-5 -12.5q-22 0 -86 2t-103 2
q-38 0 -101 -2t-85 -2q-4 0 -4 12.5t4 12.5q80 0 104.5 26.5t24.5 114.5v403q0 70 -16.5 101.5t-55.5 31.5q-32 0 -110 -30q-6 -3 -11 1.5t-4.5 10t5.5 8.5l237 115l12 4q11 0 24.5 -18.5t24.5 -58.5t11 -91q152 174 315 174q112 0 174 -64.5t62 -185.5v-401
q0 -88 24 -114.5t105 -26.5z" />
    <glyph glyph-name="o" unicode="o" horiz-adv-x="983" 
d="M475 -27q-179 0 -290 127t-111 306q0 82 26.5 151t70 116t100.5 80.5t117.5 48.5t121.5 15q91 0 167 -36t125.5 -95.5t77 -134.5t27.5 -156q0 -126 -60 -223.5t-158 -148t-214 -50.5zM532 10q111 0 173.5 81.5t62.5 246.5q0 193 -92 316.5t-234 123.5q-110 0 -170.5 -79
t-60.5 -230q0 -192 91 -325.5t230 -133.5z" />
    <glyph glyph-name="p" unicode="p" horiz-adv-x="1048" 
d="M659 817q131 0 222.5 -102t91.5 -275q0 -95 -29 -175t-75 -132.5t-105 -89.5t-117.5 -53.5t-114.5 -16.5q-120 0 -213 52v-422q0 -89 36.5 -115.5t164.5 -26.5q6 0 6 -12t-6 -12q-34 0 -121.5 2t-138.5 2q-39 0 -103.5 -2t-86.5 -2q-4 0 -4 12t4 12q82 0 106.5 27
t24.5 115v962q0 74 -17 107t-59 33q-36 0 -109 -31q-5 -3 -9.5 1.5t-4.5 10t4 8.5l227 111q8 4 15 4q28 0 48 -43.5t23 -120.5q169 172 340 172zM594 16q109 0 178.5 96t69.5 265q0 171 -76 266.5t-193 95.5q-71 0 -131.5 -34t-122.5 -97v-469q56 -60 120 -91.5t155 -31.5z
" />
    <glyph glyph-name="q" unicode="q" horiz-adv-x="999" 
d="M969 -539q5 0 5 -12t-5 -12q-22 0 -87 2t-104 2q-42 0 -115 -2t-102 -2q-6 0 -6 12t6 12q100 0 129 26.5t29 115.5v540q-162 -170 -326 -170q-134 0 -226.5 101.5t-92.5 275.5q0 99 27 179.5t71 133t103 88t119.5 51t123.5 15.5q152 0 293 -69l135 51q9 4 12.5 -5
t-2.5 -14q-65 -38 -91.5 -75.5t-26.5 -106.5v-995q0 -88 24 -115t107 -27zM463 41q119 0 256 137v465q-51 68 -113 101.5t-149 33.5q-248 0 -248 -360q0 -177 69.5 -277t184.5 -100z" />
    <glyph glyph-name="r" unicode="r" horiz-adv-x="745" 
d="M563 811q45 0 86 -26.5t41 -61.5q0 -26 -17.5 -43.5t-49.5 -17.5q-27 0 -65 30.5t-73 30.5q-26 0 -55.5 -22.5t-93.5 -96.5v-438q0 -88 37 -114.5t164 -26.5q6 0 6 -12.5t-6 -12.5q-31 0 -120 2t-141 2q-38 0 -101 -2t-85 -2q-4 0 -4 12.5t4 12.5q80 0 104.5 26.5
t24.5 114.5v403q0 70 -16.5 101.5t-55.5 31.5q-32 0 -110 -30q-6 -3 -11 1.5t-4.5 10t5.5 8.5l237 115l12 4q11 0 24.5 -19t24.5 -60.5t11 -92.5q84 99 133.5 135.5t93.5 36.5z" />
    <glyph glyph-name="s" unicode="s" horiz-adv-x="692" 
d="M205 666q0 -32 11.5 -59t26 -45.5t43.5 -38.5t48.5 -31t56.5 -29q41 -21 62 -32t55 -35t50.5 -45t30 -54.5t13.5 -71.5q0 -102 -78.5 -175t-212.5 -73q-106 0 -196 62q-13 10 -13 24l-4 160q0 5 11 6.5t12 -4.5q38 -102 102 -155.5t148 -53.5q66 0 101 33t32 96
q-1 34 -13.5 62.5t-27.5 47.5t-44.5 39t-49 30t-56.5 28q-29 14 -42.5 21.5t-39 22.5t-39 26.5t-31 30.5t-26.5 37.5t-15.5 43.5t-6.5 54q0 57 24 102t64 71.5t88.5 40t101.5 13.5q81 0 150 -31q20 -8 20 -22q0 -20 -3 -70t-3 -80q0 -4 -11.5 -4t-11.5 4q0 65 -69.5 113.5
t-145.5 48.5q-52 0 -82 -26.5t-30 -81.5z" />
    <glyph glyph-name="t" unicode="t" horiz-adv-x="692" 
d="M635 102q7 7 14 -5q4 -8 -2 -13q-75 -59 -135.5 -84t-126.5 -25q-85 0 -141 39.5t-56 128.5v482q0 74 -17.5 93t-86.5 19q-8 0 -8 14.5t8 14.5q82 0 133 42t59 112q0 8 15.5 8t15.5 -8v-152q130 3 285 18q5 0 9.5 -13t4.5 -32q0 -11 -3.5 -23.5t-8.5 -20.5t-10 -7
q-111 30 -277 33v-510q0 -166 162 -166q92 0 166 55z" />
    <glyph glyph-name="u" unicode="u" horiz-adv-x="1009" 
d="M993 117q9 3 14.5 -8t-3.5 -15l-238 -112q-6 -2 -10 -2q-11 0 -24 18.5t-23.5 59t-10.5 92.5v8q-157 -174 -323 -174q-104 0 -161.5 63.5t-57.5 185.5v316q0 80 -14.5 115.5t-47.5 35.5q-28 0 -69 -20q-6 -2 -10.5 4t-4.5 12t4 9l228 102l8 2q5 0 12.5 -5t7.5 -11v-490
q0 -237 172 -237q65 0 133 33.5t123 93.5v356q0 81 -13 116t-46 35q-28 0 -72 -20q-5 -2 -9.5 4t-4 12t5.5 9l227 102q4 2 9 2t11.5 -5t6.5 -11v-574q0 -70 16.5 -100.5t55.5 -30.5q32 0 108 29z" />
    <glyph glyph-name="v" unicode="v" horiz-adv-x="888" 
d="M883 791q5 0 5 -12.5t-5 -12.5q-52 0 -87.5 -33t-70.5 -117l-256 -614q-5 -8 -23.5 -8t-21.5 8l-287 619q-41 89 -69 117t-68 28q-6 0 -6 12.5t6 12.5q19 0 66 -2.5t75 -2.5q52 0 121.5 2.5t93.5 2.5q6 0 6 -12.5t-6 -12.5q-73 0 -104.5 -17t-9.5 -63l254 -541l188 482
q29 74 -5.5 106.5t-141.5 32.5q-5 0 -5 12.5t5 12.5q29 0 92 -2.5t114 -2.5q30 0 72 2.5t68 2.5z" />
    <glyph glyph-name="w" unicode="w" horiz-adv-x="1372" 
d="M1366 791q4 0 4 -12.5t-4 -12.5q-52 0 -87.5 -33t-70.5 -117l-256 -614q-3 -8 -22.5 -8t-22.5 8l-231 498l-207 -498q-3 -8 -22.5 -8t-22.5 8l-287 619q-41 89 -69 117t-68 28q-6 0 -6 12.5t6 12.5q19 0 66 -2.5t75 -2.5q47 0 115.5 2.5t95.5 2.5q6 0 6 -12.5t-6 -12.5
q-71 0 -101.5 -18t-8.5 -62l256 -541l157 402l-34 74q-40 88 -67 116.5t-65 28.5q-6 0 -6 12.5t6 12.5q19 0 65 -2.5t71 -2.5q51 0 119.5 2.5t91.5 2.5q6 0 6 -12.5t-6 -12.5q-69 0 -101 -18t-10 -62l254 -541l188 482q29 74 -5 106.5t-142 32.5q-4 0 -4 12.5t4 12.5
q30 0 93 -2.5t114 -2.5q30 0 71.5 2.5t67.5 2.5z" />
    <glyph glyph-name="x" unicode="x" horiz-adv-x="899" 
d="M874 25q4 0 4 -12.5t-4 -12.5q-22 0 -66.5 2t-64.5 2q-50 0 -119.5 -2t-93.5 -2q-4 0 -4 12.5t4 12.5q59 0 67 16t-24 63l-157 238l-121 -178q-25 -36 -34.5 -60t-4 -43t33.5 -27.5t81 -8.5q6 0 6 -12.5t-6 -12.5q-28 0 -91.5 2t-113.5 2q-30 0 -72 -2t-67 -2
q-6 0 -6 12.5t6 12.5q54 0 115.5 39t113.5 112l141 195l-166 250q-51 76 -103.5 110.5t-94.5 34.5q-6 0 -6 12.5t6 12.5q21 0 64 -2.5t63 -2.5q49 0 118.5 2.5t92.5 2.5q6 0 6 -12.5t-6 -12.5q-57 0 -65.5 -16.5t22.5 -63.5l143 -215l104 156q27 39 37 63t4.5 42t-34 26
t-82.5 8q-4 0 -4 12.5t4 12.5q30 0 93 -2.5t114 -2.5q30 0 71.5 2.5t67.5 2.5q4 0 4 -12.5t-4 -12.5q-120 0 -232 -152l-125 -172l183 -272q51 -77 104.5 -111t97.5 -34z" />
    <glyph glyph-name="y" unicode="y" horiz-adv-x="890" 
d="M885 791q5 0 5 -12.5t-5 -12.5q-55 0 -91.5 -35.5t-68.5 -122.5l-250 -665q-111 -293 -209 -405.5t-233 -112.5q-46 0 -75.5 20t-29.5 59q0 29 19 45.5t45 16.5q40 0 81 -24.5t74 -24.5q72 0 138.5 101.5t167.5 367.5l-312 635q-44 89 -70.5 117t-64.5 28q-4 0 -4 12.5
t4 12.5q23 0 69.5 -2.5t67.5 -2.5q49 0 118.5 2.5t92.5 2.5q6 0 6 -12.5t-6 -12.5q-72 0 -102 -18t-8 -62l272 -557l164 473q31 92 -0.5 128t-140.5 36q-5 0 -5 12.5t5 12.5q29 0 92 -2.5t114 -2.5q30 0 72 2.5t68 2.5z" />
    <glyph glyph-name="z" unicode="z" horiz-adv-x="829" 
d="M86 25l489 727q6 6 3 10t-11 4q-232 0 -327.5 -36t-128.5 -148q-2 -3 -8.5 -3t-12 2t-4.5 5l70 264q1 4 7 4.5t11 -1.5t4 -5q-7 -34 14 -45.5t84 -11.5h433q9 0 15.5 -9t0.5 -16l-481 -721q-8 -14 10 -14q77 0 126.5 1t98.5 4.5t77 9t56.5 17t43.5 24.5t30.5 36t25.5 48
t21 62q1 5 13 5t12 -5l-6 -210q0 -8 -5.5 -15.5t-13.5 -7.5h-633q-9 0 -14 8.5t0 16.5z" />
    <glyph glyph-name="braceleft" unicode="{" horiz-adv-x="591" 
d="M66 610q-6 0 -6 13.5t6 13.5q42 5 72.5 34.5t47 70t26.5 102t12.5 115t2.5 124.5q0 133 11 208.5t45.5 121t85.5 59t143 13.5q8 0 8 -12.5t-8 -12.5q-73 0 -113.5 -56.5t-42.5 -160.5q-3 -118 -5 -169.5t-6.5 -126t-14 -104t-24.5 -71.5t-39.5 -62t-56.5 -42t-79 -43
q33 -15 58 -28.5t46 -32t36.5 -34.5t28 -42.5t20 -48t14 -60t9.5 -70t6 -86.5t4 -100t3 -119v-2q2 -104 42.5 -160.5t113.5 -56.5q8 0 8 -12.5t-8 -12.5q-62 0 -103.5 6t-75 23.5t-52.5 44t-32 74t-17.5 107.5t-4.5 149q0 72 -2.5 126t-12.5 115t-26.5 101.5t-47 69.5
t-72.5 34z" />
    <glyph glyph-name="bar" unicode="|" horiz-adv-x="344" 
d="M135 -315v1812q0 13 40 13t40 -13v-1812q0 -15 -40 -15t-40 15z" />
    <glyph glyph-name="braceright" unicode="}" horiz-adv-x="579" 
d="M514 610q-42 -5 -72.5 -34t-47.5 -69.5t-26.5 -101.5t-12.5 -115t-3 -126q0 -89 -4.5 -149t-17 -107.5t-31.5 -74t-52.5 -44t-75 -23.5t-103.5 -6q-8 0 -8 12.5t8 12.5q73 0 113 56.5t42 160.5q3 133 5.5 191.5t10.5 137.5t20.5 110t38.5 72.5t61 64t90 47.5
q-55 24 -90 45.5t-61 61.5t-38.5 70.5t-21 109t-10.5 137.5t-5 194q-2 104 -42 160.5t-113 56.5q-8 0 -8 12.5t8 12.5q92 0 143 -13.5t85 -59t45 -121t11 -208.5q0 -70 3 -124t12.5 -115t26.5 -102t47.5 -70.5t72.5 -34.5q6 0 6 -13.5t-6 -13.5z" />
    <glyph glyph-name="asciitilde" unicode="~" horiz-adv-x="907" 
d="M643 406q40 0 72 13t45.5 26t36.5 38q2 2 4.5 2t5 -2t4 -4t2 -5t-1.5 -5q-74 -94 -118 -125t-99 -31q-59 0 -162.5 37t-165.5 37q-17 0 -31 -1t-27.5 -6.5t-20 -7.5t-20 -13t-16.5 -13.5t-19 -18t-19 -18.5q-2 -2 -6.5 -0.5t-7.5 6.5t-1 9q117 155 232 155
q42 0 146.5 -36.5t166.5 -36.5z" />
    <glyph glyph-name="uni00A0" unicode="&#xa0;" horiz-adv-x="479" 
 />
    <glyph glyph-name="exclamdown" unicode="&#xa1;" horiz-adv-x="505" 
d="M254 748q43 0 66.5 -24t23.5 -67q0 -39 -24 -61.5t-66 -22.5q-41 0 -63.5 22.5t-22.5 61.5q0 43 22.5 67t63.5 24zM346 -545q1 -5 -13 -9t-36 -6.5t-45 -2.5q-22 0 -44 2.5t-36.5 6.5t-13.5 9q25 124 43 299t24.5 282t16.5 302q0 6 15 6t15 -6q22 -599 74 -883z" />
    <glyph glyph-name="cent" unicode="&#xa2;" horiz-adv-x="1101" 
d="M987 287q1 7 13 5.5t12 -7.5l-27 -217q-2 -18 -6.5 -24t-22.5 -13q-160 -56 -327 -56h-19v-184q0 -13 -22.5 -13t-22.5 13v186q-105 8 -190.5 44.5t-140.5 87.5t-92 116.5t-52.5 129.5t-15.5 128q0 196 138.5 335t352.5 161v170q0 15 22.5 15t22.5 -15v-166h27
q78 0 167 -15.5t144 -43.5q14 -6 18.5 -12.5t6.5 -22.5l18 -211q0 -6 -10.5 -7.5t-11.5 5.5q-36 136 -129 204.5t-230 71.5v-946q12 -2 39 -2q125 0 212 69.5t126 213.5zM221 514q0 -84 21.5 -165t62.5 -151t108.5 -120t151.5 -66v938q-152 -10 -248 -132t-96 -304z" />
    <glyph glyph-name="sterling" unicode="&#xa3;" horiz-adv-x="884" 
d="M754 254q0 4 6 4.5t12 -1.5t6 -5q-18 -103 -18 -221q0 -17 -7 -24t-24 -7h-666q-5 0 -5 12t5 13q106 27 144.5 71.5t36.5 126.5q0 107 -39 226h-96q-15 0 -15 22.5t15 22.5h81q-34 108 -34 186t28.5 137.5t78 95t110.5 53t131 17.5q94 0 184 -33q30 -12 33 -39l14 -206
q0 -9 -10.5 -9t-13.5 9q-9 46 -26.5 87.5t-45 78.5t-69.5 59t-93 22q-53 0 -92.5 -18t-61 -48.5t-32 -65.5t-10.5 -75q0 -20 1.5 -38.5t4.5 -39t5.5 -34.5t8.5 -37t9 -32.5t10.5 -36t9.5 -33.5h231q13 0 13 -22.5t-13 -22.5h-219q20 -75 20 -146q0 -81 -27.5 -130t-78.5 -89
h258q130 0 173.5 31t66.5 139z" />
    <glyph glyph-name="currency" unicode="&#xa4;" horiz-adv-x="847" 
d="M743 129l-61 -55l-96 112q-83 -53 -185 -53q-82 0 -149 41l-92 -100l-47 49l90 94q-78 81 -78 197q0 109 80 186l-103 102l58 52l104 -111q76 43 168 43q91 0 162 -47l100 109l45 -46l-100 -100q76 -79 76 -190q0 -107 -74 -181zM440 168q72 0 115 53t43 148
q0 113 -57.5 197.5t-155.5 84.5q-70 0 -109.5 -49t-39.5 -145q0 -70 20 -133.5t68.5 -109.5t115.5 -46z" />
    <glyph glyph-name="yen" unicode="&#xa5;" horiz-adv-x="985" 
d="M967 958q5 0 5 -12t-5 -12q-138 0 -246 -184l-168 -279v-35h211q15 0 15 -21.5t-15 -21.5h-211v-80h211q15 0 15 -21.5t-15 -21.5h-211v-104q0 -48 5.5 -73t25.5 -41.5t52.5 -21.5t92.5 -5q5 0 5 -12.5t-5 -12.5q-31 0 -110.5 2t-129.5 2q-45 0 -127 -2t-112 -2
q-6 0 -6 12.5t6 12.5q113 0 145.5 26t32.5 115v104h-217q-13 0 -13 21.5t13 21.5h217v80h-217q-13 0 -13 21.5t13 21.5h217v2l-229 350q-54 81 -98 113.5t-107 32.5q-4 0 -4 12t4 12q20 0 67 -3t68 -3q53 0 142 3t116 3q5 0 5 -12t-5 -12q-130 0 -74 -88l224 -340l141 246
q46 83 30.5 132.5t-81.5 49.5q-6 0 -6 12t6 12q30 0 94 -3t117 -3q28 0 66.5 3t62.5 3z" />
    <glyph glyph-name="brokenbar" unicode="&#xa6;" horiz-adv-x="344" 
d="M135 737v760q0 13 40 13t40 -13v-760q0 -13 -40 -13t-40 13zM135 -315v757q0 15 40 15t40 -15v-757q0 -15 -40 -15t-40 15z" />
    <glyph glyph-name="section" unicode="&#xa7;" horiz-adv-x="903" 
d="M655 61q82 -79 82 -178q0 -88 -46.5 -151t-114.5 -90t-148 -27q-108 0 -180 37q-20 14 -23 35l-16 200q0 6 12 6t12 -6q14 -74 93 -149.5t176 -75.5q61 0 99 36.5t38 113.5q0 58 -27 107t-70 84t-95 68.5t-104.5 70t-95.5 78t-70 102.5t-27 135q0 79 28 138t109 132
q-76 79 -76 174q0 68 26.5 121t70.5 85t97.5 48t112.5 16q109 0 180 -38q21 -13 21 -33l16 -203q0 -5 -11 -5t-11 5q-14 75 -93.5 151t-175.5 76q-60 0 -97.5 -37t-37.5 -114q0 -58 26.5 -107t69 -84t94 -68.5t103 -70t94 -78t69 -102.5t26.5 -135q0 -77 -28.5 -136
t-107.5 -131zM248 530q0 -73 25 -132.5t71 -103.5t91.5 -76t106 -71t93.5 -67q57 67 57 176q0 62 -19.5 115.5t-48.5 90t-72 72.5t-82 60.5t-86 56.5t-77 58q-59 -67 -59 -179z" />
    <glyph glyph-name="dieresis" unicode="&#xa8;" horiz-adv-x="659" 
d="M152 977q-41 0 -65 23t-24 63q0 38 24 61t65 23q39 0 61.5 -22.5t22.5 -61.5q0 -40 -22 -63t-62 -23zM510 977q-40 0 -64 23t-24 63q0 38 24 60t64 22t62 -22t22 -60q0 -40 -22 -63t-62 -23z" />
    <glyph glyph-name="copyright" unicode="&#xa9;" horiz-adv-x="1472" 
d="M756 -209q-84 0 -168 23t-163 72t-139.5 118t-97 168.5t-36.5 216.5q0 137 55.5 257t147 201t211.5 127t249 46q115 0 212.5 -37.5t162.5 -101.5t101 -149t36 -179q0 -193 -146 -333t-358 -140q-94 0 -167 28t-115 74.5t-63 101.5t-21 115q0 80 31 147t82 109.5t113 66
t126 23.5q74 0 134 -29t63 -73q0 -24 -17.5 -41.5t-44.5 -17.5q-37 0 -74 53q-16 24 -27 37.5t-34.5 25t-54.5 11.5q-168 0 -168 -258q0 -67 16 -122t50.5 -100t95.5 -70.5t143 -25.5q69 0 131.5 22t113.5 64t81 112.5t30 160.5q0 131 -64.5 240.5t-179 174t-253.5 64.5
q-158 0 -274.5 -73.5t-174 -193.5t-57.5 -270q0 -114 35 -211.5t92.5 -164t132 -114t152.5 -69.5t155 -22q122 0 209.5 18.5t196.5 75.5q4 3 8.5 -3.5t1.5 -11.5q-109 -84 -220.5 -113.5t-250.5 -29.5z" />
    <glyph glyph-name="ordfeminine" unicode="&#xaa;" horiz-adv-x="569" 
d="M553 834q5 2 9.5 -2t5 -9t-2.5 -8l-139 -65q-21 -8 -39 14.5t-22 69.5l-84 -46q-71 -40 -117 -40q-42 0 -67 22.5t-25 56.5t25 55t91 44l177 63v113q0 50 -7.5 82t-23 46t-30 18.5t-36.5 4.5q-39 0 -63.5 -29t-34.5 -75q-3 -15 -6 -23.5t-13.5 -17t-27.5 -8.5
q-23 0 -37 12.5t-14 30.5q0 47 91 97t161 50q52 0 84 -37t32 -110v-240q0 -69 24 -82t89 13zM274 813l91 45v109l-144 -56q-32 -13 -43.5 -23.5t-11.5 -31.5q0 -25 15.5 -40t41.5 -15q30 0 51 12zM532 643q9 0 9 -27.5t-9 -27.5h-460q-6 0 -8 14t-0.5 27.5t6.5 13.5h462z
" />
    <glyph glyph-name="guillemotleft" unicode="&#xab;" horiz-adv-x="933" 
d="M483 82l-362 305q-9 9 -9 23.5t9 23.5l362 305q6 8 14 -2q4 -5 1 -8l-250 -317l250 -318q1 -3 -1.5 -7.5t-6.5 -6t-7 1.5zM795 82l-363 305q-9 9 -9 23.5t9 23.5l363 305q3 4 7.5 2.5t6.5 -5.5t0 -7l-250 -317l250 -318q2 -3 -0.5 -7.5t-6.5 -6t-7 1.5z" />
    <glyph glyph-name="logicalnot" unicode="&#xac;" horiz-adv-x="808" 
d="M745 549v-391q0 -6 -20.5 -8t-40.5 -0.5t-20 6.5v311h-594q-6 0 -8 20.5t-0.5 41t6.5 20.5h677z" />
    <glyph glyph-name="uni00AD" unicode="&#xad;" horiz-adv-x="577" 
d="M66 342q-6 -1 -8.5 21.5t-1.5 46t5 24.5l439 72q6 1 8 -21.5t0 -46t-8 -24.5z" />
    <glyph glyph-name="registered" unicode="&#xae;" horiz-adv-x="1536" 
d="M809 1485q173 0 307 -77t203.5 -204t69.5 -280q0 -176 -86 -324t-232.5 -232.5t-318.5 -84.5q-88 0 -173.5 24.5t-162.5 74.5t-136 119.5t-93.5 166.5t-34.5 209q0 131 54.5 245.5t145 193t210 124t247.5 45.5zM809 342q229 0 365.5 142t136.5 380q0 122 -43 228.5
t-118 182.5t-181 119.5t-226 43.5q-121 0 -218 -41.5t-158.5 -112.5t-94 -162t-32.5 -194q0 -137 51 -251t133.5 -185.5t182 -110.5t202.5 -39zM1155 573q5 0 5 -8t-5 -8h-162q-39 0 -202 334q-49 -11 -115 -8v-211q0 -61 17.5 -75.5t86.5 -14.5q4 0 4 -12.5t-4 -12.5
q-17 0 -66 1t-81 1q-25 0 -78 -1t-68 -1q-5 0 -5 12.5t5 12.5q68 0 85.5 14.5t17.5 75.5v440q0 57 -18.5 74.5t-84.5 17.5q-5 0 -5 11.5t5 11.5q20 0 71 -1t75 -1q26 0 86 4t82 4q186 0 186 -137q0 -120 -113 -178q32 -63 49 -95t41 -75.5t38.5 -63.5t34.5 -45t37 -35.5
t37.5 -19t43.5 -11.5zM676 920q113 -16 167 12.5t54 118.5q0 155 -131 155q-56 0 -73 -15t-17 -83v-188z" />
    <glyph glyph-name="macron" unicode="&#xaf;" horiz-adv-x="706" 
d="M96 989q-12 0 -12 29t12 29h514q14 0 14 -29t-14 -29h-514z" />
    <glyph glyph-name="degree" unicode="&#xb0;" horiz-adv-x="679" 
d="M342 764q-126 0 -204.5 76t-78.5 190q0 108 79 184t204 76t202 -75.5t77 -188.5q0 -112 -77.5 -187t-201.5 -75zM356 786q38 0 65.5 11.5t43.5 30t25 49t11.5 61t2.5 74.5q0 256 -174 256q-46 0 -76.5 -17t-46 -50.5t-21.5 -72t-6 -92.5q0 -117 39.5 -183.5t136.5 -66.5z
" />
    <glyph glyph-name="plusminus" unicode="&#xb1;" horiz-adv-x="815" 
d="M70 477q-6 0 -8 20t-0.5 40t6.5 20h299v299q0 9 39.5 9t39.5 -9v-299h299q9 0 9 -40t-9 -40h-299v-297q0 -6 -20 -8t-39.5 -0.5t-19.5 6.5v299h-297zM745 76q9 0 9 -37t-9 -37h-675q-6 0 -8 18.5t-0.5 37t6.5 18.5h677z" />
    <glyph glyph-name="uni00B2" unicode="&#xb2;" horiz-adv-x="514" 
d="M63 836q12 42 43.5 94t66.5 99t68.5 96.5t55.5 103t22 100.5q0 57 -27.5 88t-74.5 31q-49 0 -85.5 -33t-49.5 -82q-2 -9 -16 -5q-10 3 -7 9q43 156 195 156q80 0 122 -41t42 -104q0 -52 -39 -116.5t-87.5 -115.5t-97.5 -110t-63 -97q0 -8 4 -8q73 0 110 0.5t74.5 5
t51 9.5t28.5 20.5t20 30t13 45.5q0 3 7 3t7 -3l-2 -178q0 -9 -10 -9h-362q-13 0 -9 11z" />
    <glyph glyph-name="uni00B3" unicode="&#xb3;" horiz-adv-x="514" 
d="M307 1194q63 -27 100 -72t37 -98q0 -73 -62.5 -142t-160.5 -69q-140 0 -174 141q-1 4 4.5 7t12 2.5t8.5 -5.5q13 -53 53 -82.5t94 -29.5q51 0 89 39.5t38 124.5q0 115 -63 168q-31 -21 -66 -39q-8 -5 -16 6q-5 7 0 10q56 31 87 77.5t31 100.5q0 48 -30 81.5t-76 33.5
t-82.5 -33t-48.5 -82q-1 -5 -7 -6t-11.5 2t-4.5 8q43 156 191 156q82 0 125 -42.5t43 -100.5q0 -71 -111 -156z" />
    <glyph glyph-name="acute" unicode="&#xb4;" horiz-adv-x="434" 
d="M141 971q-1 -4 -7 -4t-11 2.5t-4 5.5l106 491q3 13 69 25q60 11 56 -2z" />
    <glyph glyph-name="paragraph" unicode="&#xb6;" horiz-adv-x="1308" 
d="M682 -395q-55 0 -89 25.5t-34 62.5q0 32 16.5 50.5t47.5 18.5q28 0 44.5 -11.5t24 -28l15 -33t24 -28t43.5 -11.5q57 0 81 83.5t24 282.5v240q-73 -6 -162 -6t-172 16.5t-163 57t-139.5 100.5t-95.5 154.5t-36 212.5q0 243 145.5 369t405.5 126q41 0 140.5 -6t162.5 -6
q41 0 117 3t108 3q6 0 6 -12.5t-6 -12.5q-87 0 -133.5 -42.5t-46.5 -122.5l2 -977q0 -265 -78 -386.5t-252 -121.5z" />
    <glyph glyph-name="periodcentered" unicode="&#xb7;" horiz-adv-x="399" 
d="M201 322q-43 0 -66.5 23.5t-23.5 66.5q0 39 24 61.5t66 22.5q41 0 63.5 -22.5t22.5 -61.5q0 -43 -22.5 -66.5t-63.5 -23.5z" />
    <glyph glyph-name="cedilla" unicode="&#xb8;" horiz-adv-x="475" 
d="M236 -4q-13 -39 -20 -61.5t-7.5 -43.5t1 -30t16.5 -23.5t26 -21.5t43 -25q52 -30 82.5 -66t30.5 -92q0 -76 -54 -136t-159 -60q-57 0 -94.5 21t-37.5 59q0 26 18.5 42.5t43.5 16.5t40 -15.5t21.5 -33.5t25 -33.5t48.5 -15.5q32 0 50 19.5t18 56.5q0 54 -38 96t-136 96
q-26 13 -28.5 21.5t9.5 39.5q18 43 72 191z" />
    <glyph glyph-name="uni00B9" unicode="&#xb9;" horiz-adv-x="536" 
d="M96 825q-6 0 -6 11.5t6 11.5q96 0 118 22t22 119v242q0 118 -4 137q-8 32 -39 28q-27 -5 -111 -42q-4 -2 -9 3t-6 10.5t3 8.5l237 115q6 3 12.5 -3t6.5 -11v-488q0 -97 20.5 -119t110.5 -22q6 0 6 -11.5t-6 -11.5q-22 0 -80 2t-94 2q-38 0 -101.5 -2t-85.5 -2z" />
    <glyph glyph-name="ordmasculine" unicode="&#xba;" horiz-adv-x="647" 
d="M313 735q-117 0 -188.5 83t-71.5 202q0 66 26 119.5t68.5 85t91.5 48.5t99 17q116 0 187 -82t71 -194q0 -116 -84 -197.5t-199 -81.5zM344 766q74 0 118 56.5t44 154.5q0 118 -58.5 199t-148.5 81q-74 0 -115 -51.5t-41 -146.5q0 -118 57.5 -205.5t143.5 -87.5zM76 588
q-5 0 -7 14t-0.5 27.5t5.5 13.5h499q7 0 7 -27.5t-7 -27.5h-497z" />
    <glyph glyph-name="guillemotright" unicode="&#xbb;" horiz-adv-x="933" 
d="M139 739l363 -305q9 -9 9 -23.5t-9 -23.5l-363 -305q-3 -4 -7.5 -2.5t-6.5 6t0 8.5l250 316l-250 319q-2 4 4 9.5t10 0.5zM451 739l362 -305q9 -9 9 -23.5t-9 -23.5l-362 -305q-4 -8 -13 2q-3 6 -2 10l250 316l-250 319q-1 2 2 6t7 5.5t6 -1.5z" />
    <glyph glyph-name="onequarter" unicode="&#xbc;" horiz-adv-x="1228" 
d="M457 655q6 0 6 -11t-6 -11q-22 0 -80 2t-94 2q-38 0 -101.5 -2t-85.5 -2q-6 0 -6 11t6 11q95 0 117.5 22.5t22.5 119.5v243v34v50t-2.5 35.5t-5 26.5t-11.5 13t-17.5 5t-28 -7t-38 -13t-51.5 -23q-4 -2 -9 3.5t-6 11t3 8.5l237 114q6 3 12.5 -3t6.5 -11v-487
q0 -97 20.5 -119.5t110.5 -22.5zM899 1284q4 3 15.5 0t23.5 -9.5t10 -10.5l-571 -1264q-1 -2 -6.5 -1.5t-13 3.5t-14.5 6t-11.5 6.5t-3.5 5.5zM1171 23q3 0 3 -12.5t-3 -12.5q-17 0 -56 1t-68 1q-33 0 -86 -1t-74 -1q-3 0 -3 12.5t3 12.5q73 0 91.5 10t18.5 51v104
q-175 5 -256 5q-5 0 -8.5 4.5t0.5 9.5l320 455q6 6 17 3.5t11 -8.5v-426q7 0 90 5q6 0 6 -28t-6 -28q-58 4 -90 4v-100q0 -40 13.5 -50.5t76.5 -10.5zM815 223q80 0 182 4v303l-186 -301q-6 -6 4 -6z" />
    <glyph glyph-name="onehalf" unicode="&#xbd;" horiz-adv-x="1249" 
d="M96 633q-6 0 -6 11t6 11q95 0 117.5 22.5t22.5 119.5v243v34v50t-2.5 35.5t-5 26.5t-11.5 13t-17.5 5t-28 -7t-38 -13t-51.5 -23q-4 -2 -9 3.5t-6 11t3 8.5l237 114q6 3 12.5 -3t6.5 -11v-487q0 -97 20.5 -119.5t110.5 -22.5q6 0 6 -11t-6 -11q-22 0 -80 2t-94 2
q-38 0 -101.5 -2t-85.5 -2zM377 0q-1 -2 -6.5 -1.5t-13 3.5t-14.5 6t-11.5 6.5t-3.5 5.5l571 1264q4 3 15.5 0t23.5 -9.5t10 -10.5zM799 12q15 50 59 118t86.5 123.5t76.5 125t34 127.5q0 56 -28 87.5t-75 31.5q-50 0 -86.5 -33t-48.5 -84q-2 -9 -16 -4q-8 3 -6 8
q43 156 194 156q80 0 122 -41t42 -105q0 -42 -25 -91.5t-63.5 -95t-78 -88.5t-74 -87t-46.5 -76q0 -6 4 -6q74 0 110.5 0.5t74 5t50.5 9t28.5 19.5t20.5 29.5t13 44.5q0 4 7.5 4t7.5 -4l-2 -176q0 -10 -11 -10h-362q-11 0 -8 12z" />
    <glyph glyph-name="threequarters" unicode="&#xbe;" horiz-adv-x="1206" 
d="M444 831q0 -73 -62.5 -141.5t-160.5 -68.5q-140 0 -174 141q-1 5 4.5 8t12 2t8.5 -6q13 -52 53.5 -81.5t93.5 -29.5q52 0 89.5 39t37.5 123q0 115 -63 168q-31 -21 -66 -39q-9 -5 -17 7q-4 8 1 10q56 31 87 77.5t31 100.5q0 48 -30 81t-76 33t-82.5 -32.5t-48.5 -81.5
q-1 -5 -7 -6t-11.5 2t-4.5 8q42 155 191 155q82 0 125 -42.5t43 -100.5q0 -71 -111 -156q63 -27 100 -71.5t37 -98.5zM877 1284q4 3 15.5 0t23.5 -9.5t10 -10.5l-572 -1264q-1 -2 -6.5 -1.5t-13 3.5t-14.5 6t-11.5 6.5t-3.5 5.5zM1149 23q3 0 3 -12.5t-3 -12.5q-17 0 -57 1
t-68 1q-32 0 -86 -1t-74 -1q-3 0 -3 12.5t3 12.5q73 0 92 10t19 51v104q-175 5 -256 5q-5 0 -8.5 4.5t0.5 9.5l319 455q6 6 17.5 3.5t11.5 -8.5v-426q7 0 90 5q6 0 6 -28t-6 -28q-58 4 -90 4v-100q0 -40 13.5 -50.5t76.5 -10.5zM793 223q80 0 182 4v303l-187 -301
q-6 -6 5 -6z" />
    <glyph glyph-name="questiondown" unicode="&#xbf;" horiz-adv-x="669" 
d="M350 739q43 0 66.5 -23.5t23.5 -66.5q0 -39 -24 -61.5t-66 -22.5q-41 0 -63.5 22.5t-22.5 61.5q0 43 22.5 66.5t63.5 23.5zM346 -535q26 0 43 7.5t25.5 24.5t12 28.5t7.5 34.5q13 90 78 90q33 0 51.5 -20.5t18.5 -49.5q0 -59 -71.5 -101t-172.5 -42q-120 0 -199.5 63.5
t-79.5 180.5q0 45 11 83t35.5 71.5t43.5 53.5t53 52q10 9 15 14q70 70 99.5 127t29.5 127q0 45 -12 113q-1 3 4.5 5.5t12 2.5t7.5 -4q24 -54 39 -126t15 -118q0 -40 -11.5 -74t-30.5 -58.5t-41.5 -47.5t-45.5 -47t-42 -50.5t-30.5 -64t-11.5 -82.5q0 -87 41 -140t106 -53z
" />
    <glyph glyph-name="Agrave" unicode="&#xc0;" horiz-adv-x="1437" 
d="M446 1548q-20 5 28 28q65 32 97 32q5 -1 7 -2q18 -11 94.5 -58.5t129 -78t109.5 -58.5q7 -3 3 -13.5t-13 -6.5q-232 102 -455 157zM1430 25q9 0 9 -12.5t-9 -12.5q-38 0 -118.5 4t-117.5 4q-44 0 -112 -4t-105 -4q-9 0 -9 12.5t9 12.5q110 0 134.5 31t-15.5 120l-238 502
h-385l-176 -418q-51 -126 -8.5 -180.5t180.5 -54.5q9 0 9 -12.5t-9 -12.5q-38 0 -112 4t-130 4q-51 0 -118 -4t-107 -4q-9 0 -9 12.5t9 12.5q84 0 136 51.5t116 202.5l432 1019q2 5 13.5 5.5t13.5 -5.5l483 -1017q71 -151 119.5 -203.5t114.5 -52.5zM492 721h346l-183 387z
" />
    <glyph glyph-name="Aacute" unicode="&#xc1;" horiz-adv-x="1437" 
d="M500 1391q-6 -3 -10 1.5t-4 10t3 8.5q75 37 197 111.5t137 83.5q14 9 86 -22q53 -23 50 -33q0 -2 -5 -3q-220 -55 -454 -157zM1430 25q9 0 9 -12.5t-9 -12.5q-38 0 -118.5 4t-117.5 4q-44 0 -112 -4t-105 -4q-9 0 -9 12.5t9 12.5q110 0 134.5 31t-15.5 120l-238 502h-385
l-176 -418q-51 -126 -8.5 -180.5t180.5 -54.5q9 0 9 -12.5t-9 -12.5q-38 0 -112 4t-130 4q-51 0 -118 -4t-107 -4q-9 0 -9 12.5t9 12.5q84 0 136 51.5t116 202.5l432 1019q2 5 13.5 5.5t13.5 -5.5l483 -1017q71 -151 119.5 -203.5t114.5 -52.5zM492 721h346l-183 387z" />
    <glyph glyph-name="Acircumflex" unicode="&#xc2;" horiz-adv-x="1437" 
d="M475 1327q-2 -1 -6 2t-6 6.5t0 5.5l211 199q9 9 23.5 9t23.5 -9l209 -199q3 -2 2 -6t-5 -7t-7 -1l-222 117zM1430 25q9 0 9 -12.5t-9 -12.5q-38 0 -118.5 4t-117.5 4q-44 0 -112 -4t-105 -4q-9 0 -9 12.5t9 12.5q110 0 134.5 31t-15.5 120l-238 502h-385l-176 -418
q-51 -126 -8.5 -180.5t180.5 -54.5q9 0 9 -12.5t-9 -12.5q-38 0 -112 4t-130 4q-51 0 -118 -4t-107 -4q-9 0 -9 12.5t9 12.5q84 0 136 51.5t116 202.5l432 1019q2 5 13.5 5.5t13.5 -5.5l483 -1017q71 -151 119.5 -203.5t114.5 -52.5zM492 721h346l-183 387z" />
    <glyph glyph-name="Atilde" unicode="&#xc3;" horiz-adv-x="1437" 
d="M442 1427q-2 -2 -6 0.5t-7 7t-1 7.5q91 129 174 129q30 0 116 -25.5t140 -25.5q24 0 43.5 8.5t30 18.5t26.5 28q5 3 12.5 -3.5t4.5 -10.5q-55 -75 -89.5 -101t-74.5 -26q-43 0 -129 24.5t-139 24.5q-10 0 -19 -1.5t-15.5 -3t-14.5 -6t-12 -6.5t-11 -9l-9 -9t-10 -10.5
t-10 -10.5zM1430 25q9 0 9 -12.5t-9 -12.5q-38 0 -118.5 4t-117.5 4q-44 0 -112 -4t-105 -4q-9 0 -9 12.5t9 12.5q110 0 134.5 31t-15.5 120l-238 502h-385l-176 -418q-51 -126 -8.5 -180.5t180.5 -54.5q9 0 9 -12.5t-9 -12.5q-38 0 -112 4t-130 4q-51 0 -118 -4t-107 -4
q-9 0 -9 12.5t9 12.5q84 0 136 51.5t116 202.5l432 1019q2 5 13.5 5.5t13.5 -5.5l483 -1017q71 -151 119.5 -203.5t114.5 -52.5zM492 721h346l-183 387z" />
    <glyph glyph-name="Adieresis" unicode="&#xc4;" horiz-adv-x="1437" 
d="M520 1466q-41 0 -64.5 23t-23.5 63q0 39 23.5 61.5t64.5 22.5q39 0 61.5 -22.5t22.5 -61.5q0 -40 -22 -63t-62 -23zM879 1466q-40 0 -64 23t-24 63q0 38 24 60t64 22t62 -22t22 -60q0 -40 -22 -63t-62 -23zM1430 25q9 0 9 -12.5t-9 -12.5q-38 0 -118.5 4t-117.5 4
q-44 0 -112 -4t-105 -4q-9 0 -9 12.5t9 12.5q110 0 134.5 31t-15.5 120l-238 502h-385l-176 -418q-51 -126 -8.5 -180.5t180.5 -54.5q9 0 9 -12.5t-9 -12.5q-38 0 -112 4t-130 4q-51 0 -118 -4t-107 -4q-9 0 -9 12.5t9 12.5q84 0 136 51.5t116 202.5l432 1019q2 5 13.5 5.5
t13.5 -5.5l483 -1017q71 -151 119.5 -203.5t114.5 -52.5zM492 721h346l-183 387z" />
    <glyph glyph-name="Aring" unicode="&#xc5;" horiz-adv-x="1437" 
d="M688 1360q-81 0 -130.5 49t-49.5 115q0 73 62 115t139 42q74 0 126 -47t52 -116q0 -71 -61 -114.5t-138 -43.5zM668 1661q-68 0 -68 -96q0 -70 32.5 -126.5t86.5 -56.5q40 0 58 24t18 77q0 72 -37 125t-90 53zM1430 25q9 0 9 -12.5t-9 -12.5q-38 0 -118.5 4t-117.5 4
q-44 0 -112 -4t-105 -4q-9 0 -9 12.5t9 12.5q110 0 134.5 31t-15.5 120l-238 502h-385l-176 -418q-51 -126 -8.5 -180.5t180.5 -54.5q9 0 9 -12.5t-9 -12.5q-38 0 -112 4t-130 4q-51 0 -118 -4t-107 -4q-9 0 -9 12.5t9 12.5q84 0 136 51.5t116 202.5l432 1019q2 5 13.5 5.5
t13.5 -5.5l483 -1017q71 -151 119.5 -203.5t114.5 -52.5zM492 721h346l-183 387z" />
    <glyph glyph-name="AE" unicode="&#xc6;" horiz-adv-x="1792" 
d="M1665 305q0 3 6.5 3.5t12.5 -1.5t6 -6q-21 -151 -21 -270q0 -18 -6.5 -24.5t-24.5 -6.5h-835q-6 0 -6 12.5t6 12.5q112 0 143 25.5t31 115.5v479h-352l-265 -387q-158 -233 97 -233q9 0 9 -12.5t-9 -12.5q-39 0 -115.5 4t-134.5 4q-46 0 -107 -4t-96 -4q-9 0 -9 12.5
t9 12.5q65 0 144.5 64t158.5 181l623 906q32 48 22 61q-13 17 -120 18h-35q-5 0 -5 12.5t5 12.5h807q18 0 18 -18l4 -254q0 -4 -11 -4t-11 4q-5 97 -67.5 163t-154.5 66h-110q-102 0 -134 -24t-32 -101v-426h231q99 0 142 34t43 111q0 5 11 5t11 -5q0 -45 -1 -95t-1 -70
q0 -31 3 -92.5t3 -96.5q0 -6 -12 -6t-12 6q0 90 -44.5 129t-148.5 39h-225v-471q0 -80 31.5 -105.5t130.5 -25.5h149q88 0 158 73.5t90 188.5zM653 686h324v475z" />
    <glyph glyph-name="Ccedilla" unicode="&#xc7;" horiz-adv-x="1370" 
d="M1257 334q1 6 13 4.5t12 -6.5l-31 -232q-3 -26 -7.5 -33.5t-22.5 -13.5q-186 -78 -390 -78h-38q-11 -33 -17 -53t-4.5 -38.5t3 -26.5t17 -22t25.5 -20t41 -24q52 -30 82.5 -66t30.5 -92q0 -76 -54 -136t-159 -60q-57 0 -94 21t-37 59q0 26 18 42.5t43 16.5
q24 0 39.5 -15.5t22 -33.5t25 -33.5t48.5 -15.5q32 0 50 19.5t18 56.5q0 54 -38 96t-136 96q-26 13 -28.5 21.5t9.5 39.5q27 66 64 170q-137 9 -249.5 53t-187.5 110.5t-127 152t-75 175.5t-23 183q0 142 62.5 265.5t166.5 207t240 131.5t281 48q99 0 199 -19t159 -53
q19 -10 23 -17.5t6 -29.5l25 -232q0 -5 -11 -6.5t-12 4.5q-45 158 -167.5 232.5t-301.5 74.5q-234 0 -375 -151t-141 -399q0 -191 79 -353t213 -256t290 -94q147 0 255 81.5t166 248.5z" />
    <glyph glyph-name="Egrave" unicode="&#xc8;" horiz-adv-x="1099" 
d="M346 1548q-20 5 28 28q64 32 96 32q5 0 7 -2q25 -15 76.5 -47t84 -51.5t81 -47t92.5 -49.5q7 -3 3 -13.5t-13 -6.5q-232 102 -455 157zM973 305q1 5 12.5 3.5t11.5 -7.5q-18 -130 -18 -270q0 -17 -7 -24t-24 -7h-858q-6 0 -6 12.5t6 12.5q112 0 143 25.5t31 115.5v948
q0 89 -31.5 115t-142.5 26q-6 0 -6 12.5t6 12.5h821q19 0 19 -18l6 -254q0 -4 -12.5 -4t-12.5 4q-7 108 -66.5 168.5t-158.5 60.5h-125q-102 0 -133 -25.5t-31 -107.5v-418h250q98 0 140 34t42 111q0 5 12.5 5t12.5 -5q0 -45 -1 -95t-1 -70q0 -31 2 -92.5t2 -96.5
q0 -6 -12.5 -6t-12.5 6q0 90 -44 129t-146 39h-244v-471q0 -80 30.5 -105.5t129.5 -25.5h164q96 0 163 70t89 192z" />
    <glyph glyph-name="Eacute" unicode="&#xc9;" horiz-adv-x="1099" 
d="M399 1391q-9 -4 -13 6.5t3 13.5q75 37 197 111.5t137 83.5q14 9 86 -22q53 -23 50 -33q0 -2 -5 -3q-223 -55 -455 -157zM973 305q1 5 12.5 3.5t11.5 -7.5q-18 -130 -18 -270q0 -17 -7 -24t-24 -7h-858q-6 0 -6 12.5t6 12.5q112 0 143 25.5t31 115.5v948q0 89 -31.5 115
t-142.5 26q-6 0 -6 12.5t6 12.5h821q19 0 19 -18l6 -254q0 -4 -12.5 -4t-12.5 4q-7 108 -66.5 168.5t-158.5 60.5h-125q-102 0 -133 -25.5t-31 -107.5v-418h250q98 0 140 34t42 111q0 5 12.5 5t12.5 -5q0 -45 -1 -95t-1 -70q0 -31 2 -92.5t2 -96.5q0 -6 -12.5 -6t-12.5 6
q0 90 -44 129t-146 39h-244v-471q0 -80 30.5 -105.5t129.5 -25.5h164q96 0 163 70t89 192z" />
    <glyph glyph-name="Ecircumflex" unicode="&#xca;" horiz-adv-x="1099" 
d="M377 1405q-2 -1 -6 2t-6 6.5t0 5.5l210 199q9 9 24 9t24 -9l208 -199q3 -2 2 -6.5t-5 -7.5t-7 0l-221 117zM973 305q1 5 12.5 3.5t11.5 -7.5q-18 -130 -18 -270q0 -17 -7 -24t-24 -7h-858q-6 0 -6 12.5t6 12.5q112 0 143 25.5t31 115.5v948q0 89 -31.5 115t-142.5 26
q-6 0 -6 12.5t6 12.5h821q19 0 19 -18l6 -254q0 -4 -12.5 -4t-12.5 4q-7 108 -66.5 168.5t-158.5 60.5h-125q-102 0 -133 -25.5t-31 -107.5v-418h250q98 0 140 34t42 111q0 5 12.5 5t12.5 -5q0 -45 -1 -95t-1 -70q0 -31 2 -92.5t2 -96.5q0 -6 -12.5 -6t-12.5 6q0 90 -44 129
t-146 39h-244v-471q0 -80 30.5 -105.5t129.5 -25.5h164q96 0 163 70t89 192z" />
    <glyph glyph-name="Edieresis" unicode="&#xcb;" horiz-adv-x="1099" 
d="M420 1466q-41 0 -64.5 23t-23.5 63q0 39 23.5 61.5t64.5 22.5q39 0 61.5 -22.5t22.5 -61.5q0 -40 -22 -63t-62 -23zM778 1466q-40 0 -64 23t-24 63q0 38 24 60t64 22t62 -22t22 -60q0 -40 -22 -63t-62 -23zM973 305q1 5 12.5 3.5t11.5 -7.5q-18 -130 -18 -270
q0 -17 -7 -24t-24 -7h-858q-6 0 -6 12.5t6 12.5q112 0 143 25.5t31 115.5v948q0 89 -31.5 115t-142.5 26q-6 0 -6 12.5t6 12.5h821q19 0 19 -18l6 -254q0 -4 -12.5 -4t-12.5 4q-7 108 -66.5 168.5t-158.5 60.5h-125q-102 0 -133 -25.5t-31 -107.5v-418h250q98 0 140 34
t42 111q0 5 12.5 5t12.5 -5q0 -45 -1 -95t-1 -70q0 -31 2 -92.5t2 -96.5q0 -6 -12.5 -6t-12.5 6q0 90 -44 129t-146 39h-244v-471q0 -80 30.5 -105.5t129.5 -25.5h164q96 0 163 70t89 192z" />
    <glyph glyph-name="Igrave" unicode="&#xcc;" horiz-adv-x="679" 
d="M543 1391q-232 102 -455 157q-20 5 28 28q64 32 96 32q5 0 7 -2q25 -15 76.5 -47t84 -51.5t81 -47t92.5 -49.5q7 -3 3 -13.5t-13 -6.5zM408 166q0 -90 30.5 -115.5t143.5 -25.5q6 0 6 -12.5t-6 -12.5q-29 0 -110 2t-134 2q-48 0 -130 -2t-112 -2q-6 0 -6 12.5t6 12.5
q112 0 144 25.5t32 115.5v948q0 88 -32 114.5t-144 26.5q-6 0 -6 12.5t6 12.5q30 0 112 -3t130 -3q53 0 135 3t109 3q6 0 6 -12.5t-6 -12.5q-110 0 -142 -27.5t-32 -117.5v-944z" />
    <glyph glyph-name="Iacute" unicode="&#xcd;" horiz-adv-x="679" 
d="M141 1391q-9 -4 -13 6.5t3 13.5q75 37 197 111.5t137 83.5q14 9 86 -22q53 -23 50 -33q0 -2 -5 -3q-223 -55 -455 -157zM408 166q0 -90 30.5 -115.5t143.5 -25.5q6 0 6 -12.5t-6 -12.5q-29 0 -110 2t-134 2q-48 0 -130 -2t-112 -2q-6 0 -6 12.5t6 12.5q112 0 144 25.5
t32 115.5v948q0 88 -32 114.5t-144 26.5q-6 0 -6 12.5t6 12.5q30 0 112 -3t130 -3q53 0 135 3t109 3q6 0 6 -12.5t-6 -12.5q-110 0 -142 -27.5t-32 -117.5v-944z" />
    <glyph glyph-name="Icircumflex" unicode="&#xce;" horiz-adv-x="679" 
d="M106 1419l211 199q9 9 24 9t24 -9l208 -199q3 -2 2 -6.5t-5 -7.5t-7 0l-221 117l-223 -117q-2 -1 -6.5 2t-6.5 6.5t0 5.5zM408 166q0 -90 30.5 -115.5t143.5 -25.5q6 0 6 -12.5t-6 -12.5q-29 0 -110 2t-134 2q-48 0 -130 -2t-112 -2q-6 0 -6 12.5t6 12.5q112 0 144 25.5
t32 115.5v948q0 88 -32 114.5t-144 26.5q-6 0 -6 12.5t6 12.5q30 0 112 -3t130 -3q53 0 135 3t109 3q6 0 6 -12.5t-6 -12.5q-110 0 -142 -27.5t-32 -117.5v-944z" />
    <glyph glyph-name="Idieresis" unicode="&#xcf;" horiz-adv-x="679" 
d="M195 1466q-40 0 -64.5 23.5t-24.5 62.5q0 38 24.5 61t64.5 23q39 0 61.5 -22.5t22.5 -61.5q0 -40 -22 -63t-62 -23zM487 1466q-41 0 -64.5 23t-23.5 63q0 38 23.5 60t64.5 22q40 0 62 -22t22 -60q0 -40 -22 -63t-62 -23zM408 166q0 -90 30.5 -115.5t143.5 -25.5
q6 0 6 -12.5t-6 -12.5q-29 0 -110 2t-134 2q-48 0 -130 -2t-112 -2q-6 0 -6 12.5t6 12.5q112 0 144 25.5t32 115.5v948q0 88 -32 114.5t-144 26.5q-6 0 -6 12.5t6 12.5q30 0 112 -3t130 -3q53 0 135 3t109 3q6 0 6 -12.5t-6 -12.5q-110 0 -142 -27.5t-32 -117.5v-944z" />
    <glyph glyph-name="Eth" unicode="&#xd0;" horiz-adv-x="1415" 
d="M592 1284q214 0 379.5 -82t254.5 -223.5t89 -316.5q0 -150 -55.5 -277t-150 -212.5t-221 -133t-267.5 -47.5q-38 0 -148 6t-160 6q-48 0 -129.5 -2t-111.5 -2q-4 0 -4 12.5t4 12.5q113 0 145.5 26t32.5 115v450h-141q-9 0 -9 20.5t9 20.5h141v457q0 88 -32 114.5
t-144 26.5q-4 0 -4 12.5t4 12.5q31 0 111 -3t128 -3q47 0 145.5 5t133.5 5zM600 23q250 0 404.5 156t154.5 437q0 178 -66 322.5t-192 229.5t-291 85q-132 0 -180.5 -26.5t-48.5 -116.5v-453h278q9 0 9 -20.5t-9 -20.5h-278v-428q0 -90 45 -127.5t174 -37.5z" />
    <glyph glyph-name="Ntilde" unicode="&#xd1;" horiz-adv-x="1488" 
d="M514 1427q-2 -2 -6 0.5t-7 7t-1 7.5q91 129 174 129q30 0 116 -25.5t140 -25.5q24 0 43.5 8.5t30 18.5t26.5 28q5 3 12.5 -3.5t4.5 -10.5q-55 -75 -89.5 -101t-74.5 -26q-43 0 -130 24.5t-139 24.5q-11 0 -21 -1t-18.5 -5t-14 -6.5t-13.5 -10t-10.5 -9.5t-11.5 -12
t-11 -12zM1442 1280q6 0 6 -12.5t-6 -12.5q-86 0 -125 -47t-39 -151v-1080q0 -6 -10 -7.5t-13 1.5l-944 1141q-1 1 -16 21v-910q0 -106 36.5 -152t121.5 -46q6 0 6 -12.5t-6 -12.5q-24 0 -84 2t-97 2q-36 0 -99 -2t-89 -2q-6 0 -6 12.5t6 12.5q87 0 124.5 46t37.5 152v959
q-78 73 -162 73q-6 0 -6 12.5t6 12.5q24 0 73 -2t70 -2q29 0 70 2t49 2q16 0 24.5 -7.5t28 -39t41.5 -59.5l791 -967v850q0 105 -36 151.5t-120 46.5q-5 0 -5 12.5t5 12.5q26 0 84.5 -3t95.5 -3q35 0 98.5 3t88.5 3z" />
    <glyph glyph-name="Ograve" unicode="&#xd2;" horiz-adv-x="1568" 
d="M991 1391q-234 102 -454 157q-20 5 28 28q64 32 96 32q5 0 7 -2q18 -11 94.5 -58.5t129 -78t109.5 -58.5q7 -3 3 -13.5t-13 -6.5zM750 -25q-191 0 -341 91t-229.5 242t-79.5 331q0 129 43 239t115 187t165.5 131.5t195 80.5t202.5 26q146 0 270 -55t205.5 -146.5
t126.5 -208t45 -240.5q0 -140 -58 -266t-155 -216t-229 -143t-276 -53zM823 18q103 0 191.5 38.5t155.5 110t105 182.5t38 247q0 191 -70.5 340.5t-202 234t-303.5 84.5q-227 0 -354 -145t-127 -399q0 -193 70.5 -350.5t201 -250t295.5 -92.5z" />
    <glyph glyph-name="Oacute" unicode="&#xd3;" horiz-adv-x="1568" 
d="M590 1391q-4 -2 -7.5 0t-5 6t-1 8.5t3.5 5.5q75 37 195 111t138 84q14 9 86 -22q53 -23 50 -33q0 -2 -5 -3q-220 -55 -454 -157zM750 -25q-191 0 -341 91t-229.5 242t-79.5 331q0 129 43 239t115 187t165.5 131.5t195 80.5t202.5 26q146 0 270 -55t205.5 -146.5
t126.5 -208t45 -240.5q0 -140 -58 -266t-155 -216t-229 -143t-276 -53zM823 18q103 0 191.5 38.5t155.5 110t105 182.5t38 247q0 191 -70.5 340.5t-202 234t-303.5 84.5q-227 0 -354 -145t-127 -399q0 -193 70.5 -350.5t201 -250t295.5 -92.5z" />
    <glyph glyph-name="Ocircumflex" unicode="&#xd4;" horiz-adv-x="1568" 
d="M555 1419l211 199q9 9 23.5 9t23.5 -9l209 -199q3 -2 2 -6.5t-5 -7.5t-7 0l-221 117l-224 -117q-2 -1 -6 2t-6 6.5t0 5.5zM750 -25q-191 0 -341 91t-229.5 242t-79.5 331q0 129 43 239t115 187t165.5 131.5t195 80.5t202.5 26q146 0 270 -55t205.5 -146.5t126.5 -208
t45 -240.5q0 -140 -58 -266t-155 -216t-229 -143t-276 -53zM823 18q103 0 191.5 38.5t155.5 110t105 182.5t38 247q0 191 -70.5 340.5t-202 234t-303.5 84.5q-227 0 -354 -145t-127 -399q0 -193 70.5 -350.5t201 -250t295.5 -92.5z" />
    <glyph glyph-name="Otilde" unicode="&#xd5;" horiz-adv-x="1568" 
d="M948 1520q24 0 44 8.5t31 18.5t26 28q5 3 12 -3.5t4 -10.5q-55 -75 -89.5 -101t-74.5 -26q-43 0 -129 24.5t-139 24.5q-10 0 -19 -1.5t-15.5 -3t-14.5 -6t-12 -6.5t-11 -9l-9 -9t-10 -10.5t-10 -10.5t-6 0.5t-7 7t-1 7.5q91 129 174 129q30 0 116 -25.5t140 -25.5z
M750 -25q-191 0 -341 91t-229.5 242t-79.5 331q0 129 43 239t115 187t165.5 131.5t195 80.5t202.5 26q146 0 270 -55t205.5 -146.5t126.5 -208t45 -240.5q0 -140 -58 -266t-155 -216t-229 -143t-276 -53zM823 18q103 0 191.5 38.5t155.5 110t105 182.5t38 247
q0 191 -70.5 340.5t-202 234t-303.5 84.5q-227 0 -354 -145t-127 -399q0 -193 70.5 -350.5t201 -250t295.5 -92.5z" />
    <glyph glyph-name="Odieresis" unicode="&#xd6;" horiz-adv-x="1568" 
d="M610 1466q-41 0 -64.5 23t-23.5 63q0 39 23.5 61.5t64.5 22.5q39 0 61.5 -22.5t22.5 -61.5q0 -40 -22 -63t-62 -23zM969 1466q-40 0 -64 23t-24 63q0 38 24 60t64 22t62 -22t22 -60q0 -40 -22 -63t-62 -23zM750 -25q-191 0 -341 91t-229.5 242t-79.5 331q0 129 43 239
t115 187t165.5 131.5t195 80.5t202.5 26q146 0 270 -55t205.5 -146.5t126.5 -208t45 -240.5q0 -140 -58 -266t-155 -216t-229 -143t-276 -53zM823 18q103 0 191.5 38.5t155.5 110t105 182.5t38 247q0 191 -70.5 340.5t-202 234t-303.5 84.5q-227 0 -354 -145t-127 -399
q0 -193 70.5 -350.5t201 -250t295.5 -92.5z" />
    <glyph glyph-name="multiply" unicode="&#xd7;" horiz-adv-x="782" 
d="M449 387l210 -211q6 -6 -21.5 -33.5t-33.5 -21.5l-211 211l-211 -211q-4 -4 -19.5 8.5t-28.5 28t-9 18.5l211 211l-211 211q-4 4 8.5 19.5t28 28.5t18.5 9l213 -211l211 211q6 6 33.5 -21.5t21.5 -33.5z" />
    <glyph glyph-name="Oslash" unicode="&#xd8;" horiz-adv-x="1579" 
d="M1280 1118q90 -90 139 -212.5t49 -252.5q0 -140 -58 -266t-155 -216t-229 -143t-276 -53q-257 0 -437 162l-149 -151q-4 -4 -13 1.5t-15 14.5t-1 14l148 150q-88 91 -135.5 214t-47.5 259q0 129 43 239t115 187t165.5 131.5t195 80.5t202.5 26q251 0 428 -156l142 143
q3 3 12.5 -1.5t16 -12t1.5 -12.5zM256 711q0 -258 125 -447l782 797q-158 194 -426 194q-227 0 -354 -145t-127 -399zM823 18q103 0 191.5 38.5t155.5 110t105 182.5t38 247q0 251 -123 432l-787 -799q77 -100 184.5 -155.5t235.5 -55.5z" />
    <glyph glyph-name="Ugrave" unicode="&#xd9;" horiz-adv-x="1429" 
d="M969 1391q-232 102 -455 157q-20 5 28 28q64 32 96 32q5 0 7 -2q25 -15 76.5 -47t84 -51.5t81 -47t92.5 -49.5q7 -3 3 -13.5t-13 -6.5zM1171 1057q0 198 -178 198q-6 0 -6 12.5t6 12.5q28 0 95 -3t108 -3q36 0 99 3t89 3q4 0 4 -12.5t-4 -12.5q-163 0 -163 -198v-584
q0 -235 -131.5 -367.5t-352.5 -132.5q-229 0 -366.5 132t-137.5 354v655q0 89 -31.5 115t-142.5 26q-6 0 -6 12.5t6 12.5q30 0 111 -3t129 -3q51 0 132.5 3t109.5 3q5 0 5 -12.5t-5 -12.5q-110 0 -142 -27.5t-32 -117.5v-580q0 -241 108.5 -367t306.5 -126q183 0 286 115
t103 319v586z" />
    <glyph glyph-name="Uacute" unicode="&#xda;" horiz-adv-x="1429" 
d="M567 1391q-9 -4 -13 6.5t3 13.5q75 37 197 111.5t137 83.5q14 9 86 -22q53 -23 50 -33q0 -2 -5 -3q-223 -55 -455 -157zM1171 1057q0 198 -178 198q-6 0 -6 12.5t6 12.5q28 0 95 -3t108 -3q36 0 99 3t89 3q4 0 4 -12.5t-4 -12.5q-163 0 -163 -198v-584
q0 -235 -131.5 -367.5t-352.5 -132.5q-229 0 -366.5 132t-137.5 354v655q0 89 -31.5 115t-142.5 26q-6 0 -6 12.5t6 12.5q30 0 111 -3t129 -3q51 0 132.5 3t109.5 3q5 0 5 -12.5t-5 -12.5q-110 0 -142 -27.5t-32 -117.5v-580q0 -241 108.5 -367t306.5 -126q183 0 286 115
t103 319v586z" />
    <glyph glyph-name="Ucircumflex" unicode="&#xdb;" horiz-adv-x="1429" 
d="M532 1419l211 199q9 9 24 9t24 -9l208 -199q3 -2 2 -6.5t-5 -7.5t-7 0l-221 117l-223 -117q-2 -1 -6.5 2t-6.5 6.5t0 5.5zM1171 1057q0 198 -178 198q-6 0 -6 12.5t6 12.5q28 0 95 -3t108 -3q36 0 99 3t89 3q4 0 4 -12.5t-4 -12.5q-163 0 -163 -198v-584
q0 -235 -131.5 -367.5t-352.5 -132.5q-229 0 -366.5 132t-137.5 354v655q0 89 -31.5 115t-142.5 26q-6 0 -6 12.5t6 12.5q30 0 111 -3t129 -3q51 0 132.5 3t109.5 3q5 0 5 -12.5t-5 -12.5q-110 0 -142 -27.5t-32 -117.5v-580q0 -241 108.5 -367t306.5 -126q183 0 286 115
t103 319v586z" />
    <glyph glyph-name="Udieresis" unicode="&#xdc;" horiz-adv-x="1429" 
d="M588 1466q-41 0 -64.5 23t-23.5 63q0 39 23.5 61.5t64.5 22.5q39 0 61.5 -22.5t22.5 -61.5q0 -40 -22 -63t-62 -23zM946 1466q-40 0 -64 23t-24 63q0 38 24 60t64 22t62 -22t22 -60q0 -40 -22 -63t-62 -23zM1171 1057q0 198 -178 198q-6 0 -6 12.5t6 12.5q28 0 95 -3
t108 -3q36 0 99 3t89 3q4 0 4 -12.5t-4 -12.5q-163 0 -163 -198v-584q0 -235 -131.5 -367.5t-352.5 -132.5q-229 0 -366.5 132t-137.5 354v655q0 89 -31.5 115t-142.5 26q-6 0 -6 12.5t6 12.5q30 0 111 -3t129 -3q51 0 132.5 3t109.5 3q5 0 5 -12.5t-5 -12.5
q-110 0 -142 -27.5t-32 -117.5v-580q0 -241 108.5 -367t306.5 -126q183 0 286 115t103 319v586z" />
    <glyph glyph-name="Yacute" unicode="&#xdd;" horiz-adv-x="1247" 
d="M451 1391q-6 -3 -10 1.5t-4 10t3 8.5q75 37 197 111.5t137 83.5q14 9 86 -22q53 -23 50 -33q0 -2 -5 -3q-220 -55 -454 -157zM1255 1280q6 0 6 -12.5t-6 -12.5q-72 0 -147 -54t-135 -148l-275 -424v-463q0 -90 30.5 -115.5t143.5 -25.5q6 0 6 -12.5t-6 -12.5
q-30 0 -110 2t-131 2q-48 0 -130 -2t-112 -2q-6 0 -6 12.5t6 12.5q112 0 144 25.5t32 115.5v432l-340 498q-57 89 -108.5 124t-118.5 35q-4 0 -4 12.5t4 12.5q24 0 73.5 -3t71.5 -3q60 0 158 3t129 3q4 0 4 -12.5t-4 -12.5q-154 0 -86 -92l330 -485l248 383q60 94 43.5 144
t-107.5 50q-4 0 -4 12.5t4 12.5q34 0 107 -3t133 -3q35 0 82 3t75 3z" />
    <glyph glyph-name="Thorn" unicode="&#xde;" horiz-adv-x="1099" 
d="M557 301q63 0 119 21t101 62t71 109t26 154q0 164 -93.5 255t-248.5 91q-69 0 -141 -16v-803q0 -33 3 -54t13.5 -39t26.5 -28t44.5 -16.5t65 -9t91.5 -2.5q6 0 6 -12.5t-6 -12.5q-40 0 -142 2t-165 2q-48 0 -129 -2t-109 -2q-6 0 -6 12.5t6 12.5q108 0 139 25.5t31 115.5
v948q0 88 -31 114.5t-139 26.5q-6 0 -6 12.5t6 12.5q28 0 109 -3t129 -3q63 0 165 3t142 3q6 0 6 -12.5t-6 -12.5q-82 0 -127.5 -5.5t-73 -23.5t-35.5 -45t-8 -77v-96q92 14 193 14q94 0 170.5 -18t138 -56t96.5 -104t37 -156q2 -84 -24 -154.5t-71 -118t-104.5 -80.5
t-122.5 -48t-126 -15q-40 0 -101 11q-4 1 -4.5 8t2.5 13t8 5q46 -8 74 -8z" />
    <glyph glyph-name="germandbls" unicode="&#xdf;" horiz-adv-x="1038" 
d="M713 -23q-91 0 -166 62q-12 9 -12 24l-5 185q0 5 11 5.5t12 -3.5q38 -114 95 -173t124 -59q53 0 86 44t27 112q-3 49 -31 100t-55.5 81.5t-81.5 84.5q-43 42 -67.5 69t-54.5 67.5t-44 82t-14 86.5q0 52 20 99.5t48.5 86t57 78.5t48.5 94t20 114q0 40 -8.5 78.5t-27 76.5
t-56.5 61t-90 23q-119 0 -184.5 -143.5t-65.5 -399.5v-747q0 -90 23.5 -115.5t107.5 -25.5q6 0 6 -12.5t-6 -12.5q-33 0 -94 1t-94 1q-39 0 -108.5 -1t-94.5 -1q-5 0 -5 12.5t5 12.5q89 0 115 26t26 115l-2 752q0 271 111 420t311 149q68 0 119.5 -18.5t80 -49t42.5 -64.5
t14 -69q0 -54 -24 -104t-59 -89t-69.5 -76.5t-58.5 -82.5t-24 -92q0 -35 13.5 -70t44 -74t54 -64.5t68.5 -70.5q39 -41 56.5 -59.5t48 -56.5t45 -64.5t26.5 -63t12 -71.5q0 -104 -78 -187.5t-198 -83.5z" />
    <glyph glyph-name="agrave" unicode="&#xe0;" horiz-adv-x="858" 
d="M440 971l-209 518q-2 6 11 7q36 3 91 -16q22 -8 23 -14l105 -491q1 -3 -4 -5.5t-10.5 -2.5t-6.5 4zM846 111q9 3 13.5 -7.5t-3.5 -15.5l-211 -100q-12 -4 -18 -4q-26 0 -47 35t-27 96l-127 -68q-116 -61 -184 -61q-64 0 -97.5 33.5t-33.5 86.5q0 55 42.5 88.5t151.5 71.5
l246 86v170q0 136 -35 191t-98 55q-69 0 -107 -50t-47 -120q-4 -22 -9.5 -37t-22.5 -28t-44 -13q-69 0 -69 62q0 46 61.5 100t148 90.5t156.5 36.5q82 0 131.5 -56.5t49.5 -168.5v-363q0 -72 18 -105.5t59 -33.5q34 0 103 29zM426 80l125 63v13v172l-211 -80
q-86 -31 -86 -98q0 -43 24.5 -68t65.5 -25q30 0 82 23z" />
    <glyph glyph-name="aacute" unicode="&#xe1;" horiz-adv-x="858" 
d="M424 971q-1 -4 -7 -4t-11.5 2.5t-4.5 5.5l107 491q3 13 69 25q60 11 56 -2zM846 111q9 3 13.5 -7.5t-3.5 -15.5l-211 -100q-12 -4 -18 -4q-26 0 -47 35t-27 96l-127 -68q-116 -61 -184 -61q-64 0 -97.5 33.5t-33.5 86.5q0 55 42.5 88.5t151.5 71.5l246 86v170
q0 136 -35 191t-98 55q-69 0 -107 -50t-47 -120q-4 -22 -9.5 -37t-22.5 -28t-44 -13q-69 0 -69 62q0 46 61.5 100t148 90.5t156.5 36.5q82 0 131.5 -56.5t49.5 -168.5v-363q0 -72 18 -105.5t59 -33.5q34 0 103 29zM426 80l125 63v13v172l-211 -80q-86 -31 -86 -98
q0 -43 24.5 -68t65.5 -25q30 0 82 23z" />
    <glyph glyph-name="acircumflex" unicode="&#xe2;" horiz-adv-x="858" 
d="M289 971q-1 -4 -7 -4t-11.5 2.5t-4.5 5.5l140 510q2 11 22 11t25 -11l137 -510q3 -4 -6 -7q-13 -4 -15 3l-139 336zM846 111q9 3 13.5 -7.5t-3.5 -15.5l-211 -100q-12 -4 -18 -4q-26 0 -47 35t-27 96l-127 -68q-116 -61 -184 -61q-64 0 -97.5 33.5t-33.5 86.5
q0 55 42.5 88.5t151.5 71.5l246 86v170q0 136 -35 191t-98 55q-69 0 -107 -50t-47 -120q-4 -22 -9.5 -37t-22.5 -28t-44 -13q-69 0 -69 62q0 46 61.5 100t148 90.5t156.5 36.5q82 0 131.5 -56.5t49.5 -168.5v-363q0 -72 18 -105.5t59 -33.5q34 0 103 29zM426 80l125 63v13
v172l-211 -80q-86 -31 -86 -98q0 -43 24.5 -68t65.5 -25q30 0 82 23z" />
    <glyph glyph-name="atilde" unicode="&#xe3;" horiz-adv-x="858" 
d="M170 981q-5 -3 -11.5 3.5t-2.5 10.5q91 129 174 129q30 0 116 -25.5t140 -25.5q24 0 44 9t28.5 17.5t27.5 28.5q6 4 13 -5q5 -5 1 -9q-54 -76 -87.5 -101.5t-73.5 -25.5q-44 0 -130.5 24.5t-138.5 24.5q-10 0 -19 -1.5t-15.5 -3t-14.5 -5.5t-11.5 -6t-10.5 -9t-9.5 -9
t-10 -10.5t-9.5 -10.5zM846 111q9 3 13.5 -7.5t-3.5 -15.5l-211 -100q-12 -4 -18 -4q-26 0 -47 35t-27 96l-127 -68q-116 -61 -184 -61q-64 0 -97.5 33.5t-33.5 86.5q0 55 42.5 88.5t151.5 71.5l246 86v170q0 136 -35 191t-98 55q-69 0 -107 -50t-47 -120q-4 -22 -9.5 -37
t-22.5 -28t-44 -13q-69 0 -69 62q0 46 61.5 100t148 90.5t156.5 36.5q82 0 131.5 -56.5t49.5 -168.5v-363q0 -72 18 -105.5t59 -33.5q34 0 103 29zM426 80l125 63v13v172l-211 -80q-86 -31 -86 -98q0 -43 24.5 -68t65.5 -25q30 0 82 23z" />
    <glyph glyph-name="adieresis" unicode="&#xe4;" horiz-adv-x="858" 
d="M250 977q-41 0 -64.5 23t-23.5 63q0 39 23.5 61.5t64.5 22.5q39 0 61.5 -22.5t22.5 -61.5q0 -40 -22 -63t-62 -23zM608 977q-40 0 -64 23t-24 63q0 38 24 60t64 22t62 -22t22 -60q0 -40 -22 -63t-62 -23zM846 111q9 3 13.5 -7.5t-3.5 -15.5l-211 -100q-12 -4 -18 -4
q-26 0 -47 35t-27 96l-127 -68q-116 -61 -184 -61q-64 0 -97.5 33.5t-33.5 86.5q0 55 42.5 88.5t151.5 71.5l246 86v170q0 136 -35 191t-98 55q-69 0 -107 -50t-47 -120q-4 -22 -9.5 -37t-22.5 -28t-44 -13q-69 0 -69 62q0 46 61.5 100t148 90.5t156.5 36.5
q82 0 131.5 -56.5t49.5 -168.5v-363q0 -72 18 -105.5t59 -33.5q34 0 103 29zM426 80l125 63v13v172l-211 -80q-86 -31 -86 -98q0 -43 24.5 -68t65.5 -25q30 0 82 23z" />
    <glyph glyph-name="aring" unicode="&#xe5;" horiz-adv-x="858" 
d="M410 958q-81 0 -130 48t-49 114q0 74 61.5 117t137.5 43q74 0 127 -48.5t53 -115.5q0 -71 -61 -114.5t-139 -43.5zM389 1257q-35 0 -51 -23t-16 -73q0 -69 32.5 -125.5t87.5 -56.5q38 0 56 24t18 76q0 73 -37 125.5t-90 52.5zM846 111q9 3 13.5 -7.5t-3.5 -15.5
l-211 -100q-12 -4 -18 -4q-26 0 -47 35t-27 96l-127 -68q-116 -61 -184 -61q-64 0 -97.5 33.5t-33.5 86.5q0 55 42.5 88.5t151.5 71.5l246 86v170q0 136 -35 191t-98 55q-69 0 -107 -50t-47 -120q-4 -22 -9.5 -37t-22.5 -28t-44 -13q-69 0 -69 62q0 46 61.5 100t148 90.5
t156.5 36.5q82 0 131.5 -56.5t49.5 -168.5v-363q0 -72 18 -105.5t59 -33.5q34 0 103 29zM426 80l125 63v13v172l-211 -80q-86 -31 -86 -98q0 -43 24.5 -68t65.5 -25q30 0 82 23z" />
    <glyph glyph-name="ae" unicode="&#xe6;" horiz-adv-x="1206" 
d="M1130 115q4 3 9.5 -1t7 -9t-1.5 -9q-68 -65 -135 -93t-150 -28q-203 0 -282 152l-166 -84q-62 -33 -100 -45t-79 -12q-63 0 -100 34t-37 89q0 53 41 82.5t154 68.5l235 80v8q-3 90 -5.5 134t-8 104t-15 86t-25.5 54.5t-39.5 38t-57.5 9.5q-118 0 -137 -178
q-5 -74 -72 -74q-34 0 -52 17.5t-18 46.5q0 45 50.5 97.5t127.5 89t146 36.5q70 0 124 -38t74 -103q122 141 306 141q102 0 156.5 -54.5t54.5 -152.5q0 -24 -5.5 -34.5t-19.5 -10.5l-453 -2q-10 -58 -10 -115q1 -38 3.5 -70t10 -74.5t19.5 -76t33 -67.5t49 -57t69.5 -37.5
t92.5 -14.5q122 0 206 72zM856 768q-71 0 -120.5 -48.5t-71.5 -135.5l329 8q-1 86 -38 131t-99 45zM412 74l155 73q-30 71 -39 168l-202 -73q-46 -17 -65 -36.5t-19 -51.5q0 -43 25 -69t65 -26q46 0 80 15z" />
    <glyph glyph-name="ccedilla" unicode="&#xe7;" horiz-adv-x="841" 
d="M762 115q4 2 9 -1.5t6.5 -8t-1.5 -7.5q-72 -65 -143.5 -94t-159.5 -29h-12q-11 -33 -17 -53t-4.5 -38.5t3 -26.5t17 -22t25.5 -20t41 -24q52 -30 82.5 -66t30.5 -92q0 -76 -54 -136t-159 -60q-57 0 -94 21t-37 59q0 26 18 42.5t43 16.5q24 0 39.5 -15.5t22.5 -33.5
t25.5 -33.5t48.5 -15.5q67 0 67 76q0 54 -38 96t-136 96q-26 13 -28 21.5t10 39.5q21 50 63 170q-90 7 -160.5 45t-112 95.5t-62.5 124t-21 137.5q0 99 40 182t105 136t144 82.5t159 29.5q91 0 162.5 -35t75.5 -86q2 -29 -18 -49.5t-54 -20.5q-54 0 -90 66q-26 44 -56.5 64
t-88.5 20q-115 0 -179.5 -89.5t-64.5 -238.5q0 -81 20 -150t60.5 -124.5t108.5 -87t157 -31.5q123 0 207 68z" />
    <glyph glyph-name="egrave" unicode="&#xe8;" horiz-adv-x="833" 
d="M477 971l-209 518q-2 6 11 7q36 3 91 -16q22 -8 23 -14l105 -491q1 -3 -4 -5.5t-10.5 -2.5t-6.5 4zM743 115q3 3 8 -1t7 -9t0 -9q-135 -121 -299 -121q-121 0 -210.5 57t-132 145t-42.5 192q0 185 126.5 312.5t313.5 127.5q111 0 172.5 -54t61.5 -149q0 -49 -25 -49
l-504 -2q-10 -55 -10 -106q0 -179 86 -290.5t235 -111.5q113 0 213 68zM444 768q-84 0 -139.5 -47.5t-79.5 -136.5l381 8q-1 84 -45 130t-117 46z" />
    <glyph glyph-name="eacute" unicode="&#xe9;" horiz-adv-x="833" 
d="M461 971q-1 -4 -7 -4t-11.5 2.5t-4.5 5.5l107 491q3 13 69 25q60 11 56 -2zM743 115q3 3 8 -1t7 -9t0 -9q-135 -121 -299 -121q-121 0 -210.5 57t-132 145t-42.5 192q0 185 126.5 312.5t313.5 127.5q111 0 172.5 -54t61.5 -149q0 -49 -25 -49l-504 -2q-10 -55 -10 -106
q0 -179 86 -290.5t235 -111.5q113 0 213 68zM444 768q-84 0 -139.5 -47.5t-79.5 -136.5l381 8q-1 84 -45 130t-117 46z" />
    <glyph glyph-name="ecircumflex" unicode="&#xea;" horiz-adv-x="833" 
d="M326 971q-1 -4 -7 -4t-11.5 2.5t-4.5 5.5l139 510q2 11 22 11t25 -11l138 -510q3 -4 -6 -7q-13 -4 -15 3l-139 336zM743 115q3 3 8 -1t7 -9t0 -9q-135 -121 -299 -121q-121 0 -210.5 57t-132 145t-42.5 192q0 185 126.5 312.5t313.5 127.5q111 0 172.5 -54t61.5 -149
q0 -49 -25 -49l-504 -2q-10 -55 -10 -106q0 -179 86 -290.5t235 -111.5q113 0 213 68zM444 768q-84 0 -139.5 -47.5t-79.5 -136.5l381 8q-1 84 -45 130t-117 46z" />
    <glyph glyph-name="edieresis" unicode="&#xeb;" horiz-adv-x="833" 
d="M287 977q-41 0 -64.5 23t-23.5 63q0 39 23.5 61.5t64.5 22.5q39 0 61.5 -22.5t22.5 -61.5q0 -40 -22 -63t-62 -23zM645 977q-40 0 -64 23t-24 63q0 38 24 60t64 22t62 -22t22 -60q0 -40 -22 -63t-62 -23zM743 115q3 3 8 -1t7 -9t0 -9q-135 -121 -299 -121
q-121 0 -210.5 57t-132 145t-42.5 192q0 185 126.5 312.5t313.5 127.5q111 0 172.5 -54t61.5 -149q0 -49 -25 -49l-504 -2q-10 -55 -10 -106q0 -179 86 -290.5t235 -111.5q113 0 213 68zM444 768q-84 0 -139.5 -47.5t-79.5 -136.5l381 8q-1 84 -45 130t-117 46z" />
    <glyph glyph-name="igrave" unicode="&#xec;" horiz-adv-x="557" 
d="M84 1489q-2 6 11 7q36 3 91 -16q21 -8 23 -14l104 -491q1 -3 -3.5 -5.5t-10 -2.5t-6.5 4zM109 0q-5 0 -5 12.5t5 12.5q82 0 106.5 26.5t24.5 114.5v383q0 73 -16 106t-52 33q-35 0 -92 -29q-6 -3 -11 2.5t-4.5 12t5.5 10.5l264 123q4 4 8 4q6 0 11 -6t5 -12q0 -7 -1 -41
t-2 -88.5t-1 -112.5v-385q0 -88 24 -114.5t105 -26.5q6 0 6 -12.5t-6 -12.5q-22 0 -84.5 2t-101.5 2t-102 -2t-86 -2z" />
    <glyph glyph-name="iacute" unicode="&#xed;" horiz-adv-x="557" 
d="M276 971q-1 -4 -7 -4t-11 2.5t-4 5.5l106 491q3 13 69 25q60 11 56 -2zM109 0q-5 0 -5 12.5t5 12.5q82 0 106.5 26.5t24.5 114.5v383q0 73 -16 106t-52 33q-35 0 -92 -29q-6 -3 -11 2.5t-4.5 12t5.5 10.5l264 123q4 4 8 4q6 0 11 -6t5 -12q0 -7 -1 -41t-2 -88.5
t-1 -112.5v-385q0 -88 24 -114.5t105 -26.5q6 0 6 -12.5t-6 -12.5q-22 0 -84.5 2t-101.5 2t-102 -2t-86 -2z" />
    <glyph glyph-name="icircumflex" unicode="&#xee;" horiz-adv-x="557" 
d="M442 975q3 -4 -6 -7q-11 -2 -14 3l-139 336l-142 -336q-1 -4 -7 -4t-11 2.5t-4 5.5l139 510q2 11 22.5 11t24.5 -11zM109 0q-5 0 -5 12.5t5 12.5q82 0 106.5 26.5t24.5 114.5v383q0 73 -16 106t-52 33q-35 0 -92 -29q-6 -3 -11 2.5t-4.5 12t5.5 10.5l264 123q4 4 8 4
q6 0 11 -6t5 -12q0 -7 -1 -41t-2 -88.5t-1 -112.5v-385q0 -88 24 -114.5t105 -26.5q6 0 6 -12.5t-6 -12.5q-22 0 -84.5 2t-101.5 2t-102 -2t-86 -2z" />
    <glyph glyph-name="idieresis" unicode="&#xef;" horiz-adv-x="557" 
d="M135 977q-40 0 -64 23t-24 63q0 38 24 61t64 23q39 0 61.5 -22.5t22.5 -61.5q0 -40 -22 -63t-62 -23zM428 977q-41 0 -64.5 23t-23.5 63q0 38 23.5 60t64.5 22q40 0 62 -22t22 -60q0 -40 -22 -63t-62 -23zM109 0q-5 0 -5 12.5t5 12.5q82 0 106.5 26.5t24.5 114.5v383
q0 73 -16 106t-52 33q-35 0 -92 -29q-6 -3 -11 2.5t-4.5 12t5.5 10.5l264 123q4 4 8 4q6 0 11 -6t5 -12q0 -7 -1 -41t-2 -88.5t-1 -112.5v-385q0 -88 24 -114.5t105 -26.5q6 0 6 -12.5t-6 -12.5q-22 0 -84.5 2t-101.5 2t-102 -2t-86 -2z" />
    <glyph glyph-name="eth" unicode="&#xf0;" horiz-adv-x="962" 
d="M621 1165q132 -154 204 -335.5t72 -364.5q0 -126 -35 -223t-97 -154.5t-139.5 -86t-168.5 -28.5q-117 0 -207 57t-136 149t-46 202q0 86 26.5 159.5t69.5 123.5t99 85.5t114 51.5t115 16q121 0 215 -67q-62 201 -177 372l-274 -131q-5 -2 -11 8t-7 20.5t4 14.5l262 125
q-140 193 -320 307q-9 4 1 15q6 6 12 4q216 -98 393 -285l211 100q6 2 12.5 -8t7.5 -20.5t-4 -14.5zM514 12q118 0 182 86.5t64 292.5q0 97 -21 223q-43 78 -113.5 121t-156.5 43q-115 0 -191.5 -90t-76.5 -248q0 -178 87 -303t226 -125z" />
    <glyph glyph-name="ntilde" unicode="&#xf1;" horiz-adv-x="1058" 
d="M297 981q-5 -3 -11.5 3.5t-2.5 10.5q91 129 174 129q30 0 116 -25.5t140 -25.5q24 0 44 9t28.5 17.5t27.5 28.5q5 3 11.5 -3.5t2.5 -10.5q-54 -76 -87.5 -101.5t-73.5 -25.5q-44 0 -130 24.5t-139 24.5q-10 0 -19 -1.5t-15.5 -3t-14.5 -5.5t-11.5 -6t-10.5 -9t-9.5 -9
t-10 -10.5t-9.5 -10.5zM1016 25q4 0 4 -12.5t-4 -12.5q-22 0 -86 2t-103 2q-38 0 -101 -2t-85 -2q-5 0 -5 12.5t5 12.5q80 0 104.5 26.5t24.5 114.5v332q0 121 -45.5 178t-142.5 57q-63 0 -127.5 -33.5t-118.5 -93.5v-440q0 -88 24 -114.5t105 -26.5q5 0 5 -12.5t-5 -12.5
q-22 0 -86 2t-103 2q-38 0 -101 -2t-85 -2q-4 0 -4 12.5t4 12.5q80 0 104.5 26.5t24.5 114.5v403q0 70 -16.5 101.5t-55.5 31.5q-32 0 -110 -30q-6 -3 -11 1.5t-4.5 10t5.5 8.5l237 115l12 4q11 0 24.5 -18.5t24.5 -58.5t11 -91q152 174 315 174q112 0 174 -64.5t62 -185.5
v-401q0 -88 24 -114.5t105 -26.5z" />
    <glyph glyph-name="ograve" unicode="&#xf2;" horiz-adv-x="983" 
d="M295 1489q-2 6 11 7q36 3 91 -16q22 -8 23 -14l104 -491q1 -3 -3.5 -5.5t-10 -2.5t-6.5 4zM475 -27q-179 0 -290 127t-111 306q0 82 26.5 151t70 116t100.5 80.5t117.5 48.5t121.5 15q91 0 167 -36t125.5 -95.5t77 -134.5t27.5 -156q0 -126 -60 -223.5t-158 -148
t-214 -50.5zM532 10q111 0 173.5 81.5t62.5 246.5q0 193 -92 316.5t-234 123.5q-110 0 -170.5 -79t-60.5 -230q0 -192 91 -325.5t230 -133.5z" />
    <glyph glyph-name="oacute" unicode="&#xf3;" horiz-adv-x="983" 
d="M487 971q-1 -4 -7 -4t-11 2.5t-4 5.5l106 491q3 13 69 25q60 11 56 -2zM475 -27q-179 0 -290 127t-111 306q0 82 26.5 151t70 116t100.5 80.5t117.5 48.5t121.5 15q91 0 167 -36t125.5 -95.5t77 -134.5t27.5 -156q0 -126 -60 -223.5t-158 -148t-214 -50.5zM532 10
q111 0 173.5 81.5t62.5 246.5q0 193 -92 316.5t-234 123.5q-110 0 -170.5 -79t-60.5 -230q0 -192 91 -325.5t230 -133.5z" />
    <glyph glyph-name="ocircumflex" unicode="&#xf4;" horiz-adv-x="983" 
d="M653 975q3 -4 -6 -7q-12 -4 -14 3l-139 336l-142 -336q-1 -4 -7 -4t-11 2.5t-4 5.5l139 510q1 11 21.5 11t25.5 -11zM475 -27q-179 0 -290 127t-111 306q0 82 26.5 151t70 116t100.5 80.5t117.5 48.5t121.5 15q91 0 167 -36t125.5 -95.5t77 -134.5t27.5 -156
q0 -126 -60 -223.5t-158 -148t-214 -50.5zM532 10q111 0 173.5 81.5t62.5 246.5q0 193 -92 316.5t-234 123.5q-110 0 -170.5 -79t-60.5 -230q0 -192 91 -325.5t230 -133.5z" />
    <glyph glyph-name="otilde" unicode="&#xf5;" horiz-adv-x="983" 
d="M649 1073q24 0 44 9t29.5 17.5t27.5 28.5q5 3 11.5 -3.5t2.5 -10.5q-54 -75 -88 -101t-74 -26q-44 0 -130 24.5t-138 24.5q-9 0 -17 -0.5t-15 -3t-12 -4t-12 -6t-10 -6.5t-9.5 -8.5l-8 -8t-9 -9.5t-8.5 -9q-5 -3 -11.5 3.5t-2.5 10.5q91 129 174 129q30 0 116 -25.5
t140 -25.5zM475 -27q-179 0 -290 127t-111 306q0 82 26.5 151t70 116t100.5 80.5t117.5 48.5t121.5 15q91 0 167 -36t125.5 -95.5t77 -134.5t27.5 -156q0 -126 -60 -223.5t-158 -148t-214 -50.5zM532 10q111 0 173.5 81.5t62.5 246.5q0 193 -92 316.5t-234 123.5
q-110 0 -170.5 -79t-60.5 -230q0 -192 91 -325.5t230 -133.5z" />
    <glyph glyph-name="odieresis" unicode="&#xf6;" horiz-adv-x="983" 
d="M313 977q-41 0 -64.5 23t-23.5 63q0 39 23.5 61.5t64.5 22.5q39 0 61.5 -22.5t22.5 -61.5q0 -40 -22 -63t-62 -23zM672 977q-40 0 -64 23t-24 63q0 38 24 60t64 22t62 -22t22 -60q0 -40 -22 -63t-62 -23zM475 -27q-179 0 -290 127t-111 306q0 82 26.5 151t70 116
t100.5 80.5t117.5 48.5t121.5 15q91 0 167 -36t125.5 -95.5t77 -134.5t27.5 -156q0 -126 -60 -223.5t-158 -148t-214 -50.5zM532 10q111 0 173.5 81.5t62.5 246.5q0 193 -92 316.5t-234 123.5q-110 0 -170.5 -79t-60.5 -230q0 -192 91 -325.5t230 -133.5z" />
    <glyph glyph-name="divide" unicode="&#xf7;" horiz-adv-x="815" 
d="M406 635q-43 0 -67 23.5t-24 66.5q0 39 24.5 61.5t66.5 22.5q41 0 63.5 -22.5t22.5 -61.5q0 -43 -22.5 -66.5t-63.5 -23.5zM70 348q-6 0 -8 20t-0.5 40t6.5 20h677q9 0 9 -40t-9 -40h-675zM406 -23q-43 0 -67 24t-24 67q0 39 24.5 61.5t66.5 22.5q41 0 63.5 -22.5
t22.5 -61.5q0 -43 -22.5 -67t-63.5 -24z" />
    <glyph glyph-name="oslash" unicode="&#xf8;" horiz-adv-x="976" 
d="M801 688q106 -118 106 -293q0 -126 -60 -223.5t-158 -148t-214 -50.5q-155 0 -266 103l-105 -107q-6 -5 -21 10.5t-9 22.5l104 107q-104 119 -104 297q0 82 26.5 151t70 116t100.5 80.5t117.5 48.5t121.5 15q150 0 260 -98l94 96q6 6 22.5 -7t10.5 -20zM211 469
q0 -152 57 -266l422 432q-94 143 -248 143q-110 0 -170.5 -79t-60.5 -230zM532 10q111 0 173.5 81.5t62.5 246.5q0 150 -57 258l-420 -434q44 -71 106 -111.5t135 -40.5z" />
    <glyph glyph-name="ugrave" unicode="&#xf9;" horiz-adv-x="1009" 
d="M500 971l-209 518q-2 6 11 7q36 3 91 -16q22 -8 23 -14l104 -491q1 -3 -3.5 -5.5t-10 -2.5t-6.5 4zM993 117q9 3 14.5 -8t-3.5 -15l-238 -112q-6 -2 -10 -2q-11 0 -24 18.5t-23.5 59t-10.5 92.5v8q-157 -174 -323 -174q-104 0 -161.5 63.5t-57.5 185.5v316
q0 80 -14.5 115.5t-47.5 35.5q-28 0 -69 -20q-6 -2 -10.5 4t-4.5 12t4 9l228 102l8 2q5 0 12.5 -5t7.5 -11v-490q0 -237 172 -237q65 0 133 33.5t123 93.5v356q0 81 -13 116t-46 35q-28 0 -72 -20q-5 -2 -9.5 4t-4 12t5.5 9l227 102q4 2 9 2t11.5 -5t6.5 -11v-574
q0 -70 16.5 -100.5t55.5 -30.5q32 0 108 29z" />
    <glyph glyph-name="uacute" unicode="&#xfa;" horiz-adv-x="1009" 
d="M483 971q-1 -4 -7 -4t-11 2.5t-4 5.5l106 491q3 13 69 25q60 11 56 -2zM993 117q9 3 14.5 -8t-3.5 -15l-238 -112q-6 -2 -10 -2q-11 0 -24 18.5t-23.5 59t-10.5 92.5v8q-157 -174 -323 -174q-104 0 -161.5 63.5t-57.5 185.5v316q0 80 -14.5 115.5t-47.5 35.5
q-28 0 -69 -20q-6 -2 -10.5 4t-4.5 12t4 9l228 102l8 2q5 0 12.5 -5t7.5 -11v-490q0 -237 172 -237q65 0 133 33.5t123 93.5v356q0 81 -13 116t-46 35q-28 0 -72 -20q-5 -2 -9.5 4t-4 12t5.5 9l227 102q4 2 9 2t11.5 -5t6.5 -11v-574q0 -70 16.5 -100.5t55.5 -30.5
q32 0 108 29z" />
    <glyph glyph-name="ucircumflex" unicode="&#xfb;" horiz-adv-x="1009" 
d="M348 971q-1 -4 -7 -4t-11 2.5t-4 5.5l139 510q1 11 22 11t25 -11l137 -510q3 -4 -6 -7q-12 -4 -14 3l-140 336zM993 117q9 3 14.5 -8t-3.5 -15l-238 -112q-6 -2 -10 -2q-11 0 -24 18.5t-23.5 59t-10.5 92.5v8q-157 -174 -323 -174q-104 0 -161.5 63.5t-57.5 185.5v316
q0 80 -14.5 115.5t-47.5 35.5q-28 0 -69 -20q-6 -2 -10.5 4t-4.5 12t4 9l228 102l8 2q5 0 12.5 -5t7.5 -11v-490q0 -237 172 -237q65 0 133 33.5t123 93.5v356q0 81 -13 116t-46 35q-28 0 -72 -20q-5 -2 -9.5 4t-4 12t5.5 9l227 102q4 2 9 2t11.5 -5t6.5 -11v-574
q0 -70 16.5 -100.5t55.5 -30.5q32 0 108 29z" />
    <glyph glyph-name="udieresis" unicode="&#xfc;" horiz-adv-x="1009" 
d="M309 977q-41 0 -64.5 23t-23.5 63q0 39 23.5 61.5t64.5 22.5q39 0 61.5 -22.5t22.5 -61.5q0 -40 -22 -63t-62 -23zM668 977q-40 0 -64 23t-24 63q0 38 24 60t64 22t62 -22t22 -60q0 -40 -22 -63t-62 -23zM993 117q9 3 14.5 -8t-3.5 -15l-238 -112q-6 -2 -10 -2
q-11 0 -24 18.5t-23.5 59t-10.5 92.5v8q-157 -174 -323 -174q-104 0 -161.5 63.5t-57.5 185.5v316q0 80 -14.5 115.5t-47.5 35.5q-28 0 -69 -20q-6 -2 -10.5 4t-4.5 12t4 9l228 102l8 2q5 0 12.5 -5t7.5 -11v-490q0 -237 172 -237q65 0 133 33.5t123 93.5v356q0 81 -13 116
t-46 35q-28 0 -72 -20q-5 -2 -9.5 4t-4 12t5.5 9l227 102q4 2 9 2t11.5 -5t6.5 -11v-574q0 -70 16.5 -100.5t55.5 -30.5q32 0 108 29z" />
    <glyph glyph-name="yacute" unicode="&#xfd;" horiz-adv-x="890" 
d="M457 971q-1 -4 -7 -4t-11.5 2.5t-4.5 5.5l107 491q3 13 69 25q60 11 56 -2zM885 791q5 0 5 -12.5t-5 -12.5q-55 0 -91.5 -35.5t-68.5 -122.5l-250 -665q-111 -293 -209 -405.5t-233 -112.5q-46 0 -75.5 20t-29.5 59q0 29 19 45.5t45 16.5q40 0 81 -24.5t74 -24.5
q72 0 138.5 101.5t167.5 367.5l-312 635q-44 89 -70.5 117t-64.5 28q-4 0 -4 12.5t4 12.5q23 0 69.5 -2.5t67.5 -2.5q49 0 118.5 2.5t92.5 2.5q6 0 6 -12.5t-6 -12.5q-72 0 -102 -18t-8 -62l272 -557l164 473q31 92 -0.5 128t-140.5 36q-5 0 -5 12.5t5 12.5q29 0 92 -2.5
t114 -2.5q30 0 72 2.5t68 2.5z" />
    <glyph glyph-name="thorn" unicode="&#xfe;" horiz-adv-x="1005" 
d="M618 817q131 0 222.5 -102t91.5 -275q0 -95 -29 -175t-74.5 -132.5t-104.5 -89.5t-117.5 -53.5t-114.5 -16.5q-120 0 -213 52v-422q0 -47 6.5 -72t29 -42.5t59.5 -22.5t105 -5q5 0 5 -12t-5 -12q-34 0 -122 2t-140 2q-39 0 -102.5 -2t-85.5 -2q-6 0 -6 12t6 12
q81 0 105 27t24 115v1622q0 73 -15 106t-51 33q-29 0 -92 -29q-6 -3 -11 2.5t-5 11.5t4 9l262 125q4 2 10 2q5 0 12 -5.5t7 -11.5v-823q169 172 339 172zM551 16q109 0 179.5 96.5t70.5 264.5q0 171 -77 266.5t-194 95.5q-70 0 -129.5 -33.5t-121.5 -95.5v-471
q54 -60 117.5 -91.5t154.5 -31.5z" />
    <glyph glyph-name="ydieresis" unicode="&#xff;" horiz-adv-x="890" 
d="M283 977q-41 0 -64.5 23t-23.5 63q0 39 23.5 61.5t64.5 22.5q39 0 61.5 -22.5t22.5 -61.5q0 -40 -22 -63t-62 -23zM641 977q-40 0 -64 23t-24 63q0 38 24 60t64 22t62 -22t22 -60q0 -40 -22 -63t-62 -23zM885 791q5 0 5 -12.5t-5 -12.5q-55 0 -91.5 -35.5t-68.5 -122.5
l-250 -665q-111 -293 -209 -405.5t-233 -112.5q-46 0 -75.5 20t-29.5 59q0 29 19 45.5t45 16.5q40 0 81 -24.5t74 -24.5q72 0 138.5 101.5t167.5 367.5l-312 635q-44 89 -70.5 117t-64.5 28q-4 0 -4 12.5t4 12.5q23 0 69.5 -2.5t67.5 -2.5q49 0 118.5 2.5t92.5 2.5
q6 0 6 -12.5t-6 -12.5q-72 0 -102 -18t-8 -62l272 -557l164 473q31 92 -0.5 128t-140.5 36q-5 0 -5 12.5t5 12.5q29 0 92 -2.5t114 -2.5q30 0 72 2.5t68 2.5z" />
    <glyph glyph-name="Amacron" unicode="&#x100;" horiz-adv-x="1437" 
d="M440 1479q-12 0 -12 28.5t12 28.5h514q14 0 14 -28.5t-14 -28.5h-514zM1430 25q9 0 9 -12.5t-9 -12.5q-38 0 -118.5 4t-117.5 4q-44 0 -112 -4t-105 -4q-9 0 -9 12.5t9 12.5q110 0 134.5 31t-15.5 120l-238 502h-385l-176 -418q-51 -126 -8.5 -180.5t180.5 -54.5
q9 0 9 -12.5t-9 -12.5q-38 0 -112 4t-130 4q-51 0 -118 -4t-107 -4q-9 0 -9 12.5t9 12.5q84 0 136 51.5t116 202.5l432 1019q2 5 13.5 5.5t13.5 -5.5l483 -1017q71 -151 119.5 -203.5t114.5 -52.5zM492 721h346l-183 387z" />
    <glyph glyph-name="amacron" unicode="&#x101;" horiz-adv-x="858" 
d="M170 989q-12 0 -12 29t12 29h514q14 0 14 -29t-14 -29h-514zM846 111q9 3 13.5 -7.5t-3.5 -15.5l-211 -100q-12 -4 -18 -4q-26 0 -47 35t-27 96l-127 -68q-116 -61 -184 -61q-64 0 -97.5 33.5t-33.5 86.5q0 55 42.5 88.5t151.5 71.5l246 86v170q0 136 -35 191t-98 55
q-69 0 -107 -50t-47 -120q-4 -22 -9.5 -37t-22.5 -28t-44 -13q-69 0 -69 62q0 46 61.5 100t148 90.5t156.5 36.5q82 0 131.5 -56.5t49.5 -168.5v-363q0 -72 18 -105.5t59 -33.5q34 0 103 29zM426 80l125 63v13v172l-211 -80q-86 -31 -86 -98q0 -43 24.5 -68t65.5 -25
q30 0 82 23z" />
    <glyph glyph-name="Abreve" unicode="&#x102;" horiz-adv-x="1437" 
d="M698 1413q-88 0 -143 56.5t-68 162.5q-1 5 4.5 7.5t11.5 1.5t7 -5q14 -55 68.5 -95t119.5 -40q64 0 118.5 40t68.5 95q1 4 7 5t11 -1.5t4 -7.5q-15 -106 -68.5 -162.5t-140.5 -56.5zM1430 25q9 0 9 -12.5t-9 -12.5q-38 0 -118.5 4t-117.5 4q-44 0 -112 -4t-105 -4
q-9 0 -9 12.5t9 12.5q110 0 134.5 31t-15.5 120l-238 502h-385l-176 -418q-51 -126 -8.5 -180.5t180.5 -54.5q9 0 9 -12.5t-9 -12.5q-38 0 -112 4t-130 4q-51 0 -118 -4t-107 -4q-9 0 -9 12.5t9 12.5q84 0 136 51.5t116 202.5l432 1019q2 5 13.5 5.5t13.5 -5.5l483 -1017
q71 -151 119.5 -203.5t114.5 -52.5zM492 721h346l-183 387z" />
    <glyph glyph-name="abreve" unicode="&#x103;" horiz-adv-x="858" 
d="M428 967q-103 0 -157 79.5t-54 231.5q0 4 5.5 6t11.5 1.5t6 -3.5q0 -90 53.5 -150.5t134.5 -60.5q78 0 132 61t54 150q0 3 6 3.5t11.5 -1.5t5.5 -6q0 -152 -53 -231.5t-156 -79.5zM846 111q9 3 13.5 -7.5t-3.5 -15.5l-211 -100q-12 -4 -18 -4q-26 0 -47 35t-27 96
l-127 -68q-116 -61 -184 -61q-64 0 -97.5 33.5t-33.5 86.5q0 55 42.5 88.5t151.5 71.5l246 86v170q0 136 -35 191t-98 55q-69 0 -107 -50t-47 -120q-4 -22 -9.5 -37t-22.5 -28t-44 -13q-69 0 -69 62q0 46 61.5 100t148 90.5t156.5 36.5q82 0 131.5 -56.5t49.5 -168.5v-363
q0 -72 18 -105.5t59 -33.5q34 0 103 29zM426 80l125 63v13v172l-211 -80q-86 -31 -86 -98q0 -43 24.5 -68t65.5 -25q30 0 82 23z" />
    <glyph glyph-name="Aogonek" unicode="&#x104;" horiz-adv-x="1441" 
d="M1430 18q9 0 9 -11t-9 -11q-42 0 -104.5 3t-90.5 3q-110 0 -187 -74.5t-77 -191.5q0 -100 57 -169t168 -69q61 0 113 27q6 5 13 -3t1 -14q-96 -71 -215 -71q-118 0 -186 59.5t-68 161.5q0 61 25 115.5t60 89.5l73.5 73.5t65.5 69t35 75t-17 91.5l-242 506h-381l-176 -418
q-50 -126 -8 -180.5t180 -54.5q9 0 9 -12.5t-9 -12.5q-38 0 -112 4t-130 4q-51 0 -118 -4t-107 -4q-9 0 -9 12.5t9 12.5q85 0 137.5 52t114.5 202l432 1019q2 5 13.5 5.5t13.5 -5.5l483 -1022q68 -147 119 -202.5t115 -55.5zM492 721h342l-183 383z" />
    <glyph glyph-name="aogonek" unicode="&#x105;" horiz-adv-x="858" 
d="M846 111q9 3 13.5 -7.5t-3.5 -15.5l-211 -100l-10 -4q-139 -130 -139 -277q0 -97 49 -153t141 -56q70 0 133 47q4 2 9.5 -1t7 -7.5t-1.5 -7.5q-103 -92 -222 -92q-110 0 -170.5 55t-60.5 148q0 172 223 352q-42 27 -51 123l-127 -68q-116 -61 -184 -61q-64 0 -97.5 33.5
t-33.5 86.5q0 55 42.5 88.5t151.5 71.5l246 86v170q0 136 -35 191t-98 55q-69 0 -107 -50t-47 -120q-4 -22 -9.5 -37t-22.5 -28t-44 -13q-69 0 -69 62q0 46 61.5 100t148 90.5t156.5 36.5q82 0 131.5 -56.5t49.5 -168.5v-363q0 -72 18 -105.5t59 -33.5q34 0 103 29zM426 80
l125 63v13v172l-211 -80q-86 -31 -86 -98q0 -43 24.5 -68t65.5 -25q30 0 82 23z" />
    <glyph glyph-name="Cacute" unicode="&#x106;" horiz-adv-x="1370" 
d="M578 1391q-6 -3 -10 1.5t-4 10t3 8.5q75 37 197 111.5t137 83.5q14 9 86 -22q53 -23 50 -33q0 -2 -5 -3q-220 -55 -454 -157zM850 1303q99 0 199 -19t159 -53q19 -10 23 -17.5t6 -29.5l25 -232q0 -5 -11 -6.5t-12 4.5q-45 158 -167.5 232.5t-301.5 74.5q-234 0 -375 -151
t-141 -399q0 -191 79 -353t213 -256t290 -94q147 0 255 81.5t166 248.5q1 6 13 4.5t12 -6.5l-31 -232q-3 -26 -7.5 -33.5t-22.5 -13.5q-186 -78 -390 -78q-151 0 -276 40.5t-207.5 107t-139.5 155t-82.5 182t-25.5 191.5q0 142 62.5 265.5t166.5 207t240 131.5t281 48z" />
    <glyph glyph-name="cacute" unicode="&#x107;" horiz-adv-x="841" 
d="M457 971q-1 -4 -7 -4t-11.5 2.5t-4.5 5.5l107 491q3 13 69 25q60 11 56 -2zM473 -25q-101 0 -180 35.5t-125.5 94.5t-70 129t-23.5 145q0 99 40 182t105 136t144 82.5t159 29.5q91 0 162.5 -35t75.5 -86q2 -29 -18 -49.5t-54 -20.5q-54 0 -90 66q-26 44 -56.5 64
t-88.5 20q-115 0 -179.5 -89.5t-64.5 -238.5q0 -81 20 -150t60.5 -124.5t108.5 -87t157 -31.5q123 0 207 68q4 2 9 -1.5t6.5 -8t-1.5 -7.5q-72 -65 -143.5 -94t-159.5 -29z" />
    <glyph glyph-name="Ccircumflex" unicode="&#x108;" horiz-adv-x="1370" 
d="M543 1419l211 199q9 9 23.5 9t23.5 -9l209 -199q7 -4 -2 -12q-5 -4 -9 -2l-221 117l-223 -117q-2 -1 -6 2t-6 6.5t0 5.5zM850 1303q99 0 199 -19t159 -53q19 -10 23 -17.5t6 -29.5l25 -232q0 -5 -11 -6.5t-12 4.5q-45 158 -167.5 232.5t-301.5 74.5q-234 0 -375 -151
t-141 -399q0 -191 79 -353t213 -256t290 -94q147 0 255 81.5t166 248.5q1 6 13 4.5t12 -6.5l-31 -232q-3 -26 -7.5 -33.5t-22.5 -13.5q-186 -78 -390 -78q-151 0 -276 40.5t-207.5 107t-139.5 155t-82.5 182t-25.5 191.5q0 142 62.5 265.5t166.5 207t240 131.5t281 48z" />
    <glyph glyph-name="ccircumflex" unicode="&#x109;" horiz-adv-x="841" 
d="M623 975q3 -4 -6 -7q-13 -4 -15 3l-139 336l-141 -336q-1 -4 -7 -4t-11.5 2.5t-4.5 5.5l139 510q2 11 22.5 11t24.5 -11zM473 -25q-101 0 -180 35.5t-125.5 94.5t-70 129t-23.5 145q0 99 40 182t105 136t144 82.5t159 29.5q91 0 162.5 -35t75.5 -86q2 -29 -18 -49.5
t-54 -20.5q-54 0 -90 66q-26 44 -56.5 64t-88.5 20q-115 0 -179.5 -89.5t-64.5 -238.5q0 -81 20 -150t60.5 -124.5t108.5 -87t157 -31.5q123 0 207 68q4 2 9 -1.5t6.5 -8t-1.5 -7.5q-72 -65 -143.5 -94t-159.5 -29z" />
    <glyph glyph-name="Cdotaccent" unicode="&#x10a;" horiz-adv-x="1370" 
d="M778 1460q-43 0 -66.5 23.5t-23.5 66.5q0 39 24 61.5t66 22.5q41 0 63.5 -22.5t22.5 -61.5q0 -43 -22.5 -66.5t-63.5 -23.5zM850 1303q99 0 199 -19t159 -53q19 -10 23 -17.5t6 -29.5l25 -232q0 -5 -11 -6.5t-12 4.5q-45 158 -167.5 232.5t-301.5 74.5q-234 0 -375 -151
t-141 -399q0 -191 79 -353t213 -256t290 -94q147 0 255 81.5t166 248.5q1 6 13 4.5t12 -6.5l-31 -232q-3 -26 -7.5 -33.5t-22.5 -13.5q-186 -78 -390 -78q-151 0 -276 40.5t-207.5 107t-139.5 155t-82.5 182t-25.5 191.5q0 142 62.5 265.5t166.5 207t240 131.5t281 48z" />
    <glyph glyph-name="cdotaccent" unicode="&#x10b;" horiz-adv-x="841" 
d="M461 1047q-43 0 -66.5 23.5t-23.5 66.5q0 39 24 61.5t66 22.5q41 0 63.5 -22.5t22.5 -61.5q0 -43 -22.5 -66.5t-63.5 -23.5zM473 -25q-101 0 -180 35.5t-125.5 94.5t-70 129t-23.5 145q0 99 40 182t105 136t144 82.5t159 29.5q91 0 162.5 -35t75.5 -86q2 -29 -18 -49.5
t-54 -20.5q-54 0 -90 66q-26 44 -56.5 64t-88.5 20q-115 0 -179.5 -89.5t-64.5 -238.5q0 -81 20 -150t60.5 -124.5t108.5 -87t157 -31.5q123 0 207 68q4 2 9 -1.5t6.5 -8t-1.5 -7.5q-72 -65 -143.5 -94t-159.5 -29z" />
    <glyph glyph-name="Ccaron" unicode="&#x10c;" horiz-adv-x="1370" 
d="M752 1407l-211 199q-2 2 0 5.5t6 6.5t6 2l223 -117l221 117q3 2 7.5 -0.5t5.5 -6.5t-2 -7l-209 -199q-9 -9 -23.5 -9t-23.5 9zM850 1303q99 0 199 -19t159 -53q19 -10 23 -17.5t6 -29.5l25 -232q0 -5 -11 -6.5t-12 4.5q-45 158 -167.5 232.5t-301.5 74.5
q-234 0 -375 -151t-141 -399q0 -191 79 -353t213 -256t290 -94q147 0 255 81.5t166 248.5q1 6 13 4.5t12 -6.5l-31 -232q-3 -26 -7.5 -33.5t-22.5 -13.5q-186 -78 -390 -78q-151 0 -276 40.5t-207.5 107t-139.5 155t-82.5 182t-25.5 191.5q0 142 62.5 265.5t166.5 207
t240 131.5t281 48z" />
    <glyph glyph-name="ccaron" unicode="&#x10d;" horiz-adv-x="841" 
d="M297 1487q-1 4 4 6.5t11 2.5t7 -3l142 -338l139 338q1 3 7 3t11 -2.5t3 -6.5l-138 -510q-3 -11 -22.5 -11t-24.5 11zM473 -25q-101 0 -180 35.5t-125.5 94.5t-70 129t-23.5 145q0 99 40 182t105 136t144 82.5t159 29.5q91 0 162.5 -35t75.5 -86q2 -29 -18 -49.5
t-54 -20.5q-54 0 -90 66q-26 44 -56.5 64t-88.5 20q-115 0 -179.5 -89.5t-64.5 -238.5q0 -81 20 -150t60.5 -124.5t108.5 -87t157 -31.5q123 0 207 68q4 2 9 -1.5t6.5 -8t-1.5 -7.5q-72 -65 -143.5 -94t-159.5 -29z" />
    <glyph glyph-name="Dcaron" unicode="&#x10e;" horiz-adv-x="1415" 
d="M627 1407l-211 199q-2 2 0 5.5t6 6.5t6 2l223 -117l221 117q3 2 7.5 -0.5t5.5 -6.5t-2 -7l-209 -199q-9 -9 -23.5 -9t-23.5 9zM621 -8q-38 0 -148 6t-160 6q-48 0 -129.5 -2t-111.5 -2q-4 0 -4 12.5t4 12.5q113 0 145.5 26t32.5 115v948q0 88 -32 114.5t-144 26.5
q-4 0 -4 12.5t4 12.5q31 0 111 -3t128 -3q47 0 145.5 5t133.5 5q214 0 379.5 -82t254.5 -223.5t89 -316.5q0 -150 -55.5 -277t-150 -212.5t-221 -133t-267.5 -47.5zM600 23q250 0 404.5 156t154.5 437q0 178 -66 322.5t-192 229.5t-291 85q-132 0 -180.5 -26.5t-48.5 -116.5
v-922q0 -90 45 -127.5t174 -37.5z" />
    <glyph glyph-name="dcaron" unicode="&#x10f;" horiz-adv-x="1050" 
d="M1001 1479q0 15 52 -15q51 -31 53 -47l-66 -497q-2 -4 -12 -3.5t-10 5.5zM1034 115q5 3 9.5 -2t4.5 -11t-4 -10l-225 -106q-12 -4 -16 -4q-28 0 -47.5 44t-20.5 124q-78 -80 -160 -128.5t-182 -48.5q-132 0 -225.5 109t-93.5 283q0 89 29.5 165t77.5 128t109.5 88.5
t125.5 53.5t127 17q106 0 192 -53v459q0 74 -14.5 106.5t-50.5 32.5t-95 -29q-6 -3 -11 2.5t-4.5 11.5t5.5 9l260 127q6 2 11 2t11.5 -5.5t6.5 -11.5v-1245q0 -73 16.5 -105t55.5 -32q32 0 108 29zM473 47q73 0 135 35t127 100v453q-98 141 -250 141q-128 0 -203 -91.5
t-75 -258.5q0 -171 75 -275t191 -104z" />
    <glyph glyph-name="Dcroat" unicode="&#x110;" horiz-adv-x="1415" 
d="M592 1284q214 0 379.5 -82t254.5 -223.5t89 -316.5q0 -150 -55.5 -277t-150 -212.5t-221 -133t-267.5 -47.5q-38 0 -148 6t-160 6q-48 0 -129.5 -2t-111.5 -2q-4 0 -4 12.5t4 12.5q113 0 145.5 26t32.5 115v450h-141q-9 0 -9 20.5t9 20.5h141v457q0 88 -32 114.5
t-144 26.5q-4 0 -4 12.5t4 12.5q31 0 111 -3t128 -3q47 0 145.5 5t133.5 5zM600 23q250 0 404.5 156t154.5 437q0 178 -66 322.5t-192 229.5t-291 85q-132 0 -180.5 -26.5t-48.5 -116.5v-453h278q9 0 9 -20.5t-9 -20.5h-278v-428q0 -90 45 -127.5t174 -37.5z" />
    <glyph glyph-name="dcroat" unicode="&#x111;" horiz-adv-x="1046" 
d="M1034 115q5 3 9.5 -2t4.5 -11t-4 -10l-225 -106q-12 -4 -16 -4q-28 0 -47.5 44t-20.5 124q-78 -80 -160 -128.5t-182 -48.5q-132 0 -225.5 109t-93.5 283q0 89 29.5 165t77.5 128t109.5 88.5t125.5 53.5t127 17q106 0 192 -53v262h-344q-11 0 -11 21.5t11 21.5h344v154
q0 74 -14.5 106.5t-50.5 32.5t-95 -29q-6 -3 -11 2.5t-4.5 11.5t5.5 9l260 127q6 2 11 2t11.5 -5.5t6.5 -11.5v-399h133q11 0 11 -21.5t-11 -21.5h-133v-803q0 -73 16.5 -105t55.5 -32q32 0 108 29zM473 47q73 0 135 35t127 100v453q-98 141 -250 141q-128 0 -203 -91.5
t-75 -258.5q0 -171 75 -275t191 -104z" />
    <glyph glyph-name="Emacron" unicode="&#x112;" horiz-adv-x="1099" 
d="M340 1479q-12 0 -12 28.5t12 28.5h514q14 0 14 -28.5t-14 -28.5h-514zM973 305q1 5 12.5 3.5t11.5 -7.5q-18 -130 -18 -270q0 -17 -7 -24t-24 -7h-858q-6 0 -6 12.5t6 12.5q112 0 143 25.5t31 115.5v948q0 89 -31.5 115t-142.5 26q-6 0 -6 12.5t6 12.5h821q19 0 19 -18
l6 -254q0 -4 -12.5 -4t-12.5 4q-7 108 -66.5 168.5t-158.5 60.5h-125q-102 0 -133 -25.5t-31 -107.5v-418h250q98 0 140 34t42 111q0 5 12.5 5t12.5 -5q0 -45 -1 -95t-1 -70q0 -31 2 -92.5t2 -96.5q0 -6 -12.5 -6t-12.5 6q0 90 -44 129t-146 39h-244v-471q0 -80 30.5 -105.5
t129.5 -25.5h164q96 0 163 70t89 192z" />
    <glyph glyph-name="emacron" unicode="&#x113;" horiz-adv-x="833" 
d="M207 989q-12 0 -12 29t12 29h514q13 0 13 -29t-13 -29h-514zM743 115q3 3 8 -1t7 -9t0 -9q-135 -121 -299 -121q-121 0 -210.5 57t-132 145t-42.5 192q0 185 126.5 312.5t313.5 127.5q111 0 172.5 -54t61.5 -149q0 -49 -25 -49l-504 -2q-10 -55 -10 -106
q0 -179 86 -290.5t235 -111.5q113 0 213 68zM444 768q-84 0 -139.5 -47.5t-79.5 -136.5l381 8q-1 84 -45 130t-117 46z" />
    <glyph glyph-name="Ebreve" unicode="&#x114;" horiz-adv-x="1099" 
d="M598 1413q-88 0 -143 56.5t-68 162.5q-1 5 4.5 7.5t11.5 1.5t7 -5q14 -55 68.5 -95t119.5 -40q64 0 118 40t68 95q1 4 7 5t11.5 -1.5t4.5 -7.5q-15 -106 -68.5 -162.5t-140.5 -56.5zM973 305q1 5 12.5 3.5t11.5 -7.5q-18 -130 -18 -270q0 -17 -7 -24t-24 -7h-858
q-6 0 -6 12.5t6 12.5q112 0 143 25.5t31 115.5v948q0 89 -31.5 115t-142.5 26q-6 0 -6 12.5t6 12.5h821q19 0 19 -18l6 -254q0 -4 -12.5 -4t-12.5 4q-7 108 -66.5 168.5t-158.5 60.5h-125q-102 0 -133 -25.5t-31 -107.5v-418h250q98 0 140 34t42 111q0 5 12.5 5t12.5 -5
q0 -45 -1 -95t-1 -70q0 -31 2 -92.5t2 -96.5q0 -6 -12.5 -6t-12.5 6q0 90 -44 129t-146 39h-244v-471q0 -80 30.5 -105.5t129.5 -25.5h164q96 0 163 70t89 192z" />
    <glyph glyph-name="ebreve" unicode="&#x115;" horiz-adv-x="833" 
d="M465 967q-103 0 -157 79.5t-54 231.5q0 4 5.5 6t11 1.5t5.5 -3.5q0 -90 54 -150.5t135 -60.5q78 0 132 61t54 150q0 3 5.5 3.5t11.5 -1.5t6 -6q0 -152 -53 -231.5t-156 -79.5zM743 115q3 3 8 -1t7 -9t0 -9q-135 -121 -299 -121q-121 0 -210.5 57t-132 145t-42.5 192
q0 185 126.5 312.5t313.5 127.5q111 0 172.5 -54t61.5 -149q0 -49 -25 -49l-504 -2q-10 -55 -10 -106q0 -179 86 -290.5t235 -111.5q113 0 213 68zM444 768q-84 0 -139.5 -47.5t-79.5 -136.5l381 8q-1 84 -45 130t-117 46z" />
    <glyph glyph-name="Edotaccent" unicode="&#x116;" horiz-adv-x="1099" 
d="M600 1460q-43 0 -66.5 23.5t-23.5 66.5q0 39 24 61.5t66 22.5q41 0 63.5 -22.5t22.5 -61.5q0 -43 -22.5 -66.5t-63.5 -23.5zM973 305q1 5 12.5 3.5t11.5 -7.5q-18 -130 -18 -270q0 -17 -7 -24t-24 -7h-858q-6 0 -6 12.5t6 12.5q112 0 143 25.5t31 115.5v948
q0 89 -31.5 115t-142.5 26q-6 0 -6 12.5t6 12.5h821q19 0 19 -18l6 -254q0 -4 -12.5 -4t-12.5 4q-7 108 -66.5 168.5t-158.5 60.5h-125q-102 0 -133 -25.5t-31 -107.5v-418h250q98 0 140 34t42 111q0 5 12.5 5t12.5 -5q0 -45 -1 -95t-1 -70q0 -31 2 -92.5t2 -96.5
q0 -6 -12.5 -6t-12.5 6q0 90 -44 129t-146 39h-244v-471q0 -80 30.5 -105.5t129.5 -25.5h164q96 0 163 70t89 192z" />
    <glyph glyph-name="edotaccent" unicode="&#x117;" horiz-adv-x="833" 
d="M465 1047q-43 0 -66.5 23.5t-23.5 66.5q0 39 24 61.5t66 22.5q41 0 63.5 -22.5t22.5 -61.5q0 -43 -22.5 -66.5t-63.5 -23.5zM743 115q3 3 8 -1t7 -9t0 -9q-135 -121 -299 -121q-121 0 -210.5 57t-132 145t-42.5 192q0 185 126.5 312.5t313.5 127.5q111 0 172.5 -54
t61.5 -149q0 -49 -25 -49l-504 -2q-10 -55 -10 -106q0 -179 86 -290.5t235 -111.5q113 0 213 68zM444 768q-84 0 -139.5 -47.5t-79.5 -136.5l381 8q-1 84 -45 130t-117 46z" />
    <glyph glyph-name="Eogonek" unicode="&#x118;" horiz-adv-x="1099" 
d="M1018 -455q4 2 9 -1t6.5 -7.5t-1.5 -7.5q-103 -92 -221 -92q-110 0 -170.5 55t-60.5 148q0 175 231 360h-721q-6 0 -6 12.5t6 12.5q112 0 143 25.5t31 115.5v948q0 89 -31.5 115t-142.5 26q-6 0 -6 12.5t6 12.5h821q19 0 19 -18l6 -254q0 -4 -12.5 -4t-12.5 4
q-7 108 -66.5 168.5t-158.5 60.5h-125q-102 0 -133 -25.5t-31 -107.5v-418h250q98 0 140 34t42 111q0 5 12.5 5t12.5 -5q0 -45 -1 -95t-1 -70q0 -31 2 -92.5t2 -96.5q0 -6 -12.5 -6t-12.5 6q0 90 -44 129t-146 39h-244v-471q0 -80 30.5 -105.5t129.5 -25.5h164q96 0 163 70
t89 192q1 5 12.5 3.5t11.5 -7.5q-18 -130 -18 -270q0 -17 -7 -24t-24 -7h-98q-82 -75 -119 -144.5t-37 -148.5q0 -97 49.5 -153t141.5 -56q70 0 133 47z" />
    <glyph glyph-name="eogonek" unicode="&#x119;" horiz-adv-x="833" 
d="M756 -455q4 2 9 -1t6.5 -7.5t-1.5 -7.5q-92 -92 -199 -92q-101 0 -156 52.5t-55 143.5q0 177 228 361q-68 -19 -129 -19q-121 0 -210.5 57t-132 145t-42.5 192q0 185 126.5 312.5t313.5 127.5q111 0 172.5 -54t61.5 -149q0 -49 -25 -49l-504 -2q-10 -55 -10 -106
q0 -179 86 -290.5t235 -111.5q113 0 213 68q3 3 8 -1t7 -9t0 -9q-37 -32 -68 -51q-111 -90 -161 -173.5t-50 -176.5t41.5 -146t118.5 -53q27 0 50 8t36 16.5t31 24.5zM444 768q-84 0 -139.5 -47.5t-79.5 -136.5l381 8q-1 84 -45 130t-117 46z" />
    <glyph glyph-name="Ecaron" unicode="&#x11a;" horiz-adv-x="1099" 
d="M362 1606q-2 2 0 5.5t6.5 6.5t6.5 2l223 -117l221 117q5 3 10.5 -3.5t-0.5 -10.5l-208 -199q-9 -9 -24 -9t-24 9zM973 305q1 5 12.5 3.5t11.5 -7.5q-18 -130 -18 -270q0 -17 -7 -24t-24 -7h-858q-6 0 -6 12.5t6 12.5q112 0 143 25.5t31 115.5v948q0 89 -31.5 115
t-142.5 26q-6 0 -6 12.5t6 12.5h821q19 0 19 -18l6 -254q0 -4 -12.5 -4t-12.5 4q-7 108 -66.5 168.5t-158.5 60.5h-125q-102 0 -133 -25.5t-31 -107.5v-418h250q98 0 140 34t42 111q0 5 12.5 5t12.5 -5q0 -45 -1 -95t-1 -70q0 -31 2 -92.5t2 -96.5q0 -6 -12.5 -6t-12.5 6
q0 90 -44 129t-146 39h-244v-471q0 -80 30.5 -105.5t129.5 -25.5h164q96 0 163 70t89 192z" />
    <glyph glyph-name="ecaron" unicode="&#x11b;" horiz-adv-x="833" 
d="M440 977l-139 510q-1 4 4.5 6.5t11.5 2.5t7 -3l141 -338l139 338q1 3 7 3t11 -2.5t3 -6.5l-138 -510q-3 -11 -23 -11t-24 11zM743 115q3 3 8 -1t7 -9t0 -9q-135 -121 -299 -121q-121 0 -210.5 57t-132 145t-42.5 192q0 185 126.5 312.5t313.5 127.5q111 0 172.5 -54
t61.5 -149q0 -49 -25 -49l-504 -2q-10 -55 -10 -106q0 -179 86 -290.5t235 -111.5q113 0 213 68zM444 768q-84 0 -139.5 -47.5t-79.5 -136.5l381 8q-1 84 -45 130t-117 46z" />
    <glyph glyph-name="Gcircumflex" unicode="&#x11c;" horiz-adv-x="1464" 
d="M573 1419l211 199q9 9 23.5 9t23.5 -9l209 -199q3 -2 2 -6.5t-5 -7.5t-7 0l-221 117l-223 -117q-2 -1 -6.5 2t-6.5 6.5t0 5.5zM829 -25q-168 0 -307 51t-230.5 139.5t-141.5 207t-50 254.5q0 197 101.5 352t279 239.5t400.5 84.5q99 0 190.5 -19t149.5 -55q5 -3 9 -5.5
t6.5 -5.5t4 -5t2 -6t1 -6t1 -8t0.5 -9l25 -232q0 -5 -12 -6.5t-13 4.5q-44 148 -161.5 227.5t-290.5 79.5q-258 0 -399.5 -149t-141.5 -410q0 -200 81.5 -357.5t224.5 -244t321 -86.5q79 0 126.5 9t82.5 36t49 75.5t14 127.5q0 55 -2 85.5t-11 58.5t-21.5 40t-41.5 21.5
t-63 11.5t-92 2q-8 0 -11 8.5t-0.5 16.5t9.5 8q228 -16 460 -4q8 0 9 -14.5t-9 -14.5q-26 1 -41.5 -1t-28 -12.5t-18.5 -23.5t-10 -43.5t-5 -64.5t-1 -94q0 -82 7 -129.5t7 -51.5q0 -11 -4 -15t-18 -9q-244 -58 -437 -58z" />
    <glyph glyph-name="gcircumflex" unicode="&#x11d;" horiz-adv-x="886" 
d="M276 971q-1 -4 -7 -4t-11 2.5t-4 5.5l139 510q1 11 22 11t25 -11l138 -510q3 -4 -6 -7q-13 -4 -15 3l-139 336zM455 66q15 -2 46 -7q51 -7 77 -11.5t71 -14.5t69.5 -20t56 -28.5t47.5 -40t28 -53.5t12 -71q0 -69 -40.5 -140.5t-107.5 -128.5t-162.5 -93t-197.5 -36
q-145 0 -234 70t-89 176q0 166 233 320q-139 41 -139 139q0 56 40.5 110.5t106.5 100.5q-80 28 -123 89.5t-43 135.5q0 105 90.5 173.5t227.5 68.5q130 0 209 -62q118 66 219 66q12 0 12 -47t-13 -67q-4 -5 -7 -3q-65 29 -135 29q-36 0 -50 -4q54 -60 54 -144
q0 -107 -87 -182.5t-225 -75.5q-57 0 -106 15q-74 -54 -74 -131q0 -23 8.5 -41.5t27.5 -32t37 -22.5t50.5 -16.5t52.5 -11t58 -9.5zM373 774q-63 0 -101.5 -41.5t-38.5 -126.5q0 -119 63 -189.5t148 -70.5q60 0 100 45.5t40 140.5q0 105 -63 173.5t-148 68.5zM436 -516
q149 0 235.5 78.5t86.5 185.5q0 48 -21 83.5t-51 56.5t-80.5 36t-90 21.5t-98.5 14.5q-6 1 -8.5 1t-7 1t-8.5 1q-53 7 -90 17q-72 -49 -111.5 -104.5t-39.5 -139.5q0 -116 76 -184t208 -68z" />
    <glyph glyph-name="Gbreve" unicode="&#x11e;" horiz-adv-x="1464" 
d="M807 1413q-88 0 -143 56.5t-68 162.5q-1 5 4 7.5t11 1.5t7 -5q14 -55 69 -95t120 -40q64 0 118 40t68 95q1 4 7 5t11.5 -1.5t4.5 -7.5q-15 -106 -68.5 -162.5t-140.5 -56.5zM829 -25q-168 0 -307 51t-230.5 139.5t-141.5 207t-50 254.5q0 197 101.5 352t279 239.5
t400.5 84.5q99 0 190.5 -19t149.5 -55q5 -3 9 -5.5t6.5 -5.5t4 -5t2 -6t1 -6t1 -8t0.5 -9l25 -232q0 -5 -12 -6.5t-13 4.5q-44 148 -161.5 227.5t-290.5 79.5q-258 0 -399.5 -149t-141.5 -410q0 -200 81.5 -357.5t224.5 -244t321 -86.5q79 0 126.5 9t82.5 36t49 75.5
t14 127.5q0 55 -2 85.5t-11 58.5t-21.5 40t-41.5 21.5t-63 11.5t-92 2q-8 0 -11 8.5t-0.5 16.5t9.5 8q228 -16 460 -4q8 0 9 -14.5t-9 -14.5q-26 1 -41.5 -1t-28 -12.5t-18.5 -23.5t-10 -43.5t-5 -64.5t-1 -94q0 -82 7 -129.5t7 -51.5q0 -11 -4 -15t-18 -9
q-244 -58 -437 -58z" />
    <glyph glyph-name="gbreve" unicode="&#x11f;" horiz-adv-x="886" 
d="M416 967q-103 0 -157 79.5t-54 231.5q0 4 5.5 6t11 1.5t5.5 -3.5q0 -90 54 -150.5t135 -60.5q78 0 132 61t54 150q0 3 6 3.5t11.5 -1.5t5.5 -6q0 -152 -53 -231.5t-156 -79.5zM455 66q15 -2 46 -7q51 -7 77 -11.5t71 -14.5t69.5 -20t56 -28.5t47.5 -40t28 -53.5t12 -71
q0 -69 -40.5 -140.5t-107.5 -128.5t-162.5 -93t-197.5 -36q-145 0 -234 70t-89 176q0 166 233 320q-139 41 -139 139q0 56 40.5 110.5t106.5 100.5q-80 28 -123 89.5t-43 135.5q0 105 90.5 173.5t227.5 68.5q130 0 209 -62q118 66 219 66q12 0 12 -47t-13 -67q-4 -5 -7 -3
q-65 29 -135 29q-36 0 -50 -4q54 -60 54 -144q0 -107 -87 -182.5t-225 -75.5q-57 0 -106 15q-74 -54 -74 -131q0 -23 8.5 -41.5t27.5 -32t37 -22.5t50.5 -16.5t52.5 -11t58 -9.5zM373 774q-63 0 -101.5 -41.5t-38.5 -126.5q0 -119 63 -189.5t148 -70.5q60 0 100 45.5
t40 140.5q0 105 -63 173.5t-148 68.5zM436 -516q149 0 235.5 78.5t86.5 185.5q0 48 -21 83.5t-51 56.5t-80.5 36t-90 21.5t-98.5 14.5q-6 1 -8.5 1t-7 1t-8.5 1q-53 7 -90 17q-72 -49 -111.5 -104.5t-39.5 -139.5q0 -116 76 -184t208 -68z" />
    <glyph glyph-name="Gdotaccent" unicode="&#x120;" horiz-adv-x="1464" 
d="M809 1460q-43 0 -66.5 23.5t-23.5 66.5q0 39 24 61.5t66 22.5q41 0 63.5 -22.5t22.5 -61.5q0 -43 -22.5 -66.5t-63.5 -23.5zM829 -25q-168 0 -307 51t-230.5 139.5t-141.5 207t-50 254.5q0 197 101.5 352t279 239.5t400.5 84.5q99 0 190.5 -19t149.5 -55q5 -3 9 -5.5
t6.5 -5.5t4 -5t2 -6t1 -6t1 -8t0.5 -9l25 -232q0 -5 -12 -6.5t-13 4.5q-44 148 -161.5 227.5t-290.5 79.5q-258 0 -399.5 -149t-141.5 -410q0 -200 81.5 -357.5t224.5 -244t321 -86.5q79 0 126.5 9t82.5 36t49 75.5t14 127.5q0 55 -2 85.5t-11 58.5t-21.5 40t-41.5 21.5
t-63 11.5t-92 2q-8 0 -11 8.5t-0.5 16.5t9.5 8q228 -16 460 -4q8 0 9 -14.5t-9 -14.5q-26 1 -41.5 -1t-28 -12.5t-18.5 -23.5t-10 -43.5t-5 -64.5t-1 -94q0 -82 7 -129.5t7 -51.5q0 -11 -4 -15t-18 -9q-244 -58 -437 -58z" />
    <glyph glyph-name="gdotaccent" unicode="&#x121;" horiz-adv-x="886" 
d="M416 1047q-43 0 -66.5 23.5t-23.5 66.5q0 39 24 61.5t66 22.5q41 0 63.5 -22.5t22.5 -61.5q0 -43 -22.5 -66.5t-63.5 -23.5zM455 66q15 -2 46 -7q51 -7 77 -11.5t71 -14.5t69.5 -20t56 -28.5t47.5 -40t28 -53.5t12 -71q0 -69 -40.5 -140.5t-107.5 -128.5t-162.5 -93
t-197.5 -36q-145 0 -234 70t-89 176q0 166 233 320q-139 41 -139 139q0 56 40.5 110.5t106.5 100.5q-80 28 -123 89.5t-43 135.5q0 105 90.5 173.5t227.5 68.5q130 0 209 -62q118 66 219 66q12 0 12 -47t-13 -67q-4 -5 -7 -3q-65 29 -135 29q-36 0 -50 -4q54 -60 54 -144
q0 -107 -87 -182.5t-225 -75.5q-57 0 -106 15q-74 -54 -74 -131q0 -23 8.5 -41.5t27.5 -32t37 -22.5t50.5 -16.5t52.5 -11t58 -9.5zM373 774q-63 0 -101.5 -41.5t-38.5 -126.5q0 -119 63 -189.5t148 -70.5q60 0 100 45.5t40 140.5q0 105 -63 173.5t-148 68.5zM436 -516
q149 0 235.5 78.5t86.5 185.5q0 48 -21 83.5t-51 56.5t-80.5 36t-90 21.5t-98.5 14.5q-6 1 -8.5 1t-7 1t-8.5 1q-53 7 -90 17q-72 -49 -111.5 -104.5t-39.5 -139.5q0 -116 76 -184t208 -68z" />
    <glyph glyph-name="Gcommaaccent" unicode="&#x122;" horiz-adv-x="1464" 
d="M1378 506q8 0 9 -14.5t-9 -14.5q-26 1 -41.5 -1t-28 -12.5t-18.5 -23.5t-10 -43.5t-5 -64.5t-1 -94q0 -82 7 -129.5t7 -51.5q0 -11 -4 -15t-18 -9q-244 -58 -437 -58q-168 0 -307 51t-230.5 139.5t-141.5 207t-50 254.5q0 197 101.5 352t279 239.5t400.5 84.5
q99 0 190.5 -19t149.5 -55q5 -3 9 -5.5t6.5 -5.5t4 -5t2 -6t1 -6t1 -8t0.5 -9l25 -232q0 -5 -12 -6.5t-13 4.5q-44 148 -161.5 227.5t-290.5 79.5q-258 0 -399.5 -149t-141.5 -410q0 -200 81.5 -357.5t224.5 -244t321 -86.5q79 0 126.5 9t82.5 36t49 75.5t14 127.5
q0 55 -2 85.5t-11 58.5t-21.5 40t-41.5 21.5t-63 11.5t-92 2q-8 0 -11 8.5t-0.5 16.5t9.5 8q228 -16 460 -4zM844 -174q55 0 84.5 -39t29.5 -111q0 -125 -124 -239q-5 -3 -11 -0.5t-7.5 7.5t1.5 9q90 81 90 182q0 42 -12 60q-15 -31 -61 -31q-38 0 -59 22t-21 58q0 82 90 82
z" />
    <glyph glyph-name="gcommaaccent" unicode="&#x123;" horiz-adv-x="886" 
d="M444 993q-55 0 -84.5 39t-29.5 111q0 124 125 239q7 4 14.5 -3t1.5 -13q-90 -81 -90 -182q0 -42 12 -60q15 31 62 31q38 0 59 -22t21 -58q0 -82 -91 -82zM455 66q15 -2 46 -7q51 -7 77 -11.5t71 -14.5t69.5 -20t56 -28.5t47.5 -40t28 -53.5t12 -71q0 -69 -40.5 -140.5
t-107.5 -128.5t-162.5 -93t-197.5 -36q-145 0 -234 70t-89 176q0 166 233 320q-139 41 -139 139q0 56 40.5 110.5t106.5 100.5q-80 28 -123 89.5t-43 135.5q0 105 90.5 173.5t227.5 68.5q130 0 209 -62q118 66 219 66q12 0 12 -47t-13 -67q-4 -5 -7 -3q-65 29 -135 29
q-36 0 -50 -4q54 -60 54 -144q0 -107 -87 -182.5t-225 -75.5q-57 0 -106 15q-74 -54 -74 -131q0 -23 8.5 -41.5t27.5 -32t37 -22.5t50.5 -16.5t52.5 -11t58 -9.5zM373 774q-63 0 -101.5 -41.5t-38.5 -126.5q0 -119 63 -189.5t148 -70.5q60 0 100 45.5t40 140.5
q0 105 -63 173.5t-148 68.5zM436 -516q149 0 235.5 78.5t86.5 185.5q0 48 -21 83.5t-51 56.5t-80.5 36t-90 21.5t-98.5 14.5q-6 1 -8.5 1t-7 1t-8.5 1q-53 7 -90 17q-72 -49 -111.5 -104.5t-39.5 -139.5q0 -116 76 -184t208 -68z" />
    <glyph glyph-name="Hcircumflex" unicode="&#x124;" horiz-adv-x="1554" 
d="M557 1405q-2 -1 -6 2t-6 6.5t0 5.5l211 199q9 9 23.5 9t23.5 -9l209 -199q7 -4 -2 -12q-5 -4 -9 -2l-221 117zM1481 25q5 0 5 -12.5t-5 -12.5q-30 0 -113.5 2t-132.5 2q-53 0 -135 -2t-111 -2q-6 0 -6 12.5t6 12.5q116 0 148 25.5t32 115.5v479h-786v-479
q0 -90 32 -115.5t148 -25.5q6 0 6 -12.5t-6 -12.5q-30 0 -112.5 2t-135.5 2q-49 0 -131 -2t-112 -2q-4 0 -4 12.5t4 12.5q114 0 147 26t33 115v948q0 88 -32.5 114.5t-145.5 26.5q-4 0 -4 12.5t4 12.5q31 0 111.5 -3t129.5 -3q53 0 136 3t112 3q6 0 6 -12.5t-6 -12.5
q-114 0 -147 -28t-33 -117v-424h786v424q0 90 -32.5 117.5t-147.5 27.5q-6 0 -6 12.5t6 12.5q29 0 111 -3t135 -3q49 0 132.5 3t113.5 3q5 0 5 -12.5t-5 -12.5q-114 0 -147.5 -26.5t-33.5 -114.5v-948q0 -89 33.5 -115t147.5 -26z" />
    <glyph glyph-name="hcircumflex" unicode="&#x125;" horiz-adv-x="1021" 
d="M35 1477q-2 -1 -6 2t-6 6.5t0 5.5l210 199q9 9 24 9t24 -9l208 -199q3 -2 2 -6.5t-5 -7.5t-7 0l-221 116zM977 25q6 0 6 -12.5t-6 -12.5q-22 0 -84.5 2t-101.5 2t-102 -2t-85 -2q-6 0 -6 12.5t6 12.5q80 0 104.5 26.5t24.5 114.5v326q0 121 -46 179t-142 58
q-63 0 -129.5 -33.5t-118.5 -93.5v-436q0 -88 24 -114.5t105 -26.5q6 0 6 -12.5t-6 -12.5q-22 0 -84.5 2t-101.5 2t-102 -2t-85 -2q-6 0 -6 12.5t6 12.5q80 0 104.5 26.5t24.5 114.5v1059q0 74 -14.5 106.5t-50.5 32.5q-28 0 -94 -29q-6 -3 -11 2.5t-5 11.5t5 9l260 127h7
q6 0 12 -5.5t6 -11.5v-831q154 176 315 176q114 0 175 -64.5t61 -187.5v-395q0 -88 24 -114.5t105 -26.5z" />
    <glyph glyph-name="Hbar" unicode="&#x126;" horiz-adv-x="1554" 
d="M1481 25q5 0 5 -12.5t-5 -12.5q-30 0 -113.5 2t-132.5 2q-53 0 -135 -2t-111 -2q-6 0 -6 12.5t6 12.5q116 0 148 25.5t32 115.5v287h-786v-287q0 -90 32 -115.5t148 -25.5q6 0 6 -12.5t-6 -12.5q-30 0 -112.5 2t-135.5 2q-49 0 -131 -2t-112 -2q-4 0 -4 12.5t4 12.5
q114 0 147 26t33 115v948q0 88 -32.5 114.5t-145.5 26.5q-4 0 -4 12.5t4 12.5q31 0 111.5 -3t129.5 -3q53 0 136 3t112 3q6 0 6 -12.5t-6 -12.5q-114 0 -147 -28t-33 -117v-231h786v231q0 90 -32.5 117.5t-147.5 27.5q-6 0 -6 12.5t6 12.5q29 0 111 -3t135 -3q49 0 132.5 3
t113.5 3q5 0 5 -12.5t-5 -12.5q-114 0 -147.5 -26.5t-33.5 -114.5v-948q0 -89 33.5 -115t147.5 -26zM383 496h786v340h-786v-340z" />
    <glyph glyph-name="hbar" unicode="&#x127;" horiz-adv-x="1021" 
d="M977 25q6 0 6 -12.5t-6 -12.5q-22 0 -84.5 2t-101.5 2t-102 -2t-85 -2q-6 0 -6 12.5t6 12.5q80 0 104.5 26.5t24.5 114.5v326q0 121 -46 179t-142 58q-63 0 -129.5 -33.5t-118.5 -93.5v-436q0 -88 24 -114.5t105 -26.5q6 0 6 -12.5t-6 -12.5q-22 0 -84.5 2t-101.5 2
t-102 -2t-85 -2q-6 0 -6 12.5t6 12.5q80 0 104.5 26.5t24.5 114.5v860h-157q-9 0 -9 21.5t9 21.5h157v156q0 74 -14.5 106.5t-50.5 32.5q-28 0 -94 -29q-6 -3 -11 2.5t-5 11.5t5 9l260 127h7q6 0 12 -5.5t6 -11.5v-399h326q11 0 11 -21.5t-11 -21.5h-326v-389
q154 176 315 176q114 0 175 -64.5t61 -187.5v-395q0 -88 24 -114.5t105 -26.5z" />
    <glyph glyph-name="Itilde" unicode="&#x128;" horiz-adv-x="679" 
d="M82 1427q-2 -2 -6 0.5t-7 7t-1 7.5q96 129 174 129q30 0 116 -25.5t140 -25.5q24 0 44 9t30 18t28 28q2 2 6 -0.5t7 -6.5t1 -7q-53 -75 -88 -101t-75 -26q-42 0 -128 24.5t-139 24.5q-16 0 -28.5 -2t-24.5 -10t-16 -11t-17.5 -17t-15.5 -16zM408 166q0 -90 30.5 -115.5
t143.5 -25.5q6 0 6 -12.5t-6 -12.5q-29 0 -110 2t-134 2q-48 0 -130 -2t-112 -2q-6 0 -6 12.5t6 12.5q112 0 144 25.5t32 115.5v948q0 88 -32 114.5t-144 26.5q-6 0 -6 12.5t6 12.5q30 0 112 -3t130 -3q53 0 135 3t109 3q6 0 6 -12.5t-6 -12.5q-110 0 -142 -27.5t-32 -117.5
v-944z" />
    <glyph glyph-name="itilde" unicode="&#x129;" horiz-adv-x="557" 
d="M391 1073q25 0 45.5 9t30.5 18.5t25 27.5q5 3 11.5 -3.5t2.5 -10.5q-53 -75 -88 -101t-72 -26q-28 0 -83.5 24.5t-90.5 24.5q-11 0 -21 -1.5t-19 -5t-14.5 -6.5t-13.5 -9.5t-11.5 -9.5t-11.5 -11.5t-11 -11.5t-10.5 3.5t-4.5 10.5q96 129 174 129q20 0 74 -25.5t88 -25.5
zM109 0q-5 0 -5 12.5t5 12.5q82 0 106.5 26.5t24.5 114.5v383q0 73 -16 106t-52 33q-35 0 -92 -29q-6 -3 -11 2.5t-4.5 12t5.5 10.5l264 123q4 4 8 4q6 0 11 -6t5 -12q0 -7 -1 -41t-2 -88.5t-1 -112.5v-385q0 -88 24 -114.5t105 -26.5q6 0 6 -12.5t-6 -12.5q-22 0 -84.5 2
t-101.5 2t-102 -2t-86 -2z" />
    <glyph glyph-name="Imacron" unicode="&#x12a;" horiz-adv-x="679" 
d="M82 1479q-12 0 -12 28.5t12 28.5h514q14 0 14 -28.5t-14 -28.5h-514zM408 166q0 -90 30.5 -115.5t143.5 -25.5q6 0 6 -12.5t-6 -12.5q-29 0 -110 2t-134 2q-48 0 -130 -2t-112 -2q-6 0 -6 12.5t6 12.5q112 0 144 25.5t32 115.5v948q0 88 -32 114.5t-144 26.5
q-6 0 -6 12.5t6 12.5q30 0 112 -3t130 -3q53 0 135 3t109 3q6 0 6 -12.5t-6 -12.5q-110 0 -142 -27.5t-32 -117.5v-944z" />
    <glyph glyph-name="imacron" unicode="&#x12b;" horiz-adv-x="557" 
d="M23 989q-12 0 -12 29t12 29h514q13 0 13 -29t-13 -29h-514zM109 0q-5 0 -5 12.5t5 12.5q82 0 106.5 26.5t24.5 114.5v383q0 73 -16 106t-52 33q-35 0 -92 -29q-6 -3 -11 2.5t-4.5 12t5.5 10.5l264 123q4 4 8 4q6 0 11 -6t5 -12q0 -7 -1 -41t-2 -88.5t-1 -112.5v-385
q0 -88 24 -114.5t105 -26.5q6 0 6 -12.5t-6 -12.5q-22 0 -84.5 2t-101.5 2t-102 -2t-86 -2z" />
    <glyph glyph-name="Ibreve" unicode="&#x12c;" horiz-adv-x="679" 
d="M340 1413q-88 0 -143 56.5t-68 162.5q-1 5 4.5 7.5t11.5 1.5t7 -5q14 -55 68.5 -95t119.5 -40q64 0 118 40t68 95q1 4 7 5t11.5 -1.5t4.5 -7.5q-15 -106 -68.5 -162.5t-140.5 -56.5zM408 166q0 -90 30.5 -115.5t143.5 -25.5q6 0 6 -12.5t-6 -12.5q-29 0 -110 2t-134 2
q-48 0 -130 -2t-112 -2q-6 0 -6 12.5t6 12.5q112 0 144 25.5t32 115.5v948q0 88 -32 114.5t-144 26.5q-6 0 -6 12.5t6 12.5q30 0 112 -3t130 -3q53 0 135 3t109 3q6 0 6 -12.5t-6 -12.5q-110 0 -142 -27.5t-32 -117.5v-944z" />
    <glyph glyph-name="ibreve" unicode="&#x12d;" horiz-adv-x="557" 
d="M70 1278q0 4 5.5 6t11 1.5t5.5 -3.5q0 -90 54 -150.5t135 -60.5q78 0 132 61t54 150q0 3 5.5 3.5t11 -1.5t5.5 -6q0 -153 -52.5 -232t-155.5 -79t-157 79.5t-54 231.5zM109 0q-5 0 -5 12.5t5 12.5q82 0 106.5 26.5t24.5 114.5v383q0 73 -16 106t-52 33q-35 0 -92 -29
q-6 -3 -11 2.5t-4.5 12t5.5 10.5l264 123q4 4 8 4q6 0 11 -6t5 -12q0 -7 -1 -41t-2 -88.5t-1 -112.5v-385q0 -88 24 -114.5t105 -26.5q6 0 6 -12.5t-6 -12.5q-22 0 -84.5 2t-101.5 2t-102 -2t-86 -2z" />
    <glyph glyph-name="Iogonek" unicode="&#x12e;" horiz-adv-x="679" 
d="M582 25q6 0 6 -12.5t-6 -12.5q-27 0 -101 2t-123 2q-100 -134 -100 -287q0 -98 46.5 -157.5t125.5 -59.5q25 0 46.5 7.5t30.5 14t30 23.5q4 2 9 -1t6.5 -7.5t-1.5 -7.5q-51 -50 -96 -71t-99 -21q-100 0 -155.5 54t-55.5 147q0 179 181 366q-46 0 -123.5 -2t-106.5 -2
q-6 0 -6 12.5t6 12.5q112 0 144 25.5t32 115.5v948q0 88 -32 114.5t-144 26.5q-6 0 -6 12.5t6 12.5q30 0 112 -3t130 -3q53 0 135 3t109 3q6 0 6 -12.5t-6 -12.5q-110 0 -142 -27.5t-32 -117.5v-944q0 -90 30.5 -115.5t143.5 -25.5z" />
    <glyph glyph-name="iogonek" unicode="&#x12f;" horiz-adv-x="557" 
d="M281 1047q-43 0 -67 23.5t-24 66.5q0 39 24.5 61.5t66.5 22.5q41 0 63.5 -22.5t22.5 -61.5q0 -43 -22.5 -66.5t-63.5 -23.5zM498 -455q4 2 9 -1t6.5 -7.5t-1.5 -7.5q-51 -50 -96 -71t-99 -21q-100 0 -155.5 54t-55.5 147q0 179 181 366q-36 0 -96 -2t-82 -2q-5 0 -5 12.5
t5 12.5q82 0 106.5 26.5t24.5 114.5v383q0 73 -16 106t-52 33q-35 0 -92 -29q-6 -3 -11 2.5t-4.5 12t5.5 10.5l264 123q4 4 8 4q6 0 11 -6t5 -12q0 -7 -1 -41t-2 -88.5t-1 -112.5v-385q0 -88 24 -114.5t105 -26.5q6 0 6 -12.5t-6 -12.5q-19 0 -74.5 2t-89.5 2
q-100 -134 -100 -287q0 -98 46.5 -157.5t125.5 -59.5q25 0 46.5 7.5t30.5 14t30 23.5z" />
    <glyph glyph-name="Idotaccent" unicode="&#x130;" horiz-adv-x="679" 
d="M342 1460q-43 0 -66.5 23.5t-23.5 66.5q0 39 24 61.5t66 22.5q41 0 63.5 -22.5t22.5 -61.5q0 -43 -22.5 -66.5t-63.5 -23.5zM408 166q0 -90 30.5 -115.5t143.5 -25.5q6 0 6 -12.5t-6 -12.5q-29 0 -110 2t-134 2q-48 0 -130 -2t-112 -2q-6 0 -6 12.5t6 12.5
q112 0 144 25.5t32 115.5v948q0 88 -32 114.5t-144 26.5q-6 0 -6 12.5t6 12.5q30 0 112 -3t130 -3q53 0 135 3t109 3q6 0 6 -12.5t-6 -12.5q-110 0 -142 -27.5t-32 -117.5v-944z" />
    <glyph glyph-name="dotlessi" unicode="&#x131;" horiz-adv-x="557" 
d="M109 0q-5 0 -5 12.5t5 12.5q82 0 106.5 26.5t24.5 114.5v383q0 73 -16 106t-52 33q-35 0 -92 -29q-6 -3 -11 2.5t-4.5 12t5.5 10.5l264 123q4 4 8 4q6 0 11 -6t5 -12q0 -7 -1 -41t-2 -88.5t-1 -112.5v-385q0 -88 24 -114.5t105 -26.5q6 0 6 -12.5t-6 -12.5q-22 0 -84.5 2
t-101.5 2t-102 -2t-86 -2z" />
    <glyph glyph-name="IJ" unicode="&#x132;" horiz-adv-x="1413" 
d="M397 717q0 -63 12.5 -91t48.5 -39.5t115 -11.5q5 0 5 -12t-5 -12q-30 0 -111 2t-134 2q-48 0 -130 -2t-112 -2q-4 0 -4 12t4 12q112 0 145 26.5t33 115.5v397q0 88 -33 114.5t-145 26.5q-4 0 -4 12.5t4 12.5q30 0 112 -3t130 -3q53 0 134.5 3t110.5 3q5 0 5 -12.5
t-5 -12.5q-112 0 -144 -27.5t-32 -117.5v-393zM1343 1280q6 0 6 -12.5t-6 -12.5q-95 0 -122 -27.5t-27 -117.5v-582q0 -264 -135.5 -409.5t-358.5 -145.5q-96 0 -183 28.5t-145.5 72.5t-93 97t-34.5 103q0 36 18.5 57t50.5 21q34 0 53.5 -19t28.5 -49.5t16.5 -67.5t23.5 -74
t43 -67.5t81.5 -49.5t132.5 -19q187 0 277 106t90 298v704q0 88 -37 114.5t-164 26.5q-6 0 -6 12.5t6 12.5q36 0 125 -3t141 -3q48 0 120.5 3t98.5 3z" />
    <glyph glyph-name="ij" unicode="&#x133;" horiz-adv-x="1077" 
d="M281 1047q-43 0 -67 23.5t-24 66.5q0 39 24.5 61.5t66.5 22.5q41 0 63.5 -22.5t22.5 -61.5q0 -43 -22.5 -66.5t-63.5 -23.5zM815 1047q-43 0 -66.5 23.5t-23.5 66.5q0 39 24 61.5t66 22.5q41 0 63.5 -22.5t22.5 -61.5q0 -43 -22.5 -66.5t-63.5 -23.5zM109 0q-5 0 -5 12.5
t5 12.5q82 0 106.5 26.5t24.5 114.5v383q0 73 -16 106t-52 33q-35 0 -92 -29q-6 -3 -11 2.5t-4.5 12t5.5 10.5l264 123q4 4 8 4q6 0 11 -6t5 -12q0 -7 -1 -41t-2 -88.5t-1 -112.5v-385q0 -88 24 -114.5t105 -26.5q6 0 6 -12.5t-6 -12.5q-22 0 -84.5 2t-101.5 2t-102 -2
t-86 -2zM893 793q0 -7 -1 -41t-2 -88.5t-1 -112.5v-649q0 -206 -63 -311.5t-226 -168.5q-6 -1 -10.5 9.5t0.5 13.5q100 42 141 137t41 273v694q0 74 -14.5 106.5t-50.5 32.5t-95 -29q-5 -3 -9.5 2.5t-4.5 12t4 10.5l266 123q4 4 6 4q6 0 12.5 -6t6.5 -12z" />
    <glyph glyph-name="Jcircumflex" unicode="&#x134;" horiz-adv-x="659" 
d="M100 1438l211 198q9 9 23.5 9t23.5 -9l209 -198q8 -4 -2 -13q-5 -5 -8 -2l-221 117l-223 -117q-2 -1 -6.5 2t-6.5 7t0 6zM573 1280q5 0 5 -12.5t-5 -12.5q-96 0 -123.5 -27.5t-27.5 -117.5v-1167q0 -203 -94.5 -323t-272.5 -120q-69 0 -109 24t-40 64q0 30 18 50t51 20
t56 -18.5t33.5 -40t30.5 -40t48 -18.5q71 0 107.5 85.5t36.5 273.5v1214q0 89 -36.5 115t-164.5 26q-4 0 -4 12.5t4 12.5q36 0 125 -3t141 -3q48 0 121.5 3t99.5 3z" />
    <glyph glyph-name="jcircumflex" unicode="&#x135;" horiz-adv-x="526" 
d="M426 975q3 -4 -6 -7q-11 -2 -14 3l-140 336l-141 -336q-1 -4 -7 -4t-11.5 2.5t-4.5 5.5l140 510q2 11 22.5 11t24.5 -11zM342 793q0 -7 -1 -41t-2 -88.5t-1 -112.5v-649q0 -206 -63 -311.5t-226 -168.5q-6 -1 -10.5 9.5t0.5 13.5q100 42 141 137t41 273v694
q0 74 -14.5 106.5t-50.5 32.5t-95 -29q-5 -3 -9.5 2.5t-4.5 12t4 10.5l266 123q4 4 7 4q6 0 12 -6t6 -12z" />
    <glyph glyph-name="Kcommaaccent" unicode="&#x136;" horiz-adv-x="1331" 
d="M1313 25q6 0 6 -12.5t-6 -12.5h-230h-30q-53 -1 -70.5 11t-68.5 83q-78 109 -152 203l-313 395l-68 -65v-461q0 -90 30.5 -115.5t143.5 -25.5q6 0 6 -12.5t-6 -12.5q-29 0 -109.5 2t-132.5 2q-48 0 -129.5 -2t-111.5 -2q-4 0 -4 12.5t4 12.5q113 0 145.5 26t32.5 115v948
q0 88 -32 114.5t-144 26.5q-4 0 -4 12.5t4 12.5q31 0 111 -3t128 -3q52 0 133.5 3t108.5 3q6 0 6 -12.5t-6 -12.5q-109 0 -141.5 -28t-32.5 -117v-434l438 438q78 78 66 109.5t-119 31.5q-4 0 -4 12.5t4 12.5q28 0 102 -3t136 -3q59 0 127 3t92 3q5 0 5 -12.5t-5 -12.5
q-86 0 -181 -36.5t-176 -116.5l-323 -318l295 -378q56 -72 99.5 -126.5t81 -94.5t64 -67.5t53.5 -45.5t42.5 -27.5t40.5 -14t37 -5t41 -0.5h16zM692 -174q55 0 85 -39t30 -111q0 -124 -125 -239q-8 -5 -15 2.5t-1 13.5q90 81 90 182q0 41 -13 60q-15 -31 -61 -31
q-38 0 -59 22t-21 58q0 82 90 82z" />
    <glyph glyph-name="kcommaaccent" unicode="&#x137;" horiz-adv-x="1005" 
d="M989 25q6 0 6 -12.5t-6 -12.5q-22 0 -84.5 2t-101.5 2q-56 0 -133.5 -2t-102.5 -2q-5 0 -5 12.5t5 12.5q74 0 94 20t-12 64l-250 342l-102 -82v-203q0 -88 24 -114.5t105 -26.5q6 0 6 -12.5t-6 -12.5q-22 0 -84.5 2t-101.5 2t-102 -2t-85 -2q-6 0 -6 12.5t6 12.5
q80 0 104.5 26.5t24.5 114.5v1059q0 74 -14.5 106.5t-50.5 32.5q-28 0 -94 -29q-6 -3 -11 2.5t-5 11.5t5 9l258 125q4 2 9 2q6 0 12 -5.5t6 -11.5v-1065l274 222q79 63 64 102t-115 39q-6 0 -6 12.5t6 12.5q27 0 99.5 -2.5t134.5 -2.5q58 0 124 2.5t87 2.5q6 0 6 -12.5
t-6 -12.5q-75 0 -167.5 -37t-185.5 -111l-118 -94l260 -358q103 -141 235 -141zM494 -174q55 0 84.5 -39t29.5 -111q0 -124 -125 -239q-8 -5 -15 2.5t-1 13.5q90 81 90 182q0 42 -12 60q-15 -31 -62 -31q-38 0 -59 22t-21 58q0 82 91 82z" />
    <glyph glyph-name="kgreenlandic" unicode="&#x138;" horiz-adv-x="1042" 
d="M1026 25q4 0 4 -12.5t-4 -12.5q-22 0 -85.5 2t-102.5 2q-56 0 -132.5 -2t-101.5 -2q-6 0 -6 12.5t6 12.5q72 0 92 20t-10 64l-250 344l-102 -82v-205q0 -88 24 -114.5t105 -26.5q6 0 6 -12.5t-6 -12.5q-22 0 -85.5 2t-101.5 2q-39 0 -102.5 -2t-85.5 -2q-4 0 -4 12.5
t4 12.5q80 0 104.5 26.5t24.5 114.5v403q0 70 -16.5 101.5t-55.5 31.5q-32 0 -110 -30q-6 -3 -11 1.5t-4.5 10t5.5 8.5l239 115q8 4 10 4q11 0 24.5 -19t24.5 -60.5t11 -92.5v-236l274 222q78 63 63 102t-116 39q-5 0 -5 12.5t5 12.5q28 0 101 -2.5t135 -2.5q57 0 122 2.5
t88 2.5q5 0 5 -12.5t-5 -12.5q-164 0 -354 -148l-119 -94l260 -358q103 -141 238 -141z" />
    <glyph glyph-name="Lacute" unicode="&#x139;" horiz-adv-x="1091" 
d="M125 1391q-9 -4 -13 6.5t3 13.5q75 37 197 111.5t137 83.5q14 9 86 -22q53 -23 50 -33q0 -2 -5 -3q-223 -55 -455 -157zM379 1112v-938q0 -83 30 -107t136 -24h221q117 0 187 72.5t91 199.5q0 3 6 3.5t12.5 -1.5t6.5 -6q-20 -152 -20 -280q0 -18 -6.5 -24.5t-24.5 -6.5
h-946q-4 0 -4 12.5t4 12.5q112 0 143 25.5t31 115.5v948q0 89 -31.5 115t-142.5 26q-4 0 -4 12.5t4 12.5q30 0 110.5 -3t128.5 -3q52 0 133.5 3t108.5 3q6 0 6 -12.5t-6 -12.5q-111 0 -142.5 -27t-31.5 -116z" />
    <glyph glyph-name="lacute" unicode="&#x13a;" horiz-adv-x="530" 
d="M59 1491q-9 -4 -13 6.5t3 13.5q75 37 197 111.5t137 83.5q14 9 86 -21q53 -23 50 -33l-5 -3q-218 -54 -455 -158zM82 0q-6 0 -6 12.5t6 12.5q80 0 104.5 26.5t24.5 114.5v1059q0 73 -15 106t-51 33q-28 0 -94 -29q-5 -3 -9.5 2.5t-4.5 11.5t4 9l262 125q4 2 8 2
q6 0 12.5 -5.5t6.5 -11.5v-1302q0 -87 24 -114t105 -27q6 0 6 -12.5t-6 -12.5q-21 0 -85 2t-104 2q-39 0 -102.5 -2t-85.5 -2z" />
    <glyph glyph-name="Lcommaaccent" unicode="&#x13b;" horiz-adv-x="1091" 
d="M1044 315q0 3 6 3.5t12.5 -1.5t6.5 -6q-20 -152 -20 -280q0 -18 -6.5 -24.5t-24.5 -6.5h-946q-4 0 -4 12.5t4 12.5q112 0 143 25.5t31 115.5v948q0 89 -31.5 115t-142.5 26q-4 0 -4 12.5t4 12.5q30 0 110.5 -3t128.5 -3q52 0 133.5 3t108.5 3q6 0 6 -12.5t-6 -12.5
q-111 0 -142.5 -27t-31.5 -116v-938q0 -83 30 -107t136 -24h221q117 0 187 72.5t91 199.5zM596 -174q55 0 85 -39t30 -111q0 -124 -125 -239q-5 -3 -11 -0.5t-7.5 7.5t1.5 9q90 81 90 182q0 42 -12 60q-15 -31 -61 -31q-38 0 -59 22t-21 58q0 82 90 82z" />
    <glyph glyph-name="lcommaaccent" unicode="&#x13c;" horiz-adv-x="530" 
d="M459 25q6 0 6 -12.5t-6 -12.5q-21 0 -85 2t-104 2q-39 0 -102.5 -2t-85.5 -2q-6 0 -6 12.5t6 12.5q80 0 104.5 26.5t24.5 114.5v1059q0 73 -15 106t-51 33q-28 0 -94 -29q-5 -3 -9.5 2.5t-4.5 11.5t4 9l262 125q4 2 8 2q6 0 12.5 -5.5t6.5 -11.5v-1302q0 -87 24 -114
t105 -27zM258 -174q55 0 85 -39t30 -111q0 -124 -125 -239q-5 -3 -11 -0.5t-7.5 7.5t1.5 9q91 82 91 182q0 41 -13 60q-15 -31 -61 -31q-38 0 -59 22t-21 58q0 82 90 82z" />
    <glyph glyph-name="Lcaron" unicode="&#x13d;" horiz-adv-x="1091" 
d="M723 1280q0 14 50 -14q52 -31 54 -47l-65 -498q-2 -4 -12.5 -3.5t-10.5 5.5zM379 1112v-938q0 -83 30 -107t136 -24h221q117 0 187 72.5t91 199.5q0 3 6 3.5t12.5 -1.5t6.5 -6q-20 -152 -20 -280q0 -18 -6.5 -24.5t-24.5 -6.5h-946q-4 0 -4 12.5t4 12.5q112 0 143 25.5
t31 115.5v948q0 89 -31.5 115t-142.5 26q-4 0 -4 12.5t4 12.5q30 0 110.5 -3t128.5 -3q52 0 133.5 3t108.5 3q6 0 6 -12.5t-6 -12.5q-111 0 -142.5 -27t-31.5 -116z" />
    <glyph glyph-name="lcaron" unicode="&#x13e;" horiz-adv-x="530" 
d="M475 1485q0 15 52 -15q51 -31 53 -47l-66 -497q-2 -4 -12 -3.5t-10 5.5zM82 0q-6 0 -6 12.5t6 12.5q80 0 104.5 26.5t24.5 114.5v1059q0 73 -15 106t-51 33q-28 0 -94 -29q-5 -3 -9.5 2.5t-4.5 11.5t4 9l262 125q4 2 8 2q6 0 12.5 -5.5t6.5 -11.5v-1302q0 -87 24 -114
t105 -27q6 0 6 -12.5t-6 -12.5q-21 0 -85 2t-104 2q-39 0 -102.5 -2t-85.5 -2z" />
    <glyph glyph-name="Ldot" unicode="&#x13f;" horiz-adv-x="1091" 
d="M379 1112v-938q0 -83 30 -107t136 -24h221q117 0 187 72.5t91 199.5q0 3 6 3.5t12.5 -1.5t6.5 -6q-20 -152 -20 -280q0 -18 -6.5 -24.5t-24.5 -6.5h-946q-4 0 -4 12.5t4 12.5q112 0 143 25.5t31 115.5v948q0 89 -31.5 115t-142.5 26q-4 0 -4 12.5t4 12.5q30 0 110.5 -3
t128.5 -3q52 0 133.5 3t108.5 3q6 0 6 -12.5t-6 -12.5q-111 0 -142.5 -27t-31.5 -116zM879 569q-43 0 -67 23.5t-24 66.5q0 39 24.5 61.5t66.5 22.5q41 0 63.5 -22.5t22.5 -61.5q0 -43 -22.5 -66.5t-63.5 -23.5z" />
    <glyph glyph-name="ldot" unicode="&#x140;" horiz-adv-x="530" 
d="M82 0q-6 0 -6 12.5t6 12.5q80 0 104.5 26.5t24.5 114.5v1059q0 73 -15 106t-51 33q-28 0 -94 -29q-5 -3 -9.5 2.5t-4.5 11.5t4 9l262 125q4 2 8 2q6 0 12.5 -5.5t6.5 -11.5v-1302q0 -87 24 -114t105 -27q6 0 6 -12.5t-6 -12.5q-21 0 -85 2t-104 2q-39 0 -102.5 -2
t-85.5 -2zM526 598q-43 0 -66.5 23.5t-23.5 66.5q0 39 24 61.5t66 22.5q41 0 63.5 -22.5t22.5 -61.5q0 -43 -22.5 -66.5t-63.5 -23.5z" />
    <glyph glyph-name="Lslash" unicode="&#x141;" horiz-adv-x="1073" 
d="M1044 315q0 3 6 3.5t12.5 -1.5t6.5 -6q-20 -152 -20 -280q0 -18 -6.5 -24.5t-24.5 -6.5h-946q-4 0 -4 12.5t4 12.5q112 0 143 25.5t31 115.5v375l-105 -60q-5 -3 -12 5.5t-10 18t0 13.5l127 74v522q0 89 -31.5 115t-142.5 26q-4 0 -4 12.5t4 12.5q30 0 110.5 -3t128.5 -3
q52 0 133.5 3t108.5 3q6 0 6 -12.5t-6 -12.5q-111 0 -142.5 -27t-31.5 -116v-444l219 125q4 3 10.5 -5.5t9.5 -18t0 -13.5l-239 -138v-444q0 -83 30 -107t136 -24h221q117 0 187 72.5t91 199.5z" />
    <glyph glyph-name="lslash" unicode="&#x142;" horiz-adv-x="522" 
d="M451 846q6 3 14 -6.5t10.5 -20t-2.5 -14.5l-139 -82v-557q0 -87 24 -114t105 -27q6 0 6 -12.5t-6 -12.5q-21 0 -85 2t-104 2q-39 0 -102.5 -2t-85.5 -2q-6 0 -6 12.5t6 12.5q80 0 104.5 26.5t24.5 114.5v487l-117 -67q-9 -4 -19.5 15t-2.5 24l139 82v518
q0 74 -14.5 106.5t-50.5 32.5q-29 0 -95 -29q-5 -3 -9.5 2.5t-4.5 11.5t4 9l262 125q4 2 8 2q6 0 12.5 -5.5t6.5 -11.5v-692z" />
    <glyph glyph-name="Nacute" unicode="&#x143;" horiz-adv-x="1488" 
d="M571 1391q-9 -4 -13 6.5t3 13.5q75 37 197 111.5t137 83.5q14 9 86 -22q53 -23 50 -33q0 -2 -5 -3q-223 -55 -455 -157zM1442 1280q6 0 6 -12.5t-6 -12.5q-86 0 -125 -47t-39 -151v-1080q0 -6 -10 -7.5t-13 1.5l-944 1141q-1 1 -16 21v-910q0 -106 36.5 -152t121.5 -46
q6 0 6 -12.5t-6 -12.5q-24 0 -84 2t-97 2q-36 0 -99 -2t-89 -2q-6 0 -6 12.5t6 12.5q87 0 124.5 46t37.5 152v959q-78 73 -162 73q-6 0 -6 12.5t6 12.5q24 0 73 -2t70 -2q29 0 70 2t49 2q16 0 24.5 -7.5t28 -39t41.5 -59.5l791 -967v850q0 105 -36 151.5t-120 46.5
q-5 0 -5 12.5t5 12.5q26 0 84.5 -3t95.5 -3q35 0 98.5 3t88.5 3z" />
    <glyph glyph-name="nacute" unicode="&#x144;" horiz-adv-x="1058" 
d="M551 971q-1 -4 -7 -4t-11.5 2.5t-4.5 5.5l107 491q3 13 69 25q60 11 56 -2zM1016 25q4 0 4 -12.5t-4 -12.5q-22 0 -86 2t-103 2q-38 0 -101 -2t-85 -2q-5 0 -5 12.5t5 12.5q80 0 104.5 26.5t24.5 114.5v332q0 121 -45.5 178t-142.5 57q-63 0 -127.5 -33.5t-118.5 -93.5
v-440q0 -88 24 -114.5t105 -26.5q5 0 5 -12.5t-5 -12.5q-22 0 -86 2t-103 2q-38 0 -101 -2t-85 -2q-4 0 -4 12.5t4 12.5q80 0 104.5 26.5t24.5 114.5v403q0 70 -16.5 101.5t-55.5 31.5q-32 0 -110 -30q-6 -3 -11 1.5t-4.5 10t5.5 8.5l237 115l12 4q11 0 24.5 -18.5
t24.5 -58.5t11 -91q152 174 315 174q112 0 174 -64.5t62 -185.5v-401q0 -88 24 -114.5t105 -26.5z" />
    <glyph glyph-name="Ncommaaccent" unicode="&#x145;" horiz-adv-x="1488" 
d="M1442 1280q6 0 6 -12.5t-6 -12.5q-86 0 -125 -47t-39 -151v-1080q0 -6 -10 -7.5t-13 1.5l-944 1141q-1 1 -16 21v-910q0 -106 36.5 -152t121.5 -46q6 0 6 -12.5t-6 -12.5q-24 0 -84 2t-97 2q-36 0 -99 -2t-89 -2q-6 0 -6 12.5t6 12.5q87 0 124.5 46t37.5 152v959
q-78 73 -162 73q-6 0 -6 12.5t6 12.5q24 0 73 -2t70 -2q29 0 70 2t49 2q16 0 24.5 -7.5t28 -39t41.5 -59.5l791 -967v850q0 105 -36 151.5t-120 46.5q-5 0 -5 12.5t5 12.5q26 0 84.5 -3t95.5 -3q35 0 98.5 3t88.5 3zM754 -174q55 0 84.5 -39t29.5 -111q0 -124 -125 -239
q-8 -5 -15 2.5t-1 13.5q90 81 90 182q0 42 -12 60q-15 -31 -62 -31q-37 0 -58 22t-21 58q0 82 90 82z" />
    <glyph glyph-name="ncommaaccent" unicode="&#x146;" horiz-adv-x="1058" 
d="M1016 25q4 0 4 -12.5t-4 -12.5q-22 0 -86 2t-103 2q-38 0 -101 -2t-85 -2q-5 0 -5 12.5t5 12.5q80 0 104.5 26.5t24.5 114.5v332q0 121 -45.5 178t-142.5 57q-63 0 -127.5 -33.5t-118.5 -93.5v-440q0 -88 24 -114.5t105 -26.5q5 0 5 -12.5t-5 -12.5q-22 0 -86 2t-103 2
q-38 0 -101 -2t-85 -2q-4 0 -4 12.5t4 12.5q80 0 104.5 26.5t24.5 114.5v403q0 70 -16.5 101.5t-55.5 31.5q-32 0 -110 -30q-6 -3 -11 1.5t-4.5 10t5.5 8.5l237 115l12 4q11 0 24.5 -18.5t24.5 -58.5t11 -91q152 174 315 174q112 0 174 -64.5t62 -185.5v-401
q0 -88 24 -114.5t105 -26.5zM518 -174q55 0 85 -39t30 -111q0 -124 -125 -239q-8 -5 -15 2.5t-1 13.5q90 81 90 182q0 41 -13 60q-15 -31 -61 -31q-38 0 -59 22t-21 58q0 82 90 82z" />
    <glyph glyph-name="Ncaron" unicode="&#x147;" horiz-adv-x="1488" 
d="M535 1606q-2 2 0 5.5t6 6.5t6 2l223 -117l221 117q5 3 10.5 -3.5t-0.5 -10.5l-208 -199q-9 -9 -24 -9t-24 9zM1442 1280q6 0 6 -12.5t-6 -12.5q-86 0 -125 -47t-39 -151v-1080q0 -6 -10 -7.5t-13 1.5l-944 1141q-1 1 -16 21v-910q0 -106 36.5 -152t121.5 -46q6 0 6 -12.5
t-6 -12.5q-24 0 -84 2t-97 2q-36 0 -99 -2t-89 -2q-6 0 -6 12.5t6 12.5q87 0 124.5 46t37.5 152v959q-78 73 -162 73q-6 0 -6 12.5t6 12.5q24 0 73 -2t70 -2q29 0 70 2t49 2q16 0 24.5 -7.5t28 -39t41.5 -59.5l791 -967v850q0 105 -36 151.5t-120 46.5q-5 0 -5 12.5t5 12.5
q26 0 84.5 -3t95.5 -3q35 0 98.5 3t88.5 3z" />
    <glyph glyph-name="ncaron" unicode="&#x148;" horiz-adv-x="1058" 
d="M530 977l-139 510q-1 4 4.5 6.5t11.5 2.5t7 -3l141 -338l139 338q1 3 7 3t11 -2.5t3 -6.5l-137 -510q-3 -11 -23 -11t-25 11zM1016 25q4 0 4 -12.5t-4 -12.5q-22 0 -86 2t-103 2q-38 0 -101 -2t-85 -2q-5 0 -5 12.5t5 12.5q80 0 104.5 26.5t24.5 114.5v332
q0 121 -45.5 178t-142.5 57q-63 0 -127.5 -33.5t-118.5 -93.5v-440q0 -88 24 -114.5t105 -26.5q5 0 5 -12.5t-5 -12.5q-22 0 -86 2t-103 2q-38 0 -101 -2t-85 -2q-4 0 -4 12.5t4 12.5q80 0 104.5 26.5t24.5 114.5v403q0 70 -16.5 101.5t-55.5 31.5q-32 0 -110 -30
q-6 -3 -11 1.5t-4.5 10t5.5 8.5l237 115l12 4q11 0 24.5 -18.5t24.5 -58.5t11 -91q152 174 315 174q112 0 174 -64.5t62 -185.5v-401q0 -88 24 -114.5t105 -26.5z" />
    <glyph glyph-name="napostrophe" unicode="&#x149;" horiz-adv-x="1058" 
d="M127 1149q-38 0 -59 22t-21 58q0 82 94 82q62 0 96.5 -46t34.5 -132q0 -82 -36.5 -152.5t-108.5 -140.5q-5 -4 -10.5 -2t-7 7t1.5 9q100 103 100 242q0 56 -21 84q-19 -31 -63 -31zM1016 25q4 0 4 -12.5t-4 -12.5q-22 0 -86 2t-103 2q-38 0 -101 -2t-85 -2q-5 0 -5 12.5
t5 12.5q80 0 104.5 26.5t24.5 114.5v332q0 121 -45.5 178t-142.5 57q-63 0 -127.5 -33.5t-118.5 -93.5v-440q0 -88 24 -114.5t105 -26.5q5 0 5 -12.5t-5 -12.5q-22 0 -86 2t-103 2q-38 0 -101 -2t-85 -2q-4 0 -4 12.5t4 12.5q80 0 104.5 26.5t24.5 114.5v403
q0 70 -16.5 101.5t-55.5 31.5q-32 0 -110 -30q-6 -3 -11 1.5t-4.5 10t5.5 8.5l237 115l12 4q11 0 24.5 -18.5t24.5 -58.5t11 -91q152 174 315 174q112 0 174 -64.5t62 -185.5v-401q0 -88 24 -114.5t105 -26.5z" />
    <glyph glyph-name="Eng" unicode="&#x14a;" horiz-adv-x="1488" 
d="M1442 1280q6 0 6 -12.5t-6 -12.5q-86 0 -125 -47t-39 -151v-1080q0 -178 -67 -273t-193 -95q-75 0 -121.5 34t-46.5 83q0 34 17 53.5t48 19.5q34 0 52.5 -23.5t24 -51t24 -51t53.5 -23.5q77 0 121.5 88t44.5 231v27l-924 1116q-1 1 -16 21v-910q0 -106 36.5 -152
t121.5 -46q6 0 6 -12.5t-6 -12.5q-24 0 -84 2t-97 2q-36 0 -99 -2t-89 -2q-6 0 -6 12.5t6 12.5q88 0 127 46.5t39 151.5v957q-83 75 -166 75q-6 0 -6 12.5t6 12.5q24 0 73 -2t70 -2q29 0 70 2t49 2q16 0 24.5 -7.5t28 -39t41.5 -59.5l795 -971v854q0 104 -37.5 151
t-122.5 47q-5 0 -5 12.5t5 12.5q26 0 84.5 -3t95.5 -3q35 0 98.5 3t88.5 3z" />
    <glyph glyph-name="eng" unicode="&#x14b;" horiz-adv-x="1032" 
d="M649 817q112 0 174 -64.5t62 -185.5v-665q0 -204 -62 -304t-227 -163q-3 -1 -6.5 4t-4.5 9.5t1 6.5q101 42 141.5 133t40.5 267v643q0 121 -45.5 178t-142.5 57q-63 0 -127.5 -33.5t-118.5 -93.5v-440q0 -88 24 -114.5t105 -26.5q6 0 6 -12.5t-6 -12.5q-22 0 -85.5 2
t-101.5 2q-39 0 -102.5 -2t-85.5 -2q-4 0 -4 12.5t4 12.5q80 0 104.5 26.5t24.5 114.5v403q0 70 -16.5 101.5t-55.5 31.5q-32 0 -110 -30q-6 -3 -11 1.5t-4.5 10t5.5 8.5l239 115q8 4 10 4q11 0 24.5 -18.5t24.5 -58.5t11 -91q152 174 315 174z" />
    <glyph glyph-name="Omacron" unicode="&#x14c;" horiz-adv-x="1568" 
d="M530 1479q-12 0 -12 28.5t12 28.5h514q14 0 14 -28.5t-14 -28.5h-514zM750 -25q-191 0 -341 91t-229.5 242t-79.5 331q0 129 43 239t115 187t165.5 131.5t195 80.5t202.5 26q146 0 270 -55t205.5 -146.5t126.5 -208t45 -240.5q0 -140 -58 -266t-155 -216t-229 -143
t-276 -53zM823 18q103 0 191.5 38.5t155.5 110t105 182.5t38 247q0 191 -70.5 340.5t-202 234t-303.5 84.5q-227 0 -354 -145t-127 -399q0 -193 70.5 -350.5t201 -250t295.5 -92.5z" />
    <glyph glyph-name="omacron" unicode="&#x14d;" horiz-adv-x="983" 
d="M233 989q-12 0 -12 29t12 29h515q14 0 14 -29t-14 -29h-515zM475 -27q-179 0 -290 127t-111 306q0 82 26.5 151t70 116t100.5 80.5t117.5 48.5t121.5 15q91 0 167 -36t125.5 -95.5t77 -134.5t27.5 -156q0 -126 -60 -223.5t-158 -148t-214 -50.5zM532 10q111 0 173.5 81.5
t62.5 246.5q0 193 -92 316.5t-234 123.5q-110 0 -170.5 -79t-60.5 -230q0 -192 91 -325.5t230 -133.5z" />
    <glyph glyph-name="Obreve" unicode="&#x14e;" horiz-adv-x="1568" 
d="M788 1413q-88 0 -142.5 56.5t-67.5 162.5q-1 5 4 7.5t11 1.5t7 -5q14 -55 68.5 -95t119.5 -40q64 0 118.5 40t68.5 95q1 4 7 5t11 -1.5t4 -7.5q-15 -106 -68.5 -162.5t-140.5 -56.5zM750 -25q-191 0 -341 91t-229.5 242t-79.5 331q0 129 43 239t115 187t165.5 131.5
t195 80.5t202.5 26q146 0 270 -55t205.5 -146.5t126.5 -208t45 -240.5q0 -140 -58 -266t-155 -216t-229 -143t-276 -53zM823 18q103 0 191.5 38.5t155.5 110t105 182.5t38 247q0 191 -70.5 340.5t-202 234t-303.5 84.5q-227 0 -354 -145t-127 -399q0 -193 70.5 -350.5
t201 -250t295.5 -92.5z" />
    <glyph glyph-name="obreve" unicode="&#x14f;" horiz-adv-x="983" 
d="M281 1278q0 4 5.5 6t11 1.5t5.5 -3.5q0 -90 54 -150.5t135 -60.5q78 0 132 61t54 150q0 3 5.5 3.5t11 -1.5t5.5 -6q0 -153 -52.5 -232t-155.5 -79t-157 79.5t-54 231.5zM475 -27q-179 0 -290 127t-111 306q0 82 26.5 151t70 116t100.5 80.5t117.5 48.5t121.5 15
q91 0 167 -36t125.5 -95.5t77 -134.5t27.5 -156q0 -126 -60 -223.5t-158 -148t-214 -50.5zM532 10q111 0 173.5 81.5t62.5 246.5q0 193 -92 316.5t-234 123.5q-110 0 -170.5 -79t-60.5 -230q0 -192 91 -325.5t230 -133.5z" />
    <glyph glyph-name="Ohungarumlaut" unicode="&#x150;" horiz-adv-x="1568" 
d="M573 1386q-6 -3 -10.5 1.5t-4 10t4.5 9.5q63 63 185 195q11 10 81 -17q53 -20 49 -30q0 -2 -4 -3q-160 -65 -301 -166zM827 1386q-6 -3 -10.5 1.5t-4 10t4.5 9.5q37 36 184 195q11 9 81 -17q54 -20 50 -30q-1 -2 -4 -3q-153 -62 -301 -166zM750 -25q-191 0 -341 91
t-229.5 242t-79.5 331q0 129 43 239t115 187t165.5 131.5t195 80.5t202.5 26q146 0 270 -55t205.5 -146.5t126.5 -208t45 -240.5q0 -140 -58 -266t-155 -216t-229 -143t-276 -53zM823 18q103 0 191.5 38.5t155.5 110t105 182.5t38 247q0 191 -70.5 340.5t-202 234
t-303.5 84.5q-227 0 -354 -145t-127 -399q0 -193 70.5 -350.5t201 -250t295.5 -92.5z" />
    <glyph glyph-name="ohungarumlaut" unicode="&#x151;" horiz-adv-x="983" 
d="M303 940q-6 -3 -10.5 1.5t-4 10t4.5 9.5q38 38 98.5 111.5t79.5 94.5q13 11 94 -15q59 -18 55 -28q-1 -1 -4 -2q-55 -22 -118.5 -58t-93.5 -56t-101 -68zM553 940q-9 -4 -13.5 6t1.5 15q38 37 97.5 109.5t82.5 96.5q11 11 92 -14q60 -19 55 -29q-1 -1 -4 -2
q-120 -48 -311 -182zM475 -27q-179 0 -290 127t-111 306q0 82 26.5 151t70 116t100.5 80.5t117.5 48.5t121.5 15q91 0 167 -36t125.5 -95.5t77 -134.5t27.5 -156q0 -126 -60 -223.5t-158 -148t-214 -50.5zM532 10q111 0 173.5 81.5t62.5 246.5q0 193 -92 316.5t-234 123.5
q-110 0 -170.5 -79t-60.5 -230q0 -192 91 -325.5t230 -133.5z" />
    <glyph glyph-name="OE" unicode="&#x152;" horiz-adv-x="1871" 
d="M1747 303q0 3 5.5 4t11 -0.5t5.5 -5.5q-18 -162 -18 -270q0 -18 -6.5 -24.5t-24.5 -6.5h-610q-44 0 -145 -4t-150 -4q-207 0 -371 82.5t-254 224.5t-90 317q0 150 56.5 277t153 211.5t224.5 132t271 47.5q39 0 145 -2t154 -2h579q21 0 21 -18l4 -254q0 -4 -12 -4t-13 4
q-3 97 -65 163t-154 66h-129q-102 0 -134 -24t-32 -101v-426h250q98 0 141.5 34t43.5 111q0 5 11 5t11 -5q0 -45 -1 -95t-1 -70q0 -31 2 -92.5t2 -96.5q0 -6 -11 -6t-11 6q0 89 -45 128.5t-148 39.5h-244v-471q0 -79 30.5 -105t129.5 -26h170q88 0 158 73t90 187zM1036 168
v926q0 90 -42 124.5t-167 34.5q-256 0 -413.5 -155.5t-157.5 -435.5q0 -179 67.5 -324t196 -230t295.5 -85q129 0 175 27.5t46 117.5z" />
    <glyph glyph-name="oe" unicode="&#x153;" horiz-adv-x="1404" 
d="M1325 115q4 3 9 -1t6.5 -9t-1.5 -9q-127 -121 -278 -121q-116 0 -199 45t-129 125q-51 -82 -131.5 -127t-175.5 -45q-164 0 -269.5 127.5t-105.5 305.5q0 82 25 151t67 116t96 80.5t111.5 48.5t114.5 15q107 0 184.5 -52.5t118.5 -143.5q60 87 151 137.5t199 50.5
q102 0 157.5 -54t55.5 -149q0 -26 -4.5 -37.5t-17.5 -11.5l-486 -2q-14 -55 -14 -131q0 -175 87.5 -276t233.5 -101q119 0 195 68zM481 10q94 0 148.5 88t54.5 250q0 195 -79 312.5t-208 117.5q-100 0 -156.5 -81t-56.5 -232q0 -188 85.5 -321.5t211.5 -133.5zM1049 768
q-80 0 -136.5 -49t-81.5 -135l359 8q0 86 -38 131t-103 45z" />
    <glyph glyph-name="Racute" unicode="&#x154;" horiz-adv-x="1378" 
d="M328 1391q-6 -3 -10 1.5t-4 10t3 8.5q75 37 197 111.5t137 83.5q14 9 86 -22q53 -23 50 -33q0 -2 -5 -3q-220 -55 -454 -157zM1397 25q6 0 6 -12.5t-6 -12.5h-262q-52 0 -192 175t-341 487q-60 -13 -110 -13q-39 0 -93 4v-487q0 -90 30.5 -115.5t143.5 -25.5q6 0 6 -12.5
t-6 -12.5q-29 0 -110 2t-131 2q-48 0 -130 -2t-112 -2q-6 0 -6 12.5t6 12.5q112 0 144 25.5t32 115.5v948q0 89 -31.5 115t-142.5 26q-6 0 -6 12.5t6 12.5q30 0 111 -3t129 -3q36 0 124 6t122 6q167 0 256.5 -68.5t89.5 -189.5q0 -98 -57 -183.5t-152 -137.5
q260 -385 407.5 -533.5t274.5 -148.5zM399 702q55 -6 121 -6q142 0 203 60t61 202q0 299 -252 299q-41 0 -63 -4t-39.5 -19t-24 -44t-6.5 -80v-408z" />
    <glyph glyph-name="racute" unicode="&#x155;" horiz-adv-x="745" 
d="M377 971q-1 -4 -7 -4t-11.5 2.5t-4.5 5.5l107 491q3 13 69 25q60 11 56 -2zM563 811q45 0 86 -26.5t41 -61.5q0 -26 -17.5 -43.5t-49.5 -17.5q-27 0 -65 30.5t-73 30.5q-26 0 -55.5 -22.5t-93.5 -96.5v-438q0 -88 37 -114.5t164 -26.5q6 0 6 -12.5t-6 -12.5q-31 0 -120 2
t-141 2q-38 0 -101 -2t-85 -2q-4 0 -4 12.5t4 12.5q80 0 104.5 26.5t24.5 114.5v403q0 70 -16.5 101.5t-55.5 31.5q-32 0 -110 -30q-6 -3 -11 1.5t-4.5 10t5.5 8.5l237 115l12 4q11 0 24.5 -19t24.5 -60.5t11 -92.5q84 99 133.5 135.5t93.5 36.5z" />
    <glyph glyph-name="Rcommaaccent" unicode="&#x156;" horiz-adv-x="1378" 
d="M1397 25q6 0 6 -12.5t-6 -12.5h-262q-52 0 -192 175t-341 487q-60 -13 -110 -13q-39 0 -93 4v-487q0 -90 30.5 -115.5t143.5 -25.5q6 0 6 -12.5t-6 -12.5q-29 0 -110 2t-131 2q-48 0 -130 -2t-112 -2q-6 0 -6 12.5t6 12.5q112 0 144 25.5t32 115.5v948q0 89 -31.5 115
t-142.5 26q-6 0 -6 12.5t6 12.5q30 0 111 -3t129 -3q36 0 124 6t122 6q167 0 256.5 -68.5t89.5 -189.5q0 -98 -57 -183.5t-152 -137.5q260 -385 407.5 -533.5t274.5 -148.5zM399 702q55 -6 121 -6q142 0 203 60t61 202q0 299 -252 299q-41 0 -63 -4t-39.5 -19t-24 -44
t-6.5 -80v-408zM686 -174q55 0 85 -39t30 -111q0 -124 -125 -239q-5 -3 -11 -0.5t-7.5 7.5t1.5 9q91 82 91 182q0 41 -13 60q-15 -31 -61 -31q-38 0 -59 22t-21 58q0 82 90 82z" />
    <glyph glyph-name="rcommaaccent" unicode="&#x157;" horiz-adv-x="745" 
d="M563 811q45 0 86 -26.5t41 -61.5q0 -26 -17.5 -43.5t-49.5 -17.5q-27 0 -65 30.5t-73 30.5q-26 0 -55.5 -22.5t-93.5 -96.5v-438q0 -88 37 -114.5t164 -26.5q6 0 6 -12.5t-6 -12.5q-31 0 -120 2t-141 2q-38 0 -101 -2t-85 -2q-4 0 -4 12.5t4 12.5q80 0 104.5 26.5
t24.5 114.5v403q0 70 -16.5 101.5t-55.5 31.5q-32 0 -110 -30q-6 -3 -11 1.5t-4.5 10t5.5 8.5l237 115l12 4q11 0 24.5 -19t24.5 -60.5t11 -92.5q84 99 133.5 135.5t93.5 36.5zM303 -174q55 0 85 -39t30 -111q0 -124 -125 -239q-5 -3 -11 -0.5t-7.5 7.5t1.5 9q91 82 91 182
q0 41 -13 60q-16 -31 -61 -31q-38 0 -59 22t-21 58q0 82 90 82z" />
    <glyph glyph-name="Rcaron" unicode="&#x158;" horiz-adv-x="1378" 
d="M291 1606q-2 2 0 5.5t6 6.5t6 2l223 -117l222 117q5 3 10.5 -3.5t-0.5 -10.5l-209 -199q-9 -9 -23.5 -9t-23.5 9zM1397 25q6 0 6 -12.5t-6 -12.5h-262q-52 0 -192 175t-341 487q-60 -13 -110 -13q-39 0 -93 4v-487q0 -90 30.5 -115.5t143.5 -25.5q6 0 6 -12.5t-6 -12.5
q-29 0 -110 2t-131 2q-48 0 -130 -2t-112 -2q-6 0 -6 12.5t6 12.5q112 0 144 25.5t32 115.5v948q0 89 -31.5 115t-142.5 26q-6 0 -6 12.5t6 12.5q30 0 111 -3t129 -3q36 0 124 6t122 6q167 0 256.5 -68.5t89.5 -189.5q0 -98 -57 -183.5t-152 -137.5q260 -385 407.5 -533.5
t274.5 -148.5zM399 702q55 -6 121 -6q142 0 203 60t61 202q0 299 -252 299q-41 0 -63 -4t-39.5 -19t-24 -44t-6.5 -80v-408z" />
    <glyph glyph-name="rcaron" unicode="&#x159;" horiz-adv-x="745" 
d="M356 977l-139 510q-1 4 4.5 6.5t11.5 2.5t7 -3l141 -338l139 338q1 3 7 3t11 -2.5t3 -6.5l-138 -510q-3 -11 -23 -11t-24 11zM563 811q45 0 86 -26.5t41 -61.5q0 -26 -17.5 -43.5t-49.5 -17.5q-27 0 -65 30.5t-73 30.5q-26 0 -55.5 -22.5t-93.5 -96.5v-438
q0 -88 37 -114.5t164 -26.5q6 0 6 -12.5t-6 -12.5q-31 0 -120 2t-141 2q-38 0 -101 -2t-85 -2q-4 0 -4 12.5t4 12.5q80 0 104.5 26.5t24.5 114.5v403q0 70 -16.5 101.5t-55.5 31.5q-32 0 -110 -30q-6 -3 -11 1.5t-4.5 10t5.5 8.5l237 115l12 4q11 0 24.5 -19t24.5 -60.5
t11 -92.5q84 99 133.5 135.5t93.5 36.5z" />
    <glyph glyph-name="Sacute" unicode="&#x15a;" horiz-adv-x="1005" 
d="M326 1391q-6 -3 -10 1.5t-4 10t3 8.5q75 37 197 111.5t137 83.5q14 9 86 -22q53 -23 50 -33q0 -2 -5 -3q-220 -55 -454 -157zM297 1040q0 -28 6 -54t13 -47t24.5 -43.5t28.5 -37.5t37.5 -36t39.5 -31.5t46 -31t45.5 -28t48.5 -29.5q132 -80 179 -119q127 -113 130 -257
q0 -152 -112.5 -251.5t-309.5 -99.5q-151 0 -289 72q-15 9 -18 39l-27 279q-1 6 4.5 8.5t12 1.5t8.5 -6q14 -67 40.5 -126.5t68.5 -114.5t105.5 -87.5t141.5 -32.5q103 0 173.5 56.5t70.5 179.5q0 56 -17.5 104.5t-40.5 82t-67 70t-75 57t-87 54.5q-7 4 -10 6
q-48 29 -73.5 45.5t-66 45.5t-62.5 54t-45.5 59.5t-33.5 74.5t-10 86q0 103 57 177.5t141.5 108.5t182.5 34q126 0 240 -50q32 -13 32 -34l13 -236q0 -5 -5.5 -7t-11.5 -0.5t-8 7.5q-4 35 -15.5 72t-35 76.5t-55.5 70t-80.5 50.5t-106.5 20q-114 0 -170.5 -67t-56.5 -165z
" />
    <glyph glyph-name="sacute" unicode="&#x15b;" horiz-adv-x="692" 
d="M348 971q-1 -4 -7 -4t-11 2.5t-4 5.5l106 491q3 13 69 25q60 11 56 -2zM205 666q0 -32 11.5 -59t26 -45.5t43.5 -38.5t48.5 -31t56.5 -29q41 -21 62 -32t55 -35t50.5 -45t30 -54.5t13.5 -71.5q0 -102 -78.5 -175t-212.5 -73q-106 0 -196 62q-13 10 -13 24l-4 160
q0 5 11 6.5t12 -4.5q38 -102 102 -155.5t148 -53.5q66 0 101 33t32 96q-1 34 -13.5 62.5t-27.5 47.5t-44.5 39t-49 30t-56.5 28q-29 14 -42.5 21.5t-39 22.5t-39 26.5t-31 30.5t-26.5 37.5t-15.5 43.5t-6.5 54q0 57 24 102t64 71.5t88.5 40t101.5 13.5q81 0 150 -31
q20 -8 20 -22q0 -20 -3 -70t-3 -80q0 -4 -11.5 -4t-11.5 4q0 65 -69.5 113.5t-145.5 48.5q-52 0 -82 -26.5t-30 -81.5z" />
    <glyph glyph-name="Scircumflex" unicode="&#x15c;" horiz-adv-x="1005" 
d="M291 1419l211 199q9 9 23.5 9t23.5 -9l209 -199q3 -2 2 -6.5t-5 -7.5t-7 0l-222 117l-223 -117q-2 -1 -6 2t-6 6.5t0 5.5zM297 1040q0 -28 6 -54t13 -47t24.5 -43.5t28.5 -37.5t37.5 -36t39.5 -31.5t46 -31t45.5 -28t48.5 -29.5q132 -80 179 -119q127 -113 130 -257
q0 -152 -112.5 -251.5t-309.5 -99.5q-151 0 -289 72q-15 9 -18 39l-27 279q-1 6 4.5 8.5t12 1.5t8.5 -6q14 -67 40.5 -126.5t68.5 -114.5t105.5 -87.5t141.5 -32.5q103 0 173.5 56.5t70.5 179.5q0 56 -17.5 104.5t-40.5 82t-67 70t-75 57t-87 54.5q-7 4 -10 6
q-48 29 -73.5 45.5t-66 45.5t-62.5 54t-45.5 59.5t-33.5 74.5t-10 86q0 103 57 177.5t141.5 108.5t182.5 34q126 0 240 -50q32 -13 32 -34l13 -236q0 -5 -5.5 -7t-11.5 -0.5t-8 7.5q-4 35 -15.5 72t-35 76.5t-55.5 70t-80.5 50.5t-106.5 20q-114 0 -170.5 -67t-56.5 -165z
" />
    <glyph glyph-name="scircumflex" unicode="&#x15d;" horiz-adv-x="692" 
d="M514 975q3 -4 -6 -7q-11 -2 -14 3l-140 336l-141 -336q-1 -4 -7 -4t-11.5 2.5t-4.5 5.5l140 510q2 11 22.5 11t24.5 -11zM205 666q0 -32 11.5 -59t26 -45.5t43.5 -38.5t48.5 -31t56.5 -29q41 -21 62 -32t55 -35t50.5 -45t30 -54.5t13.5 -71.5q0 -102 -78.5 -175
t-212.5 -73q-106 0 -196 62q-13 10 -13 24l-4 160q0 5 11 6.5t12 -4.5q38 -102 102 -155.5t148 -53.5q66 0 101 33t32 96q-1 34 -13.5 62.5t-27.5 47.5t-44.5 39t-49 30t-56.5 28q-29 14 -42.5 21.5t-39 22.5t-39 26.5t-31 30.5t-26.5 37.5t-15.5 43.5t-6.5 54q0 57 24 102
t64 71.5t88.5 40t101.5 13.5q81 0 150 -31q20 -8 20 -22q0 -20 -3 -70t-3 -80q0 -4 -11.5 -4t-11.5 4q0 65 -69.5 113.5t-145.5 48.5q-52 0 -82 -26.5t-30 -81.5z" />
    <glyph glyph-name="Scedilla" unicode="&#x15e;" horiz-adv-x="1005" 
d="M895 326q0 -138 -95 -235t-263 -114q-22 -64 -22 -93t15 -44.5t65 -44.5q4 -3 7 -4q52 -30 82.5 -66t30.5 -92q0 -76 -54 -136t-159 -60q-57 0 -94 21t-37 59q0 26 18 42.5t43 16.5q24 0 39.5 -15.5t22 -33.5t25 -33.5t48.5 -15.5q32 0 50 19.5t18 56.5q0 54 -38 96
t-136 96q-26 13 -28.5 21.5t9.5 39.5q26 64 64 168h-33q-151 0 -289 72q-15 9 -18 39l-27 279q-1 6 4.5 8.5t12 1.5t8.5 -6q14 -67 40.5 -126.5t68.5 -114.5t105.5 -87.5t141.5 -32.5q103 0 173.5 56.5t70.5 179.5q0 56 -17.5 104.5t-40.5 82t-67 70t-75 57t-87 54.5
q-7 4 -10 6q-48 29 -73.5 45.5t-66 45.5t-62.5 54t-45.5 59.5t-33.5 74.5t-10 86q0 103 57 177.5t141.5 108.5t182.5 34q126 0 240 -50q32 -13 32 -34l13 -236q0 -5 -5.5 -7t-11.5 -0.5t-8 7.5q-4 35 -15.5 72t-35 76.5t-55.5 70t-80.5 50.5t-106.5 20q-114 0 -170.5 -67
t-56.5 -165q0 -28 6 -54t13 -47t24.5 -43.5t28.5 -37.5t37.5 -36t39.5 -31.5t46 -31t45.5 -28t48.5 -29.5q132 -80 179 -119q127 -113 130 -257z" />
    <glyph glyph-name="scedilla" unicode="&#x15f;" horiz-adv-x="692" 
d="M602 225q0 -94 -67.5 -164.5t-184.5 -80.5q-8 -25 -13.5 -42.5t-7 -34t-3 -25.5t5.5 -20.5t9.5 -16t19 -16t23.5 -15.5t32 -19q52 -30 82 -66t30 -92q0 -76 -54 -136t-159 -60q-57 0 -94 21t-37 59q0 26 18.5 42.5t43.5 16.5q24 0 39.5 -15.5t22 -33.5t25 -33.5
t48.5 -15.5q32 0 50 19.5t18 56.5q0 54 -38.5 96t-136.5 96q-26 13 -28 21.5t10 39.5q21 50 63 170h-8q-106 0 -196 62q-13 10 -13 24l-4 160q0 5 11 6.5t12 -4.5q38 -102 102 -155.5t148 -53.5q66 0 101 33t32 96q-1 34 -13.5 62.5t-27.5 47.5t-44.5 39t-49 30t-56.5 28
q-29 14 -42.5 21.5t-39 22.5t-39 26.5t-31 30.5t-26.5 37.5t-15.5 43.5t-6.5 54q0 57 24 102t64 71.5t88.5 40t101.5 13.5q81 0 150 -31q20 -8 20 -22q0 -20 -3 -70t-3 -80q0 -4 -11.5 -4t-11.5 4q0 65 -69.5 113.5t-145.5 48.5q-52 0 -82 -26.5t-30 -81.5q0 -32 11.5 -59
t26 -45.5t43.5 -38.5t48.5 -31t56.5 -29q41 -21 62 -32t55 -35t50.5 -45t30 -54.5t13.5 -71.5z" />
    <glyph glyph-name="Scaron" unicode="&#x160;" horiz-adv-x="1005" 
d="M500 1407l-211 199q-2 2 0 5.5t6 6.5t6 2l223 -117l221 117q3 2 7.5 -0.5t5.5 -6.5t-2 -7l-209 -199q-9 -9 -23.5 -9t-23.5 9zM297 1040q0 -28 6 -54t13 -47t24.5 -43.5t28.5 -37.5t37.5 -36t39.5 -31.5t46 -31t45.5 -28t48.5 -29.5q132 -80 179 -119q127 -113 130 -257
q0 -152 -112.5 -251.5t-309.5 -99.5q-151 0 -289 72q-15 9 -18 39l-27 279q-1 6 4.5 8.5t12 1.5t8.5 -6q14 -67 40.5 -126.5t68.5 -114.5t105.5 -87.5t141.5 -32.5q103 0 173.5 56.5t70.5 179.5q0 56 -17.5 104.5t-40.5 82t-67 70t-75 57t-87 54.5q-7 4 -10 6
q-48 29 -73.5 45.5t-66 45.5t-62.5 54t-45.5 59.5t-33.5 74.5t-10 86q0 103 57 177.5t141.5 108.5t182.5 34q126 0 240 -50q32 -13 32 -34l13 -236q0 -5 -5.5 -7t-11.5 -0.5t-8 7.5q-4 35 -15.5 72t-35 76.5t-55.5 70t-80.5 50.5t-106.5 20q-114 0 -170.5 -67t-56.5 -165z
" />
    <glyph glyph-name="scaron" unicode="&#x161;" horiz-adv-x="692" 
d="M188 1487q-1 4 4.5 6.5t11.5 2.5t7 -3l141 -338l140 338q1 3 7 3t10.5 -2.5t2.5 -6.5l-137 -510q-3 -11 -22.5 -11t-24.5 11zM205 666q0 -32 11.5 -59t26 -45.5t43.5 -38.5t48.5 -31t56.5 -29q41 -21 62 -32t55 -35t50.5 -45t30 -54.5t13.5 -71.5q0 -102 -78.5 -175
t-212.5 -73q-106 0 -196 62q-13 10 -13 24l-4 160q0 5 11 6.5t12 -4.5q38 -102 102 -155.5t148 -53.5q66 0 101 33t32 96q-1 34 -13.5 62.5t-27.5 47.5t-44.5 39t-49 30t-56.5 28q-29 14 -42.5 21.5t-39 22.5t-39 26.5t-31 30.5t-26.5 37.5t-15.5 43.5t-6.5 54q0 57 24 102
t64 71.5t88.5 40t101.5 13.5q81 0 150 -31q20 -8 20 -22q0 -20 -3 -70t-3 -80q0 -4 -11.5 -4t-11.5 4q0 65 -69.5 113.5t-145.5 48.5q-52 0 -82 -26.5t-30 -81.5z" />
    <glyph glyph-name="uni0162" unicode="&#x162;" horiz-adv-x="1298" 
d="M1202 1331q2 7 12.5 7t10.5 -7q-6 -59 -12.5 -192.5t-6.5 -182.5q0 -6 -11 -6t-13 6q-6 158 -65.5 222.5t-196.5 64.5q-47 0 -75 -1.5t-53 -6.5t-36.5 -13t-20.5 -24t-11.5 -36t-2.5 -52v-944q0 -63 14.5 -91t55 -39t129.5 -11q6 0 6 -12.5t-6 -12.5q-32 0 -117 2t-141 2
q-24 -73 -25.5 -107.5t15 -56t65.5 -49.5q52 -30 82 -66t30 -92q0 -76 -54 -136t-159 -60q-57 0 -94 21t-37 59q0 26 18.5 42.5t43.5 16.5t40 -15.5t21.5 -33.5t25 -33.5t48.5 -15.5q32 0 50 19.5t18 56.5q0 54 -38.5 96t-136.5 96q-26 13 -28 21.5t10 39.5q28 71 74 197
q-49 0 -131.5 -2t-114.5 -2q-5 0 -5 12.5t5 12.5q88 0 129 11t56.5 39.5t15.5 90.5v948q0 32 -2.5 52.5t-12.5 35.5t-21 22.5t-37.5 12t-52 5.5t-73.5 1q-129 0 -194 -66t-91 -223q-2 -5 -13 -4.5t-11 6.5q8 56 18 180t10 189q0 9 12.5 9.5t12.5 -9.5q0 -45 109 -45
q175 -6 411 -6q108 0 231.5 3t164.5 3q74 0 109.5 10t45.5 41z" />
    <glyph glyph-name="uni0163" unicode="&#x163;" horiz-adv-x="692" 
d="M635 102q7 7 14 -5q4 -8 -2 -13q-75 -59 -135.5 -84t-126.5 -25q-11 -33 -17 -53t-4.5 -38.5t3 -26.5t17.5 -22t26 -20t41 -24q52 -30 82 -66t30 -92q0 -76 -54 -136t-159 -60q-57 0 -94 21t-37 59q0 26 18.5 42.5t43.5 16.5t40 -15.5t21.5 -33.5t25 -33.5t48.5 -15.5
q67 0 67 76q0 54 -38 96t-136 96q-26 13 -28 21.5t10 39.5q21 50 63 170q-74 5 -120 44.5t-46 121.5v482q0 74 -17.5 93t-86.5 19q-8 0 -8 14.5t8 14.5q82 0 133 42t59 112q0 8 15.5 8t15.5 -8v-152q130 3 285 18q5 0 9.5 -13t4.5 -32q0 -11 -3.5 -23.5t-8.5 -20.5t-10 -7
q-111 30 -277 33v-510q0 -166 162 -166q92 0 166 55z" />
    <glyph glyph-name="Tcaron" unicode="&#x164;" horiz-adv-x="1298" 
d="M625 1407l-211 199q-2 2 0 5.5t6 6.5t6 2l223 -117l221 117q3 2 7.5 -0.5t5.5 -6.5t-2 -7l-209 -199q-9 -9 -23.5 -9t-23.5 9zM387 1243q-129 0 -194 -66t-91 -223q-2 -5 -13 -4.5t-11 6.5q8 56 18 180t10 189q0 9 12.5 9.5t12.5 -9.5q0 -45 109 -45q175 -6 411 -6
q108 0 231.5 3t164.5 3q74 0 109.5 10t45.5 41q2 7 12.5 7t10.5 -7q-6 -59 -12.5 -192.5t-6.5 -182.5q0 -6 -11 -6t-13 6q-6 158 -65.5 222.5t-196.5 64.5q-47 0 -75 -1.5t-53 -6.5t-36.5 -13t-20.5 -24t-11.5 -36t-2.5 -52v-944q0 -63 14.5 -91t55 -39t129.5 -11
q6 0 6 -12.5t-6 -12.5q-33 0 -121.5 2t-147.5 2q-53 0 -142.5 -2t-123.5 -2q-5 0 -5 12.5t5 12.5q88 0 129 11t56.5 39.5t15.5 90.5v948q0 32 -2.5 52.5t-12.5 35.5t-21 22.5t-37.5 12t-52 5.5t-73.5 1z" />
    <glyph glyph-name="tcaron" unicode="&#x165;" horiz-adv-x="692" 
d="M440 887q-2 -4 -12 -3.5t-10 5.5l-17 557q0 15 52 -15q51 -31 53 -47zM635 102q7 7 14 -5q4 -8 -2 -13q-75 -59 -135.5 -84t-126.5 -25q-85 0 -141 39.5t-56 128.5v482q0 74 -17.5 93t-86.5 19q-8 0 -8 14.5t8 14.5q82 0 133 42t59 112q0 8 15.5 8t15.5 -8v-152
q130 3 285 18q5 0 9.5 -13t4.5 -32q0 -11 -3.5 -23.5t-8.5 -20.5t-10 -7q-111 30 -277 33v-510q0 -166 162 -166q92 0 166 55z" />
    </font>
</defs>
</svg>
