<svg width="162" height="26" viewBox="0 0 162 26" fill="none" xmlns="http://www.w3.org/2000/svg">
<g clip-path="url(#clip0_1_15)">
<path d="M32.3193 9.54823C31.9993 10.0882 31.5693 10.5582 31.0293 10.9582C30.5093 11.3382 29.9293 11.6582 29.2893 11.9182C28.6693 12.1582 28.0293 12.3382 27.3693 12.4582C26.7293 12.5782 26.1293 12.6482 25.5693 12.6682C26.0693 12.8282 26.6093 13.0382 27.1893 13.2982C27.7893 13.5382 28.3593 13.8382 28.8993 14.1982C29.4393 14.5382 29.9193 14.9382 30.3393 15.3982C30.7793 15.8582 31.0793 16.3682 31.2393 16.9282C31.4993 17.8482 31.5293 18.7082 31.3293 19.5082C31.1293 20.2882 30.7593 21.0082 30.2193 21.6682C29.6793 22.3282 29.0093 22.9082 28.2093 23.4082C27.4093 23.8882 26.5393 24.2782 25.5993 24.5782C24.6793 24.8982 23.7293 25.1182 22.7493 25.2382C21.7693 25.3582 20.8293 25.3582 19.9293 25.2382C18.0293 24.9982 16.4493 24.6982 15.1893 24.3382C13.9493 23.9782 12.8693 23.5882 11.9493 23.1682C10.7893 24.0282 9.56925 24.6382 8.28925 24.9982C7.00925 25.3582 5.67925 25.4482 4.29925 25.2682C3.27925 25.1482 2.47925 24.8682 1.89925 24.4282C1.31925 24.0082 0.939255 23.5282 0.759255 22.9882C0.599255 22.4482 0.619255 21.9082 0.819255 21.3682C1.01925 20.8282 1.38925 20.3782 1.92925 20.0182C2.46925 19.6382 3.16925 19.4082 4.02925 19.3282C4.88925 19.2482 5.87925 19.4082 6.99925 19.8082C7.55925 20.0282 8.17925 20.3382 8.85925 20.7382C9.55925 21.1382 10.3893 21.5682 11.3493 22.0282C12.3493 21.0682 13.2593 19.8782 14.0793 18.4582C14.8993 17.0382 15.7293 15.5282 16.5693 13.9282C17.4093 12.3282 18.3093 10.7082 19.2693 9.06823C20.2293 7.40823 21.3493 5.86823 22.6293 4.44823L24.3393 2.49823C22.6593 2.21823 20.8293 2.09823 18.8493 2.13823C16.8893 2.15823 14.8893 2.38823 12.8493 2.82823C11.4693 3.12823 10.2393 3.55823 9.15925 4.11823C8.09925 4.67823 7.19925 5.30823 6.45925 6.00823C5.71925 6.68823 5.14925 7.40823 4.74925 8.16823C4.36925 8.90823 4.15925 9.61823 4.11925 10.2982C4.09925 10.9582 4.25925 11.5482 4.59925 12.0682C4.95925 12.5882 5.50925 12.9582 6.24925 13.1782C7.12925 13.4582 7.90925 13.4882 8.58925 13.2682C9.28925 13.0282 9.86925 12.6982 10.3293 12.2782C10.8093 11.8582 11.1593 11.4182 11.3793 10.9582C11.6193 10.4782 11.7193 10.1282 11.6793 9.90823C11.6793 9.86823 11.7093 9.82823 11.7693 9.78823C11.8493 9.74823 11.9193 9.72823 11.9793 9.72823C12.0593 9.72823 12.1293 9.75823 12.1893 9.81823C12.2693 9.87823 12.3093 9.98823 12.3093 10.1482V10.1782C12.1893 10.9182 11.9093 11.5782 11.4693 12.1582C11.0493 12.7182 10.5393 13.1682 9.93925 13.5082C9.33925 13.8482 8.68925 14.0582 7.98925 14.1382C7.28925 14.2182 6.60925 14.1382 5.94925 13.8982C4.92925 13.5382 4.14925 13.0182 3.60925 12.3382C3.08925 11.6582 2.80925 10.9082 2.76925 10.0882C2.72925 9.26823 2.91925 8.40823 3.33925 7.50823C3.75925 6.60823 4.40925 5.75823 5.28925 4.95823C6.16925 4.15823 7.26925 3.45823 8.58925 2.85823C9.92925 2.25823 11.4793 1.82823 13.2393 1.56823C15.3393 1.26823 17.3893 1.14823 19.3893 1.20823C21.4093 1.24823 23.2993 1.45823 25.0593 1.83823C25.3193 1.61823 25.5893 1.41823 25.8693 1.23823C26.1693 1.05823 26.4493 0.918232 26.7093 0.818232C27.1893 0.618233 27.4493 0.588232 27.4893 0.728232C27.5293 0.868232 27.3693 1.04823 27.0093 1.26823C26.8093 1.40823 26.6193 1.55823 26.4393 1.71823C26.2793 1.87823 26.1793 1.99823 26.1393 2.07823C27.4193 2.41823 28.5593 2.83823 29.5593 3.33823C30.5593 3.81823 31.3493 4.37823 31.9293 5.01823C32.5093 5.63823 32.8393 6.33823 32.9193 7.11823C33.0193 7.87823 32.8193 8.68823 32.3193 9.54823ZM28.5993 3.75823C28.1993 3.55823 27.7593 3.38823 27.2793 3.24823C26.7993 3.08823 26.2993 2.94823 25.7793 2.82823C24.7793 4.20823 23.7693 5.75823 22.7493 7.47823C21.7493 9.19823 20.7493 10.9182 19.7493 12.6382C18.7493 14.3582 17.7493 16.0082 16.7493 17.5882C15.7493 19.1482 14.7493 20.4682 13.7493 21.5482C13.5493 21.7482 13.3593 21.9382 13.1793 22.1182C12.9993 22.2782 12.8093 22.4482 12.6093 22.6282C13.5493 23.0282 14.6093 23.3882 15.7893 23.7082C16.9693 24.0282 18.3393 24.2682 19.8993 24.4282C21.1993 24.5482 22.3993 24.4482 23.4993 24.1282C24.6193 23.8082 25.5893 23.3582 26.4093 22.7782C27.2293 22.1982 27.8793 21.5282 28.3593 20.7682C28.8593 19.9882 29.1393 19.2082 29.1993 18.4282C29.2593 17.6482 29.0793 16.9082 28.6593 16.2082C28.2593 15.4882 27.5793 14.8982 26.6193 14.4382C26.0393 14.1582 25.4293 13.9182 24.7893 13.7182C24.1693 13.5182 23.5893 13.3382 23.0493 13.1782C22.5293 12.9982 22.0793 12.8382 21.6993 12.6982C21.3393 12.5582 21.1193 12.4082 21.0393 12.2482C21.0393 11.9882 21.1493 11.8282 21.3693 11.7682C21.6093 11.6882 21.9293 11.6582 22.3293 11.6782C22.7293 11.6782 23.1893 11.7082 23.7093 11.7682C24.2493 11.8082 24.8093 11.8282 25.3893 11.8282C26.0093 11.8282 26.6493 11.6882 27.3093 11.4082C27.9693 11.1082 28.5693 10.7382 29.1093 10.2982C29.6493 9.83823 30.0993 9.31823 30.4593 8.73823C30.8193 8.15823 31.0093 7.57823 31.0293 6.99823C31.0693 6.39823 30.8993 5.81823 30.5193 5.25823C30.1593 4.69823 29.5193 4.19823 28.5993 3.75823ZM10.6893 22.5982C9.98925 22.2582 9.29925 21.9182 8.61926 21.5782C7.93925 21.2382 7.14925 20.9082 6.24925 20.5882C5.48925 20.3282 4.83925 20.2382 4.29925 20.3182C3.75925 20.3782 3.32925 20.5482 3.00925 20.8282C2.70925 21.1082 2.51925 21.4482 2.43925 21.8482C2.37925 22.2282 2.42925 22.6082 2.58925 22.9882C2.76925 23.3682 3.05925 23.6982 3.45925 23.9782C3.85925 24.2382 4.38925 24.3882 5.04925 24.4282C6.14925 24.4682 7.15926 24.3282 8.07926 24.0082C9.01925 23.6682 9.88925 23.1982 10.6893 22.5982Z" fill="#76706C"/>
<path d="M41.1097 18.5782C40.8297 19.1782 40.5297 19.8182 40.2097 20.4982C39.8897 21.1582 39.5097 21.7782 39.0697 22.3582C38.6297 22.9182 38.1097 23.3882 37.5097 23.7682C36.9297 24.1282 36.2197 24.3082 35.3797 24.3082C34.6197 24.3082 33.9497 24.0682 33.3697 23.5882C32.8097 23.1082 32.5197 22.3882 32.4997 21.4282C32.4997 20.9882 32.5497 20.5182 32.6497 20.0182C32.7697 19.5182 32.9297 19.0282 33.1297 18.5482C33.3497 18.0482 33.5997 17.5682 33.8797 17.1082C34.1597 16.6482 34.4697 16.2182 34.8097 15.8182C35.1897 15.3782 35.6097 14.9782 36.0697 14.6182C36.5297 14.2582 36.9897 13.9882 37.4497 13.8082C37.9097 13.6082 38.3497 13.5082 38.7697 13.5082C39.2097 13.5082 39.5997 13.6282 39.9397 13.8682C40.2197 14.0882 40.3797 14.3682 40.4197 14.7082C40.4797 15.0482 40.4297 15.4282 40.2697 15.8482C40.1097 16.2482 39.8597 16.6582 39.5197 17.0782C39.1797 17.4982 38.7697 17.8882 38.2897 18.2482C38.0497 18.4282 37.7597 18.5982 37.4197 18.7582C37.0997 18.9182 36.7597 19.0582 36.3997 19.1782C36.0397 19.2982 35.6997 19.3982 35.3797 19.4782C35.0597 19.5382 34.7997 19.5682 34.5997 19.5682C34.4797 19.8482 34.3697 20.2182 34.2697 20.6782C34.1897 21.1382 34.1597 21.5882 34.1797 22.0282C34.2197 22.4682 34.3397 22.8582 34.5397 23.1982C34.7597 23.5182 35.1197 23.6782 35.6197 23.6782C36.2797 23.6782 36.8697 23.4882 37.3897 23.1082C37.9297 22.7082 38.3997 22.2382 38.7997 21.6982C39.2197 21.1582 39.5697 20.5982 39.8497 20.0182C40.1497 19.4382 40.3897 18.9482 40.5697 18.5482C40.6297 18.4082 40.6997 18.3082 40.7797 18.2482C40.8797 18.1682 40.9597 18.1282 41.0197 18.1282C41.0997 18.1282 41.1497 18.1682 41.1697 18.2482C41.2097 18.3082 41.1897 18.4182 41.1097 18.5782ZM37.9897 17.7382C38.3897 17.3982 38.7197 17.0182 38.9797 16.5982C39.2597 16.1782 39.4497 15.7882 39.5497 15.4282C39.6497 15.0682 39.6697 14.7682 39.6097 14.5282C39.5497 14.2882 39.3997 14.1782 39.1597 14.1982C38.9197 14.1982 38.5897 14.3582 38.1697 14.6782C37.7497 14.9782 37.2297 15.4982 36.6097 16.2382C36.2097 16.7182 35.8397 17.2382 35.4997 17.7982C35.1797 18.3582 34.9497 18.7782 34.8097 19.0582C34.9497 19.0582 35.1397 19.0382 35.3797 18.9982C35.6197 18.9382 35.8897 18.8582 36.1897 18.7582C36.4897 18.6382 36.7897 18.4982 37.0897 18.3382C37.4097 18.1582 37.7097 17.9582 37.9897 17.7382Z" fill="#76706C"/>
<path d="M48.8525 18.6982C48.6325 19.1582 48.3725 19.6782 48.0725 20.2582C47.7725 20.8382 47.4425 21.3982 47.0825 21.9382C46.7225 22.4782 46.3225 22.9582 45.8825 23.3782C45.4425 23.7782 44.9825 24.0382 44.5025 24.1582C44.2425 24.2182 43.9525 24.2082 43.6325 24.1282C43.3325 24.0282 43.0725 23.8282 42.8525 23.5282C42.6325 23.2282 42.5025 22.8282 42.4625 22.3282C42.4225 21.8082 42.5525 21.1582 42.8525 20.3782C42.9725 20.0782 43.1125 19.7582 43.2725 19.4182C43.4525 19.0782 43.6325 18.7482 43.8125 18.4282C44.0125 18.1082 44.1925 17.8082 44.3525 17.5282C44.5125 17.2482 44.6325 17.0182 44.7125 16.8382C44.9325 16.3382 44.8125 15.9882 44.3525 15.7882C43.8925 15.5682 43.2425 15.4482 42.4025 15.4282L42.0425 16.3882C41.8625 16.8682 41.6425 17.4182 41.3825 18.0382C41.1225 18.6382 40.8325 19.2582 40.5125 19.8982C40.1925 20.5182 39.8525 21.1082 39.4925 21.6682C39.1325 22.2082 38.7725 22.6582 38.4125 23.0182C38.2925 23.1182 38.2025 23.1182 38.1425 23.0182C38.0625 22.8982 38.0725 22.7682 38.1725 22.6282C38.7725 21.8482 39.3225 20.9982 39.8225 20.0782C40.3225 19.1382 40.7625 18.1882 41.1425 17.2282C41.5425 16.2482 41.8725 15.2782 42.1325 14.3182C42.4125 13.3582 42.6325 12.4582 42.7925 11.6182C42.8725 11.1982 43.0325 10.9282 43.2725 10.8082C43.5125 10.6682 43.7425 10.6582 43.9625 10.7782C44.2025 10.8982 44.3925 11.1282 44.5325 11.4682C44.6925 11.7882 44.7225 12.1982 44.6225 12.6982C44.5225 13.1182 44.2825 13.5182 43.9025 13.8982C43.5425 14.2582 43.2325 14.5282 42.9725 14.7082C43.5325 14.7482 44.1725 14.7582 44.8925 14.7382C45.6325 14.7182 46.3725 14.6682 47.1125 14.5882C47.1725 14.6882 47.1825 14.8382 47.1425 15.0382C47.1225 15.2182 47.0725 15.4182 46.9925 15.6382C46.9325 15.8382 46.8525 16.0582 46.7525 16.2982C46.6525 16.5182 46.5625 16.7182 46.4825 16.8982C46.4025 17.0582 46.2625 17.3282 46.0625 17.7082C45.8825 18.0882 45.6725 18.5182 45.4325 18.9982C45.2125 19.4582 44.9925 19.9482 44.7725 20.4682C44.5725 20.9882 44.4225 21.4682 44.3225 21.9082C44.2225 22.3282 44.1925 22.6782 44.2325 22.9582C44.2925 23.2382 44.4725 23.3882 44.7725 23.4082C45.0725 23.4082 45.4025 23.2082 45.7625 22.8082C46.1425 22.4082 46.5025 21.9382 46.8425 21.3982C47.2025 20.8582 47.5225 20.3082 47.8025 19.7482C48.1025 19.1682 48.3325 18.7182 48.4925 18.3982C48.6325 18.1382 48.7625 18.0482 48.8825 18.1282C49.0225 18.2082 49.0125 18.3982 48.8525 18.6982Z" fill="#76706C"/>
<path d="M49.4755 19.8682C49.3555 20.1282 49.2555 20.3382 49.1755 20.4982C49.0955 20.6582 49.0055 20.8582 48.9055 21.0982C48.8055 21.3382 48.6655 21.6582 48.4855 22.0582C48.3055 22.4582 48.0555 23.0282 47.7355 23.7682C47.6155 23.9882 47.4755 24.1182 47.3155 24.1582C47.1555 24.1982 46.9155 24.2182 46.5955 24.2182C46.3755 24.2382 46.1955 24.2482 46.0555 24.2482C45.8955 24.2482 45.7355 24.2982 45.5755 24.3982C46.2955 22.9582 46.9755 21.5382 47.6155 20.1382C48.2755 18.7382 48.9755 17.3582 49.7155 15.9982C50.0955 15.2782 50.4255 14.7782 50.7055 14.4982C50.9855 14.2182 51.3655 14.0882 51.8455 14.1082C52.0455 14.1282 52.2455 14.1682 52.4455 14.2282C52.6655 14.2682 52.8855 14.2682 53.1055 14.2282C52.8855 14.3482 52.6155 14.6082 52.2955 15.0082C51.9955 15.4082 51.6755 15.8782 51.3355 16.4182C51.0155 16.9582 50.6855 17.5382 50.3455 18.1582C50.0255 18.7582 49.7355 19.3282 49.4755 19.8682ZM54.7855 19.8682C54.6455 20.1482 54.4955 20.4982 54.3355 20.9182C54.1955 21.3182 54.0955 21.7182 54.0355 22.1182C53.9755 22.4982 53.9855 22.8282 54.0655 23.1082C54.1655 23.3882 54.3955 23.5282 54.7555 23.5282C55.1355 23.5282 55.5255 23.3182 55.9255 22.8982C56.3455 22.4782 56.7355 21.9882 57.0955 21.4282C57.4555 20.8682 57.7755 20.3082 58.0555 19.7482C58.3555 19.1682 58.5855 18.7182 58.7455 18.3982C58.8655 18.1382 58.9955 18.0482 59.1355 18.1282C59.2955 18.1882 59.3055 18.3682 59.1655 18.6682C58.9455 19.1282 58.6655 19.6782 58.3255 20.3182C58.0055 20.9582 57.6355 21.5782 57.2155 22.1782C56.7955 22.7582 56.3355 23.2582 55.8355 23.6782C55.3355 24.0982 54.7955 24.3082 54.2155 24.3082C53.9755 24.3082 53.7355 24.2482 53.4955 24.1282C53.2755 23.9882 53.0655 23.7782 52.8655 23.4982C52.7055 23.2382 52.5755 22.8482 52.4755 22.3282C52.3755 21.8082 52.4155 21.3182 52.5955 20.8582C52.8355 20.3582 53.0455 19.9182 53.2255 19.5382C53.4055 19.1382 53.5855 18.7582 53.7655 18.3982C53.9455 18.0382 54.1355 17.6682 54.3355 17.2882C54.5355 16.9082 54.7655 16.4782 55.0255 15.9982C55.4055 15.2782 55.7355 14.7782 56.0155 14.4982C56.2955 14.2182 56.6755 14.0882 57.1555 14.1082C57.3555 14.1282 57.5555 14.1682 57.7555 14.2282C57.9755 14.2682 58.1955 14.2682 58.4155 14.2282C58.1955 14.3482 57.9255 14.6082 57.6055 15.0082C57.3055 15.4082 56.9855 15.8782 56.6455 16.4182C56.3255 16.9582 55.9955 17.5382 55.6555 18.1582C55.3355 18.7582 55.0455 19.3282 54.7855 19.8682ZM54.2755 18.2182C54.1555 18.5582 53.9455 18.8882 53.6455 19.2082C53.3455 19.5082 52.9955 19.6382 52.5955 19.5982C52.2355 19.5782 51.8755 19.4782 51.5155 19.2982C51.1755 19.0982 50.8355 18.9882 50.4955 18.9682C50.2955 18.9482 50.1155 18.9982 49.9555 19.1182C49.7955 19.2182 49.6755 19.3482 49.5955 19.5082C49.5755 19.5482 49.4955 19.5682 49.3555 19.5682C49.2155 19.5682 49.1655 19.5382 49.2055 19.4782C49.3655 19.1782 49.5855 18.8782 49.8655 18.5782C50.1655 18.2782 50.5155 18.1482 50.9155 18.1882C51.2955 18.2082 51.6455 18.3082 51.9655 18.4882C52.3055 18.6482 52.6455 18.7482 52.9855 18.7882C53.2255 18.8282 53.4155 18.7882 53.5555 18.6682C53.6955 18.5482 53.8155 18.3982 53.9155 18.2182C53.9555 18.1782 54.0355 18.1582 54.1555 18.1582C54.2755 18.1582 54.3155 18.1782 54.2755 18.2182Z" fill="#76706C"/>
<path d="M67.7708 16.0582C67.6108 16.2182 67.3908 16.5182 67.1108 16.9582C66.8508 17.3782 66.5708 17.8682 66.2708 18.4282C65.9908 18.9682 65.7308 19.5282 65.4908 20.1082C65.2508 20.6882 65.0808 21.2082 64.9808 21.6682C64.7408 22.8682 64.8408 23.4682 65.2808 23.4682C65.5008 23.4682 65.7308 23.3782 65.9708 23.1982C66.2108 23.0182 66.4408 22.7982 66.6608 22.5382C66.8808 22.2782 67.0908 22.0082 67.2908 21.7282C67.4908 21.4282 67.6508 21.1682 67.7708 20.9482C67.9308 20.6882 68.0808 20.5982 68.2208 20.6782C68.3808 20.7382 68.3808 20.9082 68.2208 21.1882C67.7408 22.0082 67.2208 22.7182 66.6608 23.3182C66.1008 23.8982 65.5608 24.2082 65.0408 24.2482C64.8008 24.2682 64.5408 24.2282 64.2608 24.1282C63.9808 24.0082 63.7508 23.8082 63.5708 23.5282C63.3908 23.2282 63.2808 22.8282 63.2408 22.3282C63.2208 21.8082 63.3208 21.1582 63.5408 20.3782C63.3008 20.7782 62.9908 21.2482 62.6108 21.7882C62.2308 22.3082 61.8208 22.7782 61.3808 23.1982C60.8008 23.7582 60.2608 24.0882 59.7608 24.1882C59.2808 24.2882 58.8708 24.2182 58.5308 23.9782C58.1908 23.7182 57.9408 23.3182 57.7808 22.7782C57.6408 22.2382 57.6208 21.6082 57.7208 20.8882C57.8208 20.1482 58.0608 19.3482 58.4408 18.4882C58.8408 17.6082 59.4208 16.7182 60.1808 15.8182C60.6208 15.2782 61.1508 14.8182 61.7708 14.4382C62.4108 14.0582 63.0508 13.7882 63.6908 13.6282C64.3508 13.4682 64.9808 13.4482 65.5808 13.5682C66.2008 13.6882 66.7208 13.9782 67.1408 14.4382C67.3608 14.6582 67.4208 14.8682 67.3208 15.0682C67.2408 15.2682 67.0708 15.3482 66.8108 15.3082C66.6508 14.7482 66.3208 14.4082 65.8208 14.2882C65.3408 14.1682 64.8208 14.2582 64.2608 14.5582C63.5808 14.9382 62.8808 15.5282 62.1608 16.3282C61.4408 17.1082 60.8108 17.9482 60.2708 18.8482C60.2108 18.9482 60.1208 19.1082 60.0008 19.3282C59.8808 19.5482 59.7508 19.8082 59.6108 20.1082C59.4908 20.3882 59.3708 20.6882 59.2508 21.0082C59.1508 21.3082 59.0808 21.5982 59.0408 21.8782C58.9608 22.3982 58.9908 22.7782 59.1308 23.0182C59.2908 23.2582 59.5008 23.3782 59.7608 23.3782C60.0408 23.3782 60.3608 23.2682 60.7208 23.0482C61.0808 22.8082 61.4408 22.4782 61.8008 22.0582C62.3208 21.4182 62.7908 20.7482 63.2108 20.0482C63.6508 19.3282 64.0708 18.5982 64.4708 17.8582C64.8108 17.2182 65.1108 16.7282 65.3708 16.3882C65.6508 16.0482 66.0308 15.8982 66.5108 15.9382C66.7108 15.9582 66.9108 15.9982 67.1108 16.0582C67.3308 16.0982 67.5508 16.0982 67.7708 16.0582ZM76.1708 19.8682C76.0308 20.1482 75.8808 20.4982 75.7208 20.9182C75.5808 21.3182 75.4808 21.7182 75.4208 22.1182C75.3608 22.4982 75.3708 22.8282 75.4508 23.1082C75.5508 23.3882 75.7808 23.5282 76.1408 23.5282C76.5208 23.5282 76.9108 23.3182 77.3108 22.8982C77.7308 22.4782 78.1208 21.9882 78.4808 21.4282C78.8408 20.8682 79.1608 20.3082 79.4408 19.7482C79.7408 19.1682 79.9708 18.7182 80.1308 18.3982C80.2508 18.1382 80.3808 18.0482 80.5208 18.1282C80.6808 18.1882 80.6908 18.3682 80.5508 18.6682C80.3308 19.1282 80.0508 19.6782 79.7108 20.3182C79.3908 20.9582 79.0208 21.5782 78.6008 22.1782C78.1808 22.7582 77.7208 23.2582 77.2208 23.6782C76.7208 24.0982 76.1808 24.3082 75.6008 24.3082C75.3608 24.3082 75.1208 24.2482 74.8808 24.1282C74.6608 23.9882 74.4508 23.7782 74.2508 23.4982C74.0908 23.2382 73.9808 22.8482 73.9208 22.3282C73.8808 21.8082 73.9508 21.3182 74.1308 20.8582C74.3708 20.3582 74.5808 19.9182 74.7608 19.5382C74.9608 19.1382 75.1508 18.7582 75.3308 18.3982C75.5308 18.0382 75.7308 17.6682 75.9308 17.2882C76.1508 16.9082 76.3908 16.4782 76.6508 15.9982C76.8508 15.6382 77.0108 15.3382 77.1308 15.0982C77.2708 14.8382 77.4008 14.6382 77.5208 14.4982C77.6608 14.3382 77.8008 14.2282 77.9408 14.1682C78.1008 14.1082 78.3008 14.0882 78.5408 14.1082C78.7408 14.1282 78.9408 14.1682 79.1408 14.2282C79.3608 14.2682 79.5808 14.2682 79.8008 14.2282C79.5808 14.3482 79.3108 14.6082 78.9908 15.0082C78.6908 15.4082 78.3708 15.8782 78.0308 16.4182C77.7108 16.9582 77.3808 17.5382 77.0408 18.1582C76.7208 18.7582 76.4308 19.3282 76.1708 19.8682ZM72.0308 17.3182C72.1108 16.9582 72.2308 16.5982 72.3908 16.2382C72.5708 15.8582 72.7808 15.5082 73.0208 15.1882C73.2608 14.8682 73.5308 14.5882 73.8308 14.3482C74.1508 14.1082 74.4908 13.9382 74.8508 13.8382C75.3908 13.6782 75.8608 13.6382 76.2608 13.7182C76.6608 13.7982 76.9608 13.9782 77.1608 14.2582C77.3608 14.5382 77.4508 14.9182 77.4308 15.3982C77.4308 15.8782 77.2808 16.4282 76.9808 17.0482C76.5408 17.5882 76.1808 17.9982 75.9008 18.2782C75.6608 18.5182 75.4808 18.6582 75.3608 18.6982C75.2408 18.7382 75.3108 18.5182 75.5708 18.0382C75.8308 17.5582 76.0608 17.0982 76.2608 16.6582C76.4608 16.2182 76.5908 15.8282 76.6508 15.4882C76.7108 15.1482 76.6808 14.8782 76.5608 14.6782C76.4408 14.4582 76.1908 14.3382 75.8108 14.3182C75.5308 14.2982 75.2508 14.3582 74.9708 14.4982C74.7108 14.6182 74.4808 14.8182 74.2808 15.0982C74.0608 15.3982 73.8208 15.7482 73.5608 16.1482C73.3208 16.5482 73.1408 16.9182 73.0208 17.2582C72.9408 17.4582 72.8908 17.6982 72.8708 17.9782C72.8508 18.2582 72.8908 18.5182 72.9908 18.7582C73.0908 18.9782 73.2808 19.1582 73.5608 19.2982C73.8608 19.4182 74.2908 19.4382 74.8508 19.3582C75.1308 19.3182 75.2708 19.3782 75.2708 19.5382C75.2708 19.6782 75.0708 19.7682 74.6708 19.8082C74.0108 19.8882 73.4908 19.8582 73.1108 19.7182C72.7308 19.5582 72.4508 19.3482 72.2708 19.0882C72.0908 18.8282 71.9908 18.5382 71.9708 18.2182C71.9508 17.8982 71.9708 17.5982 72.0308 17.3182ZM74.3708 19.7482C74.0508 20.3282 73.7208 20.8982 73.3808 21.4582C73.0608 21.9982 72.7108 22.4782 72.3308 22.8982C71.9508 23.3182 71.5508 23.6582 71.1308 23.9182C70.7108 24.1782 70.2608 24.3082 69.7808 24.3082C68.6208 24.3082 67.8208 23.8982 67.3808 23.0782C67.1208 22.5982 66.9808 22.1882 66.9608 21.8482C66.9608 21.4882 67.0208 21.2082 67.1408 21.0082C67.2808 20.7882 67.4508 20.6482 67.6508 20.5882C67.8508 20.5082 68.0208 20.5082 68.1608 20.5882C68.3208 20.6482 68.4208 20.7882 68.4608 21.0082C68.5208 21.2282 68.4608 21.5182 68.2808 21.8782C68.2008 22.0582 68.1808 22.2482 68.2208 22.4482C68.2608 22.6282 68.3308 22.7982 68.4308 22.9582C68.5508 23.1182 68.6908 23.2582 68.8508 23.3782C69.0308 23.4782 69.2308 23.5282 69.4508 23.5282C69.7908 23.5482 70.0808 23.5182 70.3208 23.4382C70.5808 23.3382 70.8208 23.1882 71.0408 22.9882C71.5008 22.5882 71.9408 22.0982 72.3608 21.5182C72.8008 20.9382 73.2008 20.3282 73.5608 19.6882C73.6008 19.6482 73.7408 19.6482 73.9808 19.6882C74.0808 19.7082 74.2108 19.7282 74.3708 19.7482Z" fill="#76706C"/>
<path d="M98.3884 18.6682C98.1684 19.1282 97.8884 19.6782 97.5484 20.3182C97.2284 20.9582 96.8584 21.5782 96.4384 22.1782C96.0184 22.7582 95.5584 23.2582 95.0584 23.6782C94.5584 24.0982 94.0184 24.3082 93.4384 24.3082C93.1784 24.3082 92.9084 24.2582 92.6284 24.1582C92.3484 24.0582 92.1084 23.8782 91.9084 23.6182C91.7284 23.3382 91.6184 22.9782 91.5784 22.5382C91.5384 22.0782 91.6284 21.4982 91.8484 20.7982C91.9684 20.3982 92.1684 19.9482 92.4484 19.4482C92.7284 18.9282 93.0784 18.3282 93.4984 17.6482C93.6784 17.3482 93.7784 17.0882 93.7984 16.8682C93.8184 16.6482 93.7384 16.5182 93.5584 16.4782C93.3984 16.4382 93.1384 16.5182 92.7784 16.7182C92.4184 16.9182 91.9484 17.2882 91.3684 17.8282C90.8484 18.2882 90.2284 18.9782 89.5084 19.8982C88.8084 20.8182 88.0384 22.1082 87.1984 23.7682C87.0784 23.9882 86.9384 24.1182 86.7784 24.1582C86.6184 24.1982 86.3784 24.2182 86.0584 24.2182C85.8384 24.2382 85.6584 24.2482 85.5184 24.2482C85.3584 24.2482 85.1984 24.2982 85.0384 24.3982C85.7584 22.9582 86.4384 21.5382 87.0784 20.1382C87.7384 18.7382 88.4384 17.3582 89.1784 15.9982C89.5584 15.2782 89.8884 14.7782 90.1684 14.4982C90.4484 14.2182 90.8284 14.0882 91.3084 14.1082C91.5084 14.1282 91.7084 14.1682 91.9084 14.2282C92.1284 14.2682 92.3484 14.2682 92.5684 14.2282C92.3484 14.3482 92.0784 14.6082 91.7584 15.0082C91.4584 15.4082 91.1384 15.8782 90.7984 16.4182C90.4784 16.9582 90.1484 17.5382 89.8084 18.1582C89.4884 18.7582 89.1984 19.3282 88.9384 19.8682C89.2384 19.4882 89.6084 19.0482 90.0484 18.5482C90.5084 18.0282 90.9684 17.5682 91.4284 17.1682C91.7884 16.8482 92.2284 16.5082 92.7484 16.1482C93.2884 15.7682 93.8284 15.4382 94.3684 15.1582C94.9084 14.8582 95.4084 14.6282 95.8684 14.4682C96.3484 14.3082 96.7184 14.2682 96.9784 14.3482C96.3784 15.4282 95.8284 16.4582 95.3284 17.4382C95.1084 17.8582 94.8884 18.2882 94.6684 18.7282C94.4684 19.1682 94.2784 19.5982 94.0984 20.0182C93.9184 20.4182 93.7584 20.7982 93.6184 21.1582C93.4984 21.5182 93.4184 21.8282 93.3784 22.0882C93.2584 22.7082 93.2584 23.1182 93.3784 23.3182C93.4984 23.4982 93.6584 23.5882 93.8584 23.5882C94.2384 23.5882 94.6384 23.3782 95.0584 22.9582C95.4784 22.5382 95.8784 22.0482 96.2584 21.4882C96.6384 20.9082 96.9784 20.3282 97.2784 19.7482C97.5784 19.1682 97.8084 18.7182 97.9684 18.3982C98.0884 18.1382 98.2184 18.0482 98.3584 18.1282C98.5184 18.1882 98.5284 18.3682 98.3884 18.6682Z" fill="#76706C"/>
<path d="M107.087 16.0582C106.927 16.2182 106.707 16.5182 106.427 16.9582C106.167 17.3782 105.887 17.8682 105.587 18.4282C105.307 18.9682 105.047 19.5282 104.807 20.1082C104.567 20.6882 104.397 21.2082 104.297 21.6682C104.057 22.8682 104.157 23.4682 104.597 23.4682C104.817 23.4682 105.047 23.3782 105.287 23.1982C105.527 23.0182 105.757 22.7982 105.977 22.5382C106.197 22.2782 106.407 22.0082 106.607 21.7282C106.807 21.4282 106.967 21.1682 107.087 20.9482C107.247 20.6882 107.397 20.5982 107.537 20.6782C107.697 20.7382 107.697 20.9082 107.537 21.1882C107.057 22.0082 106.537 22.7182 105.977 23.3182C105.417 23.8982 104.877 24.2082 104.357 24.2482C104.117 24.2682 103.857 24.2282 103.577 24.1282C103.297 24.0082 103.067 23.8082 102.887 23.5282C102.707 23.2282 102.597 22.8282 102.557 22.3282C102.537 21.8082 102.637 21.1582 102.857 20.3782C102.617 20.7782 102.307 21.2482 101.927 21.7882C101.547 22.3082 101.137 22.7782 100.697 23.1982C100.117 23.7582 99.5772 24.0882 99.0772 24.1882C98.5972 24.2882 98.1872 24.2182 97.8472 23.9782C97.5072 23.7182 97.2572 23.3182 97.0972 22.7782C96.9572 22.2382 96.9372 21.6082 97.0372 20.8882C97.1372 20.1482 97.3772 19.3482 97.7572 18.4882C98.1572 17.6082 98.7372 16.7182 99.4972 15.8182C99.9372 15.2782 100.467 14.8182 101.087 14.4382C101.727 14.0582 102.367 13.7882 103.007 13.6282C103.667 13.4682 104.297 13.4482 104.897 13.5682C105.517 13.6882 106.037 13.9782 106.457 14.4382C106.677 14.6582 106.737 14.8682 106.637 15.0682C106.557 15.2682 106.387 15.3482 106.127 15.3082C105.967 14.7482 105.637 14.4082 105.137 14.2882C104.657 14.1682 104.137 14.2582 103.577 14.5582C102.897 14.9382 102.197 15.5282 101.477 16.3282C100.757 17.1082 100.127 17.9482 99.5872 18.8482C99.5272 18.9482 99.4372 19.1082 99.3172 19.3282C99.1972 19.5482 99.0672 19.8082 98.9272 20.1082C98.8072 20.3882 98.6872 20.6882 98.5672 21.0082C98.4672 21.3082 98.3972 21.5982 98.3572 21.8782C98.2772 22.3982 98.3072 22.7782 98.4472 23.0182C98.6072 23.2582 98.8172 23.3782 99.0772 23.3782C99.3572 23.3782 99.6772 23.2682 100.037 23.0482C100.397 22.8082 100.757 22.4782 101.117 22.0582C101.637 21.4182 102.107 20.7482 102.527 20.0482C102.967 19.3282 103.387 18.5982 103.787 17.8582C104.127 17.2182 104.427 16.7282 104.687 16.3882C104.967 16.0482 105.347 15.8982 105.827 15.9382C106.027 15.9582 106.227 15.9982 106.427 16.0582C106.647 16.0982 106.867 16.0982 107.087 16.0582ZM115.517 24.1582C115.177 24.1382 114.877 24.0482 114.617 23.8882C114.357 23.7082 114.157 23.4582 114.017 23.1382C113.897 22.7982 113.837 22.3982 113.837 21.9382C113.837 21.4582 113.937 20.9182 114.137 20.3182C114.277 19.8782 114.447 19.4082 114.647 18.9082C114.847 18.4082 115.057 17.9082 115.277 17.4082C115.517 16.8882 115.747 16.3782 115.967 15.8782C116.207 15.3782 116.417 14.9182 116.597 14.4982C116.717 14.2582 116.867 14.0982 117.047 14.0182C117.247 13.9182 117.487 13.8682 117.767 13.8682H119.387C119.167 14.0482 118.977 14.2182 118.817 14.3782C118.657 14.5182 118.497 14.6982 118.337 14.9182C118.197 15.1182 118.047 15.3782 117.887 15.6982C117.727 15.9982 117.537 16.3782 117.317 16.8382C117.097 17.2582 116.877 17.6982 116.657 18.1582C116.457 18.5982 116.257 19.0382 116.057 19.4782C115.877 19.8982 115.717 20.2982 115.577 20.6782C115.437 21.0382 115.347 21.3482 115.307 21.6082C115.167 22.2482 115.167 22.6982 115.307 22.9582C115.467 23.2182 115.657 23.3682 115.877 23.4082C116.277 23.4682 116.667 23.3182 117.047 22.9582C117.447 22.5982 117.827 22.1282 118.187 21.5482C118.547 20.9482 118.887 20.2882 119.207 19.5682C119.547 18.8282 119.867 18.1182 120.167 17.4382C120.467 16.7382 120.747 16.1182 121.007 15.5782C121.287 15.0382 121.547 14.6582 121.787 14.4382C121.947 14.2782 122.107 14.1582 122.267 14.0782C122.427 13.9982 122.617 13.9482 122.837 13.9282C123.057 13.8882 123.307 13.8682 123.587 13.8682C123.887 13.8682 124.257 13.8682 124.697 13.8682C124.777 13.8682 124.787 13.8982 124.727 13.9582C124.667 13.9982 124.577 14.0482 124.457 14.1082C124.337 14.1682 124.187 14.2282 124.007 14.2882C123.847 14.3282 123.707 14.3482 123.587 14.3482C123.007 14.3282 122.597 14.4482 122.357 14.7082C122.137 14.9482 121.887 15.2982 121.607 15.7582C121.387 16.1382 121.157 16.6182 120.917 17.1982C120.697 17.7582 120.447 18.3582 120.167 18.9982C119.907 19.6182 119.617 20.2482 119.297 20.8882C118.977 21.5082 118.627 22.0682 118.247 22.5682C117.867 23.0482 117.447 23.4382 116.987 23.7382C116.547 24.0382 116.057 24.1782 115.517 24.1582ZM110.687 22.8382C111.087 22.4982 111.447 22.0882 111.767 21.6082C112.107 21.1082 112.417 20.5782 112.697 20.0182C112.997 19.4582 113.267 18.8882 113.507 18.3082C113.767 17.7282 114.007 17.1882 114.227 16.6882C114.447 16.1682 114.657 15.7182 114.857 15.3382C115.057 14.9382 115.267 14.6382 115.487 14.4382C115.647 14.2782 115.807 14.1582 115.967 14.0782C116.127 13.9982 116.317 13.9482 116.537 13.9282C116.757 13.8882 117.007 13.8682 117.287 13.8682C117.587 13.8682 117.957 13.8682 118.397 13.8682C118.477 13.8682 118.487 13.8982 118.427 13.9582C118.367 13.9982 118.277 14.0482 118.157 14.1082C118.037 14.1682 117.887 14.2282 117.707 14.2882C117.547 14.3282 117.407 14.3482 117.287 14.3482C116.707 14.3282 116.297 14.4482 116.057 14.7082C115.817 14.9482 115.567 15.2982 115.307 15.7582C114.987 16.3382 114.637 17.0982 114.257 18.0382C113.897 18.9782 113.477 19.9082 112.997 20.8282C112.537 21.7282 112.007 22.5082 111.407 23.1682C110.827 23.8282 110.147 24.1582 109.367 24.1582C108.887 24.1582 108.437 24.0782 108.017 23.9182C107.617 23.7382 107.287 23.4082 107.027 22.9282C106.667 22.2682 106.557 21.7382 106.697 21.3382C106.857 20.9382 107.077 20.6882 107.357 20.5882C107.637 20.4682 107.877 20.5182 108.077 20.7382C108.277 20.9382 108.247 21.3182 107.987 21.8782C107.907 22.0382 107.887 22.2082 107.927 22.3882C107.967 22.5682 108.037 22.7382 108.137 22.8982C108.257 23.0382 108.397 23.1582 108.557 23.2582C108.737 23.3382 108.917 23.3782 109.097 23.3782C109.437 23.3582 109.727 23.3182 109.967 23.2582C110.227 23.1782 110.467 23.0382 110.687 22.8382ZM122.927 14.4982C123.047 14.2582 123.197 14.0982 123.377 14.0182C123.577 13.9182 123.817 13.8682 124.097 13.8682H125.717C125.497 14.0482 125.307 14.2182 125.147 14.3782C124.987 14.5182 124.827 14.6982 124.667 14.9182C124.527 15.1182 124.377 15.3782 124.217 15.6982C124.057 15.9982 123.867 16.3782 123.647 16.8382C123.427 17.2582 123.207 17.6982 122.987 18.1582C122.787 18.5982 122.587 19.0382 122.387 19.4782C122.207 19.8982 122.047 20.2982 121.907 20.6782C121.767 21.0382 121.677 21.3482 121.637 21.6082C121.497 22.2482 121.497 22.7082 121.637 22.9882C121.797 23.2482 121.987 23.3882 122.207 23.4082C122.567 23.4082 122.927 23.2482 123.287 22.9282C123.667 22.6082 124.027 22.2082 124.367 21.7282C124.707 21.2282 125.027 20.6882 125.327 20.1082C125.647 19.5082 125.937 18.9382 126.197 18.3982C126.317 18.1382 126.447 18.0482 126.587 18.1282C126.747 18.1882 126.757 18.3682 126.617 18.6682C126.377 19.1882 126.097 19.7682 125.777 20.4082C125.457 21.0282 125.097 21.6182 124.697 22.1782C124.297 22.7382 123.857 23.2082 123.377 23.5882C122.897 23.9682 122.387 24.1582 121.847 24.1582C121.507 24.1582 121.207 24.0782 120.947 23.9182C120.687 23.7382 120.487 23.4882 120.347 23.1682C120.227 22.8282 120.167 22.4182 120.167 21.9382C120.167 21.4582 120.267 20.9182 120.467 20.3182C120.607 19.8782 120.777 19.4082 120.977 18.9082C121.177 18.4082 121.387 17.9082 121.607 17.4082C121.847 16.8882 122.077 16.3782 122.297 15.8782C122.537 15.3782 122.747 14.9182 122.927 14.4982Z" fill="#76706C"/>
<path d="M133.259 19.8682C133.119 20.1482 132.969 20.4982 132.809 20.9182C132.669 21.3182 132.569 21.7182 132.509 22.1182C132.449 22.4982 132.459 22.8282 132.539 23.1082C132.639 23.3882 132.869 23.5282 133.229 23.5282C133.609 23.5282 133.999 23.3182 134.399 22.8982C134.819 22.4782 135.209 21.9882 135.569 21.4282C135.929 20.8682 136.249 20.3082 136.529 19.7482C136.829 19.1682 137.059 18.7182 137.219 18.3982C137.339 18.1382 137.469 18.0482 137.609 18.1282C137.769 18.1882 137.779 18.3682 137.639 18.6682C137.419 19.1282 137.139 19.6782 136.799 20.3182C136.479 20.9582 136.109 21.5782 135.689 22.1782C135.269 22.7582 134.809 23.2582 134.309 23.6782C133.809 24.0982 133.269 24.3082 132.689 24.3082C132.449 24.3082 132.209 24.2482 131.969 24.1282C131.749 23.9882 131.539 23.7782 131.339 23.4982C131.179 23.2382 131.069 22.8482 131.009 22.3282C130.969 21.8082 131.039 21.3182 131.219 20.8582C131.459 20.3582 131.669 19.9182 131.849 19.5382C132.049 19.1382 132.239 18.7582 132.419 18.3982C132.619 18.0382 132.819 17.6682 133.019 17.2882C133.239 16.9082 133.479 16.4782 133.739 15.9982C133.939 15.6382 134.099 15.3382 134.219 15.0982C134.359 14.8382 134.489 14.6382 134.609 14.4982C134.749 14.3382 134.889 14.2282 135.029 14.1682C135.189 14.1082 135.389 14.0882 135.629 14.1082C135.829 14.1282 136.029 14.1682 136.229 14.2282C136.449 14.2682 136.669 14.2682 136.889 14.2282C136.669 14.3482 136.399 14.6082 136.079 15.0082C135.779 15.4082 135.459 15.8782 135.119 16.4182C134.799 16.9582 134.469 17.5382 134.129 18.1582C133.809 18.7582 133.519 19.3282 133.259 19.8682ZM129.119 17.3182C129.199 16.9582 129.319 16.5982 129.479 16.2382C129.659 15.8582 129.869 15.5082 130.109 15.1882C130.349 14.8682 130.619 14.5882 130.919 14.3482C131.239 14.1082 131.579 13.9382 131.939 13.8382C132.479 13.6782 132.949 13.6382 133.349 13.7182C133.749 13.7982 134.049 13.9782 134.249 14.2582C134.449 14.5382 134.539 14.9182 134.519 15.3982C134.519 15.8782 134.369 16.4282 134.069 17.0482C133.629 17.5882 133.269 17.9982 132.989 18.2782C132.749 18.5182 132.569 18.6582 132.449 18.6982C132.329 18.7382 132.399 18.5182 132.659 18.0382C132.919 17.5582 133.149 17.0982 133.349 16.6582C133.549 16.2182 133.679 15.8282 133.739 15.4882C133.799 15.1482 133.769 14.8782 133.649 14.6782C133.529 14.4582 133.279 14.3382 132.899 14.3182C132.619 14.2982 132.339 14.3582 132.059 14.4982C131.799 14.6182 131.569 14.8182 131.369 15.0982C131.149 15.3982 130.909 15.7482 130.649 16.1482C130.409 16.5482 130.229 16.9182 130.109 17.2582C130.029 17.4582 129.979 17.6982 129.959 17.9782C129.939 18.2582 129.979 18.5182 130.079 18.7582C130.179 18.9782 130.369 19.1582 130.649 19.2982C130.949 19.4182 131.379 19.4382 131.939 19.3582C132.219 19.3182 132.359 19.3782 132.359 19.5382C132.359 19.6782 132.159 19.7682 131.759 19.8082C131.099 19.8882 130.579 19.8582 130.199 19.7182C129.819 19.5582 129.539 19.3482 129.359 19.0882C129.179 18.8282 129.079 18.5382 129.059 18.2182C129.039 17.8982 129.059 17.5982 129.119 17.3182ZM131.459 19.7482C131.139 20.3282 130.809 20.8982 130.469 21.4582C130.149 21.9982 129.799 22.4782 129.419 22.8982C129.039 23.3182 128.639 23.6582 128.219 23.9182C127.799 24.1782 127.349 24.3082 126.869 24.3082C125.709 24.3082 124.909 23.8982 124.469 23.0782C124.209 22.5982 124.079 22.1882 124.079 21.8482C124.059 21.4882 124.119 21.2082 124.259 21.0082C124.379 20.7882 124.539 20.6482 124.739 20.5882C124.939 20.5082 125.109 20.5082 125.249 20.5882C125.409 20.6482 125.509 20.7882 125.549 21.0082C125.609 21.2282 125.549 21.5182 125.369 21.8782C125.289 22.0582 125.269 22.2482 125.309 22.4482C125.349 22.6282 125.419 22.7982 125.519 22.9582C125.639 23.1182 125.779 23.2582 125.939 23.3782C126.119 23.4782 126.319 23.5282 126.539 23.5282C126.879 23.5482 127.169 23.5182 127.409 23.4382C127.669 23.3382 127.909 23.1882 128.129 22.9882C128.589 22.5882 129.029 22.0982 129.449 21.5182C129.889 20.9382 130.289 20.3282 130.649 19.6882C130.689 19.6482 130.829 19.6482 131.069 19.6882C131.169 19.7082 131.299 19.7282 131.459 19.7482Z" fill="#76706C"/>
<path d="M152.884 18.6682C152.664 19.1282 152.384 19.6782 152.044 20.3182C151.724 20.9582 151.354 21.5782 150.934 22.1782C150.514 22.7582 150.044 23.2582 149.524 23.6782C149.024 24.0982 148.494 24.3082 147.934 24.3082C147.654 24.3082 147.374 24.2582 147.094 24.1582C146.814 24.0582 146.574 23.8782 146.374 23.6182C146.194 23.3382 146.084 22.9782 146.044 22.5382C146.004 22.0782 146.094 21.4982 146.314 20.7982C146.434 20.3982 146.634 19.9482 146.914 19.4482C147.194 18.9282 147.544 18.3282 147.964 17.6482C148.144 17.3482 148.244 17.0882 148.264 16.8682C148.284 16.6482 148.204 16.5182 148.024 16.4782C147.864 16.4382 147.604 16.5182 147.244 16.7182C146.884 16.9182 146.414 17.2882 145.834 17.8282C145.514 18.1282 145.124 18.5482 144.664 19.0882C144.224 19.6082 143.794 20.1782 143.374 20.7982C142.954 21.3982 142.574 22.0082 142.234 22.6282C141.914 23.2282 141.704 23.7482 141.604 24.1882C141.264 24.1882 140.994 24.0282 140.794 23.7082C140.614 23.3682 140.564 22.9782 140.644 22.5382C140.744 21.8782 140.914 21.2882 141.154 20.7682C141.394 20.2282 141.644 19.6782 141.904 19.1182C142.144 18.6182 142.364 18.1282 142.564 17.6482C142.764 17.1682 142.854 16.8182 142.834 16.5982C142.834 16.3782 142.674 16.3482 142.354 16.5082C142.034 16.6482 141.484 17.0882 140.704 17.8282C140.184 18.2882 139.574 18.9682 138.874 19.8682C138.194 20.7682 137.424 22.0382 136.564 23.6782C136.464 23.8982 136.334 24.0382 136.174 24.0982C136.014 24.1382 135.764 24.1582 135.424 24.1582C135.204 24.1782 135.024 24.1882 134.884 24.1882C134.744 24.1882 134.594 24.2382 134.434 24.3382C135.154 22.8982 135.824 21.4882 136.444 20.1082C137.084 18.7282 137.774 17.3582 138.514 15.9982C138.894 15.2782 139.224 14.7782 139.504 14.4982C139.784 14.2182 140.164 14.0882 140.644 14.1082C140.844 14.1282 141.044 14.1682 141.244 14.2282C141.464 14.2682 141.684 14.2682 141.904 14.2282C141.684 14.3482 141.414 14.6082 141.094 15.0082C140.794 15.4082 140.474 15.8782 140.134 16.4182C139.814 16.9582 139.484 17.5382 139.144 18.1582C138.824 18.7582 138.534 19.3282 138.274 19.8682C138.574 19.4882 138.944 19.0482 139.384 18.5482C139.844 18.0282 140.304 17.5682 140.764 17.1682C141.124 16.8482 141.504 16.5082 141.904 16.1482C142.324 15.7682 142.724 15.4382 143.104 15.1582C143.504 14.8582 143.874 14.6282 144.214 14.4682C144.574 14.3082 144.884 14.2682 145.144 14.3482C145.424 14.4482 145.604 14.6182 145.684 14.8582C145.764 15.0982 145.734 15.3682 145.594 15.6682C145.314 16.3082 144.964 16.9882 144.544 17.7082C144.144 18.4082 143.764 19.1282 143.404 19.8682C143.704 19.4882 144.074 19.0482 144.514 18.5482C144.974 18.0282 145.434 17.5682 145.894 17.1682C146.254 16.8482 146.694 16.5082 147.214 16.1482C147.754 15.7682 148.294 15.4382 148.834 15.1582C149.374 14.8582 149.884 14.6282 150.364 14.4682C150.844 14.3082 151.204 14.2682 151.444 14.3482C150.844 15.4282 150.294 16.4582 149.794 17.4382C149.574 17.8582 149.364 18.2882 149.164 18.7282C148.964 19.1682 148.774 19.5982 148.594 20.0182C148.414 20.4182 148.254 20.7982 148.114 21.1582C147.994 21.5182 147.904 21.8282 147.844 22.0882C147.744 22.7082 147.754 23.1182 147.874 23.3182C147.994 23.4982 148.154 23.5882 148.354 23.5882C148.734 23.5882 149.134 23.3882 149.554 22.9882C149.974 22.5682 150.374 22.0782 150.754 21.5182C151.134 20.9582 151.474 20.3882 151.774 19.8082C152.074 19.2082 152.304 18.7382 152.464 18.3982C152.584 18.1382 152.714 18.0482 152.854 18.1282C153.014 18.1882 153.024 18.3682 152.884 18.6682ZM151.834 10.8682C151.674 11.1082 151.474 11.3582 151.234 11.6182C151.014 11.8582 150.754 12.0782 150.454 12.2782C150.154 12.4782 149.814 12.6382 149.434 12.7582C149.074 12.8782 148.684 12.9282 148.264 12.9082C147.864 12.8882 147.474 12.8282 147.094 12.7282C146.734 12.6282 146.374 12.5282 146.014 12.4282C145.654 12.3082 145.294 12.2082 144.934 12.1282C144.574 12.0282 144.214 11.9682 143.854 11.9482C143.394 11.9082 143.004 11.9782 142.684 12.1582C142.384 12.3182 142.144 12.5182 141.964 12.7582C141.944 12.7982 141.884 12.8282 141.784 12.8482C141.684 12.8482 141.584 12.8482 141.484 12.8482C141.384 12.8282 141.294 12.8082 141.214 12.7882C141.134 12.7682 141.094 12.7382 141.094 12.6982C141.434 12.2582 141.904 11.8282 142.504 11.4082C143.124 10.9682 143.854 10.7682 144.694 10.8082C145.074 10.8282 145.444 10.8782 145.804 10.9582C146.184 11.0382 146.554 11.1382 146.914 11.2582C147.294 11.3582 147.654 11.4582 147.994 11.5582C148.354 11.6382 148.714 11.6882 149.074 11.7082C149.574 11.7482 149.984 11.6882 150.304 11.5282C150.624 11.3482 150.894 11.1182 151.114 10.8382C151.114 10.8182 151.154 10.8082 151.234 10.8082C151.334 10.7882 151.424 10.7782 151.504 10.7782C151.604 10.7782 151.684 10.7882 151.744 10.8082C151.824 10.8282 151.854 10.8482 151.834 10.8682Z" fill="#76706C"/>
<path d="M157.019 21.3082C156.619 21.1882 156.239 21.0182 155.879 20.7982C155.539 20.5582 155.259 20.2982 155.039 20.0182C154.859 19.8182 154.739 19.6082 154.679 19.3882C154.639 19.1482 154.649 18.9282 154.709 18.7282C154.769 18.5282 154.879 18.3682 155.039 18.2482C155.199 18.1282 155.399 18.0682 155.639 18.0682C155.859 18.0682 156.059 18.1582 156.239 18.3382C156.439 18.5182 156.539 18.7182 156.539 18.9382C156.539 18.9982 156.509 19.0882 156.449 19.2082C156.409 19.3282 156.389 19.4182 156.389 19.4782C156.409 19.6582 156.489 19.8682 156.629 20.1082C156.769 20.3482 156.919 20.5282 157.079 20.6482C157.199 20.7482 157.399 20.8382 157.679 20.9182C157.979 20.9782 158.309 20.9582 158.669 20.8582C159.029 20.7382 159.399 20.4982 159.779 20.1382C160.159 19.7582 160.509 19.1782 160.829 18.3982C160.929 18.1182 161.059 18.0182 161.219 18.0982C161.379 18.1782 161.389 18.3682 161.249 18.6682C160.909 19.4082 160.559 19.9882 160.199 20.4082C159.859 20.8082 159.499 21.0882 159.119 21.2482C158.759 21.4082 158.399 21.4882 158.039 21.4882C157.679 21.4682 157.339 21.4082 157.019 21.3082ZM151.109 23.1682C150.969 22.8882 150.899 22.5582 150.899 22.1782C150.919 21.7782 151.039 21.3382 151.259 20.8582C151.499 20.3582 151.709 19.9182 151.889 19.5382C152.069 19.1382 152.249 18.7582 152.429 18.3982C152.609 18.0382 152.799 17.6682 152.999 17.2882C153.199 16.9082 153.429 16.4782 153.689 15.9982C154.069 15.2782 154.399 14.7782 154.679 14.4982C154.959 14.2182 155.339 14.0882 155.819 14.1082C156.019 14.1282 156.219 14.1682 156.419 14.2282C156.639 14.2682 156.859 14.2682 157.079 14.2282C156.859 14.3482 156.599 14.6082 156.299 15.0082C155.999 15.4082 155.679 15.8782 155.339 16.4182C155.019 16.9582 154.689 17.5382 154.349 18.1582C154.029 18.7582 153.729 19.3282 153.449 19.8682C153.209 20.3482 153.009 20.8082 152.849 21.2482C152.709 21.6682 152.619 22.0482 152.579 22.3882C152.559 22.7282 152.599 23.0082 152.699 23.2282C152.799 23.4282 152.969 23.5582 153.209 23.6182C153.349 23.6582 153.569 23.6182 153.869 23.4982C154.169 23.3782 154.459 23.1482 154.739 22.8082C155.059 22.4282 155.339 22.0182 155.579 21.5782C155.819 21.1182 155.979 20.7182 156.059 20.3782C156.219 19.7382 156.259 19.2482 156.179 18.9082C156.099 18.5682 155.779 18.4182 155.219 18.4582C155.179 18.4582 155.169 18.4382 155.189 18.3982C155.229 18.3382 155.279 18.2882 155.339 18.2482C155.419 18.1882 155.509 18.1482 155.609 18.1282C155.709 18.0882 155.819 18.0882 155.939 18.1282C156.299 18.2682 156.579 18.5782 156.779 19.0582C156.999 19.5382 157.039 20.0482 156.899 20.5882C156.719 21.3482 156.379 22.0482 155.879 22.6882C155.379 23.3282 154.779 23.8082 154.079 24.1282C153.499 24.3882 152.919 24.4182 152.339 24.2182C151.759 24.0182 151.349 23.6682 151.109 23.1682Z" fill="#76706C"/>
</g>
<defs>
<clipPath id="clip0_1_15">
<rect width="162" height="26" fill="white"/>
</clipPath>
</defs>
</svg>
