<svg width="0" height="0" class="hidden">
  <symbol xmlns="http://www.w3.org/2000/svg" viewBox="0 0 24 24" id="sc-twitter">
    <path d="M16.2364 2.56757C13.4868 2.56757 11.2508 4.80355 11.2508 7.55318C11.2508 7.71841 11.2921 7.88005 11.3083 8.04168C7.90849 7.71661 4.90204 6.07869 2.86002 3.57331C2.76483 3.45298 2.61756 3.38832 2.46311 3.3991C2.31045 3.40988 2.17396 3.49788 2.09853 3.63078C1.66929 4.36892 1.42324 5.21842 1.42324 6.13077C1.42324 7.23529 1.81836 8.24642 2.42899 9.07616C2.31045 9.02408 2.18114 8.99534 2.06979 8.93248C1.92791 8.85705 1.75729 8.86065 1.619 8.94326C1.48071 9.02587 1.3963 9.17494 1.39451 9.33478V9.39225C1.39451 11.0859 2.27094 12.5568 3.56404 13.4583C3.54967 13.4565 3.5353 13.4619 3.52094 13.4583C3.36289 13.4314 3.20305 13.4871 3.09709 13.6074C2.99112 13.7277 2.957 13.8948 3.0037 14.0474C3.51734 15.644 4.8284 16.8635 6.45196 17.3089C5.15886 18.0776 3.65922 18.5301 2.04106 18.5301C1.69084 18.5301 1.355 18.5122 1.02094 18.4727C0.805428 18.4439 0.598892 18.5697 0.527053 18.7744C0.453418 18.9791 0.534237 19.2072 0.719222 19.3204C2.79357 20.6512 5.25584 21.4324 7.9031 21.4324C12.1937 21.4324 15.5593 19.6401 17.8169 17.079C20.0744 14.518 21.2508 11.1918 21.2508 8.08479C21.2508 7.95368 21.24 7.82617 21.2364 7.69686C22.0787 7.0521 22.8312 6.296 23.4203 5.41238C23.537 5.24177 23.5245 5.01368 23.3898 4.85563C23.2569 4.69759 23.0324 4.6491 22.8456 4.7371C22.6085 4.84306 22.3319 4.85384 22.0841 4.93825C22.4109 4.50183 22.6911 4.03128 22.8599 3.50147C22.9174 3.32008 22.8546 3.12072 22.7055 3.00219C22.5564 2.88545 22.3481 2.87108 22.1847 2.96986C21.3998 3.43502 20.5306 3.76189 19.6128 3.96124C18.722 3.12791 17.5493 2.56757 16.2364 2.56757ZM16.2364 3.4871C17.4092 3.4871 18.4688 3.98818 19.2105 4.7802C19.3219 4.89514 19.4853 4.94363 19.6416 4.90951C20.2414 4.79098 20.8107 4.61677 21.3657 4.39227C21.046 4.8233 20.6509 5.19148 20.1875 5.46985C19.9774 5.57222 19.8786 5.81468 19.9559 6.03558C20.0313 6.25469 20.2612 6.38221 20.4893 6.33192C20.949 6.27624 21.3585 6.08946 21.7967 5.97273C21.4034 6.39837 20.9724 6.78271 20.5036 7.12215C20.3761 7.21554 20.3061 7.3664 20.3168 7.52444C20.324 7.71122 20.3312 7.89621 20.3312 8.08479C20.3312 10.9583 19.2285 14.0779 17.1272 16.4612C15.0259 18.8444 11.9404 20.5129 7.9031 20.5129C6.06942 20.5129 4.3381 20.107 2.77381 19.3922C4.71346 19.2431 6.50225 18.5571 7.94621 17.4238C8.09707 17.3035 8.15633 17.1024 8.09527 16.9192C8.03421 16.736 7.86539 16.6103 7.67322 16.6049C6.15742 16.5779 4.88767 15.6961 4.21059 14.4497C4.23573 14.4497 4.25728 14.4497 4.28243 14.4497C4.73681 14.4497 5.1858 14.3922 5.60426 14.2773C5.80541 14.218 5.9437 14.0312 5.93651 13.8211C5.92933 13.611 5.78027 13.4314 5.57552 13.3865C3.9394 13.056 2.71275 11.7234 2.42899 10.0675C2.89235 10.2274 3.36648 10.3531 3.88013 10.3693C4.09026 10.3818 4.28063 10.2507 4.34529 10.0514C4.40994 9.85202 4.33092 9.63291 4.15312 9.52156C3.06117 8.7906 2.34278 7.546 2.34278 6.13077C2.34278 5.60635 2.47927 5.12503 2.65887 4.66526C4.95771 7.1886 8.17609 8.86424 11.8111 9.04743C11.9548 9.05461 12.0949 8.99534 12.1883 8.88579C12.2817 8.77444 12.3176 8.62717 12.2853 8.48708C12.2152 8.18895 12.1703 7.87286 12.1703 7.55318C12.1703 5.30103 13.9843 3.4871 16.2364 3.4871Z"></path>
  </symbol>
  <symbol xmlns="http://www.w3.org/2000/svg" viewBox="0 0 24 24" id="sc-viber">
    <path d="M14.1904 0.5H9.80953C5.22101 0.5 1.4879 4.23223 1.4879 8.81988V12.7663C1.4879 16.1827 3.58725 19.2531 6.74394 20.5036V23.062C6.74394 23.2354 6.846 23.3922 7.00455 23.4623C7.0615 23.4877 7.12194 23.5 7.18195 23.5C7.28838 23.5 7.39394 23.461 7.47585 23.3866L10.0158 21.0862H14.1904C18.779 21.0862 22.5121 17.3539 22.5121 12.7663V8.81988C22.5121 4.23223 18.779 0.5 14.1904 0.5ZM21.6361 12.7663C21.6361 16.8708 18.2963 20.2102 14.1904 20.2102H9.84676C9.73813 20.2102 9.63345 20.2505 9.55286 20.3236L7.61995 22.0743V20.2001C7.61995 20.0144 7.503 19.8488 7.3278 19.7875C4.35901 18.7376 2.36391 15.916 2.36391 12.7663V8.81988C2.36391 4.71535 5.70412 1.37601 9.80953 1.37601H14.1904C18.2963 1.37601 21.6361 4.71535 21.6361 8.81988V12.7663Z"></path>
    <path d="M17.7886 13.856L15.0967 12.1075C14.8023 11.9161 14.4519 11.8513 14.109 11.9223C13.7656 11.9945 13.4704 12.1973 13.279 12.493L13.1524 12.6874C11.9873 12.3024 10.7026 11.8106 9.93349 9.58419L10.2519 9.30737C10.7985 8.83214 10.8559 8.00081 10.3807 7.4533L8.27477 5.0307C8.11621 4.84806 7.83939 4.82922 7.65675 4.98734L6.33441 6.13666C5.17458 7.14495 5.71639 8.63635 5.89466 9.12647C5.90254 9.14837 5.91218 9.1694 5.92357 9.18999C5.96956 9.27233 7.06763 11.232 8.84111 13.0383C10.6216 14.8521 13.8361 16.527 13.9346 16.5756C14.3017 16.8139 14.7147 16.9282 15.1234 16.9282C15.8408 16.9282 16.5443 16.5765 16.9639 15.9317L17.9179 14.4627C18.0493 14.259 17.9914 13.9879 17.7886 13.856ZM16.2289 15.4543C15.8343 16.0623 15.0187 16.2348 14.3748 15.8196C14.3429 15.803 11.1494 14.1399 9.46614 12.4251C7.89283 10.8224 6.84819 9.04194 6.70584 8.79359C6.35894 7.82079 6.42026 7.22291 6.90907 6.79805L7.90115 5.93606L9.71974 8.02796C9.88136 8.21368 9.86253 8.48524 9.67769 8.64598L9.14026 9.1129C9.0093 9.22678 8.95762 9.4068 9.00886 9.57236C9.92517 12.5499 11.707 13.1346 13.0078 13.5617L13.1975 13.6243C13.3871 13.6883 13.5948 13.6151 13.7034 13.4478L14.0139 12.9695C14.0779 12.8705 14.176 12.8035 14.2899 12.7794C14.4042 12.7549 14.5207 12.7777 14.6197 12.8421L16.9446 14.3519L16.2289 15.4543Z"></path>
    <path d="M12.9999 7.61624C12.7669 7.54923 12.5247 7.68457 12.4586 7.91759C12.3924 8.15017 12.5273 8.39239 12.7599 8.45852C13.4125 8.64424 13.9325 9.16502 14.1164 9.81809C14.1707 10.0108 14.3464 10.1374 14.5378 10.1374C14.5772 10.1374 14.617 10.1321 14.6569 10.1212C14.8895 10.0555 15.0253 9.81371 14.9596 9.58069C14.6937 8.63723 13.9425 7.8843 12.9999 7.61624Z"></path>
    <path d="M16.3331 10.232C16.3726 10.232 16.4124 10.2267 16.4523 10.2158C16.6853 10.1501 16.8206 9.90787 16.7549 9.67529C16.2381 7.84313 14.78 6.38195 12.9491 5.86072C12.7166 5.79371 12.4743 5.92993 12.4082 6.16251C12.3421 6.39509 12.477 6.6373 12.7095 6.70344C14.25 7.14144 15.4769 8.3718 15.9118 9.91313C15.9665 10.1058 16.1417 10.232 16.3331 10.232Z"></path>
    <path d="M12.7604 3.82094C12.5273 3.75392 12.2851 3.88927 12.219 4.12272C12.1529 4.3553 12.2878 4.59752 12.5203 4.66366C15.1304 5.40607 17.2096 7.49009 17.9463 10.1019C18.0006 10.2946 18.1763 10.4212 18.3677 10.4212C18.4071 10.4212 18.447 10.416 18.4868 10.405C18.7194 10.3393 18.8552 10.0971 18.7895 9.86451C17.9709 6.96186 15.6608 4.64658 12.7604 3.82094Z"></path>
  </symbol>
  <symbol xmlns="http://www.w3.org/2000/svg" viewBox="0 0 24 24" id="sc-whatsapp">
    <path d="M12 0.5C5.65863 0.5 0.5 5.65863 0.5 12C0.5 14.1633 1.1011 16.2634 2.24137 18.087C1.78712 19.6785 0.966635 22.6888 0.957788 22.7202C0.915327 22.8759 0.960885 23.0422 1.07721 23.1541C1.19354 23.266 1.36161 23.3058 1.51465 23.2589L6.07308 21.8568C7.85867 22.9325 9.90346 23.5 12 23.5C18.3414 23.5 23.5 18.3414 23.5 12C23.5 5.65863 18.3414 0.5 12 0.5ZM12 22.6154C10.0012 22.6154 8.05417 22.0567 6.36898 21.0005C6.29777 20.9558 6.21594 20.9333 6.13412 20.9333C6.09033 20.9333 6.04654 20.9399 6.00408 20.9527L2.02375 22.1779C2.31612 21.1107 2.84158 19.2017 3.14633 18.1397C3.18171 18.0167 3.16181 17.884 3.09237 17.7765C1.9751 16.0573 1.38462 14.0598 1.38462 12C1.38462 6.14694 6.14694 1.38462 12 1.38462C17.8531 1.38462 22.6154 6.14694 22.6154 12C22.6154 17.8531 17.8531 22.6154 12 22.6154Z"></path>
    <path d="M19.5126 14.7096C18.6961 14.2562 18.0008 13.8015 17.4935 13.4698C17.106 13.2168 16.826 13.0341 16.6208 12.9311C16.0471 12.6449 15.6123 12.847 15.4469 13.0142C15.4261 13.035 15.4075 13.0576 15.3916 13.0814C14.7958 13.9753 14.0178 14.8303 13.79 14.8763C13.5269 14.8352 12.295 14.135 11.0707 13.1155C9.82076 12.0739 9.03433 11.0765 8.91889 10.3971C9.72079 9.57173 10.0096 9.05246 10.0096 8.46154C10.0096 7.85248 8.58893 5.30965 8.33195 5.05267C8.07408 4.79525 7.49333 4.755 6.60562 4.93192C6.52026 4.94917 6.44153 4.99119 6.3796 5.05267C6.27212 5.16015 3.75716 7.72421 4.95228 10.8319C6.26416 14.2425 9.63145 18.2069 13.9245 18.8509C14.4124 18.9239 14.8697 18.9602 15.2979 18.9602C17.8234 18.9602 19.314 17.6894 19.7338 15.1687C19.7652 14.9842 19.6763 14.8002 19.5126 14.7096ZM14.0559 17.976C9.51601 17.2953 6.65649 12.7975 5.77806 10.5143C4.90672 8.24967 6.51362 6.23054 6.91701 5.77408C7.2452 5.71834 7.59064 5.6949 7.73483 5.71746C8.03605 6.13633 9.07901 8.10681 9.12501 8.46154C9.12501 8.69375 9.04937 9.01707 8.14883 9.91806C8.06568 10.0008 8.01924 10.1131 8.01924 10.2308C8.01924 12.5467 12.9041 15.7596 13.7692 15.7596C14.5216 15.7596 15.5026 14.4951 16.0613 13.671C16.0936 13.6724 16.148 13.6834 16.2254 13.7223C16.3846 13.8024 16.6606 13.9824 17.0096 14.2107C17.4705 14.5119 18.0826 14.9117 18.8054 15.3262C18.4772 16.9052 17.5598 18.5024 14.0559 17.976Z"></path>
  </symbol>
  <symbol xmlns="http://www.w3.org/2000/svg" viewBox="0 0 24 24" id="share">
    <path fill-rule="evenodd" clip-rule="evenodd" d="M13.75 17.8333C13.75 16.0384 15.205 14.5833 17 14.5833C18.795 14.5833 20.25 16.0384 20.25 17.8333C20.25 19.6283 18.795 21.0833 17 21.0833C15.205 21.0833 13.75 19.6283 13.75 17.8333ZM17 16.0833C16.0335 16.0833 15.25 16.8668 15.25 17.8333C15.25 18.7999 16.0335 19.5833 17 19.5833C17.9665 19.5833 18.75 18.7999 18.75 17.8333C18.75 16.8668 17.9665 16.0833 17 16.0833Z"></path>
    <path fill-rule="evenodd" clip-rule="evenodd" d="M13.75 6.16667C13.75 4.37175 15.205 2.91667 17 2.91667C18.795 2.91667 20.25 4.37175 20.25 6.16667C20.25 7.96158 18.795 9.41667 17 9.41667C15.205 9.41667 13.75 7.96158 13.75 6.16667ZM17 4.41667C16.0335 4.41667 15.25 5.20017 15.25 6.16667C15.25 7.13317 16.0335 7.91667 17 7.91667C17.9665 7.91667 18.75 7.13317 18.75 6.16667C18.75 5.20017 17.9665 4.41667 17 4.41667Z"></path>
    <path fill-rule="evenodd" clip-rule="evenodd" d="M3.75 12C3.75 10.205 5.20509 8.75 7 8.75C8.79491 8.75 10.25 10.205 10.25 12C10.25 13.795 8.79491 15.25 7 15.25C5.20509 15.25 3.75 13.795 3.75 12ZM7 10.25C6.0335 10.25 5.25 11.0335 5.25 12C5.25 12.9665 6.0335 13.75 7 13.75C7.9665 13.75 8.75 12.9665 8.75 12C8.75 11.0335 7.9665 10.25 7 10.25Z"></path>
    <path fill-rule="evenodd" clip-rule="evenodd" d="M8.71123 10.0988L14.5446 6.76548L15.2888 8.06785L9.45544 11.4012L8.71123 10.0988Z"></path>
    <path fill-rule="evenodd" clip-rule="evenodd" d="M14.5446 17.2345L8.71123 13.9012L9.45544 12.5988L15.2888 15.9321L14.5446 17.2345Z"></path>
  </symbol>
  <symbol xmlns="http://www.w3.org/2000/svg" viewBox="0 0 24 24" id="arrow-type-1">
    <path fill-rule="evenodd" clip-rule="evenodd" d="M15.6203 3.54967C15.3274 3.25678 14.8526 3.25678 14.5597 3.54967L8.03967 10.0697C6.97678 11.1326 6.97678 12.8674 8.03967 13.9303L14.5597 20.4503C14.8526 20.7432 15.3274 20.7432 15.6203 20.4503C15.9132 20.1574 15.9132 19.6826 15.6203 19.3897L9.10033 12.8697C8.62322 12.3926 8.62322 11.6074 9.10033 11.1303L15.6203 4.61033C15.9132 4.31744 15.9132 3.84256 15.6203 3.54967Z"></path>
  </symbol>
  <symbol xmlns="http://www.w3.org/2000/svg" viewBox="0 0 24 24" id="close">
    <path fill-rule="evenodd" clip-rule="evenodd" d="M3.82419 3.82418C4.11709 3.53129 4.59196 3.53129 4.88485 3.82418L12 10.9394L19.1151 3.82419C19.408 3.53129 19.8829 3.53129 20.1758 3.82418C20.4687 4.11707 20.4687 4.59195 20.1758 4.88484L13.0607 12L20.1758 19.1152C20.4687 19.4081 20.4687 19.8829 20.1758 20.1758C19.8829 20.4687 19.408 20.4687 19.1152 20.1758L12 13.0607L4.88485 20.1758C4.59196 20.4687 4.11708 20.4687 3.82419 20.1758C3.5313 19.8829 3.5313 19.408 3.82419 19.1152L10.9394 12L3.82419 4.88484C3.5313 4.59195 3.5313 4.11708 3.82419 3.82418Z"></path>
  </symbol>
  <symbol xmlns="http://www.w3.org/2000/svg" viewBox="0 0 280 280" id="quote">
    <path fill-rule="evenodd" clip-rule="evenodd" d="M109.978 226.824C66.0491 198.612 41.6449 165.776 36.7649 128.316C29.1679 70 81.319 41.4557 107.743 67.1026C134.168 92.7488 118.328 125.302 99.1941 134.2C80.0602 143.099 68.3591 140 70.4002 151.891C72.4413 163.782 99.6631 196.751 123.579 212.105C125.165 213.454 125.769 216.072 124.241 218.058C123.236 219.364 121.265 221.926 118.328 225.743C115.76 229.082 113.299 228.957 109.978 226.824Z"></path>
    <path fill-rule="evenodd" clip-rule="evenodd" d="M225.627 226.824C181.699 198.612 157.295 165.776 152.415 128.316C144.818 70 196.969 41.4557 223.393 67.1026C249.818 92.7488 233.978 125.302 214.844 134.2C195.71 143.099 184.008 140 186.05 151.891C188.091 163.782 215.313 196.751 239.229 212.105C240.815 213.454 241.419 216.072 239.891 218.058C238.886 219.364 236.915 221.926 233.978 225.743C231.41 229.082 228.949 228.957 225.627 226.824Z"></path>
  </symbol>
  <symbol xmlns="http://www.w3.org/2000/svg" viewBox="0 0 24 24" id="sc-facebook">
    <path fill-rule="evenodd" clip-rule="evenodd" d="M9.93418 2.93413C11.0125 1.85578 12.475 1.25 14 1.25H17C17.4142 1.25 17.75 1.58579 17.75 2V6C17.75 6.41421 17.4142 6.75 17 6.75H14M9.93418 2.93413C9.93417 2.93414 9.93416 2.93415 9.93414 2.93417C8.85578 4.0125 8.25 5.47502 8.25 7V9.25H6C5.58579 9.25 5.25 9.58579 5.25 10V14C5.25 14.4142 5.58579 14.75 6 14.75H8.25V22C8.25 22.4142 8.58579 22.75 9 22.75H13C13.4142 22.75 13.75 22.4142 13.75 22V14.75H16C16.3442 14.75 16.6441 14.5158 16.7276 14.1819L17.7276 10.1819C17.7836 9.95785 17.7333 9.72048 17.5912 9.53844C17.449 9.3564 17.231 9.25 17 9.25H13.75V7C13.75 6.93378 13.7763 6.87014 13.8233 6.82318M14 2.75C12.8728 2.75 11.7918 3.19777 10.9949 3.99477L10.9948 3.99481C10.1978 4.79183 9.75 5.87283 9.75 7V10C9.75 10.4142 9.41421 10.75 9 10.75H6.75V13.25H9C9.41421 13.25 9.75 13.5858 9.75 14V21.25H12.25V14C12.25 13.5858 12.5858 13.25 13 13.25H15.4144L16.0394 10.75H13C12.5858 10.75 12.25 10.4142 12.25 10V7C12.25 6.53579 12.4345 6.09073 12.7625 5.76262L12.7625 5.7626C13.0907 5.43435 13.5359 5.25 14 5.25H16.25V2.75H14Z"></path>
  </symbol>
  <symbol xmlns="http://www.w3.org/2000/svg" viewBox="0 0 24 24" id="sc-instagram">
    <path fill-rule="evenodd" clip-rule="evenodd" d="M7.25 12C7.25 9.37665 9.37665 7.25 12 7.25C14.6233 7.25 16.75 9.37664 16.75 12C16.75 14.6233 14.6233 16.75 12 16.75C9.37664 16.75 7.25 14.6233 7.25 12ZM12 8.75C10.2051 8.75 8.75 10.2051 8.75 12C8.75 13.7949 10.2051 15.25 12 15.25C13.7949 15.25 15.25 13.7949 15.25 12C15.25 10.2051 13.7949 8.75 12 8.75Z"></path>
    <path fill-rule="evenodd" clip-rule="evenodd" d="M8 3.75C5.65279 3.75 3.75 5.65279 3.75 8V16C3.75 18.3472 5.6528 20.25 8 20.25H16C18.3472 20.25 20.25 18.3472 20.25 16V8C20.25 5.6528 18.3472 3.75 16 3.75H8ZM2.25 8C2.25 4.82437 4.82437 2.25 8 2.25H16C19.1756 2.25 21.75 4.82436 21.75 8V16C21.75 19.1756 19.1756 21.75 16 21.75H8C4.82436 21.75 2.25 19.1756 2.25 16V8Z"></path>
    <path fill-rule="evenodd" clip-rule="evenodd" d="M18.0118 5.94145C18.3196 6.21855 18.3446 6.69277 18.0675 7.00064L18.0575 7.01175C17.7803 7.31962 17.3061 7.34456 16.9983 7.06745C16.6904 6.79034 16.6655 6.31612 16.9426 6.00825L16.9526 5.99714C17.2297 5.68927 17.7039 5.66434 18.0118 5.94145Z"></path>
  </symbol>
  <symbol xmlns="http://www.w3.org/2000/svg" viewBox="0 0 24 24" id="sc-telegram">
    <path fill-rule="evenodd" clip-rule="evenodd" d="M21.4734 4.41814C21.3925 4.35218 21.2969 4.30239 21.1907 4.27461C21.104 4.25172 21.0127 4.24423 20.9211 4.25398C20.891 4.25714 20.8613 4.26212 20.8322 4.26881C20.7909 4.27828 20.75 4.29135 20.7102 4.30809L1.72463 11.8024C1.40814 11.9273 1.2154 12.2496 1.25513 12.5876C1.29486 12.9255 1.5571 13.1943 1.89394 13.2425L8.25 14.1505V19C8.25 19.3039 8.43344 19.5778 8.71449 19.6935C8.99555 19.8092 9.31864 19.7439 9.53263 19.528L12.3413 16.6949L18.0765 20.619C18.2879 20.7636 18.5584 20.7904 18.794 20.69C19.0296 20.5896 19.1977 20.3759 19.2398 20.1233L21.7378 5.1354C21.7507 5.06566 21.7537 4.99364 21.7461 4.92143C21.7429 4.89122 21.7379 4.86144 21.7312 4.83221C21.7163 4.76728 21.6926 4.70358 21.6596 4.64292C21.6178 4.56539 21.5636 4.49769 21.5006 4.44133C21.4167 4.36602 21.3185 4.31216 21.2139 4.28113M15.498 7.97816L4.90913 12.158L8.8103 12.7153L15.498 7.97816ZM8.28331 13.2783C8.31088 13.1891 8.35466 13.107 8.4112 13.0354C8.42827 13.0137 8.44633 12.9932 8.46528 12.9739M8.28331 13.2783C8.26022 13.3528 8.24928 13.4297 8.24996 13.506C8.24997 13.5074 8.24998 13.5088 8.25 13.5102M9.75 14.9219V17.1782L11.0828 15.8338L9.75 14.9219ZM12.6818 15.1103C12.6751 15.1056 12.6683 15.101 12.6615 15.0965L10.3126 13.4893L19.9642 6.65279L17.9534 18.7173L12.6818 15.1103ZM9.43611 12.8896C9.39356 12.8592 9.34754 12.833 9.29857 12.8118C9.27363 12.801 9.24798 12.7914 9.22172 12.7833C9.17872 12.77 9.13496 12.7607 9.09097 12.7554"></path>
  </symbol>
</svg>